<svg width="1728" height="993" viewBox="0 0 1728 993" fill="none" xmlns="http://www.w3.org/2000/svg">
<path d="M-97.6338 399.707L56.6777 311.839C133.674 267.996 228.641 270.506 303.213 318.356L306.072 320.191C381.756 368.754 478.639 369.398 554.962 321.844L569.986 312.484C640.032 268.84 729.362 271.203 797.004 318.488V318.488C866.981 367.405 959.877 368.099 1030.58 320.233L1036.86 315.977C1105.13 269.757 1193.69 266.197 1265.45 306.79L1322.55 339.091C1386.97 375.53 1467.26 368.058 1523.84 320.358V320.358C1580.71 272.419 1661.48 265.135 1726.01 302.123L1896.24 399.707" stroke="#14112C" stroke-opacity="0.1" stroke-width="1.5"/>
<path d="M-97.6338 1.54343L56.6777 -86.3245C133.674 -130.168 228.641 -127.657 303.213 -79.8072L306.072 -77.9727C381.756 -29.409 478.639 -28.7654 554.962 -76.3192L569.986 -85.6797C640.032 -129.323 729.362 -126.96 797.004 -79.6758V-79.6758C866.981 -30.7589 959.877 -30.0648 1030.58 -77.9307L1036.86 -82.1862C1105.13 -128.406 1193.69 -131.966 1265.45 -91.3739L1322.55 -59.0725C1386.97 -22.6336 1467.26 -30.1055 1523.84 -77.8058V-77.8058C1580.71 -125.744 1661.48 -133.029 1726.01 -96.04L1896.24 1.54343" stroke="#14112C" stroke-opacity="0.1" stroke-width="1.5"/>
<path d="M-97.6338 598.789L56.6777 510.921C133.674 467.078 228.641 469.589 303.213 517.439L306.072 519.273C381.756 567.837 478.639 568.48 554.962 520.927L569.986 511.566C640.032 467.923 729.362 470.285 797.004 517.57V517.57C866.981 566.487 959.877 567.181 1030.58 519.315L1036.86 515.06C1105.13 468.839 1193.69 465.28 1265.45 505.872L1322.55 538.173C1386.97 574.612 1467.26 567.14 1523.84 519.44V519.44C1580.71 471.502 1661.48 464.217 1726.01 501.206L1896.24 598.789" stroke="#14112C" stroke-opacity="0.1" stroke-width="1.5"/>
<path d="M-97.6338 200.624L56.6777 112.757C133.674 68.9135 228.641 71.424 303.213 119.274L306.072 121.108C381.756 169.672 478.639 170.316 554.962 122.762L569.986 113.401C640.032 69.7581 729.362 72.1206 797.004 119.405V119.405C866.981 168.322 959.877 169.016 1030.58 121.15L1036.86 116.895C1105.13 70.6746 1193.69 67.1151 1265.45 107.707L1322.55 140.009C1386.97 176.447 1467.26 168.976 1523.84 121.275V121.275C1580.71 73.337 1661.48 66.0522 1726.01 103.041L1896.24 200.624" stroke="#14112C" stroke-opacity="0.1" stroke-width="1.5"/>
<path d="M-97.6338 797.872L56.6777 710.004C133.674 666.161 228.641 668.671 303.213 716.521L306.072 718.356C381.756 766.919 478.639 767.563 554.962 720.009L569.986 710.649C640.032 667.005 729.362 669.368 797.004 716.653V716.653C866.981 765.569 959.877 766.264 1030.58 718.398L1036.86 714.142C1105.13 667.922 1193.69 664.362 1265.45 704.954L1322.55 737.256C1386.97 773.695 1467.26 766.223 1523.84 718.523V718.523C1580.71 670.584 1661.48 663.299 1726.01 700.288L1896.24 797.872" stroke="#14112C" stroke-opacity="0.1" stroke-width="1.5"/>
<path d="M-97.6338 449.478L56.6777 361.61C133.674 317.767 228.641 320.277 303.213 368.127L306.072 369.961C381.756 418.525 478.639 419.169 554.962 371.615L569.986 362.254C640.032 318.611 729.362 320.974 797.004 368.258V368.258C866.981 417.175 959.877 417.869 1030.58 370.003L1036.86 365.748C1105.13 319.528 1193.69 315.968 1265.45 356.56L1322.55 388.862C1386.97 425.301 1467.26 417.829 1523.84 370.128V370.128C1580.71 322.19 1661.48 314.905 1726.01 351.894L1896.24 449.478" stroke="#14112C" stroke-opacity="0.1" stroke-width="1.5"/>
<path d="M-97.6338 51.3137L56.6777 -36.5543C133.674 -80.3973 228.641 -77.8868 303.213 -30.037L306.072 -28.2024C381.756 20.3612 478.639 21.0049 554.962 -26.549L569.986 -35.9094C640.032 -79.5527 729.362 -77.1902 797.004 -29.9056V-29.9056C866.981 19.0113 959.877 19.7054 1030.58 -28.1604L1036.86 -32.4159C1105.13 -78.6362 1193.69 -82.1957 1265.45 -41.6037L1322.55 -9.30223C1386.97 27.1367 1467.26 19.6648 1523.84 -28.0355V-28.0355C1580.71 -75.9738 1661.48 -83.2586 1726.01 -46.2698L1896.24 51.3137" stroke="#14112C" stroke-opacity="0.1" stroke-width="1.5"/>
<path d="M-97.6338 648.56L56.6777 560.692C133.674 516.849 228.641 519.359 303.213 567.209L306.072 569.044C381.756 617.608 478.639 618.251 554.962 570.697L569.986 561.337C640.032 517.694 729.362 520.056 797.004 567.341V567.341C866.981 616.258 959.877 616.952 1030.58 569.086L1036.86 564.83C1105.13 518.61 1193.69 515.051 1265.45 555.643L1322.55 587.944C1386.97 624.383 1467.26 616.911 1523.84 569.211V569.211C1580.71 521.272 1661.48 513.988 1726.01 550.977L1896.24 648.56" stroke="#14112C" stroke-opacity="0.1" stroke-width="1.5"/>
<path d="M-97.6338 250.395L56.6777 162.527C133.674 118.684 228.641 121.195 303.213 169.044L306.072 170.879C381.756 219.443 478.639 220.086 554.962 172.532L569.986 163.172C640.032 119.529 729.362 121.891 797.004 169.176V169.176C866.981 218.093 959.877 218.787 1030.58 170.921L1036.86 166.665C1105.13 120.445 1193.69 116.886 1265.45 157.478L1322.55 189.779C1386.97 226.218 1467.26 218.746 1523.84 171.046V171.046C1580.71 123.108 1661.48 115.823 1726.01 152.812L1896.24 250.395" stroke="#14112C" stroke-opacity="0.1" stroke-width="1.5"/>
<path d="M-97.6338 847.642L56.6777 759.774C133.674 715.931 228.641 718.442 303.213 766.292L306.072 768.126C381.756 816.69 478.639 817.333 554.962 769.78L569.986 760.419C640.032 716.776 729.362 719.138 797.004 766.423V766.423C866.981 815.34 959.877 816.034 1030.58 768.168L1036.86 763.913C1105.13 717.692 1193.69 714.133 1265.45 754.725L1322.55 787.026C1386.97 823.465 1467.26 815.993 1523.84 768.293V768.293C1580.71 720.355 1661.48 713.07 1726.01 750.059L1896.24 847.642" stroke="#14112C" stroke-opacity="0.1" stroke-width="1.5"/>
<path d="M-97.6338 499.248L56.6777 411.38C133.674 367.537 228.641 370.048 303.213 417.897L306.072 419.732C381.756 468.296 478.639 468.939 554.962 421.385L569.986 412.025C640.032 368.382 729.362 370.744 797.004 418.029V418.029C866.981 466.946 959.877 467.64 1030.58 419.774L1036.86 415.519C1105.13 369.298 1193.69 365.739 1265.45 406.331L1322.55 438.632C1386.97 475.071 1467.26 467.599 1523.84 419.899V419.899C1580.71 371.961 1661.48 364.676 1726.01 401.665L1896.24 499.248" stroke="#14112C" stroke-opacity="0.1" stroke-width="1.5"/>
<path d="M-97.6338 101.084L56.6777 13.216C133.674 -30.627 228.641 -28.1165 303.213 19.7333L306.072 21.5679C381.756 70.1315 478.639 70.7751 554.962 23.2213L569.986 13.8608C640.032 -29.7824 729.362 -27.4199 797.004 19.8647V19.8647C866.981 68.7816 959.877 69.4757 1030.58 21.6099L1036.86 17.3543C1105.13 -28.8659 1193.69 -32.4255 1265.45 8.16658L1322.55 40.468C1386.97 76.907 1467.26 69.435 1523.84 21.7348V21.7348C1580.71 -26.2036 1661.48 -33.4884 1726.01 3.50051L1896.24 101.084" stroke="#14112C" stroke-opacity="0.1" stroke-width="1.5"/>
<path d="M-97.6338 698.331L56.6777 610.463C133.674 566.62 228.641 569.13 303.213 616.98L306.072 618.815C381.756 667.378 478.639 668.022 554.962 620.468L569.986 611.107C640.032 567.464 729.362 569.827 797.004 617.111V617.111C866.981 666.028 959.877 666.722 1030.58 618.857L1036.86 614.601C1105.13 568.381 1193.69 564.821 1265.45 605.413L1322.55 637.715C1386.97 674.154 1467.26 666.682 1523.84 618.981V618.981C1580.71 571.043 1661.48 563.758 1726.01 600.747L1896.24 698.331" stroke="#14112C" stroke-opacity="0.1" stroke-width="1.5"/>
<path d="M-97.6338 300.166L56.6777 212.298C133.674 168.455 228.641 170.965 303.213 218.815L306.072 220.65C381.756 269.213 478.639 269.857 554.962 222.303L569.986 212.943C640.032 169.299 729.362 171.662 797.004 218.946V218.946C866.981 267.863 959.877 268.557 1030.58 220.692L1036.86 216.436C1105.13 170.216 1193.69 166.656 1265.45 207.248L1322.55 239.55C1386.97 275.989 1467.26 268.517 1523.84 220.816V220.816C1580.71 172.878 1661.48 165.593 1726.01 202.582L1896.24 300.166" stroke="#14112C" stroke-opacity="0.1" stroke-width="1.5"/>
<path d="M-97.6338 897.413L56.6777 809.545C133.674 765.702 228.641 768.212 303.213 816.062L306.072 817.897C381.756 866.46 478.639 867.104 554.962 819.55L569.986 810.19C640.032 766.546 729.362 768.909 797.004 816.194V816.194C866.981 865.11 959.877 865.805 1030.58 817.939L1036.86 813.683C1105.13 767.463 1193.69 763.903 1265.45 804.495L1322.55 836.797C1386.97 873.236 1467.26 865.764 1523.84 818.064V818.064C1580.71 770.125 1661.48 762.84 1726.01 799.829L1896.24 897.413" stroke="#14112C" stroke-opacity="0.1" stroke-width="1.5"/>
<path d="M-97.6338 549.019L56.6777 461.151C133.674 417.308 228.641 419.818 303.213 467.668L306.072 469.503C381.756 518.066 478.639 518.71 554.962 471.156L569.986 461.796C640.032 418.152 729.362 420.515 797.004 467.799V467.799C866.981 516.716 959.877 517.41 1030.58 469.545L1036.86 465.289C1105.13 419.069 1193.69 415.509 1265.45 456.101L1322.55 488.403C1386.97 524.842 1467.26 517.37 1523.84 469.67V469.67C1580.71 421.731 1661.48 414.446 1726.01 451.435L1896.24 549.019" stroke="#14112C" stroke-opacity="0.1" stroke-width="1.5"/>
<path d="M-97.6338 150.854L56.6777 62.9862C133.674 19.1432 228.641 21.6537 303.213 69.5036L306.072 71.3381C381.756 119.902 478.639 120.545 554.962 72.9916L569.986 63.6311C640.032 19.9878 729.362 22.3503 797.004 69.6349V69.6349C866.981 118.552 959.877 119.246 1030.58 71.3801L1036.86 67.1246C1105.13 20.9043 1193.69 17.3448 1265.45 57.9368L1322.55 90.2383C1386.97 126.677 1467.26 119.205 1523.84 71.505V71.505C1580.71 23.5667 1661.48 16.2819 1726.01 53.2708L1896.24 150.854" stroke="#14112C" stroke-opacity="0.1" stroke-width="1.5"/>
<path d="M-97.6338 748.101L56.6777 660.233C133.674 616.39 228.641 618.901 303.213 666.751L306.072 668.585C381.756 717.149 478.639 717.792 554.962 670.239L569.986 660.878C640.032 617.235 729.362 619.597 797.004 666.882V666.882C866.981 715.799 959.877 716.493 1030.58 668.627L1036.86 664.372C1105.13 618.151 1193.69 614.592 1265.45 655.184L1322.55 687.485C1386.97 723.924 1467.26 716.452 1523.84 668.752V668.752C1580.71 620.814 1661.48 613.529 1726.01 650.518L1896.24 748.101" stroke="#14112C" stroke-opacity="0.1" stroke-width="1.5"/>
<path d="M-97.6338 349.936L56.6777 262.068C133.674 218.225 228.641 220.736 303.213 268.586L306.072 270.42C381.756 318.984 478.639 319.627 554.962 272.074L569.986 262.713C640.032 219.07 729.362 221.432 797.004 268.717V268.717C866.981 317.634 959.877 318.328 1030.58 270.462L1036.86 266.207C1105.13 219.986 1193.69 216.427 1265.45 257.019L1322.55 289.32C1386.97 325.759 1467.26 318.287 1523.84 270.587V270.587C1580.71 222.649 1661.48 215.364 1726.01 252.353L1896.24 349.936" stroke="#14112C" stroke-opacity="0.1" stroke-width="1.5"/>
<path d="M-97.6338 947.184L56.6777 859.316C133.674 815.473 228.641 817.983 303.213 865.833L306.072 867.667C381.756 916.231 478.639 916.875 554.962 869.321L569.986 859.96C640.032 816.317 729.362 818.68 797.004 865.964V865.964C866.981 914.881 959.877 915.575 1030.58 867.709L1036.86 863.454C1105.13 817.234 1193.69 813.674 1265.45 854.266L1322.55 886.568C1386.97 923.007 1467.26 915.535 1523.84 867.834V867.834C1580.71 819.896 1661.48 812.611 1726.01 849.6L1896.24 947.184" stroke="#14112C" stroke-opacity="0.1" stroke-width="1.5"/>
<path d="M-97.6338 409.661L56.6777 321.793C133.674 277.95 228.641 280.461 303.213 328.31L306.072 330.145C381.756 378.709 478.639 379.352 554.962 331.798L569.986 322.438C640.032 278.795 729.362 281.157 797.004 328.442V328.442C866.981 377.359 959.877 378.053 1030.58 330.187L1036.86 325.931C1105.13 279.711 1193.69 276.152 1265.45 316.744L1322.55 349.045C1386.97 385.484 1467.26 378.012 1523.84 330.312V330.312C1580.71 282.374 1661.48 275.089 1726.01 312.078L1896.24 409.661" stroke="#14112C" stroke-opacity="0.1" stroke-width="1.5"/>
<path d="M-97.6338 11.4975L56.6777 -76.3705C133.674 -120.214 228.641 -117.703 303.213 -69.8532L306.072 -68.0186C381.756 -19.455 478.639 -18.8113 554.962 -66.3652L569.986 -75.7256C640.032 -119.369 729.362 -117.006 797.004 -69.7218V-69.7218C866.981 -20.8049 959.877 -20.1108 1030.58 -67.9766L1036.86 -72.2321C1105.13 -118.452 1193.69 -122.012 1265.45 -81.4199L1322.55 -49.1184C1386.97 -12.6795 1467.26 -20.1514 1523.84 -67.8517V-67.8517C1580.71 -115.79 1661.48 -123.075 1726.01 -86.086L1896.24 11.4975" stroke="#14112C" stroke-opacity="0.1" stroke-width="1.5"/>
<path d="M-97.6338 608.743L56.6777 520.875C133.674 477.032 228.641 479.543 303.213 527.393L306.072 529.227C381.756 577.791 478.639 578.435 554.962 530.881L569.986 521.52C640.032 477.877 729.362 480.239 797.004 527.524V527.524C866.981 576.441 959.877 577.135 1030.58 529.269L1036.86 525.014C1105.13 478.793 1193.69 475.234 1265.45 515.826L1322.55 548.127C1386.97 584.566 1467.26 577.094 1523.84 529.394V529.394C1580.71 481.456 1661.48 474.171 1726.01 511.16L1896.24 608.743" stroke="#14112C" stroke-opacity="0.1" stroke-width="1.5"/>
<path d="M-97.6338 210.579L56.6777 122.711C133.674 78.8676 228.641 81.3781 303.213 129.228L306.072 131.063C381.756 179.626 478.639 180.27 554.962 132.716L569.986 123.355C640.032 79.7122 729.362 82.0747 797.004 129.359V129.359C866.981 178.276 959.877 178.97 1030.58 131.104L1036.86 126.849C1105.13 80.6287 1193.69 77.0692 1265.45 117.661L1322.55 149.963C1386.97 186.402 1467.26 178.93 1523.84 131.229V131.229C1580.71 83.2911 1661.48 76.0063 1726.01 112.995L1896.24 210.579" stroke="#14112C" stroke-opacity="0.1" stroke-width="1.5"/>
<path d="M-97.6338 807.826L56.6777 719.958C133.674 676.115 228.641 678.625 303.213 726.475L306.072 728.31C381.756 776.873 478.639 777.517 554.962 729.963L569.986 720.603C640.032 676.96 729.362 679.322 797.004 726.607V726.607C866.981 775.524 959.877 776.218 1030.58 728.352L1036.86 724.096C1105.13 677.876 1193.69 674.316 1265.45 714.909L1322.55 747.21C1386.97 783.649 1467.26 776.177 1523.84 728.477V728.477C1580.71 680.538 1661.48 673.254 1726.01 710.242L1896.24 807.826" stroke="#14112C" stroke-opacity="0.1" stroke-width="1.5"/>
<path d="M-97.6338 459.432L56.6777 371.564C133.674 327.721 228.641 330.231 303.213 378.081L306.072 379.916C381.756 428.479 478.639 429.123 554.962 381.569L569.986 372.209C640.032 328.565 729.362 330.928 797.004 378.212V378.212C866.981 427.129 959.877 427.823 1030.58 379.958L1036.86 375.702C1105.13 329.482 1193.69 325.922 1265.45 366.514L1322.55 398.816C1386.97 435.255 1467.26 427.783 1523.84 380.082V380.082C1580.71 332.144 1661.48 324.859 1726.01 361.848L1896.24 459.432" stroke="#14112C" stroke-opacity="0.1" stroke-width="1.5"/>
<path d="M-97.6338 61.2677L56.6777 -26.6002C133.674 -70.4433 228.641 -67.9328 303.213 -20.0829L306.072 -18.2483C381.756 30.3153 478.639 30.9589 554.962 -16.5949L569.986 -25.9554C640.032 -69.5987 729.362 -67.2362 797.004 -19.9515V-19.9515C866.981 28.9654 959.877 29.6595 1030.58 -18.2064L1036.86 -22.4619C1105.13 -68.6822 1193.69 -72.2417 1265.45 -31.6496L1322.55 0.651825C1386.97 37.0907 1467.26 29.6188 1523.84 -18.0815V-18.0815C1580.71 -66.0198 1661.48 -73.3046 1726.01 -36.3157L1896.24 61.2677" stroke="#14112C" stroke-opacity="0.1" stroke-width="1.5"/>
<path d="M-97.6338 658.514L56.6777 570.646C133.674 526.803 228.641 529.314 303.213 577.163L306.072 578.998C381.756 627.562 478.639 628.205 554.962 580.651L569.986 571.291C640.032 527.648 729.362 530.01 797.004 577.295V577.295C866.981 626.212 959.877 626.906 1030.58 579.04L1036.86 574.784C1105.13 528.564 1193.69 525.005 1265.45 565.597L1322.55 597.898C1386.97 634.337 1467.26 626.865 1523.84 579.165V579.165C1580.71 531.227 1661.48 523.942 1726.01 560.931L1896.24 658.514" stroke="#14112C" stroke-opacity="0.1" stroke-width="1.5"/>
<path d="M-97.6338 260.349L56.6777 172.481C133.674 128.638 228.641 131.149 303.213 178.999L306.072 180.833C381.756 229.397 478.639 230.04 554.962 182.487L569.986 173.126C640.032 129.483 729.362 131.845 797.004 179.13V179.13C866.981 228.047 959.877 228.741 1030.58 180.875L1036.86 176.62C1105.13 130.399 1193.69 126.84 1265.45 167.432L1322.55 199.733C1386.97 236.172 1467.26 228.7 1523.84 181V181C1580.71 133.062 1661.48 125.777 1726.01 162.766L1896.24 260.349" stroke="#14112C" stroke-opacity="0.1" stroke-width="1.5"/>
<path d="M-97.6338 857.596L56.6777 769.728C133.674 725.885 228.641 728.396 303.213 776.246L306.072 778.08C381.756 826.644 478.639 827.288 554.962 779.734L569.986 770.373C640.032 726.73 729.362 729.093 797.004 776.377V776.377C866.981 825.294 959.877 825.988 1030.58 778.122L1036.86 773.867C1105.13 727.647 1193.69 724.087 1265.45 764.679L1322.55 796.98C1386.97 833.419 1467.26 825.947 1523.84 778.247V778.247C1580.71 730.309 1661.48 723.024 1726.01 760.013L1896.24 857.596" stroke="#14112C" stroke-opacity="0.1" stroke-width="1.5"/>
<path d="M-97.6338 509.202L56.6777 421.334C133.674 377.491 228.641 380.002 303.213 427.852L306.072 429.686C381.756 478.25 478.639 478.893 554.962 431.34L569.986 421.979C640.032 378.336 729.362 380.698 797.004 427.983V427.983C866.981 476.9 959.877 477.594 1030.58 429.728L1036.86 425.473C1105.13 379.252 1193.69 375.693 1265.45 416.285L1322.55 448.586C1386.97 485.025 1467.26 477.553 1523.84 429.853V429.853C1580.71 381.915 1661.48 374.63 1726.01 411.619L1896.24 509.202" stroke="#14112C" stroke-opacity="0.1" stroke-width="1.5"/>
<path d="M-97.6338 111.038L56.6777 23.17C133.674 -20.673 228.641 -18.1625 303.213 29.6873L306.072 31.5219C381.756 80.0855 478.639 80.7292 554.962 33.1753L569.986 23.8149C640.032 -19.8284 729.362 -17.4659 797.004 29.8187V29.8187C866.981 78.7357 959.877 79.4297 1030.58 31.5639L1036.86 27.3084C1105.13 -18.9119 1193.69 -22.4714 1265.45 18.1206L1322.55 50.4221C1386.97 86.861 1467.26 79.3891 1523.84 31.6888V31.6888C1580.71 -16.2495 1661.48 -23.5343 1726.01 13.4546L1896.24 111.038" stroke="#14112C" stroke-opacity="0.1" stroke-width="1.5"/>
<path d="M-97.6338 708.285L56.6777 620.417C133.674 576.574 228.641 579.084 303.213 626.934L306.072 628.769C381.756 677.332 478.639 677.976 554.962 630.422L569.986 621.062C640.032 577.418 729.362 579.781 797.004 627.065V627.065C866.981 675.982 959.877 676.676 1030.58 628.811L1036.86 624.555C1105.13 578.335 1193.69 574.775 1265.45 615.367L1322.55 647.669C1386.97 684.108 1467.26 676.636 1523.84 628.936V628.936C1580.71 580.997 1661.48 573.712 1726.01 610.701L1896.24 708.285" stroke="#14112C" stroke-opacity="0.1" stroke-width="1.5"/>
<path d="M-97.6338 310.12L56.6777 222.252C133.674 178.409 228.641 180.919 303.213 228.769L306.072 230.604C381.756 279.167 478.639 279.811 554.962 232.257L569.986 222.897C640.032 179.253 729.362 181.616 797.004 228.901V228.901C866.981 277.817 959.877 278.512 1030.58 230.646L1036.86 226.39C1105.13 180.17 1193.69 176.61 1265.45 217.202L1322.55 249.504C1386.97 285.943 1467.26 278.471 1523.84 230.771V230.771C1580.71 182.832 1661.48 175.548 1726.01 212.536L1896.24 310.12" stroke="#14112C" stroke-opacity="0.1" stroke-width="1.5"/>
<path d="M-97.6338 907.367L56.6777 819.499C133.674 775.656 228.641 778.167 303.213 826.016L306.072 827.851C381.756 876.415 478.639 877.058 554.962 829.505L569.986 820.144C640.032 776.501 729.362 778.863 797.004 826.148V826.148C866.981 875.065 959.877 875.759 1030.58 827.893L1036.86 823.638C1105.13 777.417 1193.69 773.858 1265.45 814.45L1322.55 846.751C1386.97 883.19 1467.26 875.718 1523.84 828.018V828.018C1580.71 780.08 1661.48 772.795 1726.01 809.784L1896.24 907.367" stroke="#14112C" stroke-opacity="0.1" stroke-width="1.5"/>
<path d="M-97.6338 558.973L56.6777 471.105C133.674 427.262 228.641 429.772 303.213 477.622L306.072 479.457C381.756 528.02 478.639 528.664 554.962 481.11L569.986 471.75C640.032 428.106 729.362 430.469 797.004 477.754V477.754C866.981 526.67 959.877 527.365 1030.58 479.499L1036.86 475.243C1105.13 429.023 1193.69 425.463 1265.45 466.055L1322.55 498.357C1386.97 534.796 1467.26 527.324 1523.84 479.624V479.624C1580.71 431.685 1661.48 424.4 1726.01 461.389L1896.24 558.973" stroke="#14112C" stroke-opacity="0.1" stroke-width="1.5"/>
<path d="M-97.6338 160.808L56.6777 72.9403C133.674 29.0973 228.641 31.6078 303.213 79.4576L306.072 81.2922C381.756 129.856 478.639 130.499 554.962 82.9456L569.986 73.5852C640.032 29.9419 729.362 32.3044 797.004 79.589V79.589C866.981 128.506 959.877 129.2 1030.58 81.3342L1036.86 77.0787C1105.13 30.8584 1193.69 27.2989 1265.45 67.8909L1322.55 100.192C1386.97 136.631 1467.26 129.159 1523.84 81.4591V81.4591C1580.71 33.5208 1661.48 26.236 1726.01 63.2248L1896.24 160.808" stroke="#14112C" stroke-opacity="0.1" stroke-width="1.5"/>
<path d="M-97.6338 758.055L56.6777 670.187C133.674 626.344 228.641 628.855 303.213 676.705L306.072 678.539C381.756 727.103 478.639 727.746 554.962 680.193L569.986 670.832C640.032 627.189 729.362 629.551 797.004 676.836V676.836C866.981 725.753 959.877 726.447 1030.58 678.581L1036.86 674.326C1105.13 628.105 1193.69 624.546 1265.45 665.138L1322.55 697.439C1386.97 733.878 1467.26 726.406 1523.84 678.706V678.706C1580.71 630.768 1661.48 623.483 1726.01 660.472L1896.24 758.055" stroke="#14112C" stroke-opacity="0.1" stroke-width="1.5"/>
<path d="M-97.6338 359.89L56.6777 272.022C133.674 228.179 228.641 230.69 303.213 278.54L306.072 280.374C381.756 328.938 478.639 329.582 554.962 282.028L569.986 272.667C640.032 229.024 729.362 231.387 797.004 278.671V278.671C866.981 327.588 959.877 328.282 1030.58 280.416L1036.86 276.161C1105.13 229.941 1193.69 226.381 1265.45 266.973L1322.55 299.275C1386.97 335.713 1467.26 328.241 1523.84 280.541V280.541C1580.71 232.603 1661.48 225.318 1726.01 262.307L1896.24 359.89" stroke="#14112C" stroke-opacity="0.1" stroke-width="1.5"/>
<path d="M-97.6338 957.138L56.6777 869.27C133.674 825.427 228.641 827.937 303.213 875.787L306.072 877.622C381.756 926.185 478.639 926.829 554.962 879.275L569.986 869.915C640.032 826.271 729.362 828.634 797.004 875.918V875.918C866.981 924.835 959.877 925.529 1030.58 877.664L1036.86 873.408C1105.13 827.188 1193.69 823.628 1265.45 864.22L1322.55 896.522C1386.97 932.961 1467.26 925.489 1523.84 877.788V877.788C1580.71 829.85 1661.48 822.565 1726.01 859.554L1896.24 957.138" stroke="#14112C" stroke-opacity="0.1" stroke-width="1.5"/>
<path d="M-97.6338 419.615L56.6777 331.747C133.674 287.904 228.641 290.415 303.213 338.264L306.072 340.099C381.756 388.663 478.639 389.306 554.962 341.752L569.986 332.392C640.032 288.749 729.362 291.111 797.004 338.396V338.396C866.981 387.313 959.877 388.007 1030.58 340.141L1036.86 335.886C1105.13 289.665 1193.69 286.106 1265.45 326.698L1322.55 358.999C1386.97 395.438 1467.26 387.966 1523.84 340.266V340.266C1580.71 292.328 1661.48 285.043 1726.01 322.032L1896.24 419.615" stroke="#14112C" stroke-opacity="0.1" stroke-width="1.5"/>
<path d="M-97.6338 21.4515L56.6777 -66.4164C133.674 -110.259 228.641 -107.749 303.213 -59.8991L306.072 -58.0645C381.756 -9.50091 478.639 -8.85727 554.962 -56.4111L569.986 -65.7716C640.032 -109.415 729.362 -107.052 797.004 -59.7677V-59.7677C866.981 -10.8508 959.877 -10.1567 1030.58 -58.0226L1036.86 -62.2781C1105.13 -108.498 1193.69 -112.058 1265.45 -71.4658L1322.55 -39.1644C1386.97 -2.72546 1467.26 -10.1974 1523.84 -57.8976V-57.8976C1580.71 -105.836 1661.48 -113.121 1726.01 -76.1319L1896.24 21.4515" stroke="#14112C" stroke-opacity="0.1" stroke-width="1.5"/>
<path d="M-97.6338 618.697L56.6777 530.83C133.674 486.986 228.641 489.497 303.213 537.347L306.072 539.181C381.756 587.745 478.639 588.389 554.962 540.835L569.986 531.474C640.032 487.831 729.362 490.194 797.004 537.478V537.478C866.981 586.395 959.877 587.089 1030.58 539.223L1036.86 534.968C1105.13 488.748 1193.69 485.188 1265.45 525.78L1322.55 558.082C1386.97 594.52 1467.26 587.049 1523.84 539.348V539.348C1580.71 491.41 1661.48 484.125 1726.01 521.114L1896.24 618.697" stroke="#14112C" stroke-opacity="0.1" stroke-width="1.5"/>
<path d="M-97.6338 220.533L56.6777 132.665C133.674 88.8218 228.641 91.3323 303.213 139.182L306.072 141.017C381.756 189.58 478.639 190.224 554.962 142.67L569.986 133.31C640.032 89.6664 729.362 92.0289 797.004 139.313V139.313C866.981 188.23 959.877 188.924 1030.58 141.059L1036.86 136.803C1105.13 90.5828 1193.69 87.0233 1265.45 127.615L1322.55 159.917C1386.97 196.356 1467.26 188.884 1523.84 141.184V141.184C1580.71 93.2452 1661.48 85.9604 1726.01 122.949L1896.24 220.533" stroke="#14112C" stroke-opacity="0.1" stroke-width="1.5"/>
<path d="M-97.6338 817.78L56.6777 729.912C133.674 686.069 228.641 688.58 303.213 736.429L306.072 738.264C381.756 786.828 478.639 787.471 554.962 739.917L569.986 730.557C640.032 686.914 729.362 689.276 797.004 736.561V736.561C866.981 785.478 959.877 786.172 1030.58 738.306L1036.86 734.05C1105.13 687.83 1193.69 684.271 1265.45 724.863L1322.55 757.164C1386.97 793.603 1467.26 786.131 1523.84 738.431V738.431C1580.71 690.492 1661.48 683.208 1726.01 720.197L1896.24 817.78" stroke="#14112C" stroke-opacity="0.1" stroke-width="1.5"/>
<path d="M-97.6338 469.386L56.6777 381.518C133.674 337.675 228.641 340.185 303.213 388.035L306.072 389.87C381.756 438.433 478.639 439.077 554.962 391.523L569.986 382.163C640.032 338.519 729.362 340.882 797.004 388.166V388.166C866.981 437.083 959.877 437.777 1030.58 389.912L1036.86 385.656C1105.13 339.436 1193.69 335.876 1265.45 376.468L1322.55 408.77C1386.97 445.209 1467.26 437.737 1523.84 390.037V390.037C1580.71 342.098 1661.48 334.813 1726.01 371.802L1896.24 469.386" stroke="#14112C" stroke-opacity="0.1" stroke-width="1.5"/>
<path d="M-97.6338 71.2218L56.6777 -16.6462C133.674 -60.4892 228.641 -57.9787 303.213 -10.1289L306.072 -8.29428C381.756 40.2694 478.639 40.913 554.962 -6.64084L569.986 -16.0013C640.032 -59.6446 729.362 -57.2821 797.004 -9.99747V-9.99747C866.981 38.9195 959.877 39.6135 1030.58 -8.25229L1036.86 -12.5078C1105.13 -58.7281 1193.69 -62.2876 1265.45 -21.6956L1322.55 10.6059C1386.97 47.0448 1467.26 39.5729 1523.84 -8.12738V-8.12738C1580.71 -56.0657 1661.48 -63.3505 1726.01 -26.3616L1896.24 71.2218" stroke="#14112C" stroke-opacity="0.1" stroke-width="1.5"/>
<path d="M-97.6338 668.468L56.6777 580.6C133.674 536.757 228.641 539.268 303.213 587.118L306.072 588.952C381.756 637.516 478.639 638.159 554.962 590.606L569.986 581.245C640.032 537.602 729.362 539.964 797.004 587.249V587.249C866.981 636.166 959.877 636.86 1030.58 588.994L1036.86 584.739C1105.13 538.518 1193.69 534.959 1265.45 575.551L1322.55 607.852C1386.97 644.291 1467.26 636.819 1523.84 589.119V589.119C1580.71 541.181 1661.48 533.896 1726.01 570.885L1896.24 668.468" stroke="#14112C" stroke-opacity="0.1" stroke-width="1.5"/>
<path d="M-97.6338 270.303L56.6777 182.435C133.674 138.592 228.641 141.103 303.213 188.953L306.072 190.787C381.756 239.351 478.639 239.995 554.962 192.441L569.986 183.08C640.032 139.437 729.362 141.799 797.004 189.084V189.084C866.981 238.001 959.877 238.695 1030.58 190.829L1036.86 186.574C1105.13 140.353 1193.69 136.794 1265.45 177.386L1322.55 209.687C1386.97 246.126 1467.26 238.654 1523.84 190.954V190.954C1580.71 143.016 1661.48 135.731 1726.01 172.72L1896.24 270.303" stroke="#14112C" stroke-opacity="0.1" stroke-width="1.5"/>
<path d="M-97.6338 867.551L56.6777 779.683C133.674 735.84 228.641 738.35 303.213 786.2L306.072 788.034C381.756 836.598 478.639 837.242 554.962 789.688L569.986 780.327C640.032 736.684 729.362 739.047 797.004 786.331V786.331C866.981 835.248 959.877 835.942 1030.58 788.076L1036.86 783.821C1105.13 737.601 1193.69 734.041 1265.45 774.633L1322.55 806.935C1386.97 843.374 1467.26 835.902 1523.84 788.201V788.201C1580.71 740.263 1661.48 732.978 1726.01 769.967L1896.24 867.551" stroke="#14112C" stroke-opacity="0.1" stroke-width="1.5"/>
<path d="M-97.6338 519.156L56.6777 431.288C133.674 387.445 228.641 389.956 303.213 437.806L306.072 439.64C381.756 488.204 478.639 488.848 554.962 441.294L569.986 431.933C640.032 388.29 729.362 390.652 797.004 437.937V437.937C866.981 486.854 959.877 487.548 1030.58 439.682L1036.86 435.427C1105.13 389.206 1193.69 385.647 1265.45 426.239L1322.55 458.54C1386.97 494.979 1467.26 487.507 1523.84 439.807V439.807C1580.71 391.869 1661.48 384.584 1726.01 421.573L1896.24 519.156" stroke="#14112C" stroke-opacity="0.1" stroke-width="1.5"/>
<path d="M-97.6338 120.992L56.6777 33.1241C133.674 -10.7189 228.641 -8.20842 303.213 39.6414L306.072 41.476C381.756 90.0396 478.639 90.6833 554.962 43.1294L569.986 33.769C640.032 -9.87432 729.362 -7.51182 797.004 39.7728V39.7728C866.981 88.6897 959.877 89.3838 1030.58 41.518L1036.86 37.2625C1105.13 -8.95783 1193.69 -12.5174 1265.45 28.0747L1322.55 60.3762C1386.97 96.8151 1467.26 89.3432 1523.84 41.6429V41.6429C1580.71 -6.29544 1661.48 -13.5803 1726.01 23.4086L1896.24 120.992" stroke="#14112C" stroke-opacity="0.1" stroke-width="1.5"/>
<path d="M-97.6338 718.239L56.6777 630.371C133.674 586.528 228.641 589.038 303.213 636.888L306.072 638.723C381.756 687.286 478.639 687.93 554.962 640.376L569.986 631.016C640.032 587.372 729.362 589.735 797.004 637.02V637.02C866.981 685.936 959.877 686.631 1030.58 638.765L1036.86 634.509C1105.13 588.289 1193.69 584.729 1265.45 625.321L1322.55 657.623C1386.97 694.062 1467.26 686.59 1523.84 638.89V638.89C1580.71 590.951 1661.48 583.666 1726.01 620.655L1896.24 718.239" stroke="#14112C" stroke-opacity="0.1" stroke-width="1.5"/>
<path d="M-97.6338 320.074L56.6777 232.206C133.674 188.363 228.641 190.873 303.213 238.723L306.072 240.558C381.756 289.121 478.639 289.765 554.962 242.211L569.986 232.851C640.032 189.208 729.362 191.57 797.004 238.855V238.855C866.981 287.772 959.877 288.466 1030.58 240.6L1036.86 236.344C1105.13 190.124 1193.69 186.565 1265.45 227.157L1322.55 259.458C1386.97 295.897 1467.26 288.425 1523.84 240.725V240.725C1580.71 192.786 1661.48 185.502 1726.01 222.491L1896.24 320.074" stroke="#14112C" stroke-opacity="0.1" stroke-width="1.5"/>
<path d="M-97.6338 917.321L56.6777 829.453C133.674 785.61 228.641 788.121 303.213 835.97L306.072 837.805C381.756 886.369 478.639 887.012 554.962 839.458L569.986 830.098C640.032 786.455 729.362 788.817 797.004 836.102V836.102C866.981 885.019 959.877 885.713 1030.58 837.847L1036.86 833.591C1105.13 787.371 1193.69 783.812 1265.45 824.404L1322.55 856.705C1386.97 893.144 1467.26 885.672 1523.84 837.972V837.972C1580.71 790.034 1661.48 782.749 1726.01 819.738L1896.24 917.321" stroke="#14112C" stroke-opacity="0.1" stroke-width="1.5"/>
<path d="M-97.6338 568.927L56.6777 481.059C133.674 437.216 228.641 439.726 303.213 487.576L306.072 489.411C381.756 537.975 478.639 538.618 554.962 491.064L569.986 481.704C640.032 438.061 729.362 440.423 797.004 487.708V487.708C866.981 536.625 959.877 537.319 1030.58 489.453L1036.86 485.197C1105.13 438.977 1193.69 435.418 1265.45 476.01L1322.55 508.311C1386.97 544.75 1467.26 537.278 1523.84 489.578V489.578C1580.71 441.639 1661.48 434.355 1726.01 471.344L1896.24 568.927" stroke="#14112C" stroke-opacity="0.1" stroke-width="1.5"/>
<path d="M-97.6338 170.762L56.6777 82.8944C133.674 39.0513 228.641 41.5618 303.213 89.4117L306.072 91.2463C381.756 139.81 478.639 140.454 554.962 92.8997L569.986 83.5392C640.032 39.8959 729.362 42.2584 797.004 89.5431V89.5431C866.981 138.46 959.877 139.154 1030.58 91.2882L1036.86 87.0327C1105.13 40.8124 1193.69 37.2529 1265.45 77.845L1322.55 110.146C1386.97 146.585 1467.26 139.113 1523.84 91.4131V91.4131C1580.71 43.4748 1661.48 36.19 1726.01 73.1789L1896.24 170.762" stroke="#14112C" stroke-opacity="0.1" stroke-width="1.5"/>
<path d="M-97.6338 768.009L56.6777 680.141C133.674 636.298 228.641 638.809 303.213 686.659L306.072 688.493C381.756 737.057 478.639 737.701 554.962 690.147L569.986 680.786C640.032 637.143 729.362 639.505 797.004 686.79V686.79C866.981 735.707 959.877 736.401 1030.58 688.535L1036.86 684.28C1105.13 638.059 1193.69 634.5 1265.45 675.092L1322.55 707.393C1386.97 743.832 1467.26 736.36 1523.84 688.66V688.66C1580.71 640.722 1661.48 633.437 1726.01 670.426L1896.24 768.009" stroke="#14112C" stroke-opacity="0.1" stroke-width="1.5"/>
<path d="M-97.6338 369.845L56.6777 281.977C133.674 238.134 228.641 240.644 303.213 288.494L306.072 290.328C381.756 338.892 478.639 339.536 554.962 291.982L569.986 282.621C640.032 238.978 729.362 241.341 797.004 288.625V288.625C866.981 337.542 959.877 338.236 1030.58 290.37L1036.86 286.115C1105.13 239.895 1193.69 236.335 1265.45 276.927L1322.55 309.229C1386.97 345.668 1467.26 338.196 1523.84 290.495V290.495C1580.71 242.557 1661.48 235.272 1726.01 272.261L1896.24 369.845" stroke="#14112C" stroke-opacity="0.1" stroke-width="1.5"/>
<path d="M-97.6338 967.092L56.6777 879.224C133.674 835.381 228.641 837.891 303.213 885.741L306.072 887.576C381.756 936.139 478.639 936.783 554.962 889.229L569.986 879.869C640.032 836.225 729.362 838.588 797.004 885.872V885.872C866.981 934.789 959.877 935.484 1030.58 887.618L1036.86 883.362C1105.13 837.142 1193.69 833.582 1265.45 874.174L1322.55 906.476C1386.97 942.915 1467.26 935.443 1523.84 887.743V887.743C1580.71 839.804 1661.48 832.519 1726.01 869.508L1896.24 967.092" stroke="#14112C" stroke-opacity="0.1" stroke-width="1.5"/>
<path d="M-97.6338 429.569L56.6777 341.701C133.674 297.858 228.641 300.369 303.213 348.219L306.072 350.053C381.756 398.617 478.639 399.26 554.962 351.707L569.986 342.346C640.032 298.703 729.362 301.065 797.004 348.35V348.35C866.981 397.267 959.877 397.961 1030.58 350.095L1036.86 345.84C1105.13 299.619 1193.69 296.06 1265.45 336.652L1322.55 368.953C1386.97 405.392 1467.26 397.92 1523.84 350.22V350.22C1580.71 302.282 1661.48 294.997 1726.01 331.986L1896.24 429.569" stroke="#14112C" stroke-opacity="0.1" stroke-width="1.5"/>
<path d="M-97.6338 31.4056L56.6777 -56.4624C133.674 -100.305 228.641 -97.7949 303.213 -49.9451L306.072 -48.1105C381.756 0.453146 478.639 1.09678 554.962 -46.4571L569.986 -55.8175C640.032 -99.4608 729.362 -97.0983 797.004 -49.8137V-49.8137C866.981 -0.896749 959.877 -0.20266 1030.58 -48.0685L1036.86 -52.324C1105.13 -98.5443 1193.69 -102.104 1265.45 -61.5118L1322.55 -29.2103C1386.97 7.22859 1467.26 -0.243318 1523.84 -47.9436V-47.9436C1580.71 -95.8819 1661.48 -103.167 1726.01 -66.1778L1896.24 31.4056" stroke="#14112C" stroke-opacity="0.1" stroke-width="1.5"/>
<path d="M-97.6338 628.652L56.6777 540.784C133.674 496.941 228.641 499.451 303.213 547.301L306.072 549.136C381.756 597.699 478.639 598.343 554.962 550.789L569.986 541.429C640.032 497.785 729.362 500.148 797.004 547.432V547.432C866.981 596.349 959.877 597.043 1030.58 549.178L1036.86 544.922C1105.13 498.702 1193.69 495.142 1265.45 535.734L1322.55 568.036C1386.97 604.475 1467.26 597.003 1523.84 549.303V549.303C1580.71 501.364 1661.48 494.079 1726.01 531.068L1896.24 628.652" stroke="#14112C" stroke-opacity="0.1" stroke-width="1.5"/>
<path d="M-97.6338 230.487L56.6777 142.619C133.674 98.7759 228.641 101.286 303.213 149.136L306.072 150.971C381.756 199.534 478.639 200.178 554.962 152.624L569.986 143.264C640.032 99.6205 729.362 101.983 797.004 149.268V149.268C866.981 198.185 959.877 198.879 1030.58 151.013L1036.86 146.757C1105.13 100.537 1193.69 96.9774 1265.45 137.569L1322.55 169.871C1386.97 206.31 1467.26 198.838 1523.84 151.138V151.138C1580.71 103.199 1661.48 95.9145 1726.01 132.903L1896.24 230.487" stroke="#14112C" stroke-opacity="0.1" stroke-width="1.5"/>
<path d="M-97.6338 827.734L56.6777 739.866C133.674 696.023 228.641 698.534 303.213 746.383L306.072 748.218C381.756 796.782 478.639 797.425 554.962 749.871L569.986 740.511C640.032 696.868 729.362 699.23 797.004 746.515V746.515C866.981 795.432 959.877 796.126 1030.58 748.26L1036.86 744.004C1105.13 697.784 1193.69 694.225 1265.45 734.817L1322.55 767.118C1386.97 803.557 1467.26 796.085 1523.84 748.385V748.385C1580.71 700.447 1661.48 693.162 1726.01 730.151L1896.24 827.734" stroke="#14112C" stroke-opacity="0.1" stroke-width="1.5"/>
<path d="M-97.6338 479.34L56.6777 391.472C133.674 347.629 228.641 350.139 303.213 397.989L306.072 399.824C381.756 448.387 478.639 449.031 554.962 401.477L569.986 392.117C640.032 348.473 729.362 350.836 797.004 398.121V398.121C866.981 447.038 959.877 447.732 1030.58 399.866L1036.86 395.61C1105.13 349.39 1193.69 345.83 1265.45 386.422L1322.55 418.724C1386.97 455.163 1467.26 447.691 1523.84 399.991V399.991C1580.71 352.052 1661.48 344.768 1726.01 381.756L1896.24 479.34" stroke="#14112C" stroke-opacity="0.1" stroke-width="1.5"/>
<path d="M-97.6338 81.1758L56.6777 -6.69213C133.674 -50.5351 228.641 -48.0246 303.213 -0.174817L306.072 1.65976C381.756 50.2234 478.639 50.867 554.962 3.3132L569.986 -6.04726C640.032 -49.6905 729.362 -47.328 797.004 -0.0434277V-0.0434277C866.981 48.8735 959.877 49.5676 1030.58 1.70175L1036.86 -2.55377C1105.13 -48.7741 1193.69 -52.3336 1265.45 -11.7415L1322.55 20.5599C1386.97 56.9988 1467.26 49.5269 1523.84 1.82666V1.82666C1580.71 -46.1117 1661.48 -53.3965 1726.01 -16.4076L1896.24 81.1758" stroke="#14112C" stroke-opacity="0.1" stroke-width="1.5"/>
<path d="M-97.6338 678.422L56.6777 590.554C133.674 546.711 228.641 549.222 303.213 597.072L306.072 598.906C381.756 647.47 478.639 648.113 554.962 600.56L569.986 591.199C640.032 547.556 729.362 549.918 797.004 597.203V597.203C866.981 646.12 959.877 646.814 1030.58 598.948L1036.86 594.693C1105.13 548.472 1193.69 544.913 1265.45 585.505L1322.55 617.806C1386.97 654.245 1467.26 646.773 1523.84 599.073V599.073C1580.71 551.135 1661.48 543.85 1726.01 580.839L1896.24 678.422" stroke="#14112C" stroke-opacity="0.1" stroke-width="1.5"/>
<path d="M-97.6338 280.257L56.6777 192.389C133.674 148.546 228.641 151.057 303.213 198.907L306.072 200.741C381.756 249.305 478.639 249.949 554.962 202.395L569.986 193.034C640.032 149.391 729.362 151.754 797.004 199.038V199.038C866.981 247.955 959.877 248.649 1030.58 200.783L1036.86 196.528C1105.13 150.308 1193.69 146.748 1265.45 187.34L1322.55 219.642C1386.97 256.08 1467.26 248.609 1523.84 200.908V200.908C1580.71 152.97 1661.48 145.685 1726.01 182.674L1896.24 280.257" stroke="#14112C" stroke-opacity="0.1" stroke-width="1.5"/>
<path d="M-97.6338 877.505L56.6777 789.637C133.674 745.794 228.641 748.304 303.213 796.154L306.072 797.989C381.756 846.552 478.639 847.196 554.962 799.642L569.986 790.282C640.032 746.638 729.362 749.001 797.004 796.285V796.285C866.981 845.202 959.877 845.896 1030.58 798.031L1036.86 793.775C1105.13 747.555 1193.69 743.995 1265.45 784.587L1322.55 816.889C1386.97 853.328 1467.26 845.856 1523.84 798.155V798.155C1580.71 750.217 1661.48 742.932 1726.01 779.921L1896.24 877.505" stroke="#14112C" stroke-opacity="0.1" stroke-width="1.5"/>
<path d="M-97.6338 529.11L56.6777 441.242C133.674 397.399 228.641 399.91 303.213 447.76L306.072 449.594C381.756 498.158 478.639 498.802 554.962 451.248L569.986 441.887C640.032 398.244 729.362 400.607 797.004 447.891V447.891C866.981 496.808 959.877 497.502 1030.58 449.636L1036.86 445.381C1105.13 399.161 1193.69 395.601 1265.45 436.193L1322.55 468.495C1386.97 504.933 1467.26 497.462 1523.84 449.761V449.761C1580.71 401.823 1661.48 394.538 1726.01 431.527L1896.24 529.11" stroke="#14112C" stroke-opacity="0.1" stroke-width="1.5"/>
<path d="M-97.6338 130.946L56.6777 43.0781C133.674 -0.764882 228.641 1.74562 303.213 49.5954L306.072 51.43C381.756 99.9937 478.639 100.637 554.962 53.0835L569.986 43.723C640.032 0.0797229 729.362 2.44222 797.004 49.7268V49.7268C866.981 98.6438 959.877 99.3379 1030.58 51.472L1036.86 47.2165C1105.13 0.996208 1193.69 -2.56331 1265.45 38.0287L1322.55 70.3302C1386.97 106.769 1467.26 99.2972 1523.84 51.5969V51.5969C1580.71 3.6586 1661.48 -3.62621 1726.01 33.3627L1896.24 130.946" stroke="#14112C" stroke-opacity="0.1" stroke-width="1.5"/>
<path d="M-97.6338 728.193L56.6777 640.325C133.674 596.482 228.641 598.992 303.213 646.842L306.072 648.677C381.756 697.24 478.639 697.884 554.962 650.33L569.986 640.97C640.032 597.327 729.362 599.689 797.004 646.974V646.974C866.981 695.891 959.877 696.585 1030.58 648.719L1036.86 644.463C1105.13 598.243 1193.69 594.683 1265.45 635.276L1322.55 667.577C1386.97 704.016 1467.26 696.544 1523.84 648.844V648.844C1580.71 600.905 1661.48 593.621 1726.01 630.609L1896.24 728.193" stroke="#14112C" stroke-opacity="0.1" stroke-width="1.5"/>
<path d="M-97.6338 330.028L56.6777 242.16C133.674 198.317 228.641 200.828 303.213 248.677L306.072 250.512C381.756 299.076 478.639 299.719 554.962 252.165L569.986 242.805C640.032 199.162 729.362 201.524 797.004 248.809V248.809C866.981 297.726 959.877 298.42 1030.58 250.554L1036.86 246.298C1105.13 200.078 1193.69 196.519 1265.45 237.111L1322.55 269.412C1386.97 305.851 1467.26 298.379 1523.84 250.679V250.679C1580.71 202.741 1661.48 195.456 1726.01 232.445L1896.24 330.028" stroke="#14112C" stroke-opacity="0.1" stroke-width="1.5"/>
<path d="M-97.6338 927.275L56.6777 839.407C133.674 795.564 228.641 798.075 303.213 845.925L306.072 847.759C381.756 896.323 478.639 896.967 554.962 849.413L569.986 840.052C640.032 796.409 729.362 798.771 797.004 846.056V846.056C866.981 894.973 959.877 895.667 1030.58 847.801L1036.86 843.546C1105.13 797.325 1193.69 793.766 1265.45 834.358L1322.55 866.659C1386.97 903.098 1467.26 895.626 1523.84 847.926V847.926C1580.71 799.988 1661.48 792.703 1726.01 829.692L1896.24 927.275" stroke="#14112C" stroke-opacity="0.1" stroke-width="1.5"/>
<path d="M-97.6338 578.881L56.6777 491.013C133.674 447.17 228.641 449.681 303.213 497.53L306.072 499.365C381.756 547.929 478.639 548.572 554.962 501.018L569.986 491.658C640.032 448.015 729.362 450.377 797.004 497.662V497.662C866.981 546.579 959.877 547.273 1030.58 499.407L1036.86 495.151C1105.13 448.931 1193.69 445.372 1265.45 485.964L1322.55 518.265C1386.97 554.704 1467.26 547.232 1523.84 499.532V499.532C1580.71 451.594 1661.48 444.309 1726.01 481.298L1896.24 578.881" stroke="#14112C" stroke-opacity="0.1" stroke-width="1.5"/>
<path d="M-97.6338 180.716L56.6777 92.8484C133.674 49.0054 228.641 51.5159 303.213 99.3657L306.072 101.2C381.756 149.764 478.639 150.408 554.962 102.854L569.986 93.4933C640.032 49.85 729.362 52.2125 797.004 99.4971V99.4971C866.981 148.414 959.877 149.108 1030.58 101.242L1036.86 96.9868C1105.13 50.7665 1193.69 47.207 1265.45 87.799L1322.55 120.1C1386.97 156.539 1467.26 149.067 1523.84 101.367V101.367C1580.71 53.4289 1661.48 46.1441 1726.01 83.1329L1896.24 180.716" stroke="#14112C" stroke-opacity="0.1" stroke-width="1.5"/>
<path d="M-97.6338 777.963L56.6777 690.095C133.674 646.252 228.641 648.763 303.213 696.613L306.072 698.447C381.756 747.011 478.639 747.655 554.962 700.101L569.986 690.74C640.032 647.097 729.362 649.46 797.004 696.744V696.744C866.981 745.661 959.877 746.355 1030.58 698.489L1036.86 694.234C1105.13 648.014 1193.69 644.454 1265.45 685.046L1322.55 717.348C1386.97 753.786 1467.26 746.315 1523.84 698.614V698.614C1580.71 650.676 1661.48 643.391 1726.01 680.38L1896.24 777.963" stroke="#14112C" stroke-opacity="0.1" stroke-width="1.5"/>
<path d="M-97.6338 379.799L56.6777 291.931C133.674 248.088 228.641 250.598 303.213 298.448L306.072 300.283C381.756 348.846 478.639 349.49 554.962 301.936L569.986 292.576C640.032 248.932 729.362 251.295 797.004 298.579V298.579C866.981 347.496 959.877 348.19 1030.58 300.325L1036.86 296.069C1105.13 249.849 1193.69 246.289 1265.45 286.881L1322.55 319.183C1386.97 355.622 1467.26 348.15 1523.84 300.449V300.449C1580.71 252.511 1661.48 245.226 1726.01 282.215L1896.24 379.799" stroke="#14112C" stroke-opacity="0.1" stroke-width="1.5"/>
<path d="M-97.6338 977.046L56.6777 889.178C133.674 845.335 228.641 847.845 303.213 895.695L306.072 897.53C381.756 946.093 478.639 946.737 554.962 899.183L569.986 889.823C640.032 846.179 729.362 848.542 797.004 895.827V895.827C866.981 944.744 959.877 945.438 1030.58 897.572L1036.86 893.316C1105.13 847.096 1193.69 843.536 1265.45 884.128L1322.55 916.43C1386.97 952.869 1467.26 945.397 1523.84 897.697V897.697C1580.71 849.758 1661.48 842.474 1726.01 879.462L1896.24 977.046" stroke="#14112C" stroke-opacity="0.1" stroke-width="1.5"/>
<path d="M-97.6338 439.523L56.6777 351.655C133.674 307.812 228.641 310.323 303.213 358.173L306.072 360.007C381.756 408.571 478.639 409.215 554.962 361.661L569.986 352.3C640.032 308.657 729.362 311.019 797.004 358.304V358.304C866.981 407.221 959.877 407.915 1030.58 360.049L1036.86 355.794C1105.13 309.573 1193.69 306.014 1265.45 346.606L1322.55 378.907C1386.97 415.346 1467.26 407.874 1523.84 360.174V360.174C1580.71 312.236 1661.48 304.951 1726.01 341.94L1896.24 439.523" stroke="#14112C" stroke-opacity="0.1" stroke-width="1.5"/>
<path d="M-97.6338 41.3597L56.6777 -46.5083C133.674 -90.3513 228.641 -87.8408 303.213 -39.991L306.072 -38.1564C381.756 10.4072 478.639 11.0508 554.962 -36.503L569.986 -45.8635C640.032 -89.5067 729.362 -87.1442 797.004 -39.8596V-39.8596C866.981 9.05731 959.877 9.7514 1030.58 -38.1144L1036.86 -42.37C1105.13 -88.5902 1193.69 -92.1498 1265.45 -51.5577L1322.55 -19.2563C1386.97 17.1826 1467.26 9.71074 1523.84 -37.9895V-37.9895C1580.71 -85.9279 1661.48 -93.2127 1726.01 -56.2238L1896.24 41.3597" stroke="#14112C" stroke-opacity="0.1" stroke-width="1.5"/>
<path d="M-97.6338 638.606L56.6777 550.738C133.674 506.895 228.641 509.405 303.213 557.255L306.072 559.09C381.756 607.653 478.639 608.297 554.962 560.743L569.986 551.383C640.032 507.739 729.362 510.102 797.004 557.387V557.387C866.981 606.303 959.877 606.998 1030.58 559.132L1036.86 554.876C1105.13 508.656 1193.69 505.096 1265.45 545.688L1322.55 577.99C1386.97 614.429 1467.26 606.957 1523.84 559.257V559.257C1580.71 511.318 1661.48 504.033 1726.01 541.022L1896.24 638.606" stroke="#14112C" stroke-opacity="0.1" stroke-width="1.5"/>
<path d="M-97.6338 240.441L56.6777 152.573C133.674 108.73 228.641 111.24 303.213 159.09L306.072 160.925C381.756 209.489 478.639 210.132 554.962 162.578L569.986 153.218C640.032 109.575 729.362 111.937 797.004 159.222V159.222C866.981 208.139 959.877 208.833 1030.58 160.967L1036.86 156.711C1105.13 110.491 1193.69 106.932 1265.45 147.524L1322.55 179.825C1386.97 216.264 1467.26 208.792 1523.84 161.092V161.092C1580.71 113.153 1661.48 105.869 1726.01 142.858L1896.24 240.441" stroke="#14112C" stroke-opacity="0.1" stroke-width="1.5"/>
<path d="M-97.6338 837.688L56.6777 749.82C133.674 705.977 228.641 708.488 303.213 756.338L306.072 758.172C381.756 806.736 478.639 807.379 554.962 759.826L569.986 750.465C640.032 706.822 729.362 709.184 797.004 756.469V756.469C866.981 805.386 959.877 806.08 1030.58 758.214L1036.86 753.959C1105.13 707.738 1193.69 704.179 1265.45 744.771L1322.55 777.072C1386.97 813.511 1467.26 806.039 1523.84 758.339V758.339C1580.71 710.401 1661.48 703.116 1726.01 740.105L1896.24 837.688" stroke="#14112C" stroke-opacity="0.1" stroke-width="1.5"/>
<path d="M-97.6338 489.294L56.6777 401.426C133.674 357.583 228.641 360.093 303.213 407.943L306.072 409.778C381.756 458.342 478.639 458.985 554.962 411.431L569.986 402.071C640.032 358.428 729.362 360.79 797.004 408.075V408.075C866.981 456.992 959.877 457.686 1030.58 409.82L1036.86 405.564C1105.13 359.344 1193.69 355.785 1265.45 396.377L1322.55 428.678C1386.97 465.117 1467.26 457.645 1523.84 409.945V409.945C1580.71 362.006 1661.48 354.722 1726.01 391.711L1896.24 489.294" stroke="#14112C" stroke-opacity="0.1" stroke-width="1.5"/>
<path d="M-97.6338 91.1299L56.6777 3.26191C133.674 -40.5811 228.641 -38.0706 303.213 9.77922L306.072 11.6138C381.756 60.1774 478.639 60.8211 554.962 13.2672L569.986 3.90678C640.032 -39.7365 729.362 -37.374 797.004 9.91061V9.91061C866.981 58.8275 959.877 59.5216 1030.58 11.6558L1036.86 7.40027C1105.13 -38.82 1193.69 -42.3795 1265.45 -1.78749L1322.55 30.514C1386.97 66.9529 1467.26 59.481 1523.84 11.7807V11.7807C1580.71 -36.1576 1661.48 -43.4424 1726.01 -6.45356L1896.24 91.1299" stroke="#14112C" stroke-opacity="0.1" stroke-width="1.5"/>
<path d="M-97.6338 688.376L56.6777 600.508C133.674 556.665 228.641 559.176 303.213 607.026L306.072 608.86C381.756 657.424 478.639 658.068 554.962 610.514L569.986 601.153C640.032 557.51 729.362 559.872 797.004 607.157V607.157C866.981 656.074 959.877 656.768 1030.58 608.902L1036.86 604.647C1105.13 558.426 1193.69 554.867 1265.45 595.459L1322.55 627.76C1386.97 664.199 1467.26 656.727 1523.84 609.027V609.027C1580.71 561.089 1661.48 553.804 1726.01 590.793L1896.24 688.376" stroke="#14112C" stroke-opacity="0.1" stroke-width="1.5"/>
<path d="M-97.6338 290.212L56.6777 202.344C133.674 158.501 228.641 161.011 303.213 208.861L306.072 210.696C381.756 259.259 478.639 259.903 554.962 212.349L569.986 202.988C640.032 159.345 729.362 161.708 797.004 208.992V208.992C866.981 257.909 959.877 258.603 1030.58 210.737L1036.86 206.482C1105.13 160.262 1193.69 156.702 1265.45 197.294L1322.55 229.596C1386.97 266.035 1467.26 258.563 1523.84 210.862V210.862C1580.71 162.924 1661.48 155.639 1726.01 192.628L1896.24 290.212" stroke="#14112C" stroke-opacity="0.1" stroke-width="1.5"/>
<path d="M-97.6338 887.459L56.6777 799.591C133.674 755.748 228.641 758.258 303.213 806.108L306.072 807.943C381.756 856.507 478.639 857.15 554.962 809.596L569.986 800.236C640.032 756.593 729.362 758.955 797.004 806.24V806.24C866.981 855.157 959.877 855.851 1030.58 807.985L1036.86 803.729C1105.13 757.509 1193.69 753.95 1265.45 794.542L1322.55 826.843C1386.97 863.282 1467.26 855.81 1523.84 808.11V808.11C1580.71 760.171 1661.48 752.887 1726.01 789.876L1896.24 887.459" stroke="#14112C" stroke-opacity="0.1" stroke-width="1.5"/>
<path d="M-97.6338 539.065L56.6777 451.197C133.674 407.354 228.641 409.864 303.213 457.714L306.072 459.549C381.756 508.112 478.639 508.756 554.962 461.202L569.986 451.842C640.032 408.198 729.362 410.561 797.004 457.845V457.845C866.981 506.762 959.877 507.456 1030.58 459.591L1036.86 455.335C1105.13 409.115 1193.69 405.555 1265.45 446.147L1322.55 478.449C1386.97 514.888 1467.26 507.416 1523.84 459.715V459.715C1580.71 411.777 1661.48 404.492 1726.01 441.481L1896.24 539.065" stroke="#14112C" stroke-opacity="0.1" stroke-width="1.5"/>
<path d="M-97.6338 140.9L56.6777 53.0322C133.674 9.18919 228.641 11.6997 303.213 59.5495L306.072 61.3841C381.756 109.948 478.639 110.591 554.962 63.0375L569.986 53.6771C640.032 10.0338 729.362 12.3963 797.004 59.6809V59.6809C866.981 108.598 959.877 109.292 1030.58 61.4261L1036.86 57.1706C1105.13 10.9503 1193.69 7.39076 1265.45 47.9828L1322.55 80.2843C1386.97 116.723 1467.26 109.251 1523.84 61.551V61.551C1580.71 13.6127 1661.48 6.32786 1726.01 43.3167L1896.24 140.9" stroke="#14112C" stroke-opacity="0.1" stroke-width="1.5"/>
<path d="M-97.6338 738.147L56.6777 650.279C133.674 606.436 228.641 608.947 303.213 656.796L306.072 658.631C381.756 707.195 478.639 707.838 554.962 660.284L569.986 650.924C640.032 607.281 729.362 609.643 797.004 656.928V656.928C866.981 705.845 959.877 706.539 1030.58 658.673L1036.86 654.417C1105.13 608.197 1193.69 604.638 1265.45 645.23L1322.55 677.531C1386.97 713.97 1467.26 706.498 1523.84 658.798V658.798C1580.71 610.859 1661.48 603.575 1726.01 640.564L1896.24 738.147" stroke="#14112C" stroke-opacity="0.1" stroke-width="1.5"/>
<path d="M-97.6338 339.982L56.6777 252.114C133.674 208.271 228.641 210.782 303.213 258.632L306.072 260.466C381.756 309.03 478.639 309.673 554.962 262.12L569.986 252.759C640.032 209.116 729.362 211.478 797.004 258.763V258.763C866.981 307.68 959.877 308.374 1030.58 260.508L1036.86 256.253C1105.13 210.032 1193.69 206.473 1265.45 247.065L1322.55 279.366C1386.97 315.805 1467.26 308.333 1523.84 260.633V260.633C1580.71 212.695 1661.48 205.41 1726.01 242.399L1896.24 339.982" stroke="#14112C" stroke-opacity="0.1" stroke-width="1.5"/>
<path d="M-97.6338 937.229L56.6777 849.361C133.674 805.518 228.641 808.029 303.213 855.879L306.072 857.713C381.756 906.277 478.639 906.921 554.962 859.367L569.986 850.006C640.032 806.363 729.362 808.726 797.004 856.01V856.01C866.981 904.927 959.877 905.621 1030.58 857.755L1036.86 853.5C1105.13 807.28 1193.69 803.72 1265.45 844.312L1322.55 876.614C1386.97 913.052 1467.26 905.581 1523.84 857.88V857.88C1580.71 809.942 1661.48 802.657 1726.01 839.646L1896.24 937.229" stroke="#14112C" stroke-opacity="0.1" stroke-width="1.5"/>
<path d="M-97.6338 588.835L56.6777 500.967C133.674 457.124 228.641 459.635 303.213 507.485L306.072 509.319C381.756 557.883 478.639 558.526 554.962 510.973L569.986 501.612C640.032 457.969 729.362 460.331 797.004 507.616V507.616C866.981 556.533 959.877 557.227 1030.58 509.361L1036.86 505.106C1105.13 458.885 1193.69 455.326 1265.45 495.918L1322.55 528.219C1386.97 564.658 1467.26 557.186 1523.84 509.486V509.486C1580.71 461.548 1661.48 454.263 1726.01 491.252L1896.24 588.835" stroke="#14112C" stroke-opacity="0.1" stroke-width="1.5"/>
<path d="M-97.6338 190.67L56.6777 102.802C133.674 58.9595 228.641 61.47 303.213 109.32L306.072 111.154C381.756 159.718 478.639 160.362 554.962 112.808L569.986 103.447C640.032 59.8041 729.362 62.1666 797.004 109.451V109.451C866.981 158.368 959.877 159.062 1030.58 111.196L1036.86 106.941C1105.13 60.7205 1193.69 57.161 1265.45 97.7531L1322.55 130.055C1386.97 166.493 1467.26 159.022 1523.84 111.321V111.321C1580.71 63.3829 1661.48 56.0981 1726.01 93.087L1896.24 190.67" stroke="#14112C" stroke-opacity="0.1" stroke-width="1.5"/>
<path d="M-97.6338 787.918L56.6777 700.05C133.674 656.207 228.641 658.717 303.213 706.567L306.072 708.402C381.756 756.965 478.639 757.609 554.962 710.055L569.986 700.695C640.032 657.051 729.362 659.414 797.004 706.698V706.698C866.981 755.615 959.877 756.309 1030.58 708.444L1036.86 704.188C1105.13 657.968 1193.69 654.408 1265.45 695L1322.55 727.302C1386.97 763.741 1467.26 756.269 1523.84 708.569V708.569C1580.71 660.63 1661.48 653.345 1726.01 690.334L1896.24 787.918" stroke="#14112C" stroke-opacity="0.1" stroke-width="1.5"/>
<path d="M-97.6338 389.753L56.6777 301.885C133.674 258.042 228.641 260.552 303.213 308.402L306.072 310.237C381.756 358.8 478.639 359.444 554.962 311.89L569.986 302.53C640.032 258.886 729.362 261.249 797.004 308.534V308.534C866.981 357.45 959.877 358.145 1030.58 310.279L1036.86 306.023C1105.13 259.803 1193.69 256.243 1265.45 296.835L1322.55 329.137C1386.97 365.576 1467.26 358.104 1523.84 310.404V310.404C1580.71 262.465 1661.48 255.18 1726.01 292.169L1896.24 389.753" stroke="#14112C" stroke-opacity="0.1" stroke-width="1.5"/>
<path d="M-97.6338 987L56.6777 899.132C133.674 855.289 228.641 857.8 303.213 905.65L306.072 907.484C381.756 956.048 478.639 956.691 554.962 909.138L569.986 899.777C640.032 856.134 729.362 858.496 797.004 905.781V905.781C866.981 954.698 959.877 955.392 1030.58 907.526L1036.86 903.271C1105.13 857.05 1193.69 853.491 1265.45 894.083L1322.55 926.384C1386.97 962.823 1467.26 955.351 1523.84 907.651V907.651C1580.71 859.713 1661.48 852.428 1726.01 889.417L1896.24 987" stroke="#14112C" stroke-opacity="0.1" stroke-width="1.5"/>
<rect width="1728" height="993" fill="url(#paint0_radial_3263_5800)"/>
<rect width="1728" height="993" fill="url(#paint1_radial_3263_5800)"/>
<defs>
<radialGradient id="paint0_radial_3263_5800" cx="0" cy="0" r="1" gradientUnits="userSpaceOnUse" gradientTransform="translate(367.684 537.287) rotate(92.9645) scale(669.119 1164.67)">
<stop stop-color="white"/>
<stop offset="1" stop-color="white" stop-opacity="0.5"/>
</radialGradient>
<radialGradient id="paint1_radial_3263_5800" cx="0" cy="0" r="1" gradientUnits="userSpaceOnUse" gradientTransform="translate(367.684 537.287) rotate(92.9645) scale(669.119 1164.67)">
<stop stop-color="#F8F8F8"/>
<stop offset="1" stop-color="#F8F8F8" stop-opacity="0.5"/>
</radialGradient>
</defs>
</svg>
