<svg width="77" height="64" viewBox="0 0 77 64" fill="none" xmlns="http://www.w3.org/2000/svg">
<path d="M39.0085 26.0243C36.5001 28.4725 33.5302 29.817 30.1188 30.2384C22.1121 31.2418 15.0084 25.1815 13.7642 17.2751C12.6204 9.91052 17.9783 2.28505 25.383 0.780018C33.2493 -0.825344 41.256 4.27168 43.1223 12.0778C43.5437 13.8236 43.6039 15.6096 43.3229 17.3755C43.2828 17.6363 43.0219 17.9373 42.7811 18.0778C41.838 18.6397 40.8346 19.1012 39.8915 19.6832C37.8045 20.9674 37.4032 22.3119 38.3463 24.5795C38.547 25.0611 38.7677 25.5026 39.0085 26.0243Z" fill="#D1363F"/>
<path d="M68.8884 44.3054C68.0255 44.1649 67.1626 44.0244 66.2997 43.884C64.574 43.583 63.0087 43.8639 61.7445 45.2084C61.1425 45.8505 60.5204 46.4726 59.8783 47.0746C58.8348 48.0178 58.0722 47.9977 57.0488 47.0546C56.6675 46.6934 56.2662 46.3322 55.9451 45.9308C54.3197 43.9241 52.2528 43.4024 49.8247 44.0244C49.3832 44.1449 48.9417 44.2051 48.5003 44.2452C47.1558 44.3857 46.8146 44.1449 46.5337 42.8004C46.3531 41.9174 46.2126 41.0345 46.1123 40.1314C45.9116 38.6264 45.1691 37.5227 43.7845 36.8605C42.8815 36.419 41.9785 35.9976 41.1156 35.496C40.1122 34.914 39.9517 34.4525 40.3932 33.3889C40.6741 32.6866 40.9751 32.0043 41.3564 31.3622C42.4802 29.4558 42.4601 27.5695 41.3363 25.6832C40.9952 25.1213 40.7544 24.5193 40.4935 23.9173C39.9116 22.5327 40.032 22.1313 41.3363 21.449C42.0387 21.0678 42.7611 20.7066 43.4835 20.3855C45.2293 19.5828 46.032 18.1581 46.2327 16.3119C46.313 15.5694 46.3932 14.8269 46.5538 14.0844C46.7544 13.061 47.1959 12.7199 48.2394 12.8202C49.1625 12.9005 50.0655 13.0811 50.9886 13.2216C52.4936 13.4824 53.8381 13.1614 54.9418 12.0978C55.7043 11.3754 56.4468 10.6128 57.2094 9.9105C58.1324 9.06769 58.6742 9.04762 59.6375 9.83024C60.2194 10.3118 60.7813 10.8336 61.2629 11.3955C62.7479 13.1212 64.5539 13.6229 66.7412 13.0811C67.4837 12.9005 68.2663 12.8804 69.0489 12.8002C69.7512 12.7199 70.1526 13.0811 70.2931 13.7232C70.5138 14.847 70.7145 15.9908 70.8951 17.1146C71.1158 18.4791 71.8181 19.4624 73.0422 20.1046C73.9854 20.5862 74.9285 21.0276 75.8516 21.5494C76.855 22.1313 77.0356 22.5929 76.5941 23.6564C76.1928 24.6598 75.6911 25.6029 75.2295 26.5862C74.6075 27.8906 74.6075 29.1949 75.2295 30.4993C75.651 31.4023 76.1125 32.2852 76.5138 33.2083C77.0556 34.4926 76.9152 34.914 75.7112 35.5963C74.9887 35.9976 74.2463 36.3789 73.5038 36.7C71.7579 37.4625 70.9553 38.8472 70.7747 40.6933C70.6944 41.5562 70.5138 42.4191 70.3332 43.282C70.1526 43.9843 69.7111 44.4057 68.8884 44.3054ZM46.614 28.7334C46.5538 35.0344 51.8113 40.3522 58.1324 40.3923C64.9753 40.4325 70.3733 35.2552 70.4335 28.5728C70.4937 22.0511 65.1358 16.633 58.594 16.5728C51.9117 16.5326 46.6742 21.8504 46.614 28.7334Z" fill="#D1363F"/>
<path d="M13.4431 40.834C16.1723 48.5598 18.8813 56.2053 21.6104 63.9111C14.3662 63.9111 7.24243 63.9111 0.118641 63.9111C-1.00511 57.1083 6.03841 44.8675 13.4431 40.834Z" fill="#D1363F"/>
<path d="M35.5168 63.8909C38.246 56.1651 40.955 48.4995 43.6841 40.854C43.7644 40.854 43.8447 40.854 43.9049 40.8741C43.9651 41.1751 44.0453 41.4761 44.1055 41.7771C44.2259 42.4192 44.2861 43.0614 44.4467 43.6834C45.0286 45.8507 46.5938 46.9142 48.8012 46.4527C49.8648 46.232 50.4066 46.5731 51.0086 47.3557C54.4802 51.8507 56.4869 56.9076 57.0287 62.5665C57.0688 62.9879 57.0287 63.4093 57.0287 63.8909C49.9049 63.8909 42.761 63.8909 35.5168 63.8909Z" fill="#D1363F"/>
<path d="M32.6674 63.8909C29.8981 63.8909 27.2292 63.8909 24.46 63.8909C25.0419 58.212 25.6038 52.5932 26.1857 46.8942C27.7108 46.8942 29.1757 46.8741 30.6406 46.9142C30.761 46.9142 30.9617 47.1952 30.9817 47.3758C31.3028 50.4059 31.6038 53.4561 31.9048 56.5063C32.1256 58.7538 32.3664 61.0013 32.5871 63.2287C32.6272 63.4294 32.6473 63.61 32.6674 63.8909Z" fill="#D1363F"/>
<path d="M34.7743 36.981C37.082 37.8238 39.3496 38.6265 41.7376 39.4893C39.3295 46.3121 36.9817 52.9744 34.6339 59.6166C34.5937 59.6166 34.5536 59.5965 34.4934 59.5965C34.3529 58.4125 34.2325 57.2085 34.1121 56.0246C33.791 52.7938 33.4098 49.5429 33.189 46.3121C33.1088 45.2084 33.4298 44.0847 33.6104 42.981C33.9115 41.2352 34.2325 39.4893 34.5536 37.7435C34.5737 37.5629 34.6539 37.3823 34.7743 36.981Z" fill="#D1363F"/>
<path d="M22.4733 59.5966C20.1255 52.9745 17.7977 46.3724 15.4298 39.6901C17.6372 38.4861 19.9248 37.7035 22.4131 37.1416C22.6138 38.1851 22.8145 39.1684 22.9951 40.1717C23.2158 41.3958 23.3563 42.66 23.6774 43.8641C24.1188 45.4895 23.9182 47.0948 23.7576 48.7002C23.4165 52.0113 23.0753 55.3223 22.7342 58.6334C22.6941 58.9545 22.6539 59.2755 22.6138 59.5966C22.5536 59.5966 22.5135 59.5966 22.4733 59.5966Z" fill="#D1363F"/>
<path d="M31.0017 44.6466C29.3361 44.6466 27.7709 44.6466 26.1053 44.6466C25.6237 42.0378 25.1421 39.4492 24.6605 36.7803C27.2692 36.3589 29.7977 36.3789 32.4465 36.7602C31.9649 39.389 31.4833 41.9977 31.0017 44.6466Z" fill="#D1363F"/>
<path d="M58.4735 18.9404C63.9719 18.9404 68.2261 23.0341 68.1458 28.4923C68.0455 34.9941 63.1893 38.1044 58.5137 38.0844C52.935 38.0844 48.7812 33.9907 48.8012 28.4923C48.8213 23.0341 52.9551 18.9404 58.4735 18.9404Z" fill="#D1363F"/>
</svg>
