<svg width="63" height="64" viewBox="0 0 63 64" fill="none" xmlns="http://www.w3.org/2000/svg">
<path d="M1.34442 63.9956C1.2517 63.9338 1.14353 63.8719 1.05081 63.8101C0.262708 63.3774 -0.139069 62.543 0.0463664 61.7549C0.247255 60.8741 0.927174 60.3023 1.8698 60.2869C4.9604 60.2714 8.05099 60.2714 11.1416 60.2714C11.3579 60.2714 11.5743 60.2714 11.8524 60.1478C11.6052 59.9933 11.3579 59.8233 11.1107 59.6687C5.99575 56.2382 2.48793 51.6177 0.819014 45.6529C0.262708 43.6595 0.015453 41.6197 0 39.549C0 36.3811 0 33.1978 0 30.03C0 28.6237 0.726296 27.8975 2.13252 27.8975C17.8327 27.8975 33.5329 27.8975 49.2331 27.8975C50.6084 27.8975 51.3347 28.5928 51.3347 29.9836C51.3347 33.7387 51.4429 37.4937 51.2575 41.2334C50.9948 46.271 49.0786 50.7215 45.8798 54.6311C44.18 56.7018 42.1866 58.448 39.9304 59.8851C39.7914 59.9778 39.6677 60.0705 39.5596 60.2714C39.7759 60.2714 39.9768 60.2714 40.1931 60.2714C43.2683 60.2714 46.328 60.256 49.4031 60.2714C50.7166 60.2714 51.5665 61.3377 51.2884 62.5739C51.1184 63.3156 50.5775 63.6865 49.944 63.9801C33.7338 63.9956 17.5391 63.9956 1.34442 63.9956Z" fill="#D1363F"/>
<path d="M18.0491 7.05166C18.0028 9.32325 17.1065 10.9613 15.6385 12.352C15.1131 12.8465 14.5722 13.3256 14.0932 13.8664C13.2742 14.7936 13.166 15.8907 13.7223 16.9725C14.0932 17.6987 14.6031 18.3478 15.1285 18.9813C15.8548 19.8467 15.8857 20.9593 15.1285 21.6856C14.3868 22.3964 13.2587 22.3964 12.4706 21.6238C10.9871 20.1867 9.95177 18.4714 9.68907 16.3852C9.39547 14.0364 10.3844 12.1511 12.0379 10.5595C12.5633 10.065 13.1042 9.58594 13.5832 9.04509C14.3868 8.11791 14.5104 7.02075 13.9541 5.93905C13.5987 5.22821 13.1042 4.57919 12.5942 3.97652C11.8216 3.08025 11.7752 1.96764 12.5479 1.21044C13.3205 0.468701 14.4331 0.515059 15.2521 1.31861C16.8901 2.97208 17.9255 4.88825 18.0491 7.05166Z" fill="#D1363F"/>
<path d="M21.4796 15.9521C21.4796 13.5569 22.4531 11.9188 23.9211 10.5126C24.4311 10.0336 24.9719 9.57 25.4201 9.04459C26.2236 8.11742 26.3472 7.02026 25.7909 5.93855C25.4355 5.22772 24.941 4.57869 24.4311 3.97603C23.6584 3.0643 23.6121 1.96714 24.4002 1.2254C25.1728 0.483658 26.27 0.530016 27.1044 1.34902C28.4797 2.69343 29.4533 4.26963 29.7778 6.17035C30.2105 8.61191 29.2678 10.5899 27.568 12.2743C27.1662 12.6606 26.7336 13.016 26.3318 13.4023C25.1419 14.5458 24.8947 15.8748 25.7137 17.3119C26.0691 17.9455 26.579 18.5018 27.0426 19.0736C27.9698 20.1862 27.5526 21.7315 26.1773 22.1332C25.5591 22.3187 24.9565 22.1951 24.4929 21.7778C22.7003 20.1244 21.5723 18.1464 21.4796 15.9521Z" fill="#D1363F"/>
<path d="M41.692 7.08242C41.692 9.30764 40.7494 10.9611 39.2814 12.3673C38.7405 12.8773 38.1842 13.3563 37.7052 13.9281C36.9789 14.7934 36.8089 15.8133 37.3343 16.8023C37.7515 17.6059 38.3233 18.3476 38.8951 19.0739C39.7913 20.202 39.3586 21.8091 37.9833 22.1027C37.4888 22.2109 36.7625 22.0872 36.3762 21.7782C34.7382 20.4029 33.6719 18.6412 33.3783 16.4778C33.0538 14.0981 34.0119 12.1819 35.6808 10.5748C36.2062 10.0648 36.778 9.57034 37.257 9.01403C38.0451 8.10231 38.1842 7.03606 37.6434 5.9698C37.2879 5.25897 36.7935 4.60994 36.2835 4.00728C35.4645 3.04919 35.4181 1.98294 36.2371 1.21029C37.0252 0.468549 38.1224 0.530361 38.9723 1.39573C40.564 3.00283 41.5993 4.88809 41.692 7.08242Z" fill="#D1363F"/>
<path d="M52.9882 50.0571C53.3745 48.8363 53.7454 47.6619 54.1472 46.5029C54.1936 46.3638 54.4562 46.2402 54.6262 46.2093C57.176 45.7303 58.9222 43.5823 59.1849 41.388C59.5712 38.2665 57.6705 36.0258 55.4761 35.2377C55.1362 35.1141 54.9817 34.9596 54.9971 34.5887C55.028 33.507 55.0126 32.4098 55.0126 31.3281C58.6131 31.6063 63.419 35.3613 62.9708 41.3262C62.569 46.8274 57.7941 50.3816 52.9882 50.0571Z" fill="#D1363F"/>
</svg>
