<svg width="47" height="62" viewBox="0 0 47 62" fill="none" xmlns="http://www.w3.org/2000/svg">
<path d="M12.2406 61.0859C11.6411 60.8019 11.2782 60.3286 10.9943 59.7449C10.237 58.1672 9.43239 56.6053 8.62778 54.9961C8.20182 55.2643 7.8074 55.5168 7.41299 55.7692C6.22975 56.5422 5.04651 57.3311 3.86327 58.1199C3.23221 58.5459 2.58537 58.609 1.92276 58.1672C1.2917 57.757 1.03927 57.0944 1.24437 56.3056C2.82202 50.3894 4.41545 44.4574 6.00888 38.5412C6.02466 38.5097 6.04043 38.4781 6.10354 38.3677C6.56106 38.4939 7.09746 38.557 7.52343 38.7936C7.82318 38.9672 8.10716 39.3458 8.20182 39.6771C8.51735 40.813 8.754 41.9647 9.0222 43.1164C9.47972 45.0885 11.2309 46.1455 13.203 45.6091C14.3862 45.2936 15.5537 44.9465 16.7211 44.631C16.9893 44.5678 17.2733 44.5205 17.5257 44.5363C18.0937 44.5994 18.283 44.8992 18.141 45.4513C16.8789 50.2001 15.601 54.9488 14.3389 59.6975C14.1653 60.3602 13.7236 60.7703 13.1714 61.0859C12.8717 61.0859 12.5561 61.0859 12.2406 61.0859Z" fill="#D1363F"/>
<path d="M33.0656 61.086C32.2925 60.7231 31.977 60.0447 31.7719 59.2559C30.5886 54.7596 29.3738 50.2633 28.1748 45.7669C27.954 44.915 28.5535 44.2682 29.4212 44.4891C30.6044 44.8046 31.7561 45.1832 32.9236 45.5303C34.9745 46.1456 36.6942 45.199 37.2463 43.1323C37.5303 42.0752 37.8301 41.0024 38.0509 39.9296C38.2403 38.983 38.7293 38.4624 39.6917 38.3678C39.8337 38.352 39.9599 38.3047 40.165 38.2573C40.4647 39.3617 40.7487 40.4503 41.0485 41.5546C42.3579 46.4138 43.6516 51.273 44.9611 56.1321C45.2766 57.2838 44.8033 58.2304 43.7463 58.3882C43.3045 58.4513 42.7681 58.2935 42.3737 58.0569C40.9696 57.1892 39.597 56.2583 38.2245 55.3433C38.0667 55.2329 37.8932 55.1382 37.6723 54.9962C37.483 55.3591 37.3094 55.7062 37.1359 56.0375C36.5206 57.268 35.8896 58.4986 35.29 59.7292C35.0061 60.3287 34.6432 60.7862 34.0437 61.0702C33.6966 61.086 33.3811 61.086 33.0656 61.086Z" fill="#D1363F"/>
<path d="M17.0525 42.5171C16.2636 42.7379 15.3013 42.9904 14.3231 43.2586C13.7867 43.4005 13.2661 43.5583 12.7297 43.7003C11.7831 43.9527 11.1678 43.5899 10.947 42.6117C10.7103 41.5705 10.4579 40.545 10.237 39.5037C9.90571 37.9576 9.02222 36.9953 7.44456 36.664C6.35598 36.4273 5.2674 36.1276 4.17882 35.8436C3.12179 35.5754 2.77472 34.9759 3.09025 33.9031C3.39 32.8776 3.68975 31.8679 4.00528 30.8582C4.47858 29.391 4.16304 28.1446 3.04291 27.1034C2.22253 26.3303 1.41793 25.5415 0.613329 24.7685C-0.207051 23.9639 -0.207055 23.2697 0.629101 22.4966C1.40215 21.7709 2.19098 21.0452 2.96403 20.3195C4.05261 19.3098 4.43124 18.1265 3.9895 16.6909C3.64242 15.5392 3.32689 14.3875 3.01136 13.2358C2.75894 12.2892 3.13757 11.6424 4.08417 11.4215C5.15697 11.1691 6.22977 10.9324 7.30257 10.68C8.75401 10.3645 9.65328 9.49678 10.0004 8.04534C10.2843 6.87787 10.5841 5.72618 10.8996 4.55872C11.1521 3.58057 11.7516 3.26505 12.7297 3.54902C13.8498 3.88033 14.9542 4.22741 16.0585 4.54294C17.3522 4.92158 18.4724 4.6376 19.419 3.69101C20.2867 2.8233 21.1228 1.93982 21.9747 1.07211C22.7478 0.283281 23.4262 0.283283 24.1992 1.10366C24.9092 1.84516 25.6191 2.58665 26.2975 3.3597C27.3545 4.54294 28.6009 4.93736 30.1312 4.46406C31.204 4.13275 32.2926 3.84878 33.3654 3.54902C34.4698 3.23349 35.0535 3.58058 35.3059 4.70071C35.5583 5.80507 35.8265 6.9252 36.0947 8.02955C36.4103 9.32323 37.2149 10.1278 38.4928 10.4749C39.7076 10.8062 40.9381 11.0902 42.1529 11.4057C43.1153 11.6582 43.4624 12.2734 43.1784 13.2358C42.8787 14.2771 42.5631 15.3025 42.2318 16.3438C41.7585 17.7952 42.0425 19.0416 43.1784 20.1144C44.0303 20.9032 44.8507 21.7236 45.6869 22.544C46.4284 23.2697 46.4284 23.9639 45.6711 24.6896C44.8665 25.4626 44.0303 26.2357 43.21 26.9929C42.1687 27.9711 41.8216 29.1386 42.2318 30.5269C42.5631 31.6628 42.8944 32.7987 43.21 33.9346C43.4939 34.9601 43.1469 35.5596 42.1056 35.812C40.9855 36.0802 39.8496 36.3484 38.7136 36.6166C37.4042 36.9322 36.5838 37.7525 36.2525 39.0462C35.937 40.2452 35.653 41.4442 35.3375 42.6433C35.0693 43.6372 34.4698 43.9843 33.4758 43.6845C32.4188 43.369 31.3618 43.0535 30.3205 42.7221C28.9006 42.2646 27.6859 42.5959 26.6604 43.6687C25.9031 44.4733 25.1301 45.2622 24.357 46.051C23.4735 46.966 22.8267 46.966 21.959 46.051C21.1544 45.1991 20.3655 44.3471 19.5609 43.511C18.9457 42.8326 18.1411 42.5644 17.0525 42.5171ZM23.1264 39.1093C31.7089 39.1093 38.6348 32.1992 38.6348 23.601C38.6348 15.0343 31.6931 8.07689 23.1264 8.07689C14.5598 8.07689 7.6181 15.0343 7.6181 23.601C7.6181 32.1834 14.5282 39.1093 23.1264 39.1093Z" fill="#D1363F"/>
<path d="M36.6784 23.6011C36.6784 31.0476 30.6044 37.1531 23.1579 37.1689C15.6956 37.1847 9.57431 31.0792 9.55853 23.6169C9.55853 16.1388 15.6483 10.0648 23.1421 10.0806C30.636 10.0806 36.6784 16.1388 36.6784 23.6011ZM27.7331 26.2989C27.6384 25.1156 27.0547 24.0586 25.8084 23.4591C25.2404 23.1909 24.6251 23.0647 24.0256 22.8754C23.2999 22.6387 22.5584 22.4494 21.8484 22.1339C21.1701 21.8341 20.8861 21.2346 20.9807 20.4773C21.0754 19.7674 21.5014 19.2941 22.1798 19.1837C22.8424 19.0732 23.5523 19.0574 24.2149 19.1521C24.8775 19.2625 25.3508 19.7201 25.6033 20.3985C25.8557 21.0926 26.329 21.3766 26.8812 21.203C27.4491 21.0137 27.67 20.4458 27.4333 19.7358C27.102 18.7261 26.471 17.8742 25.477 17.5744C24.3096 17.2431 23.8994 16.6594 24.0572 15.4762C24.1203 14.9871 23.6312 14.6085 23.1421 14.5927C22.6215 14.5769 22.2113 14.9555 22.164 15.5077C22.1482 15.8075 22.1166 16.1072 22.164 16.3912C22.2271 16.9276 22.0535 17.1643 21.5014 17.3378C20.0026 17.8111 19.1507 18.8997 19.0087 20.4616C18.8825 21.9288 19.5135 23.0805 20.7914 23.8062C21.3594 24.1375 22.0062 24.3426 22.6373 24.5477C23.3472 24.7843 24.0887 24.8948 24.7829 25.163C25.8557 25.5732 26.0923 26.8668 25.2088 27.5925C24.8302 27.9081 24.278 28.129 23.7732 28.1921C22.2113 28.3656 21.1543 27.6083 20.4759 26.22C20.1288 25.5101 19.624 25.2892 19.056 25.5732C18.5038 25.8414 18.3776 26.3778 18.7089 27.0877C19.3242 28.4129 20.2866 29.3911 21.6749 29.8801C22.0378 30.0064 22.1798 30.1799 22.1482 30.5585C22.1166 30.953 22.1324 31.3474 22.1482 31.7418C22.1798 32.2624 22.5742 32.6095 23.079 32.6095C23.6312 32.6253 24.0256 32.2782 24.0572 31.726C24.0887 31.3947 24.0887 31.0476 24.0572 30.7163C24.0256 30.3219 24.136 30.1483 24.562 30.0537C26.5025 29.5962 27.7331 28.1605 27.7331 26.2989Z" fill="#D1363F"/>
</svg>
