<svg width="67" height="67" viewBox="0 0 67 67" fill="none" xmlns="http://www.w3.org/2000/svg">
<path d="M60.4004 53.2722C58.0183 55.6362 55.6904 57.9642 53.3083 60.3643C51.3773 58.9206 49.3923 57.4589 47.4072 55.9791C45.0432 57.513 42.5347 58.6499 39.7917 59.2455C39.6474 59.2815 39.503 59.5522 39.4669 59.7327C39.1421 61.7539 38.8353 63.775 38.5285 65.7962C38.4924 66.0669 38.4383 66.3195 38.3841 66.6083C35.0275 66.6083 31.7071 66.6083 28.2783 66.6083C28.0978 65.2729 27.9174 63.9194 27.7369 62.5659C27.6106 61.6095 27.4843 60.6531 27.3218 59.6966C27.2858 59.5161 27.0872 59.2635 26.9248 59.2094C25.6436 58.7402 24.3081 58.3612 23.0449 57.8379C21.7997 57.3145 20.6267 56.6649 19.3455 56.0332C17.4326 57.4589 15.4655 58.9206 13.5527 60.3282C11.1345 57.91 8.75238 55.528 6.2981 53.0737C7.68766 51.2149 9.14939 49.2479 10.5029 47.4072C9.69078 45.6026 8.89675 43.9062 8.17491 42.1738C7.85008 41.4159 7.65157 40.5858 7.45306 39.7917C7.36283 39.4488 7.23651 39.3225 6.87558 39.2864C4.71005 39.0157 2.54451 38.709 0.378975 38.4202C0.270699 38.4022 0.162415 38.3841 0 38.348C0 34.9915 0 31.6529 0 28.2422C1.71438 27.9715 3.41072 27.5925 5.12511 27.4662C6.49661 27.3579 7.23651 26.9068 7.54329 25.445C8.03054 23.2073 9.07721 21.1862 10.3404 19.2372C8.87871 17.2521 7.39892 15.2851 5.99132 13.3722C8.39145 10.9901 10.7194 8.6441 13.1195 6.24396C15.0144 7.65156 16.9814 9.1133 18.8582 10.5028C20.4102 9.781 21.908 9.04111 23.4239 8.4095C24.3984 8.01248 25.427 7.72375 26.4376 7.45305C26.8346 7.34478 27.0331 7.20041 27.0873 6.7673C27.3579 4.78223 27.6828 2.79715 27.9896 0.830122C28.0257 0.55943 28.0798 0.306784 28.1339 0C31.4905 0 34.8471 0 38.2578 0C38.4744 1.6422 38.709 3.2844 38.9255 4.92659C39.0157 5.64844 38.9075 6.51465 39.2864 7.01995C39.6293 7.4711 40.5316 7.4711 41.1632 7.74179C43.1664 8.58996 45.1695 9.45617 47.2628 10.3585C49.0855 9.00502 51.0525 7.54328 52.9835 6.11764C55.4197 8.53582 57.8018 10.9179 60.238 13.3361C58.7943 15.2851 57.3326 17.2521 55.8528 19.2372C57.4408 21.511 58.3612 24.0735 59.083 26.7083C59.1372 26.8887 59.4079 27.1233 59.5883 27.1594C61.5915 27.4482 63.5946 27.7008 65.6157 27.9715C65.9045 28.0076 66.1932 28.0617 66.5 28.1159C66.5 31.4905 66.5 34.811 66.5 38.2217C65.0563 38.4563 63.6307 38.6729 62.187 38.9075C61.3569 39.0338 60.5448 39.1421 59.7147 39.3225C59.5162 39.3586 59.2635 39.5932 59.2094 39.7917C58.4695 42.4445 57.5311 45.0251 55.9791 47.3711C57.4769 49.3201 58.9206 51.2871 60.4004 53.2722ZM33.2771 54.5535C45.0612 54.5354 54.6256 44.9529 54.5896 33.2049C54.5535 21.4027 45.0071 11.8744 33.241 11.8924C21.4569 11.9104 11.8924 21.4929 11.9285 33.2229C11.9465 45.0071 21.529 54.5715 33.2771 54.5535Z" fill="#D1363F"/>
<path d="M33.1688 48.5984C31.5808 42.4808 29.9927 36.3632 28.3866 30.1733C31.6529 30.1733 34.8291 30.1733 38.0954 30.1733C36.4893 36.3451 34.9012 42.4628 33.3132 48.5984C33.2951 48.5984 33.223 48.5984 33.1688 48.5984Z" fill="#D1363F"/>
<path d="M17.974 30.0109C20.6268 30.0109 23.081 29.9928 25.5353 30.0289C25.7158 30.0289 25.9865 30.3357 26.0406 30.5522C27.1053 34.5765 28.134 38.6008 29.1806 42.6251C29.5777 44.1951 29.9927 45.7471 30.2815 47.3893C26.2211 41.6326 22.1607 35.8939 17.974 30.0109Z" fill="#D1363F"/>
<path d="M48.5441 30.0105C44.3574 35.9116 40.297 41.6503 36.2186 47.407C36.1825 47.3889 36.1464 47.3709 36.1104 47.3528C36.5254 45.7106 36.9405 44.0684 37.3736 42.4262C38.3842 38.5102 39.4308 34.5942 40.4234 30.6782C40.5497 30.1729 40.7482 29.9925 41.2715 30.0105C43.4371 30.0466 45.6026 30.0285 47.7681 30.0285C47.9667 30.0105 48.1471 30.0105 48.5441 30.0105Z" fill="#D1363F"/>
<path d="M37.2653 27.6289C34.5223 27.6289 31.8875 27.6289 29.1265 27.6289C30.4619 25.734 31.7612 23.8933 33.1147 21.9624C34.5223 23.8753 35.8577 25.716 37.2653 27.6289Z" fill="#D1363F"/>
<path d="M39.503 26.5822C38.1315 24.7054 36.8502 22.9188 35.5148 21.0601C37.9871 21.0601 40.3331 21.0601 42.8235 21.0601C41.7046 22.9188 40.6399 24.6873 39.503 26.5822Z" fill="#D1363F"/>
<path d="M23.5682 21.0601C26.0586 21.0601 28.4046 21.0601 30.895 21.0601C29.5415 22.9369 28.2422 24.7054 26.8887 26.5822C25.7518 24.7054 24.6871 22.9369 23.5682 21.0601Z" fill="#D1363F"/>
<path d="M24.651 27.6286C22.305 27.6286 20.0854 27.6286 17.7394 27.6286C19.0026 25.7698 20.1936 23.9832 21.4569 22.1064C22.5577 23.9832 23.5863 25.7698 24.651 27.6286Z" fill="#D1363F"/>
<path d="M41.8669 27.6286C42.9317 25.7879 43.9423 24.0193 45.0431 22.1064C46.2522 23.9652 47.4252 25.7518 48.6342 27.6286C46.3424 27.6286 44.1588 27.6286 41.8669 27.6286Z" fill="#D1363F"/>
</svg>
