<svg width="107" height="43" viewBox="0 0 107 43" fill="none" xmlns="http://www.w3.org/2000/svg">
<g clip-path="url(#clip0_3084_5909)">
<path d="M106.647 0H0.647217V43H106.647V0Z" fill="white"/>
<path d="M102.837 3.71892H40.8942V39.2811H102.837V3.71892Z" fill="#FFD520"/>
<path d="M46.5449 10.391H51.3307C54.0433 10.391 55.2867 12.0106 55.2867 14.3766V17.8973C55.2567 19.8277 54.1085 20.4198 52.1605 20.8553V20.9165C54.2965 21.3251 55.382 21.8805 55.382 24.3736V27.8919C55.382 30.5392 54.136 32.565 51.2981 32.565H46.5449V10.391ZM49.9268 19.5781H50.694C51.5539 19.5781 51.9048 19.2087 51.9048 17.9291V14.5649C51.9048 13.2878 51.5539 12.9159 50.694 12.9159H49.9268V19.5781ZM49.9268 29.9177H50.5962C51.5539 29.9177 52.0026 29.5458 52.0026 28.1733V23.9699C52.0026 22.5998 51.5539 22.223 50.5962 22.223H49.9268V29.9177Z" fill="#231F20"/>
<path d="M57.172 13.6939C57.172 10.7995 59.501 9.95545 61.5742 9.95545C63.6475 9.95545 66.0091 10.7971 66.0091 13.6939V29.2669C66.0091 32.1613 63.6801 33.0005 61.5742 33.0005C59.4684 33.0005 57.172 32.1589 57.172 29.2669V13.6939ZM60.5539 28.9831C60.5539 30.1037 60.9049 30.3532 61.6068 30.3532C62.3088 30.3532 62.6272 30.1061 62.6272 28.9831V13.9729C62.6272 12.8498 62.2762 12.6027 61.6068 12.6027C60.9375 12.6027 60.5539 12.8498 60.5539 13.9729V28.9831Z" fill="#231F20"/>
<path d="M70.4089 10.391L71.4618 19.6418C71.715 21.8217 71.9732 26.1499 72.2289 28.3617H72.2916C72.4822 25.6826 72.7379 23.0353 72.9635 20.3904L73.9813 10.3934H77.3657L74.6858 32.5675H69.5816L67.0295 10.3934H70.4114L70.4089 10.391Z" fill="#231F20"/>
<path d="M79.8551 10.391H84.9293L87.5114 32.565H84.0994L83.4602 26.5536H81.0685L80.334 32.565H77.2704L79.8551 10.391ZM83.1418 23.6592L82.4398 14.4402H82.2167L81.3869 23.6592H83.1443H83.1418Z" fill="#231F20"/>
<path d="M97.4366 18.4894V13.6939C97.4366 10.7995 95.1076 9.95789 93.0017 9.95789C90.8959 9.95789 88.5995 10.7995 88.5995 13.6939V29.2669C88.5995 32.1589 90.9285 33.0005 93.0017 33.0005C95.075 33.0005 97.4366 32.1589 97.4366 29.2669V21.5159H97.404H93.087V24.1705H94.0547V28.988C94.0547 30.1086 93.7037 30.3581 93.0343 30.3581C92.3299 30.3581 91.9814 30.111 91.9814 28.988V13.9778C91.9814 12.8547 92.3324 12.6076 93.0343 12.6076C93.7363 12.6076 94.0547 12.8547 94.0547 13.9778V18.4918H97.4366V18.4894Z" fill="#231F20"/>
<path d="M24.1125 25.7168C23.6587 25.8636 23.1774 25.9468 22.6735 25.9468C20.159 25.9468 18.1183 23.9552 18.1183 21.5012C18.1183 19.0472 20.1565 17.0556 22.6735 17.0556C25.1905 17.0556 27.2287 19.0448 27.2287 21.5012C27.2287 21.8927 27.171 22.2695 27.0732 22.6316L34.5139 29.311C36.0607 27.082 36.9633 24.3956 36.9633 21.5012C36.9633 13.7991 30.5655 7.55283 22.6735 7.55283C14.7815 7.55283 8.38623 13.7967 8.38623 21.5012C8.38623 29.2057 14.784 35.4472 22.6735 35.4472C26.0379 35.4472 29.129 34.3095 31.5682 32.4133L24.11 25.7193L24.1125 25.7168Z" fill="#231F20"/>
<path d="M28.595 3.71892C34.4112 5.56125 39.0065 10.046 40.8942 15.7222V3.71892H28.595ZM4.45782 15.7222C6.34558 10.046 10.9409 5.56125 16.7571 3.71647H4.45782V15.7222ZM4.45782 27.2753V39.2786H16.7571C10.9409 37.4363 6.34809 32.9516 4.45782 27.2753ZM28.595 39.2786H40.8942V27.2753C39.0065 32.9516 34.4112 37.4339 28.595 39.2786Z" fill="#231F20"/>
<path d="M24.1125 25.7168C23.6587 25.8636 23.1774 25.9468 22.6735 25.9468C20.159 25.9468 18.1183 23.9552 18.1183 21.5012C18.1183 19.0472 20.1565 17.0556 22.6735 17.0556C25.1905 17.0556 27.2287 19.0448 27.2287 21.5012C27.2287 21.8927 27.171 22.2695 27.0732 22.6316L31.844 26.9157C32.8243 25.3376 33.3883 23.483 33.3883 21.5037C33.3883 15.7271 28.59 11.0442 22.671 11.0442C16.752 11.0442 11.9562 15.7271 11.9562 21.5037C11.9562 27.2802 16.7545 31.9631 22.671 31.9631C24.9925 31.9631 27.1409 31.2389 28.8958 30.0156L24.11 25.7193L24.1125 25.7168Z" fill="#ED1C24"/>
<path d="M20.3245 21.4963C20.3245 20.229 21.3774 19.2063 22.676 19.2038C23.9746 19.2038 25.0276 20.2265 25.0276 21.4963C25.0276 22.7637 23.9746 23.7913 22.676 23.7913C21.3774 23.7913 20.3245 22.7637 20.3245 21.4963ZM21.2997 21.4963C21.2997 22.2377 21.9164 22.8371 22.6735 22.8395C23.4331 22.8395 24.0473 22.2377 24.0473 21.4963C24.0473 20.755 23.4331 20.1556 22.6735 20.1556C21.9139 20.1556 21.2997 20.755 21.2997 21.4963Z" fill="#231F20"/>
</g>
<defs>
<clipPath id="clip0_3084_5909">
<rect width="106" height="43" fill="white" transform="translate(0.647217)"/>
</clipPath>
</defs>
</svg>
