<svg width="1728" height="1029" viewBox="0 0 1728 1029" fill="none" xmlns="http://www.w3.org/2000/svg">
<path d="M1822.88 503.339L1667.92 425.155C1590.1 385.896 1497.8 388.191 1422.03 431.267L1419.34 432.795C1342.25 476.62 1247.93 477.211 1170.3 434.357L1154.63 425.708C1083.69 386.544 997.131 388.714 928.238 431.383V431.383C856.892 475.572 766.839 476.213 694.871 433.042L688.409 429.166C618.992 387.527 533.104 384.274 460.737 420.544L400.581 450.694C336.194 482.964 259.107 476.128 201.404 433.031V433.031C143.408 389.715 65.8615 383.046 1.32171 415.824L-170.994 503.339" stroke="#14112C" stroke-opacity="0.1" stroke-width="1.5"/>
<path d="M1822.88 150.563L1667.92 72.3801C1590.1 33.1212 1497.8 35.4152 1422.03 78.4914L1419.34 80.0202C1342.25 123.844 1247.93 124.436 1170.3 81.5819L1154.63 72.9325C1083.69 33.7691 997.131 35.9389 928.238 78.6077V78.6077C856.892 122.797 766.839 123.437 694.871 80.2672L688.409 76.3908C618.992 34.7515 533.104 31.4986 460.737 67.7683L400.581 97.9182C336.194 130.188 259.107 123.352 201.404 80.2553V80.2553C143.408 36.9397 65.8615 30.271 1.32171 63.049L-170.994 150.563" stroke="#14112C" stroke-opacity="0.1" stroke-width="1.5"/>
<path d="M1822.88 679.727L1667.92 601.544C1590.1 562.285 1497.8 564.579 1422.03 607.655L1419.34 609.184C1342.25 653.008 1247.93 653.6 1170.3 610.745L1154.63 602.096C1083.69 562.933 997.131 565.103 928.238 607.771V607.771C856.892 651.96 766.839 652.601 694.871 609.431L688.409 605.554C618.992 563.915 533.104 560.662 460.737 596.932L400.581 627.082C336.194 659.352 259.107 652.516 201.404 609.419V609.419C143.408 566.103 65.8615 559.435 1.32171 592.213L-170.994 679.727" stroke="#14112C" stroke-opacity="0.1" stroke-width="1.5"/>
<path d="M1822.88 326.95L1667.92 248.767C1590.1 209.508 1497.8 211.802 1422.03 254.878L1419.34 256.407C1342.25 300.231 1247.93 300.823 1170.3 257.969L1154.63 249.32C1083.69 210.156 997.131 212.326 928.238 254.995V254.995C856.892 299.184 766.839 299.824 694.871 256.654L688.409 252.778C618.992 211.139 533.104 207.886 460.737 244.155L400.581 274.305C336.194 306.575 259.107 299.739 201.404 256.642V256.642C143.408 213.327 65.8615 206.658 1.32171 239.436L-170.994 326.95" stroke="#14112C" stroke-opacity="0.1" stroke-width="1.5"/>
<path d="M1822.88 856.115L1667.92 777.932C1590.1 738.673 1497.8 740.967 1422.03 784.043L1419.34 785.572C1342.25 829.396 1247.93 829.988 1170.3 787.134L1154.63 778.484C1083.69 739.321 997.131 741.491 928.238 784.16V784.16C856.892 828.349 766.839 828.989 694.871 785.819L688.409 781.943C618.992 740.303 533.104 737.051 460.737 773.32L400.581 803.47C336.194 835.74 259.107 828.904 201.404 785.807V785.807C143.408 742.492 65.8615 735.823 1.32171 768.601L-170.994 856.115" stroke="#14112C" stroke-opacity="0.1" stroke-width="1.5"/>
<path d="M1822.88 18.273L1667.92 -59.9102C1590.1 -99.1691 1497.8 -96.8751 1422.03 -53.7989L1419.34 -52.2701C1342.25 -8.44588 1247.93 -7.85438 1170.3 -50.7084L1154.63 -59.3578C1083.69 -98.5212 997.131 -96.3514 928.238 -53.6826V-53.6826C856.892 -9.4934 766.839 -8.85305 694.871 -52.0231L688.409 -55.8995C618.992 -97.5388 533.104 -100.792 460.737 -64.522L400.581 -34.3721C336.194 -2.10201 259.107 -8.93805 201.404 -52.035V-52.035C143.408 -95.3506 65.8615 -102.019 1.32171 -69.2413L-170.994 18.273" stroke="#14112C" stroke-opacity="0.1" stroke-width="1.5"/>
<path d="M1822.88 547.436L1667.92 469.253C1590.1 429.994 1497.8 432.288 1422.03 475.364L1419.34 476.893C1342.25 520.717 1247.93 521.308 1170.3 478.454L1154.63 469.805C1083.69 430.642 997.131 432.811 928.238 475.48V475.48C856.892 519.669 766.839 520.31 694.871 477.14L688.409 473.263C618.992 431.624 533.104 428.371 460.737 464.641L400.581 494.791C336.194 527.061 259.107 520.225 201.404 477.128V477.128C143.408 433.812 65.8615 427.143 1.32171 459.921L-170.994 547.436" stroke="#14112C" stroke-opacity="0.1" stroke-width="1.5"/>
<path d="M1822.88 194.66L1667.92 116.477C1590.1 77.2179 1497.8 79.512 1422.03 122.588L1419.34 124.117C1342.25 167.941 1247.93 168.533 1170.3 125.679L1154.63 117.029C1083.69 77.8659 997.131 80.0357 928.238 122.704V122.704C856.892 166.894 766.839 167.534 694.871 124.364L688.409 120.488C618.992 78.8482 533.104 75.5954 460.737 111.865L400.581 142.015C336.194 174.285 259.107 167.449 201.404 124.352V124.352C143.408 81.0364 65.8615 74.3677 1.32171 107.146L-170.994 194.66" stroke="#14112C" stroke-opacity="0.1" stroke-width="1.5"/>
<path d="M1822.88 723.824L1667.92 645.641C1590.1 606.382 1497.8 608.676 1422.03 651.752L1419.34 653.281C1342.25 697.105 1247.93 697.697 1170.3 654.843L1154.63 646.193C1083.69 607.03 997.131 609.2 928.238 651.868V651.868C856.892 696.058 766.839 696.698 694.871 653.528L688.409 649.652C618.992 608.012 533.104 604.759 460.737 641.029L400.581 671.179C336.194 703.449 259.107 696.613 201.404 653.516V653.516C143.408 610.2 65.8615 603.532 1.32171 636.31L-170.994 723.824" stroke="#14112C" stroke-opacity="0.1" stroke-width="1.5"/>
<path d="M1822.88 371.047L1667.92 292.864C1590.1 253.605 1497.8 255.899 1422.03 298.976L1419.34 300.504C1342.25 344.329 1247.93 344.92 1170.3 302.066L1154.63 293.417C1083.69 254.253 997.131 256.423 928.238 299.092V299.092C856.892 343.281 766.839 343.921 694.871 300.751L688.409 296.875C618.992 255.236 533.104 251.983 460.737 288.252L400.581 318.402C336.194 350.672 259.107 343.836 201.404 300.739V300.739C143.408 257.424 65.8615 250.755 1.32171 283.533L-170.994 371.047" stroke="#14112C" stroke-opacity="0.1" stroke-width="1.5"/>
<path d="M1822.88 900.212L1667.92 822.029C1590.1 782.77 1497.8 785.064 1422.03 828.14L1419.34 829.669C1342.25 873.493 1247.93 874.085 1170.3 831.231L1154.63 822.581C1083.69 783.418 997.131 785.588 928.238 828.257V828.257C856.892 872.446 766.839 873.086 694.871 829.916L688.409 826.04C618.992 784.4 533.104 781.148 460.737 817.417L400.581 847.567C336.194 879.837 259.107 873.001 201.404 829.904V829.904C143.408 786.589 65.8615 779.92 1.32171 812.698L-170.994 900.212" stroke="#14112C" stroke-opacity="0.1" stroke-width="1.5"/>
<path d="M1822.88 62.3698L1667.92 -15.8134C1590.1 -55.0723 1497.8 -52.7783 1422.03 -9.70214L1419.34 -8.17337C1342.25 35.6509 1247.93 36.2424 1170.3 -6.61167L1154.63 -15.261C1083.69 -54.4244 997.131 -52.2546 928.238 -9.5858V-9.5858C856.892 34.6034 766.839 35.2437 694.871 -7.92633L688.409 -11.8027C618.992 -53.4421 533.104 -56.6949 460.737 -20.4253L400.581 9.7247C336.194 41.9948 259.107 35.1587 201.404 -7.93828V-7.93828C143.408 -51.2539 65.8615 -57.9226 1.32171 -25.1446L-170.994 62.3698" stroke="#14112C" stroke-opacity="0.1" stroke-width="1.5"/>
<path d="M1822.88 591.533L1667.92 513.35C1590.1 474.091 1497.8 476.385 1422.03 519.461L1419.34 520.99C1342.25 564.814 1247.93 565.405 1170.3 522.551L1154.63 513.902C1083.69 474.739 997.131 476.908 928.238 519.577V519.577C856.892 563.766 766.839 564.407 694.871 521.237L688.409 517.36C618.992 475.721 533.104 472.468 460.737 508.738L400.581 538.888C336.194 571.158 259.107 564.322 201.404 521.225V521.225C143.408 477.909 65.8615 471.24 1.32171 504.018L-170.994 591.533" stroke="#14112C" stroke-opacity="0.1" stroke-width="1.5"/>
<path d="M1822.88 238.757L1667.92 160.574C1590.1 121.315 1497.8 123.609 1422.03 166.685L1419.34 168.214C1342.25 212.038 1247.93 212.629 1170.3 169.775L1154.63 161.126C1083.69 121.963 997.131 124.132 928.238 166.801V166.801C856.892 210.99 766.839 211.631 694.871 168.461L688.409 164.584C618.992 122.945 533.104 119.692 460.737 155.962L400.581 186.112C336.194 218.382 259.107 211.546 201.404 168.449V168.449C143.408 125.133 65.8615 118.465 1.32171 151.242L-170.994 238.757" stroke="#14112C" stroke-opacity="0.1" stroke-width="1.5"/>
<path d="M1822.88 767.921L1667.92 689.738C1590.1 650.479 1497.8 652.773 1422.03 695.849L1419.34 697.378C1342.25 741.202 1247.93 741.794 1170.3 698.94L1154.63 690.29C1083.69 651.127 997.131 653.297 928.238 695.966V695.966C856.892 740.155 766.839 740.795 694.871 697.625L688.409 693.749C618.992 652.109 533.104 648.856 460.737 685.126L400.581 715.276C336.194 747.546 259.107 740.71 201.404 697.613V697.613C143.408 654.297 65.8615 647.629 1.32171 680.407L-170.994 767.921" stroke="#14112C" stroke-opacity="0.1" stroke-width="1.5"/>
<path d="M1822.88 415.144L1667.92 336.961C1590.1 297.702 1497.8 299.996 1422.03 343.073L1419.34 344.601C1342.25 388.426 1247.93 389.017 1170.3 346.163L1154.63 337.514C1083.69 298.35 997.131 300.52 928.238 343.189V343.189C856.892 387.378 766.839 388.018 694.871 344.848L688.409 340.972C618.992 299.333 533.104 296.08 460.737 332.349L400.581 362.499C336.194 394.769 259.107 387.933 201.404 344.836V344.836C143.408 301.521 65.8615 294.852 1.32171 327.63L-170.994 415.144" stroke="#14112C" stroke-opacity="0.1" stroke-width="1.5"/>
<path d="M1822.88 944.309L1667.92 866.126C1590.1 826.867 1497.8 829.161 1422.03 872.237L1419.34 873.766C1342.25 917.59 1247.93 918.182 1170.3 875.328L1154.63 866.678C1083.69 827.515 997.131 829.685 928.238 872.354V872.354C856.892 916.543 766.839 917.183 694.871 874.013L688.409 870.137C618.992 828.497 533.104 825.245 460.737 861.514L400.581 891.664C336.194 923.934 259.107 917.098 201.404 874.001V874.001C143.408 830.686 65.8615 824.017 1.32171 856.795L-170.994 944.309" stroke="#14112C" stroke-opacity="0.1" stroke-width="1.5"/>
<path d="M1822.88 106.467L1667.92 28.2834C1590.1 -10.9756 1497.8 -8.68155 1422.03 34.3946L1419.34 35.9234C1342.25 79.7476 1247.93 80.3391 1170.3 37.4851L1154.63 28.8357C1083.69 -10.3276 997.131 -8.15786 928.238 34.511V34.511C856.892 78.7001 766.839 79.3405 694.871 36.1704L688.409 32.2941C618.992 -9.34532 533.104 -12.5981 460.737 23.6715L400.581 53.8215C336.194 86.0915 259.107 79.2555 201.404 36.1585V36.1585C143.408 -7.1571 65.8615 -13.8258 1.32171 18.9522L-170.994 106.467" stroke="#14112C" stroke-opacity="0.1" stroke-width="1.5"/>
<path d="M1822.88 635.63L1667.92 557.447C1590.1 518.188 1497.8 520.482 1422.03 563.558L1419.34 565.087C1342.25 608.911 1247.93 609.502 1170.3 566.648L1154.63 557.999C1083.69 518.836 997.131 521.005 928.238 563.674V563.674C856.892 607.863 766.839 608.504 694.871 565.334L688.409 561.457C618.992 519.818 533.104 516.565 460.737 552.835L400.581 582.985C336.194 615.255 259.107 608.419 201.404 565.322V565.322C143.408 522.006 65.8615 515.338 1.32171 548.115L-170.994 635.63" stroke="#14112C" stroke-opacity="0.1" stroke-width="1.5"/>
<path d="M1822.88 282.854L1667.92 204.67C1590.1 165.411 1497.8 167.706 1422.03 210.782L1419.34 212.31C1342.25 256.135 1247.93 256.726 1170.3 213.872L1154.63 205.223C1083.69 166.059 997.131 168.229 928.238 210.898V210.898C856.892 255.087 766.839 255.728 694.871 212.558L688.409 208.681C618.992 167.042 533.104 163.789 460.737 200.059L400.581 230.209C336.194 262.479 259.107 255.643 201.404 212.546V212.546C143.408 169.23 65.8615 162.561 1.32171 195.339L-170.994 282.854" stroke="#14112C" stroke-opacity="0.1" stroke-width="1.5"/>
<path d="M1822.88 812.018L1667.92 733.835C1590.1 694.576 1497.8 696.87 1422.03 739.946L1419.34 741.475C1342.25 785.299 1247.93 785.891 1170.3 743.037L1154.63 734.387C1083.69 695.224 997.131 697.394 928.238 740.063V740.063C856.892 784.252 766.839 784.892 694.871 741.722L688.409 737.846C618.992 696.206 533.104 692.953 460.737 729.223L400.581 759.373C336.194 791.643 259.107 784.807 201.404 741.71V741.71C143.408 698.395 65.8615 691.726 1.32171 724.504L-170.994 812.018" stroke="#14112C" stroke-opacity="0.1" stroke-width="1.5"/>
<path d="M1822.88 459.242L1667.92 381.058C1590.1 341.799 1497.8 344.093 1422.03 387.17L1419.34 388.698C1342.25 432.523 1247.93 433.114 1170.3 390.26L1154.63 381.611C1083.69 342.447 997.131 344.617 928.238 387.286V387.286C856.892 431.475 766.839 432.115 694.871 388.945L688.409 385.069C618.992 343.43 533.104 340.177 460.737 376.446L400.581 406.596C336.194 438.866 259.107 432.03 201.404 388.933V388.933C143.408 345.618 65.8615 338.949 1.32171 371.727L-170.994 459.242" stroke="#14112C" stroke-opacity="0.1" stroke-width="1.5"/>
<path d="M1822.88 988.406L1667.92 910.223C1590.1 870.964 1497.8 873.258 1422.03 916.334L1419.34 917.863C1342.25 961.688 1247.93 962.279 1170.3 919.425L1154.63 910.776C1083.69 871.612 997.131 873.782 928.238 916.451V916.451C856.892 960.64 766.839 961.28 694.871 918.11L688.409 914.234C618.992 872.595 533.104 869.342 460.737 905.611L400.581 935.761C336.194 968.031 259.107 961.195 201.404 918.098V918.098C143.408 874.783 65.8615 868.114 1.32171 900.892L-170.994 988.406" stroke="#14112C" stroke-opacity="0.1" stroke-width="1.5"/>
<path d="M1822.88 512.158L1667.92 433.975C1590.1 394.716 1497.8 397.01 1422.03 440.086L1419.34 441.615C1342.25 485.439 1247.93 486.031 1170.3 443.177L1154.63 434.527C1083.69 395.364 997.131 397.534 928.238 440.202V440.202C856.892 484.392 766.839 485.032 694.871 441.862L688.409 437.986C618.992 396.346 533.104 393.093 460.737 429.363L400.581 459.513C336.194 491.783 259.107 484.947 201.404 441.85V441.85C143.408 398.534 65.8615 391.866 1.32171 424.644L-170.994 512.158" stroke="#14112C" stroke-opacity="0.1" stroke-width="1.5"/>
<path d="M1822.88 159.383L1667.92 81.1995C1590.1 41.9405 1497.8 44.2346 1422.03 87.3107L1419.34 88.8395C1342.25 132.664 1247.93 133.255 1170.3 90.4012L1154.63 81.7519C1083.69 42.5885 997.131 44.7583 928.238 87.4271V87.4271C856.892 131.616 766.839 132.257 694.871 89.0866L688.409 85.2102C618.992 43.5708 533.104 40.318 460.737 76.5876L400.581 106.738C336.194 139.008 259.107 132.172 201.404 89.0746V89.0746C143.408 45.759 65.8615 39.0903 1.32171 71.8683L-170.994 159.383" stroke="#14112C" stroke-opacity="0.1" stroke-width="1.5"/>
<path d="M1822.88 688.546L1667.92 610.363C1590.1 571.104 1497.8 573.398 1422.03 616.474L1419.34 618.003C1342.25 661.827 1247.93 662.419 1170.3 619.565L1154.63 610.915C1083.69 571.752 997.131 573.922 928.238 616.591V616.591C856.892 660.78 766.839 661.42 694.871 618.25L688.409 614.374C618.992 572.734 533.104 569.482 460.737 605.751L400.581 635.901C336.194 668.171 259.107 661.335 201.404 618.238V618.238C143.408 574.923 65.8615 568.254 1.32171 601.032L-170.994 688.546" stroke="#14112C" stroke-opacity="0.1" stroke-width="1.5"/>
<path d="M1822.88 335.77L1667.92 257.587C1590.1 218.328 1497.8 220.622 1422.03 263.698L1419.34 265.227C1342.25 309.051 1247.93 309.642 1170.3 266.788L1154.63 258.139C1083.69 218.976 997.131 221.145 928.238 263.814V263.814C856.892 308.003 766.839 308.644 694.871 265.474L688.409 261.597C618.992 219.958 533.104 216.705 460.737 252.975L400.581 283.125C336.194 315.395 259.107 308.559 201.404 265.462V265.462C143.408 222.146 65.8615 215.477 1.32171 248.255L-170.994 335.77" stroke="#14112C" stroke-opacity="0.1" stroke-width="1.5"/>
<path d="M1822.88 864.935L1667.92 786.751C1590.1 747.492 1497.8 749.787 1422.03 792.863L1419.34 794.391C1342.25 838.216 1247.93 838.807 1170.3 795.953L1154.63 787.304C1083.69 748.14 997.131 750.31 928.238 792.979V792.979C856.892 837.168 766.839 837.809 694.871 794.639L688.409 790.762C618.992 749.123 533.104 745.87 460.737 782.14L400.581 812.29C336.194 844.56 259.107 837.724 201.404 794.627V794.627C143.408 751.311 65.8615 744.642 1.32171 777.42L-170.994 864.935" stroke="#14112C" stroke-opacity="0.1" stroke-width="1.5"/>
<path d="M1822.88 27.0924L1667.92 -51.0908C1590.1 -90.3498 1497.8 -88.0557 1422.03 -44.9796L1419.34 -43.4508C1342.25 0.373468 1247.93 0.964972 1170.3 -41.8891L1154.63 -50.5384C1083.69 -89.7018 997.131 -87.532 928.238 -44.8632V-44.8632C856.892 -0.674047 766.839 -0.0336944 694.871 -43.2037L688.409 -47.0801C618.992 -88.7195 533.104 -91.9723 460.737 -55.7027L400.581 -25.5527C336.194 6.71734 259.107 -0.118703 201.404 -43.2157V-43.2157C143.408 -86.5313 65.8615 -93.2 1.32171 -60.422L-170.994 27.0924" stroke="#14112C" stroke-opacity="0.1" stroke-width="1.5"/>
<path d="M1822.88 556.255L1667.92 478.072C1590.1 438.813 1497.8 441.107 1422.03 484.183L1419.34 485.712C1342.25 529.536 1247.93 530.128 1170.3 487.274L1154.63 478.624C1083.69 439.461 997.131 441.631 928.238 484.3V484.3C856.892 528.489 766.839 529.129 694.871 485.959L688.409 482.083C618.992 440.443 533.104 437.19 460.737 473.46L400.581 503.61C336.194 535.88 259.107 529.044 201.404 485.947V485.947C143.408 442.631 65.8615 435.963 1.32171 468.741L-170.994 556.255" stroke="#14112C" stroke-opacity="0.1" stroke-width="1.5"/>
<path d="M1822.88 203.479L1667.92 125.296C1590.1 86.0373 1497.8 88.3313 1422.03 131.408L1419.34 132.936C1342.25 176.761 1247.93 177.352 1170.3 134.498L1154.63 125.849C1083.69 86.6853 997.131 88.855 928.238 131.524V131.524C856.892 175.713 766.839 176.353 694.871 133.183L688.409 129.307C618.992 87.6676 533.104 84.4147 460.737 120.684L400.581 150.834C336.194 183.104 259.107 176.268 201.404 133.171V133.171C143.408 89.8558 65.8615 83.1871 1.32171 115.965L-170.994 203.479" stroke="#14112C" stroke-opacity="0.1" stroke-width="1.5"/>
<path d="M1822.88 732.643L1667.92 654.46C1590.1 615.201 1497.8 617.495 1422.03 660.571L1419.34 662.1C1342.25 705.925 1247.93 706.516 1170.3 663.662L1154.63 655.013C1083.69 615.849 997.131 618.019 928.238 660.688V660.688C856.892 704.877 766.839 705.517 694.871 662.347L688.409 658.471C618.992 616.832 533.104 613.579 460.737 649.848L400.581 679.998C336.194 712.268 259.107 705.432 201.404 662.335V662.335C143.408 619.02 65.8615 612.351 1.32171 645.129L-170.994 732.643" stroke="#14112C" stroke-opacity="0.1" stroke-width="1.5"/>
<path d="M1822.88 379.867L1667.92 301.684C1590.1 262.425 1497.8 264.719 1422.03 307.795L1419.34 309.324C1342.25 353.148 1247.93 353.739 1170.3 310.885L1154.63 302.236C1083.69 263.073 997.131 265.242 928.238 307.911V307.911C856.892 352.1 766.839 352.741 694.871 309.571L688.409 305.694C618.992 264.055 533.104 260.802 460.737 297.072L400.581 327.222C336.194 359.492 259.107 352.656 201.404 309.559V309.559C143.408 266.243 65.8615 259.574 1.32171 292.352L-170.994 379.867" stroke="#14112C" stroke-opacity="0.1" stroke-width="1.5"/>
<path d="M1822.88 909.032L1667.92 830.848C1590.1 791.589 1497.8 793.883 1422.03 836.96L1419.34 838.488C1342.25 882.313 1247.93 882.904 1170.3 840.05L1154.63 831.401C1083.69 792.237 997.131 794.407 928.238 837.076V837.076C856.892 881.265 766.839 881.906 694.871 838.735L688.409 834.859C618.992 793.22 533.104 789.967 460.737 826.237L400.581 856.387C336.194 888.657 259.107 881.821 201.404 838.724V838.724C143.408 795.408 65.8615 788.739 1.32171 821.517L-170.994 909.032" stroke="#14112C" stroke-opacity="0.1" stroke-width="1.5"/>
<path d="M1822.88 71.1891L1667.92 -6.99404C1590.1 -46.253 1497.8 -43.959 1422.03 -0.88279L1419.34 0.645979C1342.25 44.4702 1247.93 45.0617 1170.3 2.20768L1154.63 -6.44167C1083.69 -45.605 997.131 -43.4353 928.238 -0.76645V-0.76645C856.892 43.4227 766.839 44.0631 694.871 0.893025L688.409 -2.98334C618.992 -44.6227 533.104 -47.8755 460.737 -11.6059L400.581 18.5441C336.194 50.8141 259.107 43.9781 201.404 0.881067V0.881067C143.408 -42.4345 65.8615 -49.1032 1.32171 -16.3252L-170.994 71.1891" stroke="#14112C" stroke-opacity="0.1" stroke-width="1.5"/>
<path d="M1822.88 600.352L1667.92 522.169C1590.1 482.91 1497.8 485.204 1422.03 528.28L1419.34 529.809C1342.25 573.633 1247.93 574.225 1170.3 531.371L1154.63 522.721C1083.69 483.558 997.131 485.728 928.238 528.397V528.397C856.892 572.586 766.839 573.226 694.871 530.056L688.409 526.18C618.992 484.54 533.104 481.288 460.737 517.557L400.581 547.707C336.194 579.977 259.107 573.141 201.404 530.044V530.044C143.408 486.729 65.8615 480.06 1.32171 512.838L-170.994 600.352" stroke="#14112C" stroke-opacity="0.1" stroke-width="1.5"/>
<path d="M1822.88 247.576L1667.92 169.393C1590.1 130.134 1497.8 132.428 1422.03 175.504L1419.34 177.033C1342.25 220.857 1247.93 221.449 1170.3 178.595L1154.63 169.945C1083.69 130.782 997.131 132.952 928.238 175.621V175.621C856.892 219.81 766.839 220.45 694.871 177.28L688.409 173.404C618.992 131.764 533.104 128.512 460.737 164.781L400.581 194.931C336.194 227.201 259.107 220.365 201.404 177.268V177.268C143.408 133.953 65.8615 127.284 1.32171 160.062L-170.994 247.576" stroke="#14112C" stroke-opacity="0.1" stroke-width="1.5"/>
<path d="M1822.88 776.741L1667.92 698.557C1590.1 659.298 1497.8 661.592 1422.03 704.669L1419.34 706.197C1342.25 750.022 1247.93 750.613 1170.3 707.759L1154.63 699.11C1083.69 659.946 997.131 662.116 928.238 704.785V704.785C856.892 748.974 766.839 749.614 694.871 706.444L688.409 702.568C618.992 660.929 533.104 657.676 460.737 693.945L400.581 724.095C336.194 756.365 259.107 749.529 201.404 706.432V706.432C143.408 663.117 65.8615 656.448 1.32171 689.226L-170.994 776.741" stroke="#14112C" stroke-opacity="0.1" stroke-width="1.5"/>
<path d="M1822.88 423.964L1667.92 345.781C1590.1 306.522 1497.8 308.816 1422.03 351.892L1419.34 353.421C1342.25 397.245 1247.93 397.837 1170.3 354.982L1154.63 346.333C1083.69 307.17 997.131 309.34 928.238 352.008V352.008C856.892 396.198 766.839 396.838 694.871 353.668L688.409 349.791C618.992 308.152 533.104 304.899 460.737 341.169L400.581 371.319C336.194 403.589 259.107 396.753 201.404 353.656V353.656C143.408 310.34 65.8615 303.672 1.32171 336.45L-170.994 423.964" stroke="#14112C" stroke-opacity="0.1" stroke-width="1.5"/>
<path d="M1822.88 953.129L1667.92 874.946C1590.1 835.687 1497.8 837.981 1422.03 881.057L1419.34 882.586C1342.25 926.41 1247.93 927.001 1170.3 884.147L1154.63 875.498C1083.69 836.335 997.131 838.504 928.238 881.173V881.173C856.892 925.362 766.839 926.003 694.871 882.833L688.409 878.956C618.992 837.317 533.104 834.064 460.737 870.334L400.581 900.484C336.194 932.754 259.107 925.918 201.404 882.821V882.821C143.408 839.505 65.8615 832.836 1.32171 865.614L-170.994 953.129" stroke="#14112C" stroke-opacity="0.1" stroke-width="1.5"/>
<path d="M1822.88 115.286L1667.92 37.1027C1590.1 -2.15622 1497.8 0.1378 1422.03 43.214L1419.34 44.7427C1342.25 88.567 1247.93 89.1585 1170.3 46.3044L1154.63 37.6551C1083.69 -1.50827 997.131 0.661496 928.238 43.3303V43.3303C856.892 87.5195 766.839 88.1598 694.871 44.9898L688.409 41.1134C618.992 -0.525967 533.104 -3.77878 460.737 32.4908L400.581 62.6408C336.194 94.9109 259.107 88.0748 201.404 44.9778V44.9778C143.408 1.66225 65.8615 -5.00644 1.32171 27.7715L-170.994 115.286" stroke="#14112C" stroke-opacity="0.1" stroke-width="1.5"/>
<path d="M1822.88 644.449L1667.92 566.266C1590.1 527.007 1497.8 529.301 1422.03 572.377L1419.34 573.906C1342.25 617.73 1247.93 618.322 1170.3 575.468L1154.63 566.818C1083.69 527.655 997.131 529.825 928.238 572.494V572.494C856.892 616.683 766.839 617.323 694.871 574.153L688.409 570.277C618.992 528.637 533.104 525.385 460.737 561.654L400.581 591.804C336.194 624.074 259.107 617.238 201.404 574.141V574.141C143.408 530.826 65.8615 524.157 1.32171 556.935L-170.994 644.449" stroke="#14112C" stroke-opacity="0.1" stroke-width="1.5"/>
<path d="M1822.88 291.673L1667.92 213.49C1590.1 174.231 1497.8 176.525 1422.03 219.601L1419.34 221.13C1342.25 264.954 1247.93 265.546 1170.3 222.692L1154.63 214.042C1083.69 174.879 997.131 177.049 928.238 219.717V219.717C856.892 263.907 766.839 264.547 694.871 221.377L688.409 217.501C618.992 175.861 533.104 172.608 460.737 208.878L400.581 239.028C336.194 271.298 259.107 264.462 201.404 221.365V221.365C143.408 178.049 65.8615 171.381 1.32171 204.159L-170.994 291.673" stroke="#14112C" stroke-opacity="0.1" stroke-width="1.5"/>
<path d="M1822.88 820.838L1667.92 742.654C1590.1 703.395 1497.8 705.689 1422.03 748.766L1419.34 750.294C1342.25 794.119 1247.93 794.71 1170.3 751.856L1154.63 743.207C1083.69 704.043 997.131 706.213 928.238 748.882V748.882C856.892 793.071 766.839 793.711 694.871 750.541L688.409 746.665C618.992 705.026 533.104 701.773 460.737 738.043L400.581 768.192C336.194 800.463 259.107 793.626 201.404 750.529V750.529C143.408 707.214 65.8615 700.545 1.32171 733.323L-170.994 820.838" stroke="#14112C" stroke-opacity="0.1" stroke-width="1.5"/>
<path d="M1822.88 468.061L1667.92 389.878C1590.1 350.619 1497.8 352.913 1422.03 395.989L1419.34 397.518C1342.25 441.342 1247.93 441.934 1170.3 399.08L1154.63 390.43C1083.69 351.267 997.131 353.437 928.238 396.105V396.105C856.892 440.295 766.839 440.935 694.871 397.765L688.409 393.889C618.992 352.249 533.104 348.996 460.737 385.266L400.581 415.416C336.194 447.686 259.107 440.85 201.404 397.753V397.753C143.408 354.437 65.8615 347.769 1.32171 380.547L-170.994 468.061" stroke="#14112C" stroke-opacity="0.1" stroke-width="1.5"/>
<path d="M1822.88 997.226L1667.92 919.043C1590.1 879.784 1497.8 882.078 1422.03 925.154L1419.34 926.683C1342.25 970.507 1247.93 971.098 1170.3 928.244L1154.63 919.595C1083.69 880.432 997.131 882.601 928.238 925.27V925.27C856.892 969.459 766.839 970.1 694.871 926.93L688.409 923.053C618.992 881.414 533.104 878.161 460.737 914.431L400.581 944.581C336.194 976.851 259.107 970.015 201.404 926.918V926.918C143.408 883.602 65.8615 876.933 1.32171 909.711L-170.994 997.226" stroke="#14112C" stroke-opacity="0.1" stroke-width="1.5"/>
<path d="M1822.88 520.977L1667.92 442.794C1590.1 403.535 1497.8 405.829 1422.03 448.906L1419.34 450.434C1342.25 494.259 1247.93 494.85 1170.3 451.996L1154.63 443.347C1083.69 404.183 997.131 406.353 928.238 449.022V449.022C856.892 493.211 766.839 493.851 694.871 450.681L688.409 446.805C618.992 405.166 533.104 401.913 460.737 438.182L400.581 468.332C336.194 500.602 259.107 493.766 201.404 450.669V450.669C143.408 407.354 65.8615 400.685 1.32171 433.463L-170.994 520.977" stroke="#14112C" stroke-opacity="0.1" stroke-width="1.5"/>
<path d="M1822.88 168.202L1667.92 90.0188C1590.1 50.7599 1497.8 53.0539 1422.03 96.1301L1419.34 97.6589C1342.25 141.483 1247.93 142.075 1170.3 99.2206L1154.63 90.5712C1083.69 51.4079 997.131 53.5776 928.238 96.2464V96.2464C856.892 140.436 766.839 141.076 694.871 97.9059L688.409 94.0296C618.992 52.3902 533.104 49.1373 460.737 85.407L400.581 115.557C336.194 147.827 259.107 140.991 201.404 97.894V97.894C143.408 54.5784 65.8615 47.9097 1.32171 80.6877L-170.994 168.202" stroke="#14112C" stroke-opacity="0.1" stroke-width="1.5"/>
<path d="M1822.88 697.366L1667.92 619.183C1590.1 579.924 1497.8 582.218 1422.03 625.294L1419.34 626.823C1342.25 670.647 1247.93 671.238 1170.3 628.384L1154.63 619.735C1083.69 580.572 997.131 582.741 928.238 625.41V625.41C856.892 669.599 766.839 670.24 694.871 627.07L688.409 623.193C618.992 581.554 533.104 578.301 460.737 614.571L400.581 644.721C336.194 676.991 259.107 670.155 201.404 627.058V627.058C143.408 583.742 65.8615 577.073 1.32171 609.851L-170.994 697.366" stroke="#14112C" stroke-opacity="0.1" stroke-width="1.5"/>
<path d="M1822.88 344.589L1667.92 266.406C1590.1 227.147 1497.8 229.441 1422.03 272.517L1419.34 274.046C1342.25 317.87 1247.93 318.462 1170.3 275.608L1154.63 266.958C1083.69 227.795 997.131 229.965 928.238 272.634V272.634C856.892 316.823 766.839 317.463 694.871 274.293L688.409 270.417C618.992 228.777 533.104 225.525 460.737 261.794L400.581 291.944C336.194 324.214 259.107 317.378 201.404 274.281V274.281C143.408 230.966 65.8615 224.297 1.32171 257.075L-170.994 344.589" stroke="#14112C" stroke-opacity="0.1" stroke-width="1.5"/>
<path d="M1822.88 873.754L1667.92 795.571C1590.1 756.312 1497.8 758.606 1422.03 801.682L1419.34 803.211C1342.25 847.035 1247.93 847.627 1170.3 804.773L1154.63 796.123C1083.69 756.96 997.131 759.13 928.238 801.798V801.798C856.892 845.988 766.839 846.628 694.871 803.458L688.409 799.582C618.992 757.942 533.104 754.689 460.737 790.959L400.581 821.109C336.194 853.379 259.107 846.543 201.404 803.446V803.446C143.408 760.13 65.8615 753.462 1.32171 786.24L-170.994 873.754" stroke="#14112C" stroke-opacity="0.1" stroke-width="1.5"/>
<path d="M1822.88 35.9117L1667.92 -42.2715C1590.1 -81.5304 1497.8 -79.2364 1422.03 -36.1602L1419.34 -34.6314C1342.25 9.19282 1247.93 9.78432 1170.3 -33.0697L1154.63 -41.7191C1083.69 -80.8824 997.131 -78.7127 928.238 -36.0439V-36.0439C856.892 8.1453 766.839 8.78566 694.871 -34.3844L688.409 -38.2607C618.992 -79.9001 533.104 -83.153 460.737 -46.8833L400.581 -16.7334C336.194 15.5367 259.107 8.70065 201.404 -34.3963V-34.3963C143.408 -77.7119 65.8615 -84.3806 1.32171 -51.6026L-170.994 35.9117" stroke="#14112C" stroke-opacity="0.1" stroke-width="1.5"/>
<path d="M1822.88 565.074L1667.92 486.891C1590.1 447.632 1497.8 449.926 1422.03 493.003L1419.34 494.531C1342.25 538.356 1247.93 538.947 1170.3 496.093L1154.63 487.444C1083.69 448.28 997.131 450.45 928.238 493.119V493.119C856.892 537.308 766.839 537.948 694.871 494.778L688.409 490.902C618.992 449.263 533.104 446.01 460.737 482.279L400.581 512.429C336.194 544.699 259.107 537.863 201.404 494.766V494.766C143.408 451.451 65.8615 444.782 1.32171 477.56L-170.994 565.074" stroke="#14112C" stroke-opacity="0.1" stroke-width="1.5"/>
<path d="M1822.88 212.299L1667.92 134.116C1590.1 94.8567 1497.8 97.1507 1422.03 140.227L1419.34 141.756C1342.25 185.58 1247.93 186.171 1170.3 143.317L1154.63 134.668C1083.69 95.5046 997.131 97.6744 928.238 140.343V140.343C856.892 184.532 766.839 185.173 694.871 142.003L688.409 138.126C618.992 96.4869 533.104 93.2341 460.737 129.504L400.581 159.654C336.194 191.924 259.107 185.088 201.404 141.991V141.991C143.408 98.6751 65.8615 92.0065 1.32171 124.784L-170.994 212.299" stroke="#14112C" stroke-opacity="0.1" stroke-width="1.5"/>
<path d="M1822.88 741.463L1667.92 663.28C1590.1 624.021 1497.8 626.315 1422.03 669.391L1419.34 670.92C1342.25 714.744 1247.93 715.335 1170.3 672.481L1154.63 663.832C1083.69 624.669 997.131 626.838 928.238 669.507V669.507C856.892 713.696 766.839 714.337 694.871 671.167L688.409 667.29C618.992 625.651 533.104 622.398 460.737 658.668L400.581 688.818C336.194 721.088 259.107 714.252 201.404 671.155V671.155C143.408 627.839 65.8615 621.17 1.32171 653.948L-170.994 741.463" stroke="#14112C" stroke-opacity="0.1" stroke-width="1.5"/>
<path d="M1822.88 388.686L1667.92 310.503C1590.1 271.244 1497.8 273.538 1422.03 316.614L1419.34 318.143C1342.25 361.967 1247.93 362.559 1170.3 319.705L1154.63 311.055C1083.69 271.892 997.131 274.062 928.238 316.731V316.731C856.892 360.92 766.839 361.56 694.871 318.39L688.409 314.514C618.992 272.874 533.104 269.622 460.737 305.891L400.581 336.041C336.194 368.311 259.107 361.475 201.404 318.378V318.378C143.408 275.063 65.8615 268.394 1.32171 301.172L-170.994 388.686" stroke="#14112C" stroke-opacity="0.1" stroke-width="1.5"/>
<path d="M1822.88 917.851L1667.92 839.668C1590.1 800.409 1497.8 802.703 1422.03 845.779L1419.34 847.308C1342.25 891.132 1247.93 891.724 1170.3 848.87L1154.63 840.22C1083.69 801.057 997.131 803.227 928.238 845.895V845.895C856.892 890.085 766.839 890.725 694.871 847.555L688.409 843.679C618.992 802.039 533.104 798.786 460.737 835.056L400.581 865.206C336.194 897.476 259.107 890.64 201.404 847.543V847.543C143.408 804.227 65.8615 797.559 1.32171 830.337L-170.994 917.851" stroke="#14112C" stroke-opacity="0.1" stroke-width="1.5"/>
<path d="M1822.88 80.0085L1667.92 1.82532C1590.1 -37.4336 1497.8 -35.1396 1422.03 7.93657L1419.34 9.46534C1342.25 53.2896 1247.93 53.8811 1170.3 11.027L1154.63 2.37769C1083.69 -36.7857 997.131 -34.6159 928.238 8.05291V8.05291C856.892 52.2421 766.839 52.8824 694.871 9.71238L688.409 5.83602C618.992 -35.8034 533.104 -39.0562 460.737 -2.78656L400.581 27.3634C336.194 59.6335 259.107 52.7974 201.404 9.70043V9.70043C143.408 -33.6152 65.8615 -40.2838 1.32171 -7.50587L-170.994 80.0085" stroke="#14112C" stroke-opacity="0.1" stroke-width="1.5"/>
<path d="M1822.88 609.172L1667.92 530.988C1590.1 491.729 1497.8 494.024 1422.03 537.1L1419.34 538.628C1342.25 582.453 1247.93 583.044 1170.3 540.19L1154.63 531.541C1083.69 492.377 997.131 494.547 928.238 537.216V537.216C856.892 581.405 766.839 582.046 694.871 538.876L688.409 534.999C618.992 493.36 533.104 490.107 460.737 526.377L400.581 556.527C336.194 588.797 259.107 581.961 201.404 538.864V538.864C143.408 495.548 65.8615 488.879 1.32171 521.657L-170.994 609.172" stroke="#14112C" stroke-opacity="0.1" stroke-width="1.5"/>
<path d="M1822.88 256.396L1667.92 178.212C1590.1 138.953 1497.8 141.247 1422.03 184.324L1419.34 185.852C1342.25 229.677 1247.93 230.268 1170.3 187.414L1154.63 178.765C1083.69 139.601 997.131 141.771 928.238 184.44V184.44C856.892 228.629 766.839 229.269 694.871 186.099L688.409 182.223C618.992 140.584 533.104 137.331 460.737 173.6L400.581 203.75C336.194 236.021 259.107 229.184 201.404 186.087V186.087C143.408 142.772 65.8615 136.103 1.32171 168.881L-170.994 256.396" stroke="#14112C" stroke-opacity="0.1" stroke-width="1.5"/>
<path d="M1822.88 785.56L1667.92 707.377C1590.1 668.118 1497.8 670.412 1422.03 713.488L1419.34 715.017C1342.25 758.841 1247.93 759.433 1170.3 716.578L1154.63 707.929C1083.69 668.766 997.131 670.936 928.238 713.604V713.604C856.892 757.793 766.839 758.434 694.871 715.264L688.409 711.387C618.992 669.748 533.104 666.495 460.737 702.765L400.581 732.915C336.194 765.185 259.107 758.349 201.404 715.252V715.252C143.408 671.936 65.8615 665.268 1.32171 698.046L-170.994 785.56" stroke="#14112C" stroke-opacity="0.1" stroke-width="1.5"/>
<path d="M1822.88 432.783L1667.92 354.6C1590.1 315.341 1497.8 317.635 1422.03 360.711L1419.34 362.24C1342.25 406.064 1247.93 406.656 1170.3 363.802L1154.63 355.153C1083.69 315.989 997.131 318.159 928.238 360.828V360.828C856.892 405.017 766.839 405.657 694.871 362.487L688.409 358.611C618.992 316.971 533.104 313.719 460.737 349.988L400.581 380.138C336.194 412.408 259.107 405.572 201.404 362.475V362.475C143.408 319.16 65.8615 312.491 1.32171 345.269L-170.994 432.783" stroke="#14112C" stroke-opacity="0.1" stroke-width="1.5"/>
<path d="M1822.88 961.948L1667.92 883.765C1590.1 844.506 1497.8 846.8 1422.03 889.876L1419.34 891.405C1342.25 935.229 1247.93 935.821 1170.3 892.967L1154.63 884.317C1083.69 845.154 997.131 847.324 928.238 889.992V889.992C856.892 934.182 766.839 934.822 694.871 891.652L688.409 887.776C618.992 846.136 533.104 842.883 460.737 879.153L400.581 909.303C336.194 941.573 259.107 934.737 201.404 891.64V891.64C143.408 848.324 65.8615 841.656 1.32171 874.434L-170.994 961.948" stroke="#14112C" stroke-opacity="0.1" stroke-width="1.5"/>
<path d="M1822.88 124.105L1667.92 45.9221C1590.1 6.66314 1497.8 8.95717 1422.03 52.0333L1419.34 53.5621C1342.25 97.3864 1247.93 97.9779 1170.3 55.1238L1154.63 46.4745C1083.69 7.31109 997.131 9.48086 928.238 52.1497V52.1497C856.892 96.3388 766.839 96.9792 694.871 53.8092L688.409 49.9328C618.992 8.2934 533.104 5.04059 460.737 41.3102L400.581 71.4602C336.194 103.73 259.107 96.8942 201.404 53.7972V53.7972C143.408 10.4816 65.8615 3.81292 1.32171 36.5909L-170.994 124.105" stroke="#14112C" stroke-opacity="0.1" stroke-width="1.5"/>
<path d="M1822.88 653.269L1667.92 575.086C1590.1 535.827 1497.8 538.121 1422.03 581.197L1419.34 582.726C1342.25 626.55 1247.93 627.141 1170.3 584.287L1154.63 575.638C1083.69 536.475 997.131 538.644 928.238 581.313V581.313C856.892 625.502 766.839 626.143 694.871 582.973L688.409 579.096C618.992 537.457 533.104 534.204 460.737 570.474L400.581 600.624C336.194 632.894 259.107 626.058 201.404 582.961V582.961C143.408 539.645 65.8615 532.976 1.32171 565.754L-170.994 653.269" stroke="#14112C" stroke-opacity="0.1" stroke-width="1.5"/>
<path d="M1822.88 300.492L1667.92 222.309C1590.1 183.05 1497.8 185.344 1422.03 228.42L1419.34 229.949C1342.25 273.773 1247.93 274.365 1170.3 231.511L1154.63 222.862C1083.69 183.698 997.131 185.868 928.238 228.537V228.537C856.892 272.726 766.839 273.366 694.871 230.196L688.409 226.32C618.992 184.68 533.104 181.428 460.737 217.697L400.581 247.847C336.194 280.117 259.107 273.281 201.404 230.184V230.184C143.408 186.869 65.8615 180.2 1.32171 212.978L-170.994 300.492" stroke="#14112C" stroke-opacity="0.1" stroke-width="1.5"/>
<path d="M1822.88 829.657L1667.92 751.474C1590.1 712.215 1497.8 714.509 1422.03 757.585L1419.34 759.114C1342.25 802.938 1247.93 803.53 1170.3 760.676L1154.63 752.026C1083.69 712.863 997.131 715.033 928.238 757.701V757.701C856.892 801.891 766.839 802.531 694.871 759.361L688.409 755.484C618.992 713.845 533.104 710.592 460.737 746.862L400.581 777.012C336.194 809.282 259.107 802.446 201.404 759.349V759.349C143.408 716.033 65.8615 709.365 1.32171 742.143L-170.994 829.657" stroke="#14112C" stroke-opacity="0.1" stroke-width="1.5"/>
<path d="M1822.88 476.88L1667.92 398.697C1590.1 359.438 1497.8 361.732 1422.03 404.808L1419.34 406.337C1342.25 450.161 1247.93 450.753 1170.3 407.899L1154.63 399.25C1083.69 360.086 997.131 362.256 928.238 404.925V404.925C856.892 449.114 766.839 449.754 694.871 406.584L688.409 402.708C618.992 361.069 533.104 357.816 460.737 394.085L400.581 424.235C336.194 456.505 259.107 449.669 201.404 406.572V406.572C143.408 363.257 65.8615 356.588 1.32171 389.366L-170.994 476.88" stroke="#14112C" stroke-opacity="0.1" stroke-width="1.5"/>
<path d="M1822.88 1006.05L1667.92 927.862C1590.1 888.603 1497.8 890.897 1422.03 933.973L1419.34 935.502C1342.25 979.326 1247.93 979.918 1170.3 937.064L1154.63 928.414C1083.69 889.251 997.131 891.421 928.238 934.09V934.09C856.892 978.279 766.839 978.919 694.871 935.749L688.409 931.873C618.992 890.233 533.104 886.98 460.737 923.25L400.581 953.4C336.194 985.67 259.107 978.834 201.404 935.737V935.737C143.408 892.421 65.8615 885.753 1.32171 918.531L-170.994 1006.05" stroke="#14112C" stroke-opacity="0.1" stroke-width="1.5"/>
<path d="M1822.88 0.634307L1667.92 -77.5489C1590.1 -116.808 1497.8 -114.514 1422.03 -71.4376L1419.34 -69.9088C1342.25 -26.0846 1247.93 -25.4931 1170.3 -68.3471L1154.63 -76.9965C1083.69 -116.16 997.131 -113.99 928.238 -71.3213V-71.3213C856.892 -27.1321 766.839 -26.4917 694.871 -69.6618L688.409 -73.5382C618.992 -115.178 533.104 -118.43 460.737 -82.1607L400.581 -52.0108C336.194 -19.7407 259.107 -26.5768 201.404 -69.6737V-69.6737C143.408 -112.989 65.8615 -119.658 1.32171 -86.88L-170.994 0.634307" stroke="#14112C" stroke-opacity="0.1" stroke-width="1.5"/>
<path d="M1822.88 529.797L1667.92 451.614C1590.1 412.355 1497.8 414.649 1422.03 457.725L1419.34 459.254C1342.25 503.078 1247.93 503.669 1170.3 460.815L1154.63 452.166C1083.69 413.003 997.131 415.172 928.238 457.841V457.841C856.892 502.03 766.839 502.671 694.871 459.501L688.409 455.624C618.992 413.985 533.104 410.732 460.737 447.002L400.581 477.152C336.194 509.422 259.107 502.586 201.404 459.489V459.489C143.408 416.173 65.8615 409.505 1.32171 442.282L-170.994 529.797" stroke="#14112C" stroke-opacity="0.1" stroke-width="1.5"/>
<path d="M1822.88 177.021L1667.92 98.8382C1590.1 59.5793 1497.8 61.8733 1422.03 104.949L1419.34 106.478C1342.25 150.302 1247.93 150.894 1170.3 108.04L1154.63 99.3906C1083.69 60.2272 997.131 62.397 928.238 105.066V105.066C856.892 149.255 766.839 149.895 694.871 106.725L688.409 102.849C618.992 61.2095 533.104 57.9567 460.737 94.2263L400.581 124.376C336.194 156.646 259.107 149.81 201.404 106.713V106.713C143.408 63.3977 65.8615 56.729 1.32171 89.507L-170.994 177.021" stroke="#14112C" stroke-opacity="0.1" stroke-width="1.5"/>
<path d="M1822.88 706.185L1667.92 628.002C1590.1 588.743 1497.8 591.037 1422.03 634.113L1419.34 635.642C1342.25 679.466 1247.93 680.058 1170.3 637.204L1154.63 628.554C1083.69 589.391 997.131 591.561 928.238 634.23V634.23C856.892 678.419 766.839 679.059 694.871 635.889L688.409 632.013C618.992 590.373 533.104 587.12 460.737 623.39L400.581 653.54C336.194 685.81 259.107 678.974 201.404 635.877V635.877C143.408 592.562 65.8615 585.893 1.32171 618.671L-170.994 706.185" stroke="#14112C" stroke-opacity="0.1" stroke-width="1.5"/>
<path d="M1822.88 353.409L1667.92 275.225C1590.1 235.966 1497.8 238.261 1422.03 281.337L1419.34 282.865C1342.25 326.69 1247.93 327.281 1170.3 284.427L1154.63 275.778C1083.69 236.614 997.131 238.784 928.238 281.453V281.453C856.892 325.642 766.839 326.283 694.871 283.113L688.409 279.236C618.992 237.597 533.104 234.344 460.737 270.614L400.581 300.764C336.194 333.034 259.107 326.198 201.404 283.101V283.101C143.408 239.785 65.8615 233.116 1.32171 265.894L-170.994 353.409" stroke="#14112C" stroke-opacity="0.1" stroke-width="1.5"/>
<path d="M1822.88 882.573L1667.92 804.39C1590.1 765.131 1497.8 767.425 1422.03 810.501L1419.34 812.03C1342.25 855.855 1247.93 856.446 1170.3 813.592L1154.63 804.943C1083.69 765.779 997.131 767.949 928.238 810.618V810.618C856.892 854.807 766.839 855.447 694.871 812.277L688.409 808.401C618.992 766.762 533.104 763.509 460.737 799.778L400.581 829.928C336.194 862.198 259.107 855.362 201.404 812.265V812.265C143.408 768.95 65.8615 762.281 1.32171 795.059L-170.994 882.573" stroke="#14112C" stroke-opacity="0.1" stroke-width="1.5"/>
<path d="M1822.88 44.7311L1667.92 -33.4521C1590.1 -72.711 1497.8 -70.417 1422.03 -27.3409L1419.34 -25.8121C1342.25 18.0122 1247.93 18.6037 1170.3 -24.2504L1154.63 -32.8997C1083.69 -72.0631 997.131 -69.8933 928.238 -27.2245V-27.2245C856.892 16.9647 766.839 17.605 694.871 -25.565L688.409 -29.4414C618.992 -71.0808 533.104 -74.3336 460.737 -38.064L400.581 -7.91401C336.194 24.356 259.107 17.52 201.404 -25.577V-25.577C143.408 -68.8926 65.8615 -75.5613 1.32171 -42.7833L-170.994 44.7311" stroke="#14112C" stroke-opacity="0.1" stroke-width="1.5"/>
<path d="M1822.88 573.894L1667.92 495.711C1590.1 456.452 1497.8 458.746 1422.03 501.822L1419.34 503.351C1342.25 547.175 1247.93 547.767 1170.3 504.913L1154.63 496.263C1083.69 457.1 997.131 459.27 928.238 501.938V501.938C856.892 546.128 766.839 546.768 694.871 503.598L688.409 499.721C618.992 458.082 533.104 454.829 460.737 491.099L400.581 521.249C336.194 553.519 259.107 546.683 201.404 503.586V503.586C143.408 460.27 65.8615 453.602 1.32171 486.38L-170.994 573.894" stroke="#14112C" stroke-opacity="0.1" stroke-width="1.5"/>
<path d="M1822.88 221.118L1667.92 142.935C1590.1 103.676 1497.8 105.97 1422.03 149.046L1419.34 150.575C1342.25 194.399 1247.93 194.991 1170.3 152.137L1154.63 143.487C1083.69 104.324 997.131 106.494 928.238 149.163V149.163C856.892 193.352 766.839 193.992 694.871 150.822L688.409 146.946C618.992 105.306 533.104 102.053 460.737 138.323L400.581 168.473C336.194 200.743 259.107 193.907 201.404 150.81V150.81C143.408 107.494 65.8615 100.826 1.32171 133.604L-170.994 221.118" stroke="#14112C" stroke-opacity="0.1" stroke-width="1.5"/>
<path d="M1822.88 750.282L1667.92 672.099C1590.1 632.84 1497.8 635.134 1422.03 678.21L1419.34 679.739C1342.25 723.563 1247.93 724.155 1170.3 681.301L1154.63 672.651C1083.69 633.488 997.131 635.658 928.238 678.327V678.327C856.892 722.516 766.839 723.156 694.871 679.986L688.409 676.11C618.992 634.47 533.104 631.218 460.737 667.487L400.581 697.637C336.194 729.907 259.107 723.071 201.404 679.974V679.974C143.408 636.659 65.8615 629.99 1.32171 662.768L-170.994 750.282" stroke="#14112C" stroke-opacity="0.1" stroke-width="1.5"/>
<path d="M1822.88 397.506L1667.92 319.323C1590.1 280.064 1497.8 282.358 1422.03 325.434L1419.34 326.963C1342.25 370.787 1247.93 371.378 1170.3 328.524L1154.63 319.875C1083.69 280.712 997.131 282.881 928.238 325.55V325.55C856.892 369.739 766.839 370.38 694.871 327.21L688.409 323.333C618.992 281.694 533.104 278.441 460.737 314.711L400.581 344.861C336.194 377.131 259.107 370.295 201.404 327.198V327.198C143.408 283.882 65.8615 277.213 1.32171 309.991L-170.994 397.506" stroke="#14112C" stroke-opacity="0.1" stroke-width="1.5"/>
<path d="M1822.88 926.67L1667.92 848.487C1590.1 809.228 1497.8 811.522 1422.03 854.598L1419.34 856.127C1342.25 899.951 1247.93 900.543 1170.3 857.689L1154.63 849.04C1083.69 809.876 997.131 812.046 928.238 854.715V854.715C856.892 898.904 766.839 899.544 694.871 856.374L688.409 852.498C618.992 810.859 533.104 807.606 460.737 843.875L400.581 874.025C336.194 906.295 259.107 899.459 201.404 856.362V856.362C143.408 813.047 65.8615 806.378 1.32171 839.156L-170.994 926.67" stroke="#14112C" stroke-opacity="0.1" stroke-width="1.5"/>
<path d="M1822.88 88.8278L1667.92 10.6447C1590.1 -28.6143 1497.8 -26.3203 1422.03 16.7559L1419.34 18.2847C1342.25 62.1089 1247.93 62.7004 1170.3 19.8464L1154.63 11.197C1083.69 -27.9663 997.131 -25.7966 928.238 16.8723V16.8723C856.892 61.0614 766.839 61.7018 694.871 18.5317L688.409 14.6554C618.992 -26.984 533.104 -30.2368 460.737 6.03278L400.581 36.1828C336.194 68.4528 259.107 61.6168 201.404 18.5198V18.5198C143.408 -24.7958 65.8615 -31.4645 1.32171 1.31347L-170.994 88.8278" stroke="#14112C" stroke-opacity="0.1" stroke-width="1.5"/>
<path d="M1822.88 617.991L1667.92 539.808C1590.1 500.549 1497.8 502.843 1422.03 545.919L1419.34 547.448C1342.25 591.272 1247.93 591.864 1170.3 549.01L1154.63 540.36C1083.69 501.197 997.131 503.367 928.238 546.035V546.035C856.892 590.225 766.839 590.865 694.871 547.695L688.409 543.819C618.992 502.179 533.104 498.926 460.737 535.196L400.581 565.346C336.194 597.616 259.107 590.78 201.404 547.683V547.683C143.408 504.367 65.8615 497.699 1.32171 530.477L-170.994 617.991" stroke="#14112C" stroke-opacity="0.1" stroke-width="1.5"/>
<path d="M1822.88 265.215L1667.92 187.032C1590.1 147.773 1497.8 150.067 1422.03 193.143L1419.34 194.672C1342.25 238.496 1247.93 239.087 1170.3 196.233L1154.63 187.584C1083.69 148.421 997.131 150.59 928.238 193.259V193.259C856.892 237.448 766.839 238.089 694.871 194.919L688.409 191.042C618.992 149.403 533.104 146.15 460.737 182.42L400.581 212.57C336.194 244.84 259.107 238.004 201.404 194.907V194.907C143.408 151.591 65.8615 144.923 1.32171 177.701L-170.994 265.215" stroke="#14112C" stroke-opacity="0.1" stroke-width="1.5"/>
<path d="M1822.88 794.379L1667.92 716.196C1590.1 676.937 1497.8 679.231 1422.03 722.307L1419.34 723.836C1342.25 767.66 1247.93 768.252 1170.3 725.398L1154.63 716.749C1083.69 677.585 997.131 679.755 928.238 722.424V722.424C856.892 766.613 766.839 767.253 694.871 724.083L688.409 720.207C618.992 678.567 533.104 675.315 460.737 711.584L400.581 741.734C336.194 774.004 259.107 767.168 201.404 724.071V724.071C143.408 680.756 65.8615 674.087 1.32171 706.865L-170.994 794.379" stroke="#14112C" stroke-opacity="0.1" stroke-width="1.5"/>
<path d="M1822.88 441.603L1667.92 363.42C1590.1 324.161 1497.8 326.455 1422.03 369.531L1419.34 371.06C1342.25 414.884 1247.93 415.475 1170.3 372.621L1154.63 363.972C1083.69 324.809 997.131 326.978 928.238 369.647V369.647C856.892 413.836 766.839 414.477 694.871 371.307L688.409 367.43C618.992 325.791 533.104 322.538 460.737 358.808L400.581 388.958C336.194 421.228 259.107 414.392 201.404 371.295V371.295C143.408 327.979 65.8615 321.31 1.32171 354.088L-170.994 441.603" stroke="#14112C" stroke-opacity="0.1" stroke-width="1.5"/>
<path d="M1822.88 970.768L1667.92 892.584C1590.1 853.325 1497.8 855.62 1422.03 898.696L1419.34 900.224C1342.25 944.049 1247.93 944.64 1170.3 901.786L1154.63 893.137C1083.69 853.973 997.131 856.143 928.238 898.812V898.812C856.892 943.001 766.839 943.642 694.871 900.472L688.409 896.595C618.992 854.956 533.104 851.703 460.737 887.973L400.581 918.123C336.194 950.393 259.107 943.557 201.404 900.46V900.46C143.408 857.144 65.8615 850.475 1.32171 883.253L-170.994 970.768" stroke="#14112C" stroke-opacity="0.1" stroke-width="1.5"/>
<path d="M1822.88 132.925L1667.92 54.7414C1590.1 15.4825 1497.8 17.7765 1422.03 60.8527L1419.34 62.3815C1342.25 106.206 1247.93 106.797 1170.3 63.9432L1154.63 55.2938C1083.69 16.1304 997.131 18.3002 928.238 60.969V60.969C856.892 105.158 766.839 105.799 694.871 62.6285L688.409 58.7521C618.992 17.1128 533.104 13.8599 460.737 50.1296L400.581 80.2795C336.194 112.55 259.107 105.714 201.404 62.6165V62.6165C143.408 19.301 65.8615 12.6323 1.32171 45.4103L-170.994 132.925" stroke="#14112C" stroke-opacity="0.1" stroke-width="1.5"/>
<path d="M1822.88 662.088L1667.92 583.905C1590.1 544.646 1497.8 546.94 1422.03 590.016L1419.34 591.545C1342.25 635.369 1247.93 635.961 1170.3 593.107L1154.63 584.457C1083.69 545.294 997.131 547.464 928.238 590.133V590.133C856.892 634.322 766.839 634.962 694.871 591.792L688.409 587.916C618.992 546.276 533.104 543.023 460.737 579.293L400.581 609.443C336.194 641.713 259.107 634.877 201.404 591.78V591.78C143.408 548.464 65.8615 541.796 1.32171 574.574L-170.994 662.088" stroke="#14112C" stroke-opacity="0.1" stroke-width="1.5"/>
<path d="M1822.88 309.312L1667.92 231.128C1590.1 191.87 1497.8 194.164 1422.03 237.24L1419.34 238.768C1342.25 282.593 1247.93 283.184 1170.3 240.33L1154.63 231.681C1083.69 192.517 997.131 194.687 928.238 237.356V237.356C856.892 281.545 766.839 282.186 694.871 239.016L688.409 235.139C618.992 193.5 533.104 190.247 460.737 226.517L400.581 256.667C336.194 288.937 259.107 282.101 201.404 239.004V239.004C143.408 195.688 65.8615 189.019 1.32171 221.797L-170.994 309.312" stroke="#14112C" stroke-opacity="0.1" stroke-width="1.5"/>
<path d="M1822.88 838.476L1667.92 760.293C1590.1 721.034 1497.8 723.328 1422.03 766.404L1419.34 767.933C1342.25 811.757 1247.93 812.349 1170.3 769.495L1154.63 760.846C1083.69 721.682 997.131 723.852 928.238 766.521V766.521C856.892 810.71 766.839 811.35 694.871 768.18L688.409 764.304C618.992 722.664 533.104 719.412 460.737 755.681L400.581 785.831C336.194 818.101 259.107 811.265 201.404 768.168V768.168C143.408 724.853 65.8615 718.184 1.32171 750.962L-170.994 838.476" stroke="#14112C" stroke-opacity="0.1" stroke-width="1.5"/>
<path d="M1822.88 485.7L1667.92 407.517C1590.1 368.258 1497.8 370.552 1422.03 413.628L1419.34 415.157C1342.25 458.981 1247.93 459.572 1170.3 416.718L1154.63 408.069C1083.69 368.906 997.131 371.075 928.238 413.744V413.744C856.892 457.933 766.839 458.574 694.871 415.404L688.409 411.527C618.992 369.888 533.104 366.635 460.737 402.905L400.581 433.055C336.194 465.325 259.107 458.489 201.404 415.392V415.392C143.408 372.076 65.8615 365.407 1.32171 398.185L-170.994 485.7" stroke="#14112C" stroke-opacity="0.1" stroke-width="1.5"/>
<path d="M1822.88 1014.86L1667.92 936.681C1590.1 897.422 1497.8 899.717 1422.03 942.793L1419.34 944.321C1342.25 988.146 1247.93 988.737 1170.3 945.883L1154.63 937.234C1083.69 898.07 997.131 900.24 928.238 942.909V942.909C856.892 987.098 766.839 987.739 694.871 944.568L688.409 940.692C618.992 899.053 533.104 895.8 460.737 932.07L400.581 962.22C336.194 994.49 259.107 987.654 201.404 944.557V944.557C143.408 901.241 65.8615 894.572 1.32171 927.35L-170.994 1014.86" stroke="#14112C" stroke-opacity="0.1" stroke-width="1.5"/>
<path d="M1822.88 9.45366L1667.92 -68.7295C1590.1 -107.988 1497.8 -105.694 1422.03 -62.6183L1419.34 -61.0895C1342.25 -17.2652 1247.93 -16.6737 1170.3 -59.5278L1154.63 -68.1771C1083.69 -107.341 997.131 -105.171 928.238 -62.5019V-62.5019C856.892 -18.3127 766.839 -17.6724 694.871 -60.8424L688.409 -64.7188C618.992 -106.358 533.104 -109.611 460.737 -73.3414L400.581 -43.1914C336.194 -10.9214 259.107 -17.7574 201.404 -60.8544V-60.8544C143.408 -104.17 65.8615 -110.839 1.32171 -78.0607L-170.994 9.45366" stroke="#14112C" stroke-opacity="0.1" stroke-width="1.5"/>
<path d="M1822.88 538.616L1667.92 460.433C1590.1 421.174 1497.8 423.468 1422.03 466.544L1419.34 468.073C1342.25 511.897 1247.93 512.489 1170.3 469.635L1154.63 460.985C1083.69 421.822 997.131 423.992 928.238 466.661V466.661C856.892 510.85 766.839 511.49 694.871 468.32L688.409 464.444C618.992 422.804 533.104 419.552 460.737 455.821L400.581 485.971C336.194 518.241 259.107 511.405 201.404 468.308V468.308C143.408 424.993 65.8615 418.324 1.32171 451.102L-170.994 538.616" stroke="#14112C" stroke-opacity="0.1" stroke-width="1.5"/>
<path d="M1822.88 185.841L1667.92 107.658C1590.1 68.3986 1497.8 70.6926 1422.03 113.769L1419.34 115.298C1342.25 159.122 1247.93 159.713 1170.3 116.859L1154.63 108.21C1083.69 69.0466 997.131 71.2163 928.238 113.885V113.885C856.892 158.074 766.839 158.715 694.871 115.545L688.409 111.668C618.992 70.0289 533.104 66.7761 460.737 103.046L400.581 133.196C336.194 165.466 259.107 158.63 201.404 115.533V115.533C143.408 72.2171 65.8615 65.5484 1.32171 98.3264L-170.994 185.841" stroke="#14112C" stroke-opacity="0.1" stroke-width="1.5"/>
<path d="M1822.88 715.005L1667.92 636.821C1590.1 597.562 1497.8 599.856 1422.03 642.933L1419.34 644.461C1342.25 688.286 1247.93 688.877 1170.3 646.023L1154.63 637.374C1083.69 598.21 997.131 600.38 928.238 643.049V643.049C856.892 687.238 766.839 687.878 694.871 644.708L688.409 640.832C618.992 599.193 533.104 595.94 460.737 632.21L400.581 662.359C336.194 694.63 259.107 687.793 201.404 644.696V644.696C143.408 601.381 65.8615 594.712 1.32171 627.49L-170.994 715.005" stroke="#14112C" stroke-opacity="0.1" stroke-width="1.5"/>
<path d="M1822.88 362.228L1667.92 284.045C1590.1 244.786 1497.8 247.08 1422.03 290.156L1419.34 291.685C1342.25 335.509 1247.93 336.101 1170.3 293.247L1154.63 284.597C1083.69 245.434 997.131 247.604 928.238 290.272V290.272C856.892 334.462 766.839 335.102 694.871 291.932L688.409 288.056C618.992 246.416 533.104 243.163 460.737 279.433L400.581 309.583C336.194 341.853 259.107 335.017 201.404 291.92V291.92C143.408 248.604 65.8615 241.936 1.32171 274.714L-170.994 362.228" stroke="#14112C" stroke-opacity="0.1" stroke-width="1.5"/>
<path d="M1822.88 891.393L1667.92 813.21C1590.1 773.951 1497.8 776.245 1422.03 819.321L1419.34 820.85C1342.25 864.674 1247.93 865.265 1170.3 822.411L1154.63 813.762C1083.69 774.599 997.131 776.768 928.238 819.437V819.437C856.892 863.626 766.839 864.267 694.871 821.097L688.409 817.22C618.992 775.581 533.104 772.328 460.737 808.598L400.581 838.748C336.194 871.018 259.107 864.182 201.404 821.085V821.085C143.408 777.769 65.8615 771.1 1.32171 803.878L-170.994 891.393" stroke="#14112C" stroke-opacity="0.1" stroke-width="1.5"/>
<path d="M1822.88 53.5504L1667.92 -24.6327C1590.1 -63.8917 1497.8 -61.5977 1422.03 -18.5215L1419.34 -16.9927C1342.25 26.8315 1247.93 27.423 1170.3 -15.431L1154.63 -24.0804C1083.69 -63.2437 997.131 -61.074 928.238 -18.4052V-18.4052C856.892 25.784 766.839 26.4244 694.871 -16.7457L688.409 -20.622C618.992 -62.2614 533.104 -65.5142 460.737 -29.2446L400.581 0.905352C336.194 33.1754 259.107 26.3394 201.404 -16.7576V-16.7576C143.408 -60.0732 65.8615 -66.7419 1.32171 -33.9639L-170.994 53.5504" stroke="#14112C" stroke-opacity="0.1" stroke-width="1.5"/>
<path d="M1822.88 582.713L1667.92 504.53C1590.1 465.271 1497.8 467.565 1422.03 510.641L1419.34 512.17C1342.25 555.994 1247.93 556.586 1170.3 513.732L1154.63 505.083C1083.69 465.919 997.131 468.089 928.238 510.758V510.758C856.892 554.947 766.839 555.587 694.871 512.417L688.409 508.541C618.992 466.901 533.104 463.649 460.737 499.918L400.581 530.068C336.194 562.338 259.107 555.502 201.404 512.405V512.405C143.408 469.09 65.8615 462.421 1.32171 495.199L-170.994 582.713" stroke="#14112C" stroke-opacity="0.1" stroke-width="1.5"/>
<path d="M1822.88 229.937L1667.92 151.754C1590.1 112.495 1497.8 114.789 1422.03 157.866L1419.34 159.394C1342.25 203.219 1247.93 203.81 1170.3 160.956L1154.63 152.307C1083.69 113.143 997.131 115.313 928.238 157.982V157.982C856.892 202.171 766.839 202.811 694.871 159.641L688.409 155.765C618.992 114.126 533.104 110.873 460.737 147.142L400.581 177.292C336.194 209.562 259.107 202.726 201.404 159.629V159.629C143.408 116.314 65.8615 109.645 1.32171 142.423L-170.994 229.937" stroke="#14112C" stroke-opacity="0.1" stroke-width="1.5"/>
<path d="M1822.88 759.102L1667.92 680.918C1590.1 641.659 1497.8 643.954 1422.03 687.03L1419.34 688.558C1342.25 732.383 1247.93 732.974 1170.3 690.12L1154.63 681.471C1083.69 642.307 997.131 644.477 928.238 687.146V687.146C856.892 731.335 766.839 731.976 694.871 688.805L688.409 684.929C618.992 643.29 533.104 640.037 460.737 676.307L400.581 706.457C336.194 738.727 259.107 731.891 201.404 688.794V688.794C143.408 645.478 65.8615 638.809 1.32171 671.587L-170.994 759.102" stroke="#14112C" stroke-opacity="0.1" stroke-width="1.5"/>
<path d="M1822.88 406.325L1667.92 328.142C1590.1 288.883 1497.8 291.177 1422.03 334.253L1419.34 335.782C1342.25 379.606 1247.93 380.198 1170.3 337.344L1154.63 328.694C1083.69 289.531 997.131 291.701 928.238 334.37V334.37C856.892 378.559 766.839 379.199 694.871 336.029L688.409 332.153C618.992 290.513 533.104 287.26 460.737 323.53L400.581 353.68C336.194 385.95 259.107 379.114 201.404 336.017V336.017C143.408 292.701 65.8615 286.033 1.32171 318.811L-170.994 406.325" stroke="#14112C" stroke-opacity="0.1" stroke-width="1.5"/>
<path d="M1822.88 935.49L1667.92 857.307C1590.1 818.048 1497.8 820.342 1422.03 863.418L1419.34 864.947C1342.25 908.771 1247.93 909.363 1170.3 866.509L1154.63 857.859C1083.69 818.696 997.131 820.866 928.238 863.534V863.534C856.892 907.724 766.839 908.364 694.871 865.194L688.409 861.318C618.992 819.678 533.104 816.425 460.737 852.695L400.581 882.845C336.194 915.115 259.107 908.279 201.404 865.182V865.182C143.408 821.866 65.8615 815.198 1.32171 847.976L-170.994 935.49" stroke="#14112C" stroke-opacity="0.1" stroke-width="1.5"/>
<path d="M1822.88 97.6472L1667.92 19.464C1590.1 -19.7949 1497.8 -17.5009 1422.03 25.5753L1419.34 27.104C1342.25 70.9283 1247.93 71.5198 1170.3 28.6657L1154.63 20.0164C1083.69 -19.147 997.131 -16.9772 928.238 25.6916V25.6916C856.892 69.8808 766.839 70.5211 694.871 27.3511L688.409 23.4747C618.992 -18.1647 533.104 -21.4175 460.737 14.8521L400.581 45.0021C336.194 77.2722 259.107 70.4361 201.404 27.3391V27.3391C143.408 -15.9765 65.8615 -22.6452 1.32171 10.1328L-170.994 97.6472" stroke="#14112C" stroke-opacity="0.1" stroke-width="1.5"/>
<path d="M1822.88 626.81L1667.92 548.627C1590.1 509.368 1497.8 511.662 1422.03 554.739L1419.34 556.267C1342.25 600.092 1247.93 600.683 1170.3 557.829L1154.63 549.18C1083.69 510.016 997.131 512.186 928.238 554.855V554.855C856.892 599.044 766.839 599.684 694.871 556.514L688.409 552.638C618.992 510.999 533.104 507.746 460.737 544.015L400.581 574.165C336.194 606.435 259.107 599.599 201.404 556.502V556.502C143.408 513.187 65.8615 506.518 1.32171 539.296L-170.994 626.81" stroke="#14112C" stroke-opacity="0.1" stroke-width="1.5"/>
<path d="M1822.88 274.034L1667.92 195.851C1590.1 156.592 1497.8 158.886 1422.03 201.962L1419.34 203.491C1342.25 247.315 1247.93 247.907 1170.3 205.053L1154.63 196.403C1083.69 157.24 997.131 159.41 928.238 202.079V202.079C856.892 246.268 766.839 246.908 694.871 203.738L688.409 199.862C618.992 158.222 533.104 154.97 460.737 191.239L400.581 221.389C336.194 253.659 259.107 246.823 201.404 203.726V203.726C143.408 160.411 65.8615 153.742 1.32171 186.52L-170.994 274.034" stroke="#14112C" stroke-opacity="0.1" stroke-width="1.5"/>
<path d="M1822.88 803.199L1667.92 725.016C1590.1 685.757 1497.8 688.051 1422.03 731.127L1419.34 732.656C1342.25 776.48 1247.93 777.071 1170.3 734.217L1154.63 725.568C1083.69 686.405 997.131 688.574 928.238 731.243V731.243C856.892 775.432 766.839 776.073 694.871 732.903L688.409 729.026C618.992 687.387 533.104 684.134 460.737 720.404L400.581 750.554C336.194 782.824 259.107 775.988 201.404 732.891V732.891C143.408 689.575 65.8615 682.906 1.32171 715.684L-170.994 803.199" stroke="#14112C" stroke-opacity="0.1" stroke-width="1.5"/>
<path d="M1822.88 450.422L1667.92 372.239C1590.1 332.98 1497.8 335.274 1422.03 378.35L1419.34 379.879C1342.25 423.703 1247.93 424.295 1170.3 381.441L1154.63 372.791C1083.69 333.628 997.131 335.798 928.238 378.467V378.467C856.892 422.656 766.839 423.296 694.871 380.126L688.409 376.25C618.992 334.61 533.104 331.358 460.737 367.627L400.581 397.777C336.194 430.047 259.107 423.211 201.404 380.114V380.114C143.408 336.799 65.8615 330.13 1.32171 362.908L-170.994 450.422" stroke="#14112C" stroke-opacity="0.1" stroke-width="1.5"/>
<path d="M1822.88 979.587L1667.92 901.404C1590.1 862.145 1497.8 864.439 1422.03 907.515L1419.34 909.044C1342.25 952.868 1247.93 953.46 1170.3 910.606L1154.63 901.956C1083.69 862.793 997.131 864.963 928.238 907.631V907.631C856.892 951.821 766.839 952.461 694.871 909.291L688.409 905.415C618.992 863.775 533.104 860.522 460.737 896.792L400.581 926.942C336.194 959.212 259.107 952.376 201.404 909.279V909.279C143.408 865.963 65.8615 859.295 1.32171 892.073L-170.994 979.587" stroke="#14112C" stroke-opacity="0.1" stroke-width="1.5"/>
<path d="M1822.88 141.744L1667.92 63.5608C1590.1 24.3018 1497.8 26.5959 1422.03 69.672L1419.34 71.2008C1342.25 115.025 1247.93 115.617 1170.3 72.7625L1154.63 64.1131C1083.69 24.9498 997.131 27.1195 928.238 69.7884V69.7884C856.892 113.978 766.839 114.618 694.871 71.4478L688.409 67.5715C618.992 25.9321 533.104 22.6793 460.737 58.9489L400.581 89.0989C336.194 121.369 259.107 114.533 201.404 71.4359V71.4359C143.408 28.1203 65.8615 21.4516 1.32171 54.2296L-170.994 141.744" stroke="#14112C" stroke-opacity="0.1" stroke-width="1.5"/>
<path d="M1822.88 670.908L1667.92 592.724C1590.1 553.465 1497.8 555.759 1422.03 598.836L1419.34 600.364C1342.25 644.189 1247.93 644.78 1170.3 601.926L1154.63 593.277C1083.69 554.113 997.131 556.283 928.238 598.952V598.952C856.892 643.141 766.839 643.781 694.871 600.611L688.409 596.735C618.992 555.096 533.104 551.843 460.737 588.112L400.581 618.262C336.194 650.532 259.107 643.696 201.404 600.599V600.599C143.408 557.284 65.8615 550.615 1.32171 583.393L-170.994 670.908" stroke="#14112C" stroke-opacity="0.1" stroke-width="1.5"/>
<path d="M1822.88 318.131L1667.92 239.948C1590.1 200.689 1497.8 202.983 1422.03 246.059L1419.34 247.588C1342.25 291.412 1247.93 292.004 1170.3 249.15L1154.63 240.5C1083.69 201.337 997.131 203.507 928.238 246.175V246.175C856.892 290.365 766.839 291.005 694.871 247.835L688.409 243.959C618.992 202.319 533.104 199.066 460.737 235.336L400.581 265.486C336.194 297.756 259.107 290.92 201.404 247.823V247.823C143.408 204.507 65.8615 197.839 1.32171 230.617L-170.994 318.131" stroke="#14112C" stroke-opacity="0.1" stroke-width="1.5"/>
<path d="M1822.88 847.296L1667.92 769.113C1590.1 729.854 1497.8 732.148 1422.03 775.224L1419.34 776.753C1342.25 820.577 1247.93 821.168 1170.3 778.314L1154.63 769.665C1083.69 730.502 997.131 732.671 928.238 775.34V775.34C856.892 819.529 766.839 820.17 694.871 777L688.409 773.123C618.992 731.484 533.104 728.231 460.737 764.501L400.581 794.651C336.194 826.921 259.107 820.085 201.404 776.988V776.988C143.408 733.672 65.8615 727.003 1.32171 759.781L-170.994 847.296" stroke="#14112C" stroke-opacity="0.1" stroke-width="1.5"/>
<path d="M1822.88 494.519L1667.92 416.336C1590.1 377.077 1497.8 379.371 1422.03 422.447L1419.34 423.976C1342.25 467.8 1247.93 468.392 1170.3 425.538L1154.63 416.888C1083.69 377.725 997.131 379.895 928.238 422.564V422.564C856.892 466.753 766.839 467.393 694.871 424.223L688.409 420.347C618.992 378.707 533.104 375.455 460.737 411.724L400.581 441.874C336.194 474.144 259.107 467.308 201.404 424.211V424.211C143.408 380.896 65.8615 374.227 1.32171 407.005L-170.994 494.519" stroke="#14112C" stroke-opacity="0.1" stroke-width="1.5"/>
<path d="M1822.88 1023.68L1667.92 945.501C1590.1 906.242 1497.8 908.536 1422.03 951.612L1419.34 953.141C1342.25 996.965 1247.93 997.557 1170.3 954.703L1154.63 946.053C1083.69 906.89 997.131 909.06 928.238 951.729V951.729C856.892 995.918 766.839 996.558 694.871 953.388L688.409 949.512C618.992 907.872 533.104 904.62 460.737 940.889L400.581 971.039C336.194 1003.31 259.107 996.473 201.404 953.376V953.376C143.408 910.061 65.8615 903.392 1.32171 936.17L-170.994 1023.68" stroke="#14112C" stroke-opacity="0.1" stroke-width="1.5"/>
<rect width="1905.87" height="879.804" transform="matrix(-1 0 0 1 1734.88 149.196)" fill="url(#paint0_radial_3009_4648)"/>
<rect x="-0.5" y="0.5" width="1729.99" height="1159.58" transform="matrix(-1 0 0 1 1727.24 -131.582)" fill="url(#paint1_radial_3009_4648)" stroke="black"/>
<defs>
<radialGradient id="paint0_radial_3009_4648" cx="0" cy="0" r="1" gradientUnits="userSpaceOnUse" gradientTransform="translate(405.531 476.04) rotate(93.6886) scale(593.279 1283.61)">
<stop stop-color="white"/>
<stop offset="1" stop-color="white" stop-opacity="0.5"/>
</radialGradient>
<radialGradient id="paint1_radial_3009_4648" cx="0" cy="0" r="1" gradientUnits="userSpaceOnUse" gradientTransform="translate(368.32 627.962) rotate(92.5415) scale(781.764 1167.1)">
<stop stop-color="#F8F8F8"/>
<stop offset="1" stop-color="#F8F8F8" stop-opacity="0.5"/>
</radialGradient>
</defs>
</svg>
