<svg width="63" height="64" viewBox="0 0 63 64" fill="none" xmlns="http://www.w3.org/2000/svg">
<path d="M1.34442 63.9956C1.2517 63.9338 1.14353 63.872 1.05081 63.8102C0.262708 63.3775 -0.139069 62.543 0.0463664 61.7549C0.247255 60.8741 0.927174 60.3024 1.8698 60.2869C4.9604 60.2715 8.05099 60.2715 11.1416 60.2715C11.3579 60.2715 11.5743 60.2715 11.8524 60.1478C11.6052 59.9933 11.3579 59.8233 11.1107 59.6688C5.99575 56.2382 2.48793 51.6178 0.819014 45.653C0.262708 43.6595 0.015453 41.6197 0 39.549C0 36.3812 0 33.1979 0 30.03C0 28.6238 0.726296 27.8975 2.13252 27.8975C17.8327 27.8975 33.5329 27.8975 49.2331 27.8975C50.6084 27.8975 51.3347 28.5929 51.3347 29.9837C51.3347 33.7387 51.4429 37.4938 51.2575 41.2334C50.9948 46.2711 49.0786 50.7215 45.8798 54.6311C44.18 56.7018 42.1866 58.448 39.9304 59.8851C39.7914 59.9779 39.6677 60.0706 39.5596 60.2715C39.7759 60.2715 39.9768 60.2715 40.1931 60.2715C43.2683 60.2715 46.328 60.256 49.4031 60.2715C50.7166 60.2715 51.5665 61.3377 51.2884 62.574C51.1184 63.3157 50.5775 63.6866 49.944 63.9802C33.7338 63.9956 17.5391 63.9956 1.34442 63.9956Z" fill="#D1363F"/>
<path d="M18.0491 7.05166C18.0028 9.32325 17.1065 10.9613 15.6385 12.352C15.1131 12.8465 14.5722 13.3256 14.0932 13.8664C13.2742 14.7936 13.166 15.8907 13.7223 16.9725C14.0932 17.6987 14.6031 18.3478 15.1285 18.9813C15.8548 19.8467 15.8857 20.9593 15.1285 21.6856C14.3868 22.3964 13.2587 22.3964 12.4706 21.6238C10.9871 20.1867 9.95177 18.4714 9.68907 16.3852C9.39547 14.0364 10.3844 12.1511 12.0379 10.5595C12.5633 10.065 13.1042 9.58594 13.5832 9.04509C14.3868 8.11791 14.5104 7.02075 13.9541 5.93905C13.5987 5.22821 13.1042 4.57919 12.5942 3.97652C11.8216 3.08025 11.7752 1.96764 12.5479 1.21044C13.3205 0.468701 14.4331 0.515059 15.2521 1.31861C16.8901 2.97208 17.9255 4.88825 18.0491 7.05166Z" fill="#D1363F"/>
<path d="M21.4795 15.9522C21.4795 13.557 22.453 11.919 23.9211 10.5128C24.431 10.0338 24.9719 9.57018 25.42 9.04478C26.2235 8.1176 26.3472 7.02044 25.7909 5.93873C25.4355 5.2279 24.941 4.57887 24.431 3.97621C23.6584 3.06448 23.612 1.96732 24.4001 1.22558C25.1728 0.483841 26.2699 0.530199 27.1044 1.34921C28.4797 2.69361 29.4532 4.26981 29.7777 6.17053C30.2104 8.6121 29.2678 10.5901 27.568 12.2744C27.1662 12.6608 26.7335 13.0162 26.3317 13.4025C25.1418 14.546 24.8946 15.875 25.7136 17.3121C26.069 17.9457 26.579 18.502 27.0426 19.0737C27.9697 20.1864 27.5525 21.7317 26.1772 22.1334C25.5591 22.3189 24.9564 22.1952 24.4928 21.778C22.7003 20.1245 21.5722 18.1466 21.4795 15.9522Z" fill="#D1363F"/>
<path d="M41.6919 7.08217C41.6919 9.3074 40.7493 10.9609 39.2813 12.3671C38.7404 12.877 38.1841 13.3561 37.705 13.9278C36.9788 14.7932 36.8088 15.8131 37.3342 16.8021C37.7514 17.6056 38.3232 18.3474 38.8949 19.0737C39.7912 20.2017 39.3585 21.8088 37.9832 22.1024C37.4887 22.2106 36.7624 22.087 36.3761 21.7779C34.7381 20.4026 33.6718 18.641 33.3782 16.4776C33.0537 14.0978 34.0118 12.1816 35.6807 10.5745C36.2061 10.0646 36.7779 9.5701 37.2569 9.01379C38.045 8.10207 38.1841 7.03581 37.6432 5.96956C37.2878 5.25872 36.7933 4.6097 36.2834 4.00703C35.4644 3.04895 35.418 1.98269 36.237 1.21005C37.0251 0.468305 38.1223 0.530116 38.9722 1.39548C40.5639 3.00259 41.5992 4.88785 41.6919 7.08217Z" fill="#D1363F"/>
<path d="M52.9883 50.057C53.3746 48.8363 53.7455 47.6618 54.1473 46.5029C54.1936 46.3638 54.4563 46.2402 54.6263 46.2093C57.176 45.7302 58.9222 43.5823 59.1849 41.3879C59.5712 38.2664 57.6705 36.0258 55.4762 35.2377C55.1362 35.114 54.9817 34.9595 54.9972 34.5886C55.0281 33.5069 55.0126 32.4098 55.0126 31.3281C58.6132 31.6062 63.419 35.3613 62.9709 41.3261C62.5691 46.8274 57.7942 50.3816 52.9883 50.057Z" fill="#D1363F"/>
</svg>
