<svg width="47" height="62" viewBox="0 0 47 62" fill="none" xmlns="http://www.w3.org/2000/svg">
<path d="M12.2409 61.086C11.6414 60.802 11.2785 60.3287 10.9946 59.745C10.2373 58.1673 9.43269 56.6055 8.62809 54.9963C8.20212 55.2645 7.80771 55.5169 7.41329 55.7693C6.23005 56.5424 5.04681 57.3312 3.86357 58.12C3.23251 58.546 2.58568 58.6091 1.92306 58.1673C1.292 57.7572 1.03958 57.0945 1.24467 56.3057C2.82233 50.3895 4.41576 44.4575 6.00919 38.5413C6.02496 38.5098 6.04074 38.4782 6.10384 38.3678C6.56136 38.494 7.09776 38.5571 7.52373 38.7938C7.82349 38.9673 8.10746 39.3459 8.20212 39.6772C8.51765 40.8132 8.7543 41.9648 9.0225 43.1165C9.48002 45.0886 11.2312 46.1456 13.2033 45.6092C14.3865 45.2937 15.554 44.9466 16.7214 44.6311C16.9896 44.568 17.2736 44.5206 17.5261 44.5364C18.094 44.5995 18.2833 44.8993 18.1413 45.4515C16.8792 50.2002 15.6013 54.9489 14.3392 59.6977C14.1657 60.3603 13.7239 60.7705 13.1717 61.086C12.872 61.086 12.5564 61.086 12.2409 61.086Z" fill="#D1363F"/>
<path d="M33.0657 61.086C32.2926 60.7232 31.9771 60.0448 31.772 59.2559C30.5888 54.7596 29.374 50.2633 28.175 45.767C27.9541 44.9151 28.5536 44.2682 29.4213 44.4891C30.6045 44.8046 31.7562 45.1833 32.9237 45.5304C34.9746 46.1456 36.6943 45.1991 37.2465 43.1323C37.5304 42.0753 37.8302 41.0025 38.0511 39.9297C38.2404 38.9831 38.7295 38.4625 39.6918 38.3678C39.8338 38.352 39.96 38.3047 40.1651 38.2574C40.4649 39.3617 40.7488 40.4503 41.0486 41.5547C42.358 46.4138 43.6517 51.273 44.9612 56.1322C45.2767 57.2839 44.8034 58.2305 43.7464 58.3882C43.3046 58.4513 42.7682 58.2936 42.3738 58.0569C40.9697 57.1892 39.5972 56.2584 38.2246 55.3434C38.0668 55.2329 37.8933 55.1383 37.6724 54.9963C37.4831 55.3591 37.3096 55.7062 37.136 56.0375C36.5207 57.2681 35.8897 58.4987 35.2902 59.7292C35.0062 60.3287 34.6433 60.7863 34.0438 61.0702C33.6967 61.086 33.3812 61.086 33.0657 61.086Z" fill="#D1363F"/>
<path d="M17.0525 42.5171C16.2636 42.738 15.3013 42.9904 14.3231 43.2586C13.7867 43.4006 13.2661 43.5584 12.7297 43.7004C11.7831 43.9528 11.1678 43.5899 10.947 42.6118C10.7103 41.5705 10.4579 40.545 10.237 39.5038C9.90571 37.9577 9.02222 36.9953 7.44456 36.664C6.35598 36.4274 5.2674 36.1276 4.17882 35.8436C3.12179 35.5754 2.77472 34.9759 3.09025 33.9031C3.39 32.8776 3.68975 31.868 4.00528 30.8583C4.47858 29.391 4.16304 28.1447 3.04291 27.1034C2.22253 26.3304 1.41793 25.5416 0.613329 24.7685C-0.207051 23.9639 -0.207055 23.2697 0.629101 22.4967C1.40215 21.771 2.19098 21.0453 2.96403 20.3195C4.05261 19.3098 4.43124 18.1266 3.9895 16.6909C3.64242 15.5392 3.32689 14.3876 3.01136 13.2359C2.75894 12.2893 3.13757 11.6424 4.08417 11.4216C5.15697 11.1691 6.22977 10.9325 7.30257 10.6801C8.75401 10.3645 9.65328 9.49684 10.0004 8.0454C10.2843 6.87793 10.5841 5.72624 10.8996 4.55878C11.1521 3.58063 11.7516 3.26511 12.7297 3.54909C13.8498 3.88039 14.9542 4.22747 16.0585 4.54301C17.3522 4.92164 18.4724 4.63766 19.419 3.69107C20.2867 2.82336 21.1228 1.93988 21.9747 1.07217C22.7478 0.283342 23.4262 0.283344 24.1992 1.10372C24.9092 1.84522 25.6191 2.58672 26.2975 3.35977C27.3545 4.54301 28.6009 4.93742 30.1312 4.46412C31.204 4.13282 32.2926 3.84884 33.3654 3.54909C34.4698 3.23356 35.0535 3.58064 35.3059 4.70077C35.5583 5.80513 35.8265 6.92526 36.0947 8.02961C36.4103 9.32329 37.2149 10.1279 38.4928 10.475C39.7076 10.8063 40.9381 11.0903 42.1529 11.4058C43.1153 11.6582 43.4624 12.2735 43.1784 13.2359C42.8787 14.2771 42.5631 15.3026 42.2318 16.3438C41.7585 17.7953 42.0425 19.0416 43.1784 20.1144C44.0303 20.9033 44.8507 21.7236 45.6869 22.544C46.4284 23.2697 46.4284 23.9639 45.6711 24.6896C44.8665 25.4627 44.0303 26.2357 43.21 26.993C42.1687 27.9711 41.8216 29.1386 42.2318 30.527C42.5631 31.6629 42.8944 32.7988 43.21 33.9347C43.4939 34.9602 43.1469 35.5597 42.1056 35.8121C40.9855 36.0803 39.8496 36.3485 38.7136 36.6167C37.4042 36.9322 36.5838 37.7526 36.2525 39.0463C35.937 40.2453 35.653 41.4443 35.3375 42.6433C35.0693 43.6372 34.4698 43.9843 33.4758 43.6846C32.4188 43.369 31.3618 43.0535 30.3205 42.7222C28.9006 42.2647 27.6859 42.596 26.6604 43.6688C25.9031 44.4734 25.1301 45.2622 24.357 46.0511C23.4735 46.9661 22.8267 46.9661 21.959 46.0511C21.1544 45.1991 20.3655 44.3472 19.5609 43.511C18.9457 42.8326 18.1411 42.5644 17.0525 42.5171ZM23.1264 39.1094C31.7089 39.1094 38.6348 32.1993 38.6348 23.6011C38.6348 15.0344 31.6931 8.07695 23.1264 8.07695C14.5598 8.07695 7.6181 15.0344 7.6181 23.6011C7.6181 32.1835 14.5282 39.1094 23.1264 39.1094Z" fill="#D1363F"/>
<path d="M36.6784 23.6008C36.6784 31.0474 30.6045 37.1529 23.158 37.1687C15.6957 37.1844 9.57437 31.0789 9.55859 23.6166C9.55859 16.1385 15.6483 10.0646 23.1422 10.0804C30.636 10.0804 36.6784 16.1385 36.6784 23.6008ZM27.7331 26.2986C27.6385 25.1154 27.0548 24.0584 25.8084 23.4589C25.2405 23.1907 24.6252 23.0644 24.0257 22.8751C23.2999 22.6385 22.5584 22.4492 21.8485 22.1336C21.1701 21.8339 20.8861 21.2344 20.9808 20.4771C21.0755 19.7671 21.5014 19.2938 22.1798 19.1834C22.8424 19.073 23.5524 19.0572 24.215 19.1519C24.8776 19.2623 25.3509 19.7198 25.6033 20.3982C25.8557 21.0924 26.329 21.3763 26.8812 21.2028C27.4492 21.0135 27.67 20.4455 27.4334 19.7356C27.1021 18.7259 26.471 17.874 25.4771 17.5742C24.3096 17.2429 23.8995 16.6592 24.0572 15.4759C24.1203 14.9869 23.6313 14.6082 23.1422 14.5924C22.6216 14.5767 22.2114 14.9553 22.164 15.5075C22.1483 15.8072 22.1167 16.107 22.164 16.391C22.2271 16.9274 22.0536 17.164 21.5014 17.3376C20.0026 17.8109 19.1507 18.8994 19.0087 20.4613C18.8825 21.9285 19.5136 23.0802 20.7915 23.8059C21.3594 24.1372 22.0063 24.3423 22.6373 24.5474C23.3473 24.7841 24.0888 24.8945 24.7829 25.1627C25.8557 25.5729 26.0924 26.8666 25.2089 27.5923C24.8303 27.9078 24.2781 28.1287 23.7732 28.1918C22.2114 28.3654 21.1543 27.6081 20.4759 26.2197C20.1289 25.5098 19.624 25.2889 19.0561 25.5729C18.5039 25.8411 18.3777 26.3775 18.709 27.0875C19.3243 28.4127 20.2866 29.3908 21.675 29.8799C22.0378 30.0061 22.1798 30.1797 22.1483 30.5583C22.1167 30.9527 22.1325 31.3471 22.1483 31.7415C22.1798 32.2622 22.5742 32.6092 23.0791 32.6092C23.6313 32.625 24.0257 32.2779 24.0572 31.7258C24.0888 31.3944 24.0888 31.0474 24.0572 30.7161C24.0257 30.3216 24.1361 30.1481 24.5621 30.0534C26.5026 29.5959 27.7331 28.1603 27.7331 26.2986Z" fill="#D1363F"/>
</svg>
