<svg width="32" height="32" viewBox="0 0 32 32" fill="none" xmlns="http://www.w3.org/2000/svg">
<path fill-rule="evenodd" clip-rule="evenodd" d="M24.4681 6.73314C22.1284 4.39028 19.0167 3.09946 15.7017 3.09808C8.87073 3.09808 3.31135 8.65815 3.3086 15.4919C3.30769 17.6765 3.87828 19.809 4.96283 21.6887L3.20465 28.1115L9.7744 26.3878C11.5846 27.3754 13.6226 27.8959 15.6966 27.8965H15.7018C22.532 27.8965 28.092 22.336 28.0945 15.5019C28.0959 12.1899 26.808 9.07586 24.4681 6.73314ZM15.7017 25.8032H15.6974C13.8491 25.8025 12.0365 25.3057 10.4547 24.3672L10.0788 24.1439L6.18019 25.1668L7.22078 21.3651L6.97578 20.9754C5.94465 19.3351 5.40016 17.4392 5.40108 15.4927C5.40322 9.81264 10.0241 5.19149 15.7058 5.19149C18.4571 5.1924 21.0434 6.26537 22.9881 8.21267C24.9328 10.16 26.0031 12.7483 26.0022 15.5011C25.9998 21.1816 21.3792 25.8032 15.7017 25.8032ZM21.3517 18.0875C21.0421 17.9324 19.5196 17.1834 19.2357 17.0799C18.9521 16.9765 18.7454 16.9251 18.5392 17.235C18.3327 17.5449 17.7393 18.2426 17.5586 18.4492C17.3779 18.6559 17.1974 18.6818 16.8877 18.5267C16.578 18.3718 15.5803 18.0446 14.3974 16.9895C13.477 16.1683 12.8556 15.1541 12.6748 14.8442C12.4944 14.5339 12.6733 14.3825 12.8107 14.2121C13.1459 13.7958 13.4816 13.3593 13.5848 13.1527C13.6881 12.946 13.6363 12.7651 13.5588 12.6102C13.4816 12.4552 12.8623 10.9308 12.6043 10.3105C12.3527 9.70684 12.0977 9.78837 11.9075 9.7789C11.727 9.76989 11.5205 9.76806 11.314 9.76806C11.1076 9.76806 10.7721 9.84547 10.4882 10.1557C10.2044 10.4658 9.40453 11.2149 9.40453 12.7393C9.40453 14.2637 10.5141 15.7364 10.6689 15.9431C10.8237 16.1498 12.8525 19.278 15.9587 20.6194C16.6975 20.9387 17.2742 21.1291 17.7241 21.2719C18.4659 21.5076 19.1408 21.4743 19.6744 21.3946C20.2694 21.3056 21.5063 20.6453 21.7646 19.922C22.0226 19.1985 22.0226 18.5785 21.945 18.4492C21.8678 18.32 21.6613 18.2426 21.3517 18.0875Z" fill="white"/>
</svg>
