<svg width="112" height="153" viewBox="0 0 112 153" fill="none" xmlns="http://www.w3.org/2000/svg">
<path d="M0 20.7219C0 9.67616 8.95431 0.721863 20 0.721863H112V152.722H20C8.9543 152.722 0 143.768 0 132.722V20.7219Z" fill="white"/>
<g clip-path="url(#clip0_2983_1327)">
<path d="M71.4117 78.8498L72.8042 81.6745C72.8395 81.7408 72.9014 81.7894 72.981 81.8027L76.0975 82.2536C76.2876 82.2801 76.3627 82.5144 76.2257 82.6514L73.9712 84.8485C73.9181 84.9015 73.8916 84.9767 73.9049 85.0518L74.4353 88.1551C74.4663 88.3451 74.2674 88.491 74.0994 88.3982L71.31 86.9306C71.2437 86.8952 71.1597 86.8952 71.0934 86.9306L68.304 88.3982C68.136 88.4866 67.9371 88.3451 67.9681 88.1551L68.4985 85.0518C68.5118 84.9767 68.4853 84.9015 68.4322 84.8485L66.1821 82.6514C66.0451 82.5188 66.1203 82.2845 66.3103 82.2536L69.4268 81.8027C69.502 81.7939 69.5683 81.7452 69.6037 81.6745L70.9961 78.8498C71.0801 78.6774 71.3277 78.6774 71.4117 78.8498Z" fill="#FFBF00"/>
<g clip-path="url(#clip1_2983_1327)">
<path d="M76.2256 82.6517C76.3627 82.5191 76.2875 82.2848 76.0974 82.2539L72.9809 81.803C72.9058 81.7942 72.8395 81.7455 72.8041 81.6748L71.4116 78.8501C71.3718 78.7661 71.2878 78.7219 71.2039 78.7219C71.1199 78.7219 71.0403 78.7661 70.9961 78.8501L69.6036 81.6748C69.5859 81.7102 69.5638 81.7367 69.5329 81.7588C69.5019 81.7809 69.4666 81.7942 69.4312 81.7986L66.3103 82.2539C66.213 82.2672 66.1467 82.3335 66.1246 82.413C66.1114 82.4528 66.1114 82.497 66.1202 82.5368C66.129 82.5766 66.1511 82.6164 66.1865 82.6517L68.441 84.8488C68.494 84.9018 68.5206 84.977 68.5073 85.0521L67.9768 88.1553C67.968 88.1996 67.9768 88.2393 67.9901 88.2747C67.9901 88.288 67.9989 88.2968 68.0078 88.3056C68.021 88.3278 68.0387 88.3499 68.0564 88.3675C68.0653 88.3764 68.0741 88.3808 68.0874 88.3896C68.1095 88.4029 68.136 88.4117 68.1625 88.4162C68.1713 88.4162 68.1846 88.4206 68.1935 88.425C68.1935 88.425 68.2023 88.425 68.2067 88.425C68.2421 88.425 68.2774 88.4162 68.3128 88.3985L71.1022 86.9309C71.1375 86.9132 71.1729 86.9043 71.2083 86.9043C71.2436 86.9043 71.2834 86.9132 71.3144 86.9309L74.1037 88.3985C74.1391 88.4162 74.1745 88.425 74.2098 88.425C74.3469 88.425 74.4662 88.3012 74.4397 88.1553L73.9092 85.0521C73.896 84.977 73.9225 84.9018 73.9756 84.8488L76.23 82.6517H76.2256ZM73.4672 85.1317L73.9269 87.815L71.5133 86.5463C71.416 86.4976 71.3099 86.4667 71.1994 86.4667V79.4292L72.4062 81.8737C72.5035 82.0727 72.6936 82.2097 72.9146 82.2406L75.6112 82.6341L73.6617 84.5349C73.5026 84.6896 73.4318 84.9107 73.4672 85.1317Z" fill="#FFBF00"/>
</g>
</g>
<g clip-path="url(#clip2_2983_1327)">
<path d="M44.004 78.8498L45.3965 81.6745C45.4318 81.7408 45.4937 81.7894 45.5733 81.8027L48.6898 82.2536C48.8799 82.2801 48.955 82.5144 48.818 82.6514L46.5635 84.8485C46.5104 84.9015 46.4839 84.9767 46.4972 85.0518L47.0277 88.1551C47.0586 88.3451 46.8597 88.491 46.6917 88.3982L43.9023 86.9306C43.836 86.8952 43.752 86.8952 43.6857 86.9306L40.8963 88.3982C40.7283 88.4866 40.5294 88.3451 40.5604 88.1551L41.0908 85.0518C41.1041 84.9767 41.0776 84.9015 41.0245 84.8485L38.7745 82.6514C38.6374 82.5188 38.7126 82.2845 38.9027 82.2536L42.0192 81.8027C42.0943 81.7939 42.1606 81.7452 42.196 81.6745L43.5885 78.8498C43.6724 78.6774 43.92 78.6774 44.004 78.8498Z" fill="#FFBF00"/>
<g clip-path="url(#clip3_2983_1327)">
<path d="M48.8179 82.6517C48.955 82.5191 48.8798 82.2848 48.6897 82.2539L45.5732 81.803C45.4981 81.7942 45.4318 81.7455 45.3964 81.6748L44.0039 78.8501C43.9642 78.7661 43.8802 78.7219 43.7962 78.7219C43.7122 78.7219 43.6326 78.7661 43.5884 78.8501L42.1959 81.6748C42.1782 81.7102 42.1561 81.7367 42.1252 81.7588C42.0943 81.7809 42.0589 81.7942 42.0235 81.7986L38.9026 82.2539C38.8054 82.2672 38.739 82.3335 38.7169 82.413C38.7037 82.4528 38.7037 82.497 38.7125 82.5368C38.7214 82.5766 38.7435 82.6164 38.7788 82.6517L41.0333 84.8488C41.0864 84.9018 41.1129 84.977 41.0996 85.0521L40.5692 88.1553C40.5603 88.1996 40.5692 88.2393 40.5824 88.2747C40.5824 88.288 40.5913 88.2968 40.6001 88.3056C40.6134 88.3278 40.631 88.3499 40.6487 88.3675C40.6576 88.3764 40.6664 88.3808 40.6797 88.3896C40.7018 88.4029 40.7283 88.4117 40.7548 88.4162C40.7637 88.4162 40.7769 88.4206 40.7858 88.425C40.7858 88.425 40.7946 88.425 40.799 88.425C40.8344 88.425 40.8698 88.4162 40.9051 88.3985L43.6945 86.9309C43.7299 86.9132 43.7652 86.9043 43.8006 86.9043C43.836 86.9043 43.8757 86.9132 43.9067 86.9309L46.6961 88.3985C46.7314 88.4162 46.7668 88.425 46.8022 88.425C46.9392 88.425 47.0585 88.3012 47.032 88.1553L46.5016 85.0521C46.4883 84.977 46.5148 84.9018 46.5679 84.8488L48.8224 82.6517H48.8179ZM46.0595 85.1317L46.5192 87.815L44.1056 86.5463C44.0084 86.4976 43.9023 86.4667 43.7918 86.4667V79.4292L44.9986 81.8737C45.0958 82.0727 45.2859 82.2097 45.5069 82.2406L48.2035 82.6341L46.254 84.5349C46.0949 84.6896 46.0241 84.9107 46.0595 85.1317Z" fill="#FFBF00"/>
</g>
</g>
<g clip-path="url(#clip4_2983_1327)">
<path d="M57.7081 78.8498L59.1006 81.6745C59.136 81.7408 59.1979 81.7894 59.2775 81.8027L62.3939 82.2536C62.584 82.2801 62.6592 82.5144 62.5221 82.6514L60.2677 84.8485C60.2146 84.9015 60.1881 84.9767 60.2013 85.0518L60.7318 88.1551C60.7628 88.3451 60.5638 88.491 60.3959 88.3982L57.6065 86.9306C57.5402 86.8952 57.4562 86.8952 57.3899 86.9306L54.6005 88.3982C54.4325 88.4866 54.2336 88.3451 54.2645 88.1551L54.795 85.0518C54.8083 84.9767 54.7817 84.9015 54.7287 84.8485L52.4786 82.6514C52.3416 82.5188 52.4167 82.2845 52.6068 82.2536L55.7233 81.8027C55.7985 81.7939 55.8648 81.7452 55.9001 81.6745L57.2926 78.8498C57.3766 78.6774 57.6242 78.6774 57.7081 78.8498Z" fill="#FFBF00"/>
<g clip-path="url(#clip5_2983_1327)">
<path d="M62.5221 82.6517C62.6591 82.5191 62.584 82.2848 62.3939 82.2539L59.2774 81.803C59.2023 81.7942 59.1359 81.7455 59.1006 81.6748L57.7081 78.8501C57.6683 78.7661 57.5843 78.7219 57.5003 78.7219C57.4163 78.7219 57.3368 78.7661 57.2926 78.8501L55.9001 81.6748C55.8824 81.7102 55.8603 81.7367 55.8294 81.7588C55.7984 81.7809 55.7631 81.7942 55.7277 81.7986L52.6068 82.2539C52.5095 82.2672 52.4432 82.3335 52.4211 82.413C52.4078 82.4528 52.4078 82.497 52.4167 82.5368C52.4255 82.5766 52.4476 82.6164 52.483 82.6517L54.7375 84.8488C54.7905 84.9018 54.8171 84.977 54.8038 85.0521L54.2733 88.1553C54.2645 88.1996 54.2733 88.2393 54.2866 88.2747C54.2866 88.288 54.2954 88.2968 54.3043 88.3056C54.3175 88.3278 54.3352 88.3499 54.3529 88.3675C54.3617 88.3764 54.3706 88.3808 54.3838 88.3896C54.4059 88.4029 54.4325 88.4117 54.459 88.4162C54.4678 88.4162 54.4811 88.4206 54.4899 88.425C54.4899 88.425 54.4988 88.425 54.5032 88.425C54.5386 88.425 54.5739 88.4162 54.6093 88.3985L57.3987 86.9309C57.434 86.9132 57.4694 86.9043 57.5048 86.9043C57.5401 86.9043 57.5799 86.9132 57.6108 86.9309L60.4002 88.3985C60.4356 88.4162 60.471 88.425 60.5063 88.425C60.6434 88.425 60.7627 88.3012 60.7362 88.1553L60.2057 85.0521C60.1925 84.977 60.219 84.9018 60.272 84.8488L62.5265 82.6517H62.5221ZM59.7637 85.1317L60.2234 87.815L57.8098 86.5463C57.7125 86.4976 57.6064 86.4667 57.4959 86.4667V79.4292L58.7027 81.8737C58.8 82.0727 58.9901 82.2097 59.2111 82.2406L61.9076 82.6341L59.9582 84.5349C59.799 84.6896 59.7283 84.9107 59.7637 85.1317Z" fill="#FFBF00"/>
</g>
</g>
<g clip-path="url(#clip6_2983_1327)">
<path d="M30.3004 78.8498L31.6929 81.6745C31.7283 81.7408 31.7902 81.7894 31.8697 81.8027L34.9862 82.2536C35.1763 82.2801 35.2515 82.5144 35.1144 82.6514L32.8599 84.8485C32.8069 84.9015 32.7804 84.9767 32.7936 85.0518L33.3241 88.1551C33.355 88.3451 33.1561 88.491 32.9881 88.3982L30.1988 86.9306C30.1325 86.8952 30.0485 86.8952 29.9822 86.9306L27.1928 88.3982C27.0248 88.4866 26.8259 88.3451 26.8568 88.1551L27.3873 85.0518C27.4005 84.9767 27.374 84.9015 27.321 84.8485L25.0709 82.6514C24.9339 82.5188 25.009 82.2845 25.1991 82.2536L28.3156 81.8027C28.3908 81.7939 28.4571 81.7452 28.4924 81.6745L29.8849 78.8498C29.9689 78.6774 30.2164 78.6774 30.3004 78.8498Z" fill="#FFBF00"/>
<g clip-path="url(#clip7_2983_1327)">
<path d="M35.1144 82.6517C35.2514 82.5191 35.1763 82.2848 34.9862 82.2539L31.8697 81.803C31.7945 81.7942 31.7282 81.7455 31.6929 81.6748L30.3004 78.8501C30.2606 78.7661 30.1766 78.7219 30.0926 78.7219C30.0086 78.7219 29.9291 78.7661 29.8849 78.8501L28.4924 81.6748C28.4747 81.7102 28.4526 81.7367 28.4216 81.7588C28.3907 81.7809 28.3553 81.7942 28.32 81.7986L25.1991 82.2539C25.1018 82.2672 25.0355 82.3335 25.0134 82.413C25.0001 82.4528 25.0001 82.497 25.009 82.5368C25.0178 82.5766 25.0399 82.6164 25.0753 82.6517L27.3298 84.8488C27.3828 84.9018 27.4093 84.977 27.3961 85.0521L26.8656 88.1553C26.8568 88.1996 26.8656 88.2393 26.8789 88.2747C26.8789 88.288 26.8877 88.2968 26.8966 88.3056C26.9098 88.3278 26.9275 88.3499 26.9452 88.3675C26.954 88.3764 26.9629 88.3808 26.9761 88.3896C26.9982 88.4029 27.0247 88.4117 27.0513 88.4162C27.0601 88.4162 27.0734 88.4206 27.0822 88.425C27.0822 88.425 27.0911 88.425 27.0955 88.425C27.1308 88.425 27.1662 88.4162 27.2016 88.3985L29.9909 86.9309C30.0263 86.9132 30.0617 86.9043 30.097 86.9043C30.1324 86.9043 30.1722 86.9132 30.2031 86.9309L32.9925 88.3985C33.0279 88.4162 33.0632 88.425 33.0986 88.425C33.2356 88.425 33.355 88.3012 33.3285 88.1553L32.798 85.0521C32.7847 84.977 32.8113 84.9018 32.8643 84.8488L35.1188 82.6517H35.1144ZM32.3559 85.1317L32.8157 87.815L30.4021 86.5463C30.3048 86.4976 30.1987 86.4667 30.0882 86.4667V79.4292L31.295 81.8737C31.3923 82.0727 31.5824 82.2097 31.8034 82.2406L34.4999 82.6341L32.5505 84.5349C32.3913 84.6896 32.3206 84.9107 32.3559 85.1317Z" fill="#FFBF00"/>
</g>
</g>
<g clip-path="url(#clip8_2983_1327)">
<path d="M89.9292 82.6517C90.0662 82.5191 89.9911 82.2848 89.801 82.2539L86.6845 81.803C86.6093 81.7942 86.543 81.7455 86.5077 81.6748L85.1152 78.8501C85.0754 78.7661 84.9914 78.7219 84.9074 78.7219C84.8234 78.7219 84.7438 78.7661 84.6996 78.8501L83.3072 81.6748C83.2895 81.7102 83.2674 81.7367 83.2364 81.7588C83.2055 81.7809 83.1701 81.7942 83.1348 81.7986L80.0138 82.2539C79.9166 82.2672 79.8503 82.3335 79.8282 82.413C79.8149 82.4528 79.8149 82.497 79.8238 82.5368C79.8326 82.5766 79.8547 82.6164 79.8901 82.6517L82.1446 84.8488C82.1976 84.9018 82.2241 84.977 82.2109 85.0521L81.6804 88.1553C81.6716 88.1996 81.6804 88.2393 81.6937 88.2747C81.6937 88.288 81.7025 88.2968 81.7113 88.3056C81.7246 88.3278 81.7423 88.3499 81.76 88.3675C81.7688 88.3764 81.7776 88.3808 81.7909 88.3896C81.813 88.4029 81.8395 88.4117 81.8661 88.4162C81.8749 88.4162 81.8882 88.4206 81.897 88.425C81.897 88.425 81.9058 88.425 81.9103 88.425C81.9456 88.425 81.981 88.4162 82.0164 88.3985L84.8057 86.9309C84.8411 86.9132 84.8765 86.9043 84.9118 86.9043C84.9472 86.9043 84.987 86.9132 85.0179 86.9309L87.8073 88.3985C87.8427 88.4162 87.878 88.425 87.9134 88.425C88.0504 88.425 88.1698 88.3012 88.1433 88.1553L87.6128 85.0521C87.5995 84.977 87.6261 84.9018 87.6791 84.8488L89.9336 82.6517H89.9292ZM87.0558 84.2166C86.7906 84.473 86.6712 84.8443 86.7331 85.2024L87.0425 87.006L85.4246 86.1528C85.2655 86.0688 85.0842 86.0246 84.903 86.0246V80.4282L85.712 82.0682C85.8755 82.3998 86.1894 82.6252 86.5519 82.6783L88.3599 82.9391L87.0514 84.2166H87.0558Z" fill="#FFBF00"/>
</g>
<g clip-path="url(#clip9_2983_1327)">
<path d="M57.6422 62.5084L57.7025 74.4619C67.3032 73.3954 72.4256 69.4612 72.4256 69.4612L66.7797 59.9722C64.1017 61.57 60.9793 62.4933 57.6384 62.5122L57.6422 62.5084Z" fill="#66C41F"/>
<path d="M75.2768 41.017C75.4915 42.1287 75.6045 43.2743 75.6045 44.4462C75.6045 51.0448 72.064 56.818 66.7834 59.9684L72.4294 69.4573C80.5725 64.4491 86.0038 55.4576 86.0038 45.1924C86.0038 43.0896 85.7702 41.0433 85.3371 39.0724L75.2768 41.017Z" fill="#C2D500"/>
<path d="M57.548 62.5084C54.6441 62.5084 51.9021 61.8188 49.4727 60.6016L42.9002 73.7459C45.6685 74.2923 48.7721 74.6654 52.1808 74.7181C54.1619 74.7483 56 74.6465 57.7024 74.4581L57.6422 62.5046C57.612 62.5046 57.5781 62.5046 57.548 62.5046V62.5084Z" fill="#FF5E00"/>
<path d="M57.548 26.3804C66.3465 26.3804 73.6723 32.6812 75.2731 41.017L85.3333 39.0725C82.5348 26.2899 71.1638 16.7219 57.548 16.7219C52.7797 16.7219 48.2863 17.9014 44.339 19.9778L48.9642 28.5472C51.5179 27.1642 54.4407 26.3804 57.5443 26.3804H57.548Z" fill="#E9E100"/>
<path d="M42.5047 54.4326L33.5066 60.4056C34.7985 62.4405 36.339 64.3059 38.0866 65.9452L28 68.0254C28 68.0254 33.4802 71.888 42.9002 73.7459L49.4727 60.6015C46.6478 59.1846 44.2411 57.0479 42.5047 54.4326Z" fill="#FF1800"/>
<path d="M39.4915 44.4462C39.4915 43.4551 39.5744 42.4829 39.7288 41.5332L29.597 39.8751C29.2731 41.5973 29.096 43.3722 29.096 45.1886C29.096 47.2952 29.3296 49.349 29.7627 51.3274L40.0188 48.7875C39.6761 47.3969 39.4915 45.9423 39.4915 44.4462Z" fill="#FF8500"/>
<path d="M48.968 28.5472L44.3427 19.9778C36.7834 23.9459 31.2354 31.2153 29.6007 39.8751L39.7326 41.5332C40.6441 35.9145 44.1431 31.1625 48.968 28.551V28.5472Z" fill="#FFC700"/>
<path d="M40.0226 48.7875L29.7665 51.3274C30.4859 54.5984 31.7665 57.6621 33.5066 60.4056L42.5047 54.4326C41.3748 52.733 40.5273 50.8262 40.0226 48.7875Z" fill="#FF9900"/>
<path d="M53.672 48.0899C51.208 48.0899 49.48 46.6019 49.48 44.2499C49.48 41.8179 51.224 40.3139 53.72 40.3139C56.216 40.3139 57.96 41.8179 57.96 44.2499C57.96 45.2899 57.704 46.3459 56.552 48.1379L54.2 51.6739H52.168L54.92 47.7859C54.552 48.0099 54.12 48.0899 53.672 48.0899ZM51.288 44.2179C51.288 45.7379 52.264 46.6819 53.688 46.6819C55.144 46.6819 56.152 45.7379 56.152 44.2179C56.152 42.6979 55.176 41.7539 53.72 41.7539C52.28 41.7539 51.288 42.6979 51.288 44.2179ZM58.4995 49.5779H60.2915L59.1395 54.2019H57.6835L58.4995 49.5779ZM64.405 40.5219V51.7219H62.597V42.4099L59.749 42.3939V40.5219H64.405Z" fill="#434040"/>
</g>
<path d="M24.57 96.5919C26.03 96.5919 26.97 97.6819 26.97 99.2019C26.97 100.772 26.07 101.832 24.58 101.832C23.65 101.832 22.84 101.312 22.52 100.502V101.712H21.85V94.7219H22.57V97.9119C22.81 97.2019 23.56 96.5919 24.57 96.5919ZM22.57 99.2019C22.57 100.352 23.33 101.182 24.4 101.182C25.48 101.182 26.23 100.372 26.23 99.2019C26.23 98.0419 25.49 97.2319 24.42 97.2319C23.34 97.2319 22.57 98.0519 22.57 99.2019ZM28.5972 99.3619C28.5972 100.472 29.3972 101.222 30.4672 101.222C31.2172 101.222 31.8772 100.892 32.2272 100.342L32.6672 100.772C32.2372 101.442 31.3872 101.842 30.4372 101.842C28.9072 101.842 27.8572 100.772 27.8572 99.2119C27.8572 97.6819 28.9272 96.6119 30.4172 96.6119C31.9572 96.6119 32.8772 97.6419 32.7972 99.3619H28.5972ZM28.5872 98.8819H32.0672C32.0472 97.8719 31.4172 97.1719 30.4172 97.1719C29.3872 97.1719 28.6372 97.9119 28.5872 98.8819ZM36.4249 101.842C34.8849 101.842 33.8149 100.762 33.8149 99.2019C33.8149 97.6819 34.9049 96.6019 36.4449 96.6019C37.9649 96.6019 39.0349 97.6819 39.0349 99.2019C39.0349 100.722 37.9449 101.842 36.4249 101.842ZM34.5649 99.2119C34.5649 100.382 35.3249 101.192 36.4249 101.192C37.5149 101.192 38.2949 100.362 38.2949 99.2119C38.2949 98.0619 37.5249 97.2219 36.4449 97.2219C35.3349 97.2219 34.5649 98.0419 34.5649 99.2119ZM42.6847 101.842C41.1447 101.842 40.0747 100.762 40.0747 99.2019C40.0747 97.6819 41.1647 96.6019 42.7047 96.6019C44.2247 96.6019 45.2947 97.6819 45.2947 99.2019C45.2947 100.722 44.2047 101.842 42.6847 101.842ZM40.8247 99.2119C40.8247 100.382 41.5847 101.192 42.6847 101.192C43.7747 101.192 44.5547 100.362 44.5547 99.2119C44.5547 98.0619 43.7847 97.2219 42.7047 97.2219C41.5947 97.2219 40.8247 98.0419 40.8247 99.2119ZM49.0645 96.6219C49.2245 96.6219 49.3945 96.6419 49.5445 96.6919L49.5145 97.3819C49.3345 97.3619 49.1345 97.3519 48.9445 97.3519C48.0245 97.3519 47.3845 97.9819 47.3845 98.9319V101.722H46.6545V96.7219H47.3745V97.7119C47.6745 97.0619 48.3145 96.6219 49.0645 96.6219ZM55.1238 94.7219V101.712H54.4438V100.502C54.1338 101.312 53.3138 101.832 52.3838 101.832C50.9038 101.832 49.9938 100.772 49.9938 99.2019C49.9938 97.6819 50.9438 96.5919 52.3938 96.5919C53.3738 96.5919 54.1538 97.2019 54.3938 97.9119V94.7219H55.1238ZM50.7438 99.2019C50.7438 100.372 51.4838 101.182 52.5738 101.182C53.6338 101.182 54.3938 100.352 54.3938 99.2019C54.3938 98.0519 53.6338 97.2319 52.5538 97.2319C51.4838 97.2319 50.7438 98.0419 50.7438 99.2019ZM57.1909 99.3619C57.1909 100.472 57.9909 101.222 59.0609 101.222C59.8109 101.222 60.4709 100.892 60.8209 100.342L61.2609 100.772C60.8309 101.442 59.9809 101.842 59.0309 101.842C57.5009 101.842 56.4509 100.772 56.4509 99.2119C56.4509 97.6819 57.5209 96.6119 59.0109 96.6119C60.5509 96.6119 61.4709 97.6419 61.3909 99.3619H57.1909ZM57.1809 98.8819H60.6609C60.6409 97.8719 60.0109 97.1719 59.0109 97.1719C57.9809 97.1719 57.2309 97.9119 57.1809 98.8819ZM62.6887 101.722V94.7219H63.4287V101.722H62.6887ZM65.4817 95.5419C65.2117 95.5419 64.9917 95.3219 64.9917 95.0419C64.9917 94.7819 65.2117 94.5519 65.4817 94.5519C65.7517 94.5519 65.9717 94.7819 65.9717 95.0419C65.9717 95.3219 65.7517 95.5419 65.4817 95.5419ZM65.1217 101.722V96.7319H65.8517V101.722H65.1217ZM70.0031 96.6019C71.0631 96.6019 71.9131 97.4519 71.9131 98.5019V101.722H71.1731V98.7219C71.1731 97.9219 70.5331 97.2719 69.7331 97.2719C68.9231 97.2719 68.2831 97.9219 68.2831 98.7219L68.2931 101.722H67.5431V96.7219H68.2731V97.6619C68.5731 97.0219 69.2431 96.6019 70.0031 96.6019ZM78.359 101.362C78.359 102.822 77.309 103.882 75.859 103.882C74.749 103.882 73.899 103.392 73.459 102.692L73.819 102.192C74.209 102.802 74.899 103.232 75.809 103.232C76.809 103.232 77.659 102.512 77.659 101.292V100.392C77.359 101.162 76.649 101.702 75.689 101.702C74.189 101.702 73.239 100.652 73.239 99.1219C73.239 97.6619 74.169 96.6119 75.629 96.6119C76.799 96.6119 77.479 97.3119 77.689 97.9019V96.7019H78.359V101.362ZM73.969 99.1719C73.969 100.292 74.709 101.082 75.789 101.082C76.859 101.082 77.639 100.302 77.639 99.1719C77.639 97.9619 76.799 97.2519 75.809 97.2519C74.729 97.2519 73.969 98.0419 73.969 99.1719ZM80.4429 99.3619C80.4429 100.472 81.2429 101.222 82.3129 101.222C83.0629 101.222 83.7229 100.892 84.0729 100.342L84.5129 100.772C84.0829 101.442 83.2329 101.842 82.2829 101.842C80.7529 101.842 79.7029 100.772 79.7029 99.2119C79.7029 97.6819 80.7729 96.6119 82.2629 96.6119C83.8029 96.6119 84.7229 97.6419 84.6429 99.3619H80.4429ZM80.4329 98.8819H83.9129C83.8929 97.8719 83.2629 97.1719 82.2629 97.1719C81.2329 97.1719 80.4829 97.9119 80.4329 98.8819ZM88.4406 96.6019C89.5006 96.6019 90.3506 97.4519 90.3506 98.5019V101.722H89.6106V98.7219C89.6106 97.9219 88.9706 97.2719 88.1706 97.2719C87.3606 97.2719 86.7206 97.9219 86.7206 98.7219L86.7306 101.722H85.9806V96.7219H86.7106V97.6619C87.0106 97.0219 87.6806 96.6019 88.4406 96.6019Z" fill="#434040"/>
<path d="M38.7741 119.722L35.8941 117.082L35.6301 117.358V119.722H34.7541V111.322H35.6301V116.326L38.7141 113.722H39.7581L36.5661 116.518L39.8181 119.722H38.7741ZM40.917 119.722V111.322H41.805V119.722H40.917ZM48.5641 119.722H47.7961V118.45C47.5081 119.302 46.6921 119.83 45.5521 119.83C44.1841 119.83 43.4281 119.098 43.4281 117.994C43.4281 116.434 45.1201 115.87 47.6881 116.23V115.726C47.6881 114.742 47.0401 114.286 46.1281 114.286C45.3601 114.286 44.7001 114.61 44.2801 115.21L43.7881 114.706C44.3641 113.95 45.2161 113.578 46.1881 113.578C47.6281 113.578 48.5641 114.466 48.5641 115.846V119.722ZM44.2921 117.946C44.2921 118.714 44.7961 119.17 45.7441 119.17C46.9321 119.17 47.7001 118.45 47.7001 117.238V116.77C45.6481 116.446 44.2921 116.854 44.2921 117.946ZM53.0577 113.578C54.3297 113.578 55.3497 114.598 55.3497 115.858V119.722H54.4617V116.122C54.4617 115.162 53.6937 114.382 52.7337 114.382C51.7617 114.382 50.9937 115.162 50.9937 116.122L51.0057 119.722H50.1057V113.722H50.9817V114.85C51.3417 114.082 52.1457 113.578 53.0577 113.578ZM58.6944 119.722C58.1904 119.722 57.7824 119.314 57.7824 118.81V114.502H56.5224V113.71H57.7824V111.85H58.6704V113.71H60.6024V114.502H58.6704V118.75C58.6704 118.846 58.7424 118.918 58.8384 118.918H60.6144V119.722H58.6944ZM62.4096 116.89C62.4096 118.222 63.3696 119.122 64.6536 119.122C65.5536 119.122 66.3456 118.726 66.7656 118.066L67.2936 118.582C66.7776 119.386 65.7576 119.866 64.6176 119.866C62.7816 119.866 61.5216 118.582 61.5216 116.71C61.5216 114.874 62.8056 113.59 64.5936 113.59C66.4416 113.59 67.5456 114.826 67.4496 116.89H62.4096ZM62.3976 116.314H66.5736C66.5496 115.102 65.7936 114.262 64.5936 114.262C63.3576 114.262 62.4576 115.15 62.3976 116.314ZM72.0069 113.578C73.2789 113.578 74.2989 114.598 74.2989 115.858V119.722H73.4109V116.122C73.4109 115.162 72.6429 114.382 71.6829 114.382C70.7109 114.382 69.9429 115.162 69.9429 116.122L69.9549 119.722H69.0549V113.722H69.9309V114.85C70.2909 114.082 71.0949 113.578 72.0069 113.578ZM35.1996 128.722L32.8716 134.722H31.1556L28.8156 128.722H30.4956L32.0196 132.826L33.5196 128.722H35.1996ZM37.1686 132.094C37.1686 132.982 37.9846 133.57 38.9206 133.57C39.7006 133.57 40.4326 133.282 40.8046 132.826L41.6686 133.75C41.1526 134.422 40.0486 134.854 38.8606 134.854C36.9046 134.854 35.5966 133.582 35.5966 131.698C35.5966 129.85 36.9286 128.59 38.7886 128.59C40.8646 128.59 42.0646 129.886 41.8606 132.094H37.1686ZM37.1566 131.134H40.3246C40.3246 130.354 39.7606 129.754 38.7886 129.754C37.8766 129.754 37.1806 130.426 37.1566 131.134ZM46.5359 128.578C46.7279 128.578 46.9079 128.602 47.0759 128.65L47.0639 130.138C46.7879 130.126 46.5239 130.114 46.2479 130.114C45.2519 130.114 44.7239 130.666 44.7239 131.734V134.722H43.1639V128.722H44.6879V129.754C45.0239 129.046 45.7079 128.578 46.5359 128.578ZM50.3351 134.722C49.5431 134.722 48.9191 134.086 48.9191 133.294V130.102H47.7791V128.722H48.9191V126.802H50.4911V128.722H52.1711V130.102H50.4911V133.162C50.4911 133.258 50.5511 133.318 50.6471 133.318H52.1831V134.722H50.3351ZM54.5358 132.094C54.5358 132.982 55.3518 133.57 56.2878 133.57C57.0678 133.57 57.7998 133.282 58.1718 132.826L59.0358 133.75C58.5198 134.422 57.4158 134.854 56.2278 134.854C54.2718 134.854 52.9638 133.582 52.9638 131.698C52.9638 129.85 54.2958 128.59 56.1558 128.59C58.2318 128.59 59.4318 129.886 59.2278 132.094H54.5358ZM54.5238 131.134H57.6918C57.6918 130.354 57.1278 129.754 56.1558 129.754C55.2438 129.754 54.5478 130.426 54.5238 131.134ZM60.4831 134.722V126.322H62.0431V134.722H60.4831ZM63.5886 134.722V126.322H65.1486V134.722H63.5886ZM67.9069 132.094C67.9069 132.982 68.7229 133.57 69.6589 133.57C70.4389 133.57 71.1709 133.282 71.5429 132.826L72.4069 133.75C71.8909 134.422 70.7869 134.854 69.5989 134.854C67.6429 134.854 66.3349 133.582 66.3349 131.698C66.3349 129.85 67.6669 128.59 69.5269 128.59C71.6029 128.59 72.8029 129.886 72.5989 132.094H67.9069ZM67.8949 131.134H71.0629C71.0629 130.354 70.4989 129.754 69.5269 129.754C68.6149 129.754 67.9189 130.426 67.8949 131.134ZM77.3942 128.578C78.5942 128.578 79.5542 129.526 79.5542 130.714V134.722H77.9822V131.254C77.9822 130.546 77.4302 129.982 76.7222 129.982C76.0262 129.982 75.4502 130.546 75.4502 131.254L75.4622 134.722H73.9022V128.722H75.4262V129.67C75.7742 128.998 76.5542 128.578 77.3942 128.578Z" fill="#434040"/>
<defs>
<clipPath id="clip0_2983_1327">
<path d="M66.1112 83.5779C66.1112 80.896 68.2853 78.7219 70.9672 78.7219H76.2962V88.4338H70.9672C68.2853 88.4338 66.1112 86.2597 66.1112 83.5779Z" fill="white"/>
</clipPath>
<clipPath id="clip1_2983_1327">
<rect width="10.185" height="9.71198" fill="white" transform="translate(66.1112 78.7219)"/>
</clipPath>
<clipPath id="clip2_2983_1327">
<path d="M38.7036 83.5779C38.7036 80.896 40.8777 78.7219 43.5595 78.7219H48.8885V88.4338H43.5595C40.8777 88.4338 38.7036 86.2597 38.7036 83.5779Z" fill="white"/>
</clipPath>
<clipPath id="clip3_2983_1327">
<rect width="10.185" height="9.71198" fill="white" transform="translate(38.7036 78.7219)"/>
</clipPath>
<clipPath id="clip4_2983_1327">
<path d="M52.4077 83.5779C52.4077 80.896 54.5818 78.7219 57.2637 78.7219H62.5927V88.4338H57.2637C54.5818 88.4338 52.4077 86.2597 52.4077 83.5779Z" fill="white"/>
</clipPath>
<clipPath id="clip5_2983_1327">
<rect width="10.185" height="9.71198" fill="white" transform="translate(52.4077 78.7219)"/>
</clipPath>
<clipPath id="clip6_2983_1327">
<path d="M25 83.5779C25 80.896 27.1741 78.7219 29.856 78.7219H35.185V88.4338H29.856C27.1741 88.4338 25 86.2597 25 83.5779Z" fill="white"/>
</clipPath>
<clipPath id="clip7_2983_1327">
<rect width="10.185" height="9.71198" fill="white" transform="translate(25 78.7219)"/>
</clipPath>
<clipPath id="clip8_2983_1327">
<path d="M79.8148 83.5779C79.8148 80.896 81.9889 78.7219 84.6708 78.7219H89.9998V88.4338H84.6708C81.9889 88.4338 79.8148 86.2597 79.8148 83.5779Z" fill="white"/>
</clipPath>
<clipPath id="clip9_2983_1327">
<path d="M28 36.7219C28 25.6762 36.9543 16.7219 48 16.7219H86V74.7219H48C36.9543 74.7219 28 65.7676 28 54.7219V36.7219Z" fill="white"/>
</clipPath>
</defs>
</svg>
