<svg width="19" height="18" viewBox="0 0 19 18" fill="none" xmlns="http://www.w3.org/2000/svg">
<path d="M18.0871 15.4286L16.3583 17.0819C16.0689 17.3587 15.6638 17.495 15.256 17.4531C13.4068 17.2637 9.25207 16.507 5.67358 13.1797C1.92132 9.69134 1.08783 5.50029 0.885008 3.71012C0.84064 3.32017 0.983251 2.93273 1.27323 2.65542L3.00147 1.00214C3.52966 0.497009 4.38585 0.497009 4.91404 1.00214L7.07592 3.06962C7.5196 3.49393 7.59989 4.15464 7.26977 4.66481L6.21867 6.2893C5.9868 6.64794 5.95299 7.09145 6.12571 7.47938C6.4965 8.31436 7.14987 9.45645 8.28918 10.5394C9.29908 11.4992 10.3512 12.0897 11.1678 12.4493C11.64 12.6574 12.1946 12.5857 12.5945 12.268C13.0244 11.926 13.4549 11.5846 13.8848 11.2426C14.422 10.8157 15.2111 10.8506 15.7055 11.3229L18.0866 13.6C18.6153 14.1046 18.6153 14.9234 18.0871 15.4286Z" fill="#F3F3F3"/>
</svg>
