<svg width="10" height="17" viewBox="0 0 10 17" fill="none" xmlns="http://www.w3.org/2000/svg">
<path d="M9.32878 6.78841V9.15643C9.32878 9.39615 9.12702 9.59203 8.8733 9.59203H6.35131V15.8863C6.35131 16.1552 6.20763 16.3745 6.03032 16.3745H3.27295C3.09564 16.3745 2.95197 16.1552 2.95197 15.8863V9.59203H0.931317C0.677589 9.59203 0.47583 9.39615 0.47583 9.15643V6.78841C0.47583 6.54576 0.677589 6.35281 0.931317 6.35281H2.95197V4.40577C2.95197 2.37688 4.66998 0.730957 6.79151 0.730957H9.04754C9.07811 0.730957 9.10257 0.754345 9.10257 0.78358V3.52288C9.10257 3.54919 9.08117 3.57258 9.05366 3.5755L7.00244 3.81231C6.62949 3.85616 6.35131 4.15728 6.35131 4.51394V6.35281H8.8733C9.12702 6.35281 9.32878 6.54576 9.32878 6.78841Z" fill="white"/>
</svg>
