<svg width="18" height="18" viewBox="0 0 18 18" fill="none" xmlns="http://www.w3.org/2000/svg">
<path d="M13.0512 17.3873H4.75336C2.32594 17.3873 0.359863 15.5071 0.359863 13.1857V4.9541C0.359863 2.63268 2.32594 0.752441 4.75336 0.752441H13.0512C15.4786 0.752441 17.4446 2.63268 17.4446 4.9541V13.1857C17.4446 15.5041 15.4786 17.3873 13.0512 17.3873Z" fill="white"/>
<path d="M8.9023 12.9632C11.1509 12.9632 12.9738 11.2199 12.9738 9.0695C12.9738 6.91906 11.1509 5.17578 8.9023 5.17578C6.65368 5.17578 4.83081 6.91906 4.83081 9.0695C4.83081 11.2199 6.65368 12.9632 8.9023 12.9632Z" stroke="black" stroke-width="2" stroke-miterlimit="10" stroke-linecap="round"/>
<path d="M13.9955 5.28887C14.6436 5.28887 15.1689 4.78644 15.1689 4.16665C15.1689 3.54687 14.6436 3.04443 13.9955 3.04443C13.3474 3.04443 12.822 3.54687 12.822 4.16665C12.822 4.78644 13.3474 5.28887 13.9955 5.28887Z" fill="black"/>
</svg>
