<svg width="15" height="15" viewBox="0 0 15 15" fill="none" xmlns="http://www.w3.org/2000/svg">
<path d="M14.5899 12.536L13.132 13.9303C12.8879 14.1637 12.5462 14.2787 12.2024 14.2434C10.6429 14.0836 7.13906 13.4455 4.12122 10.6395C0.956836 7.69763 0.253936 4.16321 0.0828877 2.65351C0.0454709 2.32464 0.165739 1.99791 0.410284 1.76404L1.86776 0.369784C2.31319 -0.0562041 3.03525 -0.0562041 3.48069 0.369784L5.30386 2.11335C5.67803 2.47118 5.74574 3.02838 5.46734 3.45862L4.58092 4.8286C4.38537 5.13105 4.35686 5.50507 4.50252 5.83223C4.81522 6.53639 5.36622 7.49955 6.32703 8.41287C7.17871 9.22224 8.06602 9.72022 8.75467 10.0235C9.15289 10.199 9.6206 10.1385 9.95779 9.8706C10.3204 9.5822 10.6834 9.29423 11.046 9.00584C11.499 8.64588 12.1645 8.67527 12.5814 9.07357L14.5895 10.9939C15.0353 11.4195 15.0353 12.11 14.5899 12.536Z" fill="#F3F3F3"/>
</svg>
