<svg width="21" height="20" viewBox="0 0 21 20" fill="none" xmlns="http://www.w3.org/2000/svg">
<g clip-path="url(#clip0_2953_622)">
<path fill-rule="evenodd" clip-rule="evenodd" d="M16.9266 3.80655C15.1725 2.12702 12.8396 1.20167 10.3543 1.20068C5.23304 1.20068 1.0651 5.18652 1.06304 10.0855C1.06236 11.6515 1.49014 13.1802 2.30324 14.5277L0.985107 19.132L5.91053 17.8964C7.26768 18.6044 8.79559 18.9775 10.3505 18.9779H10.3544C15.475 18.9779 19.6434 14.9917 19.6454 10.0926C19.6464 7.71829 18.6809 5.48596 16.9266 3.80655ZM10.3543 17.4773H10.3511C8.96542 17.4768 7.60643 17.1206 6.42059 16.4479L6.13873 16.2878L3.2159 17.021L3.99605 14.2958L3.81237 14.0164C3.03932 12.8405 2.63111 11.4814 2.6318 10.086C2.6334 6.01414 6.09776 2.70138 10.3574 2.70138C12.42 2.70204 14.359 3.47121 15.817 4.86717C17.275 6.26312 18.0774 8.11864 18.0767 10.092C18.0749 14.1642 14.6108 17.4773 10.3543 17.4773ZM14.5902 11.9461C14.3581 11.8349 13.2167 11.298 13.0038 11.2238C12.7912 11.1497 12.6362 11.1128 12.4816 11.335C12.3268 11.5571 11.8819 12.0573 11.7464 12.2054C11.6109 12.3536 11.4757 12.3722 11.2435 12.261C11.0113 12.1499 10.2633 11.9154 9.37649 11.159C8.68641 10.5703 8.22052 9.84326 8.08502 9.62109C7.94975 9.39869 8.08388 9.29013 8.18687 9.16799C8.43819 8.86953 8.68984 8.55663 8.7672 8.40856C8.84468 8.26037 8.80589 8.13068 8.74775 8.01959C8.68984 7.90851 8.22556 6.81571 8.03215 6.37104C7.84355 5.93829 7.65232 5.99674 7.50973 5.98995C7.37446 5.9835 7.21962 5.98218 7.06478 5.98218C6.91006 5.98218 6.65852 6.03767 6.44566 6.26006C6.23291 6.48234 5.63324 7.01938 5.63324 8.11218C5.63324 9.20498 6.46511 10.2607 6.58115 10.4089C6.6972 10.557 8.21823 12.7996 10.547 13.7611C11.1009 13.9901 11.5332 14.1266 11.8705 14.2289C12.4267 14.3979 12.9326 14.374 13.3327 14.3169C13.7788 14.2531 14.7061 13.7797 14.8997 13.2612C15.0932 12.7425 15.0932 12.2981 15.035 12.2054C14.9771 12.1128 14.8223 12.0573 14.5902 11.9461Z" fill="white"/>
</g>
<defs>
<clipPath id="clip0_2953_622">
<rect width="20" height="19.1267" fill="white" transform="translate(0.293457 0.611816)"/>
</clipPath>
</defs>
</svg>
