<svg width="22" height="15" viewBox="0 0 22 15" fill="none" xmlns="http://www.w3.org/2000/svg">
<path d="M19.1569 14.5398H2.64786C1.24275 14.5398 0.104736 13.4514 0.104736 12.1077V2.99752C0.104736 1.65376 1.24275 0.56543 2.64786 0.56543H19.1569C20.5621 0.56543 21.7001 1.65376 21.7001 2.99752V12.1077C21.7001 13.4514 20.5621 14.5398 19.1569 14.5398Z" fill="white"/>
<path d="M17.0941 10.4628C17.3958 10.7467 17.4104 11.2213 17.1265 11.523C16.8427 11.8247 16.3681 11.8392 16.0664 11.5554L17.0941 10.4628ZM12.6023 7.26709L13.1162 6.72081L17.0941 10.4628L16.5803 11.0091L16.0664 11.5554L12.0884 7.81337L12.6023 7.26709Z" fill="black"/>
<path d="M3.55344 10.4628C3.25173 10.7467 3.23723 11.2213 3.52104 11.523C3.80485 11.8247 4.2795 11.8392 4.58121 11.5554L3.55344 10.4628ZM8.04527 7.26709L7.53138 6.72081L3.55344 10.4628L4.06732 11.0091L4.58121 11.5554L8.55915 7.81337L8.04527 7.26709Z" fill="black"/>
<path d="M5.29077 4.39795L10.4583 9.34356" stroke="black" stroke-width="1.5" stroke-miterlimit="10" stroke-linecap="round"/>
<path d="M15.6298 4.39795L10.4584 9.34356" stroke="black" stroke-width="1.5" stroke-miterlimit="10" stroke-linecap="round"/>
</svg>
