<svg width="90" height="40" viewBox="0 0 90 40" fill="none" xmlns="http://www.w3.org/2000/svg">
<g clip-path="url(#clip0_2953_509)">
<path d="M89.1896 0.649902H0.189575V39.6499H89.1896V0.649902Z" fill="white"/>
<path d="M85.9902 4.02295H33.9819V36.277H85.9902V4.02295Z" fill="#FFD520"/>
<path d="M38.7263 10.0742H42.7446C45.0221 10.0742 46.0662 11.5432 46.0662 13.6891V16.8823C46.0409 18.6331 45.0768 19.1701 43.4413 19.5651V19.6206C45.2347 19.9912 46.1461 20.4949 46.1461 22.7562V25.9472C46.1461 28.3482 45.1 30.1856 42.7172 30.1856H38.7263V10.0742ZM41.5658 18.4068H42.21C42.9319 18.4068 43.2266 18.0717 43.2266 16.9111V13.8599C43.2266 12.7016 42.9319 12.3643 42.21 12.3643H41.5658V18.4068ZM41.5658 27.7845H42.1279C42.9319 27.7845 43.3087 27.4473 43.3087 26.2024V22.39C43.3087 21.1473 42.9319 20.8056 42.1279 20.8056H41.5658V27.7845Z" fill="#231F20"/>
<path d="M47.649 13.0699C47.649 10.4448 49.6045 9.6792 51.3453 9.6792C53.086 9.6792 55.0689 10.4426 55.0689 13.0699V27.1943C55.0689 29.8194 53.1134 30.5805 51.3453 30.5805C49.5771 30.5805 47.649 29.8172 47.649 27.1943V13.0699ZM50.4886 26.9368C50.4886 27.9532 50.7833 28.1795 51.3726 28.1795C51.962 28.1795 52.2293 27.9554 52.2293 26.9368V13.3229C52.2293 12.3043 51.9347 12.0802 51.3726 12.0802C50.8106 12.0802 50.4886 12.3043 50.4886 13.3229V26.9368Z" fill="#231F20"/>
<path d="M58.7631 10.0742L59.6471 18.4645C59.8597 20.4417 60.0765 24.3672 60.2912 26.3732H60.3439C60.5038 23.9434 60.7185 21.5423 60.908 19.1435L61.7626 10.0764H64.6042L62.3541 30.1878H58.0685L55.9257 10.0764H58.7652L58.7631 10.0742Z" fill="#231F20"/>
<path d="M66.6943 10.0742H70.9547L73.1227 30.1856H70.258L69.7212 24.7333H67.7131L67.0964 30.1856H64.5242L66.6943 10.0742ZM69.4539 22.1082L68.8645 13.7468H68.6772L67.9804 22.1082H69.456H69.4539Z" fill="#231F20"/>
<path d="M81.4561 17.4195V13.0701C81.4561 10.445 79.5006 9.68164 77.7325 9.68164C75.9644 9.68164 74.0363 10.445 74.0363 13.0701V27.1945C74.0363 29.8174 75.9917 30.5808 77.7325 30.5808C79.4733 30.5808 81.4561 29.8174 81.4561 27.1945V20.1645H81.4287H77.8041V22.5722H78.6166V26.9415C78.6166 27.9578 78.3219 28.1842 77.7598 28.1842C77.1684 28.1842 76.8758 27.96 76.8758 26.9415V13.3276C76.8758 12.309 77.1705 12.0849 77.7598 12.0849C78.3492 12.0849 78.6166 12.309 78.6166 13.3276V17.4217H81.4561V17.4195Z" fill="#231F20"/>
<path d="M19.8916 23.9743C19.5106 24.1075 19.1065 24.1829 18.6834 24.1829C16.5722 24.1829 14.8588 22.3766 14.8588 20.1509C14.8588 17.9251 16.5701 16.1188 18.6834 16.1188C20.7967 16.1188 22.508 17.9229 22.508 20.1509C22.508 20.5059 22.4596 20.8477 22.3775 21.1761L28.6249 27.2341C29.9237 25.2125 30.6814 22.776 30.6814 20.1509C30.6814 13.1653 25.3097 7.5 18.6834 7.5C12.0571 7.5 6.6875 13.163 6.6875 20.1509C6.6875 27.1387 12.0592 32.7995 18.6834 32.7995C21.5082 32.7995 24.1036 31.7677 26.1516 30.0479L19.8895 23.9765L19.8916 23.9743Z" fill="#231F20"/>
<path d="M23.6552 4.02273C28.5386 5.69368 32.3969 9.76122 33.9819 14.9094V4.02273H23.6552ZM3.38904 14.9094C4.97404 9.76122 8.83235 5.69368 13.7157 4.02051H3.38904V14.9094ZM3.38904 25.3878V36.2746H13.7157C8.83235 34.6036 4.97614 30.5361 3.38904 25.3878ZM23.6552 36.2746H33.9819V25.3878C32.3969 30.5361 28.5386 34.6014 23.6552 36.2746Z" fill="#231F20"/>
<path d="M19.8915 23.9742C19.5106 24.1074 19.1064 24.1828 18.6833 24.1828C16.5721 24.1828 14.8587 22.3765 14.8587 20.1508C14.8587 17.9251 16.57 16.1187 18.6833 16.1187C20.7967 16.1187 22.508 17.9228 22.508 20.1508C22.508 20.5058 22.4595 20.8476 22.3774 21.176L26.3831 25.0616C27.2061 23.6303 27.6797 21.9482 27.6797 20.153C27.6797 14.9138 23.6509 10.6665 18.6812 10.6665C13.7115 10.6665 9.68481 14.9138 9.68481 20.153C9.68481 25.3922 13.7136 29.6395 18.6812 29.6395C20.6304 29.6395 22.4343 28.9826 23.9077 27.8731L19.8894 23.9764L19.8915 23.9742Z" fill="#ED1C24"/>
<path d="M16.7111 20.1466C16.7111 18.9972 17.5951 18.0696 18.6855 18.0674C19.7758 18.0674 20.6599 18.995 20.6599 20.1466C20.6599 21.2961 19.7758 22.2281 18.6855 22.2281C17.5951 22.2281 16.7111 21.2961 16.7111 20.1466ZM17.5299 20.1466C17.5299 20.819 18.0477 21.3627 18.6834 21.3649C19.3212 21.3649 19.8369 20.819 19.8369 20.1466C19.8369 19.4743 19.3212 18.9306 18.6834 18.9306C18.0456 18.9306 17.5299 19.4743 17.5299 20.1466Z" fill="#231F20"/>
</g>
<defs>
<clipPath id="clip0_2953_509">
<rect width="89" height="39" fill="white" transform="translate(0.189575 0.649902)"/>
</clipPath>
</defs>
</svg>
