<svg width="25" height="25" viewBox="0 0 25 25" fill="none" xmlns="http://www.w3.org/2000/svg">
<path d="M0.689575 24.6782L2.38463 18.5152C1.33866 16.7112 0.789048 14.6662 0.790052 12.5692C0.793067 6.01322 6.15353 0.678223 12.7398 0.678223C15.936 0.679223 18.9362 1.91822 21.193 4.16622C23.4487 6.41422 24.6906 9.40222 24.6896 12.5802C24.6866 19.1372 19.3261 24.4722 12.7398 24.4722C10.7403 24.4712 8.76996 23.9722 7.02467 23.0242L0.689575 24.6782ZM7.31806 20.8712C9.00206 21.8662 10.6097 22.4622 12.7358 22.4632C18.2098 22.4632 22.669 18.0292 22.672 12.5782C22.674 7.11622 18.2359 2.68822 12.7438 2.68622C7.26581 2.68622 2.80965 7.12022 2.80764 12.5702C2.80663 14.7952 3.46174 16.4612 4.56197 18.2042L3.5582 21.8522L7.31806 20.8712ZM18.7594 15.4072C18.6851 15.2832 18.4861 15.2092 18.1867 15.0602C17.8883 14.9112 16.4203 14.1922 16.146 14.0932C15.8727 13.9942 15.6737 13.9442 15.4738 14.2422C15.2749 14.5392 14.7021 15.2092 14.5283 15.4072C14.3545 15.6052 14.1797 15.6302 13.8812 15.4812C13.5828 15.3322 12.6202 15.0192 11.4798 14.0062C10.5926 13.2182 9.99276 12.2452 9.81894 11.9472C9.64511 11.6502 9.80085 11.4892 9.94956 11.3412C10.0842 11.2082 10.248 10.9942 10.3977 10.8202C10.5494 10.6482 10.5986 10.5242 10.6991 10.3252C10.7986 10.1272 10.7494 9.95322 10.674 9.80422C10.5986 9.65622 10.0018 8.19322 9.75363 7.59822C9.51047 7.01922 9.26431 7.09722 9.08144 7.08822L8.50872 7.07822C8.30977 7.07822 7.98623 7.15222 7.71293 7.45022C7.43964 7.74822 6.66797 8.46622 6.66797 9.92922C6.66797 11.3922 7.73805 12.8052 7.88676 13.0032C8.03647 13.2012 9.99176 16.2032 12.987 17.4902C13.6994 17.7962 14.256 17.9792 14.6891 18.1162C15.4045 18.3422 16.0556 18.3102 16.57 18.2342C17.1437 18.1492 18.3364 17.5152 18.5856 16.8212C18.8348 16.1262 18.8348 15.5312 18.7594 15.4072Z" fill="white"/>
</svg>
