<svg width="54" height="54" viewBox="0 0 54 54" fill="none" xmlns="http://www.w3.org/2000/svg">
<path d="M0 27.0419C0 12.3069 11.945 0.361877 26.68 0.361877C41.415 0.361877 53.36 12.3069 53.36 27.0419C53.36 41.7768 41.415 53.7219 26.68 53.7219C11.945 53.7219 0 41.7768 0 27.0419Z" fill="#D1363F"/>
<path d="M26.6797 0.861877C41.1384 0.861877 52.8602 12.5829 52.8604 27.0416C52.8604 41.5004 41.1385 53.2222 26.6797 53.2222C12.221 53.2221 0.5 41.5003 0.5 27.0416C0.500169 12.583 12.2211 0.862047 26.6797 0.861877Z" stroke="#02001A" stroke-opacity="0.5"/>
<path d="M35.087 33.4286L33.3582 35.0819C33.0688 35.3587 32.6637 35.495 32.2559 35.4531C30.4067 35.2637 26.252 34.507 22.6735 31.1797C18.9212 27.6913 18.0877 23.5003 17.8849 21.7101C17.8405 21.3202 17.9832 20.9327 18.2731 20.6554L20.0014 19.0021C20.5296 18.497 21.3858 18.497 21.914 19.0021L24.0758 21.0696C24.5195 21.4939 24.5998 22.1546 24.2697 22.6648L23.2186 24.2893C22.9867 24.6479 22.9529 25.0914 23.1256 25.4794C23.4964 26.3144 24.1498 27.4565 25.2891 28.5394C26.299 29.4992 27.3511 30.0897 28.1677 30.4493C28.6399 30.6574 29.1945 30.5857 29.5944 30.268C30.0243 29.926 30.4548 29.5846 30.8847 29.2426C31.4219 28.8157 32.211 28.8506 32.7054 29.3229L35.0865 31.6C35.6152 32.1046 35.6152 32.9234 35.087 33.4286Z" fill="#F3F3F3"/>
</svg>
