<svg width="295" height="91" viewBox="0 0 295 91" fill="none" xmlns="http://www.w3.org/2000/svg">
<g clip-path="url(#clip0_2953_545)">
<path d="M284.19 0.678223H10.1896C4.66673 0.678223 0.189575 5.15538 0.189575 10.6782V80.6782C0.189575 86.2011 4.66673 90.6782 10.1896 90.6782H284.19C289.712 90.6782 294.19 86.2011 294.19 80.6782V10.6782C294.19 5.15538 289.712 0.678223 284.19 0.678223Z" fill="white"/>
<path d="M10.1896 1.17822H284.19C289.436 1.17822 293.69 5.43152 293.69 10.6782V80.6782C293.69 85.9249 289.436 90.1782 284.19 90.1782H10.1896C4.94287 90.1782 0.689575 85.9249 0.689575 80.6782V10.6782C0.689575 5.43152 4.94287 1.17822 10.1896 1.17822Z" stroke="#14112C" stroke-opacity="0.1"/>
<mask id="mask0_2953_545" style="mask-type:luminance" maskUnits="userSpaceOnUse" x="130" y="16" width="11" height="11">
<path d="M140.486 16.6782H130.301V26.3902H140.486V16.6782Z" fill="white"/>
</mask>
<g mask="url(#mask0_2953_545)">
<path d="M135.602 16.8061L136.994 19.6309C137.03 19.6972 137.092 19.7458 137.171 19.7591L140.288 20.21C140.478 20.2365 140.553 20.4708 140.416 20.6078L138.161 22.8048C138.108 22.8579 138.082 22.933 138.095 23.0082L138.626 26.1114C138.657 26.3015 138.458 26.4474 138.29 26.3546L135.5 24.8869C135.434 24.8516 135.35 24.8516 135.284 24.8869L132.494 26.3546C132.326 26.443 132.127 26.3015 132.158 26.1114L132.689 23.0082C132.702 22.933 132.676 22.8579 132.622 22.8048L130.372 20.6078C130.235 20.4752 130.31 20.2409 130.501 20.21L133.617 19.7591C133.692 19.7502 133.759 19.7016 133.794 19.6309L135.186 16.8061C135.27 16.6337 135.518 16.6337 135.602 16.8061Z" fill="#FFBF00"/>
<mask id="mask1_2953_545" style="mask-type:luminance" maskUnits="userSpaceOnUse" x="130" y="16" width="11" height="11">
<path d="M140.486 16.6782H130.301V26.3902H140.486V16.6782Z" fill="white"/>
</mask>
<g mask="url(#mask1_2953_545)">
<path d="M140.416 20.6081C140.553 20.4755 140.478 20.2412 140.288 20.2102L137.171 19.7593C137.096 19.7505 137.03 19.7019 136.994 19.6311L135.602 16.8064C135.562 16.7224 135.478 16.6782 135.394 16.6782C135.31 16.6782 135.231 16.7224 135.186 16.8064L133.794 19.6311C133.776 19.6665 133.754 19.693 133.723 19.7151C133.692 19.7372 133.657 19.7505 133.621 19.7549L130.501 20.2102C130.403 20.2235 130.337 20.2898 130.315 20.3694C130.302 20.4092 130.302 20.4534 130.31 20.4931C130.319 20.5329 130.341 20.5727 130.377 20.6081L132.631 22.8051C132.684 22.8582 132.711 22.9333 132.698 23.0084L132.167 26.1117C132.158 26.1559 132.167 26.1957 132.18 26.231C132.18 26.2443 132.189 26.2531 132.198 26.262C132.211 26.2841 132.229 26.3062 132.247 26.3239C132.255 26.3327 132.264 26.3371 132.278 26.346C132.3 26.3592 132.326 26.3681 132.353 26.3725C132.362 26.3725 132.375 26.3769 132.384 26.3813C132.384 26.3813 132.393 26.3813 132.397 26.3813C132.432 26.3813 132.468 26.3725 132.503 26.3548L135.292 24.8872C135.328 24.8695 135.363 24.8607 135.398 24.8607C135.434 24.8607 135.474 24.8695 135.505 24.8872L138.294 26.3548C138.329 26.3725 138.365 26.3813 138.4 26.3813C138.537 26.3813 138.656 26.2576 138.63 26.1117L138.099 23.0084C138.086 22.9333 138.113 22.8582 138.166 22.8051L140.42 20.6081H140.416ZM137.657 23.088L138.117 25.7713L135.704 24.5026C135.606 24.454 135.5 24.423 135.39 24.423V17.3855L136.596 19.8301C136.694 20.029 136.884 20.166 137.105 20.197L139.801 20.5904L137.852 22.4912C137.693 22.646 137.622 22.867 137.657 23.088Z" fill="#FFBF00"/>
</g>
</g>
<mask id="mask2_2953_545" style="mask-type:luminance" maskUnits="userSpaceOnUse" x="102" y="16" width="12" height="11">
<path d="M113.078 16.6782H102.893V26.3902H113.078V16.6782Z" fill="white"/>
</mask>
<g mask="url(#mask2_2953_545)">
<path d="M108.194 16.8061L109.586 19.6309C109.622 19.6972 109.683 19.7458 109.763 19.7591L112.88 20.21C113.07 20.2365 113.145 20.4708 113.008 20.6078L110.753 22.8048C110.7 22.8579 110.674 22.933 110.687 23.0082L111.217 26.1114C111.248 26.3015 111.049 26.4474 110.881 26.3546L108.092 24.8869C108.026 24.8516 107.942 24.8516 107.875 24.8869L105.086 26.3546C104.918 26.443 104.719 26.3015 104.75 26.1114L105.281 23.0082C105.294 22.933 105.267 22.8579 105.214 22.8048L102.964 20.6078C102.827 20.4752 102.902 20.2409 103.092 20.21L106.209 19.7591C106.284 19.7502 106.35 19.7016 106.386 19.6309L107.778 16.8061C107.862 16.6337 108.11 16.6337 108.194 16.8061Z" fill="#FFBF00"/>
<mask id="mask3_2953_545" style="mask-type:luminance" maskUnits="userSpaceOnUse" x="102" y="16" width="12" height="11">
<path d="M113.078 16.6782H102.893V26.3902H113.078V16.6782Z" fill="white"/>
</mask>
<g mask="url(#mask3_2953_545)">
<path d="M113.008 20.6081C113.145 20.4755 113.07 20.2412 112.879 20.2102L109.763 19.7593C109.688 19.7505 109.621 19.7019 109.586 19.6311L108.194 16.8064C108.154 16.7224 108.07 16.6782 107.986 16.6782C107.902 16.6782 107.822 16.7224 107.778 16.8064L106.386 19.6311C106.368 19.6665 106.346 19.693 106.315 19.7151C106.284 19.7372 106.249 19.7505 106.213 19.7549L103.092 20.2102C102.995 20.2235 102.929 20.2898 102.907 20.3694C102.893 20.4092 102.893 20.4534 102.902 20.4931C102.911 20.5329 102.933 20.5727 102.969 20.6081L105.223 22.8051C105.276 22.8582 105.303 22.9333 105.289 23.0084L104.759 26.1117C104.75 26.1559 104.759 26.1957 104.772 26.231C104.772 26.2443 104.781 26.2531 104.79 26.262C104.803 26.2841 104.821 26.3062 104.838 26.3239C104.847 26.3327 104.856 26.3371 104.869 26.346C104.891 26.3592 104.918 26.3681 104.945 26.3725C104.953 26.3725 104.967 26.3769 104.975 26.3813C104.975 26.3813 104.984 26.3813 104.989 26.3813C105.024 26.3813 105.059 26.3725 105.095 26.3548L107.884 24.8872C107.92 24.8695 107.955 24.8607 107.99 24.8607C108.026 24.8607 108.065 24.8695 108.096 24.8872L110.886 26.3548C110.921 26.3725 110.956 26.3813 110.992 26.3813C111.129 26.3813 111.248 26.2576 111.222 26.1117L110.691 23.0084C110.678 22.9333 110.705 22.8582 110.758 22.8051L113.012 20.6081H113.008ZM110.249 23.088L110.709 25.7713L108.295 24.5026C108.198 24.454 108.092 24.423 107.981 24.423V17.3855L109.188 19.8301C109.286 20.029 109.476 20.166 109.697 20.197L112.393 20.5904L110.444 22.4912C110.285 22.646 110.214 22.867 110.249 23.088Z" fill="#FFBF00"/>
</g>
</g>
<mask id="mask4_2953_545" style="mask-type:luminance" maskUnits="userSpaceOnUse" x="116" y="16" width="11" height="11">
<path d="M126.782 16.6782H116.597V26.3902H126.782V16.6782Z" fill="white"/>
</mask>
<g mask="url(#mask4_2953_545)">
<path d="M121.898 16.8061L123.29 19.6309C123.326 19.6972 123.388 19.7458 123.467 19.7591L126.584 20.21C126.774 20.2365 126.849 20.4708 126.712 20.6078L124.457 22.8048C124.404 22.8579 124.378 22.933 124.391 23.0082L124.921 26.1114C124.952 26.3015 124.753 26.4474 124.586 26.3546L121.796 24.8869C121.73 24.8516 121.646 24.8516 121.58 24.8869L118.79 26.3546C118.622 26.443 118.423 26.3015 118.454 26.1114L118.985 23.0082C118.998 22.933 118.971 22.8579 118.918 22.8048L116.668 20.6078C116.531 20.4752 116.606 20.2409 116.796 20.21L119.913 19.7591C119.988 19.7502 120.054 19.7016 120.09 19.6309L121.482 16.8061C121.566 16.6337 121.814 16.6337 121.898 16.8061Z" fill="#FFBF00"/>
<mask id="mask5_2953_545" style="mask-type:luminance" maskUnits="userSpaceOnUse" x="116" y="16" width="11" height="11">
<path d="M126.782 16.6782H116.597V26.3902H126.782V16.6782Z" fill="white"/>
</mask>
<g mask="url(#mask5_2953_545)">
<path d="M126.712 20.6081C126.849 20.4755 126.774 20.2412 126.584 20.2102L123.467 19.7593C123.392 19.7505 123.326 19.7019 123.29 19.6311L121.898 16.8064C121.858 16.7224 121.774 16.6782 121.69 16.6782C121.606 16.6782 121.526 16.7224 121.482 16.8064L120.09 19.6311C120.072 19.6665 120.05 19.693 120.019 19.7151C119.988 19.7372 119.953 19.7505 119.917 19.7549L116.796 20.2102C116.699 20.2235 116.633 20.2898 116.611 20.3694C116.597 20.4092 116.597 20.4534 116.606 20.4931C116.615 20.5329 116.637 20.5727 116.673 20.6081L118.927 22.8051C118.98 22.8582 119.007 22.9333 118.993 23.0084L118.463 26.1117C118.454 26.1559 118.463 26.1957 118.476 26.231C118.476 26.2443 118.485 26.2531 118.494 26.262C118.507 26.2841 118.525 26.3062 118.543 26.3239C118.551 26.3327 118.56 26.3371 118.573 26.346C118.596 26.3592 118.622 26.3681 118.649 26.3725C118.657 26.3725 118.671 26.3769 118.68 26.3813C118.68 26.3813 118.688 26.3813 118.693 26.3813C118.728 26.3813 118.764 26.3725 118.799 26.3548L121.588 24.8872C121.624 24.8695 121.659 24.8607 121.694 24.8607C121.73 24.8607 121.77 24.8695 121.8 24.8872L124.59 26.3548C124.625 26.3725 124.661 26.3813 124.696 26.3813C124.833 26.3813 124.952 26.2576 124.926 26.1117L124.395 23.0084C124.382 22.9333 124.409 22.8582 124.462 22.8051L126.716 20.6081H126.712ZM123.953 23.088L124.413 25.7713L121.999 24.5026C121.902 24.454 121.796 24.423 121.686 24.423V17.3855L122.892 19.8301C122.99 20.029 123.18 20.166 123.401 20.197L126.097 20.5904L124.148 22.4912C123.989 22.646 123.918 22.867 123.953 23.088Z" fill="#FFBF00"/>
</g>
</g>
<mask id="mask6_2953_545" style="mask-type:luminance" maskUnits="userSpaceOnUse" x="89" y="16" width="11" height="11">
<path d="M99.3746 16.6782H89.1896V26.3902H99.3746V16.6782Z" fill="white"/>
</mask>
<g mask="url(#mask6_2953_545)">
<path d="M94.4902 16.8061L95.8827 19.6309C95.918 19.6972 95.9799 19.7458 96.0595 19.7591L99.176 20.21C99.3661 20.2365 99.4412 20.4708 99.3042 20.6078L97.0497 22.8048C96.9966 22.8579 96.9701 22.933 96.9834 23.0082L97.5139 26.1114C97.5448 26.3015 97.3459 26.4474 97.1779 26.3546L94.3885 24.8869C94.3222 24.8516 94.2382 24.8516 94.1719 24.8869L91.3825 26.3546C91.2145 26.443 91.0156 26.3015 91.0466 26.1114L91.577 23.0082C91.5903 22.933 91.5638 22.8579 91.5107 22.8048L89.2607 20.6078C89.1236 20.4752 89.1988 20.2409 89.3889 20.21L92.5054 19.7591C92.5805 19.7502 92.6468 19.7016 92.6822 19.6309L94.0747 16.8061C94.1586 16.6337 94.4062 16.6337 94.4902 16.8061Z" fill="#FFBF00"/>
<mask id="mask7_2953_545" style="mask-type:luminance" maskUnits="userSpaceOnUse" x="89" y="16" width="11" height="11">
<path d="M99.3746 16.6782H89.1896V26.3902H99.3746V16.6782Z" fill="white"/>
</mask>
<g mask="url(#mask7_2953_545)">
<path d="M99.304 20.6081C99.441 20.4755 99.3659 20.2412 99.1758 20.2102L96.0593 19.7593C95.9842 19.7505 95.9179 19.7019 95.8825 19.6311L94.49 16.8064C94.4502 16.7224 94.3662 16.6782 94.2822 16.6782C94.1983 16.6782 94.1187 16.7224 94.0745 16.8064L92.682 19.6311C92.6643 19.6665 92.6422 19.693 92.6113 19.7151C92.5803 19.7372 92.545 19.7505 92.5096 19.7549L89.3887 20.2102C89.2914 20.2235 89.2251 20.2898 89.203 20.3694C89.1898 20.4092 89.1898 20.4534 89.1986 20.4931C89.2074 20.5329 89.2295 20.5727 89.2649 20.6081L91.5194 22.8051C91.5724 22.8582 91.599 22.9333 91.5857 23.0084L91.0552 26.1117C91.0464 26.1559 91.0552 26.1957 91.0685 26.231C91.0685 26.2443 91.0773 26.2531 91.0862 26.262C91.0994 26.2841 91.1171 26.3062 91.1348 26.3239C91.1436 26.3327 91.1525 26.3371 91.1657 26.346C91.1878 26.3592 91.2144 26.3681 91.2409 26.3725C91.2497 26.3725 91.263 26.3769 91.2718 26.3813C91.2718 26.3813 91.2807 26.3813 91.2851 26.3813C91.3205 26.3813 91.3558 26.3725 91.3912 26.3548L94.1806 24.8872C94.2159 24.8695 94.2513 24.8607 94.2867 24.8607C94.322 24.8607 94.3618 24.8695 94.3928 24.8872L97.1821 26.3548C97.2175 26.3725 97.2529 26.3813 97.2882 26.3813C97.4253 26.3813 97.5446 26.2576 97.5181 26.1117L96.9876 23.0084C96.9744 22.9333 97.0009 22.8582 97.0539 22.8051L99.3084 20.6081H99.304ZM96.5456 23.088L97.0053 25.7713L94.5917 24.5026C94.4944 24.454 94.3883 24.423 94.2778 24.423V17.3855L95.4846 19.8301C95.5819 20.029 95.772 20.166 95.993 20.197L98.6895 20.5904L96.7401 22.4912C96.5809 22.646 96.5102 22.867 96.5456 23.088Z" fill="#FFBF00"/>
</g>
</g>
<mask id="mask8_2953_545" style="mask-type:luminance" maskUnits="userSpaceOnUse" x="144" y="16" width="11" height="11">
<path d="M154.189 16.6782H144.004V26.3902H154.189V16.6782Z" fill="white"/>
</mask>
<g mask="url(#mask8_2953_545)">
<path d="M154.119 20.6081C154.256 20.4755 154.181 20.2412 153.991 20.2102L150.874 19.7593C150.799 19.7505 150.733 19.7019 150.697 19.6311L149.305 16.8064C149.265 16.7224 149.181 16.6782 149.097 16.6782C149.013 16.6782 148.934 16.7224 148.889 16.8064L147.497 19.6311C147.479 19.6665 147.457 19.693 147.426 19.7151C147.395 19.7372 147.36 19.7505 147.325 19.7549L144.204 20.2102C144.106 20.2235 144.04 20.2898 144.018 20.3694C144.005 20.4092 144.005 20.4534 144.014 20.4931C144.022 20.5329 144.044 20.5727 144.08 20.6081L146.334 22.8051C146.387 22.8582 146.414 22.9333 146.401 23.0084L145.87 26.1117C145.861 26.1559 145.87 26.1957 145.883 26.231C145.883 26.2443 145.892 26.2531 145.901 26.262C145.914 26.2841 145.932 26.3062 145.95 26.3239C145.959 26.3327 145.967 26.3371 145.981 26.346C146.003 26.3592 146.029 26.3681 146.056 26.3725C146.065 26.3725 146.078 26.3769 146.087 26.3813C146.087 26.3813 146.096 26.3813 146.1 26.3813C146.135 26.3813 146.171 26.3725 146.206 26.3548L148.996 24.8872C149.031 24.8695 149.066 24.8607 149.102 24.8607C149.137 24.8607 149.177 24.8695 149.208 24.8872L151.997 26.3548C152.032 26.3725 152.068 26.3813 152.103 26.3813C152.24 26.3813 152.36 26.2576 152.333 26.1117L151.803 23.0084C151.789 22.9333 151.816 22.8582 151.869 22.8051L154.123 20.6081H154.119ZM151.246 22.173C150.98 22.4294 150.861 22.8007 150.923 23.1587L151.232 24.9623L149.614 24.1092C149.455 24.0252 149.274 23.981 149.093 23.981V18.3845L149.902 20.0246C150.065 20.3561 150.379 20.5816 150.742 20.6346L152.55 20.8954L151.241 22.173H151.246Z" fill="#FFBF00"/>
</g>
<mask id="mask9_2953_545" style="mask-type:luminance" maskUnits="userSpaceOnUse" x="18" y="16" width="59" height="59">
<path d="M76.1896 16.6782H18.1896V74.6782H76.1896V16.6782Z" fill="white"/>
</mask>
<g mask="url(#mask9_2953_545)">
<path d="M47.8319 62.4648L47.8923 74.4183C57.493 73.3519 62.6154 69.4176 62.6154 69.4176L56.9694 59.9287C54.2914 61.5265 51.169 62.4498 47.8282 62.4686L47.8319 62.4648Z" fill="#66C41F"/>
<path d="M65.4662 40.9733C65.6809 42.085 65.7939 43.2306 65.7939 44.4026C65.7939 51.0011 62.2534 56.7744 56.9728 59.9248L62.6188 69.4137C70.7619 64.4054 76.1931 55.4139 76.1931 45.1487C76.1931 43.0459 75.9596 40.9997 75.5265 39.0288L65.4662 40.9733Z" fill="#C2D500"/>
<path d="M47.7378 62.4649C44.8339 62.4649 42.0919 61.7753 39.6625 60.5581L33.09 73.7024C35.8584 74.2488 38.9619 74.6219 42.3706 74.6746C44.3518 74.7048 46.1898 74.603 47.8923 74.4146L47.832 62.4611C47.8019 62.4611 47.768 62.4611 47.7378 62.4611V62.4649Z" fill="#FF5E00"/>
<path d="M47.7374 26.3367C56.5359 26.3367 63.8617 32.6375 65.4625 40.9733L75.5227 39.0288C72.7242 26.2463 61.3532 16.6782 47.7374 16.6782C42.969 16.6782 38.4756 17.8577 34.5284 19.9341L39.1536 28.5036C41.7073 27.1205 44.6301 26.3367 47.7336 26.3367H47.7374Z" fill="#E9E100"/>
<path d="M32.6943 54.3892L23.6962 60.3622C24.9881 62.3972 26.5286 64.2625 28.2762 65.9018L18.1896 67.982C18.1896 67.982 23.6698 71.8446 33.0898 73.7025L39.6623 60.5582C36.8374 59.1412 34.4307 57.0045 32.6943 54.3892Z" fill="#FF1800"/>
<path d="M29.6808 44.4026C29.6808 43.4115 29.7636 42.4393 29.9181 41.4896L19.7862 39.8315C19.4623 41.5537 19.2853 43.3286 19.2853 45.145C19.2853 47.2516 19.5188 49.3054 19.952 51.2838L30.2081 48.7439C29.8653 47.3533 29.6808 45.8987 29.6808 44.4026Z" fill="#FF8500"/>
<path d="M39.1574 28.5035L34.5322 19.9341C26.9729 23.9022 21.4248 31.1715 19.7902 39.8314L29.922 41.4895C30.8335 35.8708 34.3326 31.1188 39.1574 28.5073V28.5035Z" fill="#FFC700"/>
<path d="M30.2123 48.7437L19.9562 51.2837C20.6756 54.5547 21.9562 57.6184 23.6963 60.3618L32.6944 54.3888C31.5645 52.6893 30.717 50.7825 30.2123 48.7437Z" fill="#FF9900"/>
<path d="M43.8616 46.046C41.3976 46.046 39.6696 44.558 39.6696 42.206C39.6696 39.774 41.4136 38.27 43.9096 38.27C46.4056 38.27 48.1496 39.774 48.1496 42.206C48.1496 43.246 47.8936 44.302 46.7416 46.094L44.3896 49.63H42.3576L45.1096 45.742C44.7416 45.966 44.3096 46.046 43.8616 46.046ZM43.9096 39.71C42.4696 39.71 41.4776 40.654 41.4776 42.174C41.4776 43.694 42.4536 44.638 43.8776 44.638C45.3336 44.638 46.3416 43.694 46.3416 42.174C46.3416 40.654 45.3656 39.71 43.9096 39.71ZM48.6891 47.534H50.4811L49.3291 52.158H47.8731L48.6891 47.534ZM54.5946 38.478V49.678H52.7866V40.366L49.9386 40.35V38.478H54.5946Z" fill="#434040"/>
</g>
<path d="M111.958 53.0224V54.6784H100.294V53.3344L106.99 47.0944C109.126 45.1024 109.846 43.7584 109.846 42.3664C109.846 40.3984 108.406 39.2224 106.414 39.2224C104.446 39.2224 102.766 40.3504 101.734 42.7264L100.294 41.9104C101.398 39.0544 103.702 37.5664 106.39 37.5664C109.51 37.5664 111.67 39.5344 111.67 42.2944C111.67 44.0944 110.782 45.7264 108.622 47.7424L102.982 53.0224H111.958ZM121.487 54.9904C117.527 54.9904 114.887 51.4864 114.887 46.2784C114.887 41.0704 117.527 37.5664 121.487 37.5664C125.471 37.5664 128.111 41.0704 128.111 46.2784C128.111 51.4864 125.471 54.9904 121.487 54.9904ZM121.487 53.3344C124.343 53.3344 126.239 50.5024 126.239 46.2784C126.239 42.0544 124.343 39.2224 121.487 39.2224C118.655 39.2224 116.759 42.0544 116.759 46.2784C116.759 50.5024 118.655 53.3344 121.487 53.3344ZM136.854 49.1584C133.326 49.1584 130.734 46.9744 130.734 43.3984C130.734 39.7504 133.326 37.5664 136.902 37.5664C140.478 37.5664 143.07 39.7504 143.07 43.3984C143.07 44.9824 142.614 46.5424 140.982 48.9904L137.022 54.6304H134.982L139.47 48.4144C138.702 48.9184 137.814 49.1584 136.854 49.1584ZM136.902 39.0304C134.334 39.0304 132.558 40.6864 132.558 43.3744C132.558 46.0624 134.31 47.7184 136.878 47.7184C139.47 47.7184 141.246 46.0624 141.246 43.3744C141.246 40.6864 139.494 39.0304 136.902 39.0304Z" fill="#434040"/>
<path d="M89.7596 67.4194C91.2196 67.4194 92.1596 68.5094 92.1596 70.0294C92.1596 71.5994 91.2596 72.6594 89.7696 72.6594C88.8396 72.6594 88.0295 72.1394 87.7095 71.3294V72.5394H87.0396V65.5494H87.7596V68.7394C87.9996 68.0294 88.7496 67.4194 89.7596 67.4194ZM89.5896 72.0094C90.6696 72.0094 91.4196 71.1994 91.4196 70.0294C91.4196 68.8694 90.6796 68.0594 89.6096 68.0594C88.5296 68.0594 87.7596 68.8794 87.7596 70.0294C87.7596 71.1794 88.5196 72.0094 89.5896 72.0094ZM93.7868 70.1894C93.7868 71.2994 94.5868 72.0494 95.6568 72.0494C96.4068 72.0494 97.0668 71.7194 97.4168 71.1694L97.8568 71.5994C97.4268 72.2694 96.5768 72.6694 95.6268 72.6694C94.0968 72.6694 93.0468 71.5994 93.0468 70.0394C93.0468 68.5094 94.1168 67.4394 95.6068 67.4394C97.1468 67.4394 98.0668 68.4694 97.9868 70.1894H93.7868ZM95.6068 67.9994C94.5768 67.9994 93.8267 68.7394 93.7767 69.7094H97.2568C97.2368 68.6994 96.6068 67.9994 95.6068 67.9994ZM101.615 72.6694C100.074 72.6694 99.0045 71.5894 99.0045 70.0294C99.0045 68.5094 100.094 67.4294 101.635 67.4294C103.155 67.4294 104.225 68.5094 104.225 70.0294C104.225 71.5494 103.135 72.6694 101.615 72.6694ZM101.615 72.0194C102.705 72.0194 103.485 71.1894 103.485 70.0394C103.485 68.8894 102.715 68.0494 101.635 68.0494C100.525 68.0494 99.7545 68.8694 99.7545 70.0394C99.7545 71.2094 100.515 72.0194 101.615 72.0194ZM107.875 72.6694C106.335 72.6694 105.265 71.5894 105.265 70.0294C105.265 68.5094 106.355 67.4294 107.895 67.4294C109.415 67.4294 110.485 68.5094 110.485 70.0294C110.485 71.5494 109.395 72.6694 107.875 72.6694ZM107.875 72.0194C108.965 72.0194 109.745 71.1894 109.745 70.0394C109.745 68.8894 108.975 68.0494 107.895 68.0494C106.785 68.0494 106.015 68.8694 106.015 70.0394C106.015 71.2094 106.775 72.0194 107.875 72.0194ZM114.254 67.4494C114.414 67.4494 114.584 67.4694 114.734 67.5194L114.704 68.2094C114.524 68.1894 114.324 68.1794 114.134 68.1794C113.214 68.1794 112.574 68.8094 112.574 69.7594V72.5494H111.844V67.5494H112.564V68.5394C112.864 67.8894 113.504 67.4494 114.254 67.4494ZM120.314 65.5494V72.5394H119.634V71.3294C119.324 72.1394 118.504 72.6594 117.574 72.6594C116.094 72.6594 115.184 71.5994 115.184 70.0294C115.184 68.5094 116.134 67.4194 117.584 67.4194C118.564 67.4194 119.344 68.0294 119.584 68.7394V65.5494H120.314ZM117.764 72.0094C118.824 72.0094 119.584 71.1794 119.584 70.0294C119.584 68.8794 118.824 68.0594 117.744 68.0594C116.674 68.0594 115.934 68.8694 115.934 70.0294C115.934 71.1994 116.674 72.0094 117.764 72.0094ZM122.381 70.1894C122.381 71.2994 123.181 72.0494 124.251 72.0494C125.001 72.0494 125.661 71.7194 126.011 71.1694L126.451 71.5994C126.021 72.2694 125.171 72.6694 124.221 72.6694C122.691 72.6694 121.641 71.5994 121.641 70.0394C121.641 68.5094 122.711 67.4394 124.201 67.4394C125.741 67.4394 126.661 68.4694 126.581 70.1894H122.381ZM124.201 67.9994C123.171 67.9994 122.421 68.7394 122.371 69.7094H125.851C125.831 68.6994 125.201 67.9994 124.201 67.9994ZM127.879 72.5494V65.5494H128.619V72.5494H127.879ZM130.672 66.3694C130.402 66.3694 130.182 66.1494 130.182 65.8694C130.182 65.6094 130.402 65.3794 130.672 65.3794C130.942 65.3794 131.162 65.6094 131.162 65.8694C131.162 66.1494 130.942 66.3694 130.672 66.3694ZM130.312 67.5594H131.042V72.5494H130.312V67.5594ZM135.193 67.4294C136.253 67.4294 137.103 68.2794 137.103 69.3294V72.5494H136.363V69.5494C136.363 68.7494 135.723 68.0994 134.923 68.0994C134.113 68.0994 133.473 68.7494 133.473 69.5494L133.483 72.5494H132.733V67.5494H133.463V68.4894C133.763 67.8494 134.433 67.4294 135.193 67.4294ZM143.549 67.5294V72.1894C143.549 73.6494 142.499 74.7194 141.049 74.7194C139.939 74.7194 139.089 74.2194 138.649 73.5194L139.009 73.0194C139.399 73.6294 140.089 74.0594 140.999 74.0594C141.999 74.0594 142.849 73.3394 142.849 72.1194V71.2194C142.549 71.9894 141.839 72.5294 140.879 72.5294C139.379 72.5294 138.429 71.4794 138.429 69.9494C138.429 68.4894 139.359 67.4394 140.819 67.4394C141.989 67.4394 142.669 68.1394 142.879 68.7294V67.5294H143.549ZM140.979 71.9094C142.049 71.9094 142.829 71.1294 142.829 69.9994C142.829 68.7894 141.989 68.0794 140.999 68.0794C139.919 68.0794 139.159 68.8694 139.159 69.9994C139.159 71.1194 139.899 71.9094 140.979 71.9094ZM145.633 70.1894C145.633 71.2994 146.433 72.0494 147.503 72.0494C148.253 72.0494 148.913 71.7194 149.263 71.1694L149.703 71.5994C149.273 72.2694 148.423 72.6694 147.473 72.6694C145.943 72.6694 144.893 71.5994 144.893 70.0394C144.893 68.5094 145.963 67.4394 147.453 67.4394C148.993 67.4394 149.913 68.4694 149.833 70.1894H145.633ZM147.453 67.9994C146.423 67.9994 145.673 68.7394 145.623 69.7094H149.103C149.083 68.6994 148.453 67.9994 147.453 67.9994ZM153.631 67.4294C154.691 67.4294 155.541 68.2794 155.541 69.3294V72.5494H154.801V69.5494C154.801 68.7494 154.161 68.0994 153.361 68.0994C152.551 68.0994 151.911 68.7494 151.911 69.5494L151.921 72.5494H151.171V67.5494H151.901V68.4894C152.201 67.8494 152.871 67.4294 153.631 67.4294Z" fill="#434040"/>
<path d="M177.218 25.6783L174.338 23.0383L174.074 23.3143V25.6783H173.198V17.2783H174.074V22.2823L177.158 19.6783H178.202L175.01 22.4743L178.262 25.6783H177.218ZM179.361 25.6783V17.2783H180.249V25.6783H179.361ZM187.008 25.6783H186.24V24.4063C185.952 25.2583 185.136 25.7983 183.996 25.7983C182.628 25.7983 181.872 25.0543 181.872 23.9503C181.872 22.3903 183.564 21.8263 186.132 22.1863V21.6823C186.132 20.6983 185.484 20.2423 184.572 20.2423C183.804 20.2423 183.144 20.5663 182.724 21.1663L182.232 20.6623C182.808 19.9063 183.66 19.5343 184.632 19.5343C186.072 19.5343 187.008 20.4223 187.008 21.8023V25.6783ZM186.144 22.7263C184.092 22.4023 182.736 22.8103 182.736 23.9023C182.736 24.6703 183.24 25.1263 184.188 25.1263C185.376 25.1263 186.144 24.4063 186.144 23.1943V22.7263ZM191.502 19.5343C192.774 19.5343 193.794 20.5543 193.794 21.8143V25.6783H192.906V22.0783C192.906 21.1183 192.138 20.3383 191.178 20.3383C190.206 20.3383 189.438 21.1183 189.438 22.0783L189.45 25.6783H188.55V19.6783H189.426V20.8063C189.786 20.0383 190.59 19.5343 191.502 19.5343ZM197.138 25.6783C196.634 25.6783 196.226 25.2703 196.226 24.7663V20.4583H194.966V19.6663H196.226V17.8063H197.114V19.6663H199.046V20.4583H197.114V24.7063C197.114 24.8023 197.186 24.8743 197.282 24.8743H199.058V25.6783H197.138ZM200.854 22.8463C200.854 24.1783 201.814 25.0783 203.098 25.0783C203.998 25.0783 204.79 24.6823 205.21 24.0223L205.738 24.5383C205.222 25.3423 204.202 25.8223 203.062 25.8223C201.226 25.8223 199.966 24.5383 199.966 22.6663C199.966 20.8303 201.25 19.5463 203.038 19.5463C204.886 19.5463 205.989 20.7823 205.894 22.8463H200.854ZM203.038 20.2183C201.802 20.2183 200.902 21.1063 200.842 22.2703H205.018C204.994 21.0583 204.238 20.2183 203.038 20.2183ZM210.451 19.5343C211.723 19.5343 212.743 20.5543 212.743 21.8143V25.6783H211.855V22.0783C211.855 21.1183 211.087 20.3383 210.127 20.3383C209.155 20.3383 208.387 21.1183 208.387 22.0783L208.399 25.6783H207.499V19.6783H208.375V20.8063C208.735 20.0383 209.539 19.5343 210.451 19.5343ZM220.214 19.6783L217.886 25.6783H216.17L213.83 19.6783H215.51L217.034 23.7823L218.534 19.6783H220.214ZM222.183 23.0503C222.183 23.9383 222.999 24.5263 223.935 24.5263C224.715 24.5263 225.447 24.2383 225.819 23.7823L226.683 24.7063C226.167 25.3783 225.063 25.8103 223.875 25.8103C221.919 25.8103 220.611 24.5383 220.611 22.6543C220.611 20.8063 221.943 19.5463 223.803 19.5463C225.879 19.5463 227.079 20.8423 226.875 23.0503H222.183ZM223.803 20.7103C222.891 20.7103 222.195 21.3823 222.171 22.0903H225.339C225.339 21.3103 224.775 20.7103 223.803 20.7103ZM231.55 19.5343C231.742 19.5343 231.922 19.5583 232.09 19.6063L232.078 21.0943C231.802 21.0823 231.538 21.0703 231.262 21.0703C230.266 21.0703 229.738 21.6223 229.738 22.6903V25.6783H228.178V19.6783H229.702V20.7103C230.038 20.0023 230.722 19.5343 231.55 19.5343ZM235.349 25.6783C234.557 25.6783 233.933 25.0423 233.933 24.2503V21.0583H232.793V19.6783H233.933V17.7583H235.505V19.6783H237.185V21.0583H235.505V24.1183C235.505 24.2143 235.565 24.2743 235.661 24.2743H237.197V25.6783H235.349ZM239.55 23.0503C239.55 23.9383 240.366 24.5263 241.302 24.5263C242.082 24.5263 242.814 24.2383 243.186 23.7823L244.05 24.7063C243.534 25.3783 242.43 25.8103 241.242 25.8103C239.286 25.8103 237.978 24.5383 237.978 22.6543C237.978 20.8063 239.31 19.5463 241.17 19.5463C243.246 19.5463 244.446 20.8423 244.242 23.0503H239.55ZM241.17 20.7103C240.258 20.7103 239.562 21.3823 239.538 22.0903H242.706C242.706 21.3103 242.142 20.7103 241.17 20.7103ZM245.497 25.6783V17.2783H247.057V25.6783H245.497ZM248.603 25.6783V17.2783H250.163V25.6783H248.603ZM252.921 23.0503C252.921 23.9383 253.737 24.5263 254.673 24.5263C255.453 24.5263 256.185 24.2383 256.557 23.7823L257.421 24.7063C256.905 25.3783 255.801 25.8103 254.613 25.8103C252.657 25.8103 251.349 24.5383 251.349 22.6543C251.349 20.8063 252.681 19.5463 254.541 19.5463C256.617 19.5463 257.817 20.8423 257.613 23.0503H252.921ZM254.541 20.7103C253.629 20.7103 252.933 21.3823 252.909 22.0903H256.077C256.077 21.3103 255.513 20.7103 254.541 20.7103ZM262.408 19.5343C263.607 19.5343 264.568 20.4823 264.568 21.6703V25.6783H262.996V22.2103C262.996 21.5023 262.444 20.9383 261.736 20.9383C261.04 20.9383 260.464 21.5023 260.464 22.2103L260.476 25.6783H258.916V19.6783H260.44V20.6263C260.788 19.9543 261.568 19.5343 262.408 19.5343Z" fill="#434040"/>
<path d="M273.19 54.6782H177.19C174.428 54.6782 172.19 56.9168 172.19 59.6782V69.6782C172.19 72.4396 174.428 74.6782 177.19 74.6782H273.19C275.951 74.6782 278.19 72.4396 278.19 69.6782V59.6782C278.19 56.9168 275.951 54.6782 273.19 54.6782Z" fill="#DD6826"/>
<path d="M180.489 68.6785V61.4058H183.152C183.668 61.4058 184.096 61.491 184.434 61.6615C184.773 61.8295 185.026 62.058 185.194 62.3468C185.362 62.6333 185.446 62.9564 185.446 63.3163C185.446 63.6193 185.391 63.875 185.279 64.0833C185.168 64.2893 185.019 64.455 184.832 64.5805C184.647 64.7036 184.444 64.7936 184.221 64.8504V64.9214C184.463 64.9332 184.698 65.0114 184.928 65.1558C185.16 65.2978 185.352 65.5002 185.503 65.763C185.655 66.0258 185.73 66.3454 185.73 66.7218C185.73 67.0935 185.643 67.4273 185.468 67.7232C185.295 68.0168 185.027 68.25 184.665 68.4228C184.303 68.5933 183.84 68.6785 183.277 68.6785H180.489ZM181.586 67.7374H183.17C183.696 67.7374 184.072 67.6356 184.299 67.4321C184.527 67.2285 184.64 66.974 184.64 66.6686C184.64 66.4389 184.582 66.2282 184.466 66.0365C184.35 65.8447 184.185 65.692 183.969 65.5784C183.756 65.4647 183.503 65.4079 183.209 65.4079H181.586V67.7374ZM181.586 64.5521H183.056C183.303 64.5521 183.524 64.5047 183.721 64.41C183.919 64.3153 184.077 64.1828 184.193 64.0123C184.311 63.8395 184.37 63.6359 184.37 63.4015C184.37 63.1008 184.265 62.8487 184.054 62.6451C183.844 62.4415 183.52 62.3397 183.085 62.3397H181.586V64.5521ZM189.298 68.7886C188.76 68.7886 188.297 68.6738 187.909 68.4441C187.523 68.2121 187.225 67.8866 187.014 67.4676C186.806 67.0462 186.702 66.5526 186.702 65.9867C186.702 65.428 186.806 64.9356 187.014 64.5095C187.225 64.0833 187.518 63.7507 187.895 63.5116C188.274 63.2725 188.716 63.1529 189.223 63.1529C189.531 63.1529 189.829 63.2038 190.118 63.3056C190.407 63.4074 190.666 63.5672 190.896 63.785C191.125 64.0028 191.306 64.2857 191.439 64.6338C191.572 64.9794 191.638 65.3996 191.638 65.8944V66.2708H187.302V65.4754H190.597C190.597 65.196 190.54 64.9486 190.427 64.7332C190.313 64.5154 190.153 64.3437 189.947 64.2183C189.744 64.0928 189.505 64.0301 189.23 64.0301C188.932 64.0301 188.671 64.1035 188.449 64.2502C188.229 64.3946 188.058 64.584 187.938 64.8184C187.819 65.0504 187.76 65.3026 187.76 65.5748V66.1963C187.76 66.5608 187.824 66.871 187.952 67.1267C188.082 67.3823 188.263 67.5776 188.495 67.7126C188.727 67.8452 188.998 67.9115 189.308 67.9115C189.509 67.9115 189.693 67.883 189.859 67.8262C190.024 67.767 190.168 67.6794 190.288 67.5634C190.409 67.4474 190.501 67.3042 190.565 67.1338L191.57 67.3149C191.49 67.6108 191.345 67.87 191.137 68.0926C190.931 68.3127 190.672 68.4844 190.359 68.6075C190.049 68.7282 189.695 68.7886 189.298 68.7886ZM195.113 68.7886C194.602 68.7886 194.156 68.6714 193.775 68.437C193.394 68.2026 193.098 67.8748 192.887 67.4534C192.676 67.032 192.571 66.5395 192.571 65.9761C192.571 65.4103 192.676 64.9155 192.887 64.4917C193.098 64.0679 193.394 63.7389 193.775 63.5045C194.156 63.2701 194.602 63.1529 195.113 63.1529C195.625 63.1529 196.071 63.2701 196.452 63.5045C196.833 63.7389 197.129 64.0679 197.34 64.4917C197.551 64.9155 197.656 65.4103 197.656 65.9761C197.656 66.5395 197.551 67.032 197.34 67.4534C197.129 67.8748 196.833 68.2026 196.452 68.437C196.071 68.6714 195.625 68.7886 195.113 68.7886ZM195.117 67.8973C195.448 67.8973 195.723 67.8097 195.941 67.6345C196.159 67.4593 196.32 67.2261 196.424 66.9349C196.53 66.6437 196.584 66.3229 196.584 65.9725C196.584 65.6245 196.53 65.3049 196.424 65.0137C196.32 64.7202 196.159 64.4846 195.941 64.3071C195.723 64.1295 195.448 64.0407 195.117 64.0407C194.783 64.0407 194.506 64.1295 194.286 64.3071C194.068 64.4846 193.906 64.7202 193.8 65.0137C193.695 65.3049 193.643 65.6245 193.643 65.9725C193.643 66.3229 193.695 66.6437 193.8 66.9349C193.906 67.2261 194.068 67.4593 194.286 67.6345C194.506 67.8097 194.783 67.8973 195.117 67.8973ZM201.139 68.7886C200.628 68.7886 200.181 68.6714 199.8 68.437C199.419 68.2026 199.123 67.8748 198.912 67.4534C198.702 67.032 198.596 66.5395 198.596 65.9761C198.596 65.4103 198.702 64.9155 198.912 64.4917C199.123 64.0679 199.419 63.7389 199.8 63.5045C200.181 63.2701 200.628 63.1529 201.139 63.1529C201.65 63.1529 202.096 63.2701 202.478 63.5045C202.859 63.7389 203.155 64.0679 203.365 64.4917C203.576 64.9155 203.681 65.4103 203.681 65.9761C203.681 66.5395 203.576 67.032 203.365 67.4534C203.155 67.8748 202.859 68.2026 202.478 68.437C202.096 68.6714 201.65 68.7886 201.139 68.7886ZM201.142 67.8973C201.474 67.8973 201.748 67.8097 201.966 67.6345C202.184 67.4593 202.345 67.2261 202.449 66.9349C202.556 66.6437 202.609 66.3229 202.609 65.9725C202.609 65.6245 202.556 65.3049 202.449 65.0137C202.345 64.7202 202.184 64.4846 201.966 64.3071C201.748 64.1295 201.474 64.0407 201.142 64.0407C200.809 64.0407 200.532 64.1295 200.311 64.3071C200.094 64.4846 199.931 64.7202 199.825 65.0137C199.721 65.3049 199.669 65.6245 199.669 65.9725C199.669 66.3229 199.721 66.6437 199.825 66.9349C199.931 67.2261 200.094 67.4593 200.311 67.6345C200.532 67.8097 200.809 67.8973 201.142 67.8973ZM204.867 68.6785V63.224H205.893V64.0904H205.95C206.049 63.7969 206.224 63.566 206.475 63.398C206.729 63.2275 207.015 63.1423 207.335 63.1423C207.401 63.1423 207.479 63.1446 207.569 63.1494C207.661 63.1541 207.734 63.16 207.786 63.1671V64.1828C207.743 64.1709 207.667 64.1579 207.558 64.1437C207.45 64.1271 207.341 64.1188 207.232 64.1188C206.981 64.1188 206.757 64.1721 206.561 64.2786C206.366 64.3828 206.213 64.5284 206.099 64.7154C205.985 64.9001 205.928 65.1108 205.928 65.3475V68.6785H204.867ZM210.551 68.785C210.111 68.785 209.718 68.6726 209.372 68.4477C209.029 68.2204 208.759 67.8972 208.563 67.4782C208.368 67.0568 208.271 66.5514 208.271 65.9619C208.271 65.3724 208.37 64.8681 208.566 64.4491C208.765 64.0301 209.037 63.7093 209.383 63.4867C209.728 63.2642 210.12 63.1529 210.558 63.1529C210.897 63.1529 211.169 63.2097 211.375 63.3234C211.583 63.4347 211.744 63.5649 211.858 63.714C211.974 63.8632 212.064 63.9946 212.128 64.1082H212.192V61.4058H213.254V68.6785H212.217V67.8298H212.128C212.064 67.9458 211.972 68.0784 211.851 68.2275C211.732 68.3767 211.569 68.5069 211.361 68.6181C211.152 68.7294 210.883 68.785 210.551 68.785ZM210.786 67.8795C211.091 67.8795 211.349 67.799 211.56 67.638C211.773 67.4747 211.934 67.2486 212.043 66.9597C212.154 66.6709 212.21 66.3347 212.21 65.9512C212.21 65.5724 212.155 65.241 212.046 64.9569C211.937 64.6728 211.777 64.4515 211.567 64.2928C211.356 64.1342 211.096 64.0549 210.786 64.0549C210.466 64.0549 210.2 64.1378 209.987 64.3035C209.773 64.4692 209.612 64.6953 209.504 64.9818C209.397 65.2682 209.344 65.5914 209.344 65.9512C209.344 66.3158 209.398 66.6437 209.507 66.9349C209.616 67.2261 209.777 67.4569 209.99 67.6274C210.206 67.7955 210.471 67.8795 210.786 67.8795ZM217.12 68.7886C216.582 68.7886 216.12 68.6738 215.731 68.4441C215.345 68.2121 215.047 67.8866 214.836 67.4676C214.628 67.0462 214.524 66.5526 214.524 65.9867C214.524 65.428 214.628 64.9356 214.836 64.5095C215.047 64.0833 215.341 63.7507 215.717 63.5116C216.096 63.2725 216.539 63.1529 217.045 63.1529C217.353 63.1529 217.651 63.2038 217.94 63.3056C218.229 63.4074 218.488 63.5672 218.718 63.785C218.948 64.0028 219.129 64.2857 219.261 64.6338C219.394 64.9794 219.46 65.3996 219.46 65.8944V66.2708H215.124V65.4754H218.42C218.42 65.196 218.363 64.9486 218.249 64.7332C218.135 64.5154 217.976 64.3437 217.77 64.2183C217.566 64.0928 217.327 64.0301 217.052 64.0301C216.754 64.0301 216.494 64.1035 216.271 64.2502C216.051 64.3946 215.881 64.584 215.76 64.8184C215.641 65.0504 215.582 65.3026 215.582 65.5748V66.1963C215.582 66.5608 215.646 66.871 215.774 67.1267C215.904 67.3823 216.085 67.5776 216.317 67.7126C216.549 67.8452 216.82 67.9115 217.131 67.9115C217.332 67.9115 217.515 67.883 217.681 67.8262C217.847 67.767 217.99 67.6794 218.111 67.5634C218.231 67.4474 218.324 67.3042 218.388 67.1338L219.393 67.3149C219.312 67.6108 219.168 67.87 218.959 68.0926C218.753 68.3127 218.494 68.4844 218.182 68.6075C217.872 68.7282 217.518 68.7886 217.12 68.7886ZM222.989 68.7886C222.452 68.7886 221.989 68.6738 221.601 68.4441C221.215 68.2121 220.916 67.8866 220.706 67.4676C220.497 67.0462 220.393 66.5526 220.393 65.9867C220.393 65.428 220.497 64.9356 220.706 64.5095C220.916 64.0833 221.21 63.7507 221.586 63.5116C221.965 63.2725 222.408 63.1529 222.914 63.1529C223.222 63.1529 223.52 63.2038 223.809 63.3056C224.098 63.4074 224.357 63.5672 224.587 63.785C224.817 64.0028 224.998 64.2857 225.13 64.6338C225.263 64.9794 225.329 65.3996 225.329 65.8944V66.2708H220.993V65.4754H224.289C224.289 65.196 224.232 64.9486 224.118 64.7332C224.005 64.5154 223.845 64.3437 223.639 64.2183C223.435 64.0928 223.196 64.0301 222.922 64.0301C222.623 64.0301 222.363 64.1035 222.14 64.2502C221.92 64.3946 221.75 64.584 221.629 64.8184C221.511 65.0504 221.451 65.3026 221.451 65.5748V66.1963C221.451 66.5608 221.515 66.871 221.643 67.1267C221.773 67.3823 221.954 67.5776 222.186 67.7126C222.418 67.8452 222.69 67.9115 223 67.9115C223.201 67.9115 223.384 67.883 223.55 67.8262C223.716 67.767 223.859 67.6794 223.98 67.5634C224.101 67.4474 224.193 67.3042 224.257 67.1338L225.262 67.3149C225.181 67.6108 225.037 67.87 224.828 68.0926C224.623 68.3127 224.363 68.4844 224.051 68.6075C223.741 68.7282 223.387 68.7886 222.989 68.7886ZM227.569 61.4058V68.6785H226.507V61.4058H227.569ZM233.942 68.7886C233.43 68.7886 232.984 68.6714 232.603 68.437C232.222 68.2026 231.926 67.8748 231.715 67.4534C231.504 67.032 231.399 66.5395 231.399 65.9761C231.399 65.4103 231.504 64.9155 231.715 64.4917C231.926 64.0679 232.222 63.7389 232.603 63.5045C232.984 63.2701 233.43 63.1529 233.942 63.1529C234.453 63.1529 234.899 63.2701 235.28 63.5045C235.662 63.7389 235.957 64.0679 236.168 64.4917C236.379 64.9155 236.484 65.4103 236.484 65.9761C236.484 66.5395 236.379 67.032 236.168 67.4534C235.957 67.8748 235.662 68.2026 235.28 68.437C234.899 68.6714 234.453 68.7886 233.942 68.7886ZM233.945 67.8973C234.277 67.8973 234.551 67.8097 234.769 67.6345C234.987 67.4593 235.148 67.2261 235.252 66.9349C235.359 66.6437 235.412 66.3229 235.412 65.9725C235.412 65.6245 235.359 65.3049 235.252 65.0137C235.148 64.7202 234.987 64.4846 234.769 64.3071C234.551 64.1295 234.277 64.0407 233.945 64.0407C233.611 64.0407 233.334 64.1295 233.114 64.3071C232.896 64.4846 232.734 64.7202 232.628 65.0137C232.524 65.3049 232.471 65.6245 232.471 65.9725C232.471 66.3229 232.524 66.6437 232.628 66.9349C232.734 67.2261 232.896 67.4593 233.114 67.6345C233.334 67.8097 233.611 67.8973 233.945 67.8973ZM238.731 65.4399V68.6785H237.669V63.224H238.689V64.1117H238.756C238.882 63.8229 239.078 63.5909 239.346 63.4157C239.615 63.2405 239.955 63.1529 240.365 63.1529C240.736 63.1529 241.062 63.2311 241.341 63.3873C241.621 63.5412 241.837 63.7708 241.991 64.0762C242.145 64.3816 242.222 64.7592 242.222 65.209V68.6785H241.16V65.3369C241.16 64.9415 241.057 64.6326 240.851 64.41C240.645 64.1851 240.362 64.0727 240.002 64.0727C239.756 64.0727 239.537 64.1259 239.346 64.2325C239.156 64.339 239.006 64.4953 238.895 64.7012C238.786 64.9048 238.731 65.151 238.731 65.4399ZM247.733 64.5556L246.771 64.7261C246.731 64.603 246.667 64.4858 246.579 64.3745C246.494 64.2633 246.378 64.1721 246.231 64.1011C246.084 64.0301 245.901 63.9946 245.681 63.9946C245.38 63.9946 245.129 64.062 244.928 64.197C244.727 64.3295 244.626 64.5012 244.626 64.7119C244.626 64.8942 244.694 65.041 244.828 65.1522C244.963 65.2635 245.181 65.3546 245.482 65.4257L246.348 65.6245C246.85 65.7405 247.224 65.9193 247.471 66.1607C247.717 66.4022 247.84 66.7159 247.84 67.1018C247.84 67.4285 247.745 67.7197 247.556 67.9754C247.369 68.2287 247.107 68.4276 246.771 68.572C246.437 68.7164 246.05 68.7886 245.61 68.7886C244.999 68.7886 244.501 68.6584 244.115 68.398C243.729 68.1352 243.492 67.7623 243.404 67.2794L244.431 67.1231C244.495 67.3906 244.626 67.593 244.825 67.7303C245.024 67.8653 245.283 67.9328 245.603 67.9328C245.951 67.9328 246.229 67.8606 246.437 67.7161C246.645 67.5694 246.75 67.3906 246.75 67.1799C246.75 67.0095 246.686 66.8662 246.558 66.7502C246.432 66.6342 246.239 66.5466 245.979 66.4874L245.056 66.285C244.547 66.169 244.17 65.9844 243.927 65.7311C243.685 65.4777 243.564 65.157 243.564 64.7687C243.564 64.4467 243.654 64.165 243.834 63.9235C244.014 63.6821 244.263 63.4938 244.58 63.3589C244.897 63.2216 245.261 63.1529 245.67 63.1529C246.26 63.1529 246.724 63.2808 247.062 63.5365C247.401 63.7898 247.624 64.1295 247.733 64.5556Z" fill="white"/>
<path d="M263.203 68.7969L261.965 67.5591L264.846 64.678L261.965 61.7969L263.203 60.5591L266.29 63.6466C266.426 63.7821 266.533 63.9428 266.606 64.1198C266.68 64.2968 266.717 64.4864 266.717 64.678C266.717 64.8695 266.68 65.0592 266.606 65.2361C266.533 65.4131 266.426 65.5739 266.29 65.7093L263.203 68.7969Z" fill="white"/>
</g>
<defs>
<clipPath id="clip0_2953_545">
<rect width="294" height="90" fill="white" transform="translate(0.189575 0.678223)"/>
</clipPath>
</defs>
</svg>
