<svg width="77" height="64" viewBox="0 0 77 64" fill="none" xmlns="http://www.w3.org/2000/svg">
<path d="M39.0088 26.0243C36.5004 28.4725 33.5305 29.817 30.1191 30.2384C22.1123 31.2418 15.0086 25.1815 13.7645 17.2751C12.6206 9.91052 17.9785 2.28505 25.3833 0.780018C33.2495 -0.825344 41.2563 4.27168 43.1225 12.0778C43.5439 13.8236 43.6041 15.6096 43.3232 17.3755C43.283 17.6363 43.0222 17.9373 42.7814 18.0778C41.8382 18.6397 40.8349 19.1012 39.8917 19.6832C37.8047 20.9674 37.4034 22.3119 38.3466 24.5795C38.5472 25.0611 38.768 25.5026 39.0088 26.0243Z" fill="#D1363F"/>
<path d="M68.8881 44.3054C68.0252 44.1649 67.1624 44.0244 66.2995 43.884C64.5737 43.583 63.0085 43.8639 61.7443 45.2084C61.1422 45.8505 60.5202 46.4726 59.878 47.0746C58.8345 48.0178 58.072 47.9977 57.0486 47.0546C56.6673 46.6934 56.266 46.3322 55.9449 45.9308C54.3195 43.9241 52.2526 43.4024 49.8244 44.0244C49.383 44.1449 48.9415 44.2051 48.5 44.2452C47.1555 44.3857 46.8144 44.1449 46.5335 42.8004C46.3528 41.9174 46.2124 41.0345 46.112 40.1314C45.9114 38.6264 45.1689 37.5227 43.7843 36.8605C42.8813 36.419 41.9782 35.9976 41.1154 35.496C40.112 34.914 39.9515 34.4525 40.3929 33.3889C40.6739 32.6866 40.9749 32.0043 41.3562 31.3622C42.4799 29.4558 42.4598 27.5695 41.3361 25.6832C40.995 25.1213 40.7541 24.5193 40.4933 23.9173C39.9113 22.5327 40.0317 22.1313 41.3361 21.449C42.0384 21.0678 42.7608 20.7066 43.4833 20.3855C45.2291 19.5828 46.0318 18.1581 46.2324 16.3119C46.3127 15.5694 46.393 14.8269 46.5535 14.0844C46.7542 13.061 47.1957 12.7199 48.2391 12.8202C49.1622 12.9005 50.0652 13.0811 50.9883 13.2216C52.4934 13.4824 53.8378 13.1614 54.9415 12.0978C55.7041 11.3754 56.4466 10.6128 57.2091 9.9105C58.1322 9.06769 58.674 9.04762 59.6372 9.83024C60.2192 10.3118 60.781 10.8336 61.2626 11.3955C62.7476 13.1212 64.5536 13.6229 66.7409 13.0811C67.4834 12.9005 68.266 12.8804 69.0487 12.8002C69.751 12.7199 70.1523 13.0811 70.2928 13.7232C70.5135 14.847 70.7142 15.9908 70.8948 17.1146C71.1156 18.4791 71.8179 19.4624 73.042 20.1046C73.9851 20.5862 74.9283 21.0276 75.8514 21.5494C76.8547 22.1313 77.0353 22.5929 76.5939 23.6564C76.1925 24.6598 75.6908 25.6029 75.2293 26.5862C74.6072 27.8906 74.6072 29.1949 75.2293 30.4993C75.6507 31.4023 76.1122 32.2852 76.5136 33.2083C77.0554 34.4926 76.9149 34.914 75.7109 35.5963C74.9885 35.9976 74.246 36.3789 73.5035 36.7C71.7577 37.4625 70.955 38.8472 70.7744 40.6933C70.6942 41.5562 70.5135 42.4191 70.3329 43.282C70.1523 43.9843 69.7109 44.4057 68.8881 44.3054ZM46.6137 28.7334C46.5535 35.0344 51.8111 40.3522 58.1322 40.3923C64.975 40.4325 70.3731 35.2552 70.4333 28.5728C70.4935 22.0511 65.1356 16.633 58.5937 16.5728C51.9114 16.5326 46.6739 21.8504 46.6137 28.7334Z" fill="#D1363F"/>
<path d="M13.4431 40.8338C16.1723 48.5596 18.8813 56.2051 21.6104 63.9109C14.3662 63.9109 7.24243 63.9109 0.118641 63.9109C-1.00511 57.1082 6.03841 44.8673 13.4431 40.8338Z" fill="#D1363F"/>
<path d="M35.5166 63.8907C38.2457 56.1649 40.9548 48.4993 43.6839 40.8538C43.7641 40.8538 43.8444 40.8538 43.9046 40.8738C43.9648 41.1748 44.0451 41.4758 44.1053 41.7768C44.2257 42.419 44.2859 43.0611 44.4464 43.6832C45.0284 45.8504 46.5936 46.914 48.801 46.4525C49.8645 46.2317 50.4063 46.5729 51.0083 47.3555C54.4799 51.8505 56.4866 56.9074 57.0285 62.5663C57.0686 62.9877 57.0285 63.4091 57.0285 63.8907C49.9047 63.8907 42.7608 63.8907 35.5166 63.8907Z" fill="#D1363F"/>
<path d="M32.6674 63.8907C29.8981 63.8907 27.2292 63.8907 24.46 63.8907C25.0419 58.2117 25.6038 52.593 26.1857 46.8939C27.7108 46.8939 29.1757 46.8739 30.6406 46.914C30.761 46.914 30.9617 47.1949 30.9817 47.3755C31.3028 50.4057 31.6038 53.4559 31.9048 56.506C32.1256 58.7535 32.3664 61.0011 32.5871 63.2285C32.6272 63.4292 32.6473 63.6098 32.6674 63.8907Z" fill="#D1363F"/>
<path d="M34.7747 36.981C37.0824 37.8238 39.35 38.6265 41.738 39.4893C39.3299 46.3121 36.9821 52.9744 34.6342 59.6166C34.5941 59.6166 34.554 59.5965 34.4938 59.5965C34.3533 58.4125 34.2329 57.2085 34.1125 56.0246C33.7914 52.7938 33.4101 49.5429 33.1894 46.3121C33.1091 45.2084 33.4302 44.0847 33.6108 42.981C33.9118 41.2352 34.2329 39.4893 34.554 37.7435C34.574 37.5629 34.6543 37.3823 34.7747 36.981Z" fill="#D1363F"/>
<path d="M22.4732 59.5964C20.1254 52.9743 17.7976 46.3722 15.4297 39.6899C17.6371 38.4859 19.9247 37.7033 22.413 37.1414C22.6137 38.1849 22.8144 39.1682 22.995 40.1715C23.2157 41.3956 23.3562 42.6599 23.6772 43.8639C24.1187 45.4893 23.918 47.0947 23.7575 48.7C23.4164 52.0111 23.0752 55.3221 22.7341 58.6332C22.694 58.9543 22.6538 59.2753 22.6137 59.5964C22.5535 59.5964 22.5133 59.5964 22.4732 59.5964Z" fill="#D1363F"/>
<path d="M31.0013 44.6464C29.3358 44.6464 27.7705 44.6464 26.105 44.6464C25.6234 42.0377 25.1418 39.4491 24.6602 36.7802C27.2689 36.3587 29.7973 36.3788 32.4462 36.7601C31.9646 39.3889 31.4829 41.9976 31.0013 44.6464Z" fill="#D1363F"/>
<path d="M58.4732 18.9406C63.9715 18.9406 68.2257 23.0343 68.1455 28.4925C68.0451 34.9942 63.1889 38.1046 58.5133 38.0846C52.9347 38.0846 48.7808 33.9909 48.8009 28.4925C48.8209 23.0343 52.9547 18.9406 58.4732 18.9406Z" fill="#D1363F"/>
</svg>
