<svg width="1728" height="1183" viewBox="0 0 1728 1183" fill="none" xmlns="http://www.w3.org/2000/svg">
<path d="M1822.88 589.566L1668.57 501.698C1591.58 457.855 1496.61 460.366 1422.04 508.216L1419.18 510.05C1343.49 558.614 1246.61 559.258 1170.29 511.704L1155.27 502.343C1085.22 458.7 995.889 461.063 928.247 508.347V508.347C858.27 557.264 765.374 557.958 694.674 510.092L688.388 505.837C620.118 459.617 531.559 456.057 459.8 496.649L402.697 528.951C338.281 565.389 257.996 557.918 201.409 510.217V510.217C144.541 462.279 63.7735 454.994 -0.755226 491.983L-170.994 589.566" stroke="#14112C" stroke-opacity="0.1" stroke-width="1.5"/>
<path d="M1822.88 191.403L1668.57 103.535C1591.58 59.692 1496.61 62.2025 1422.04 110.052L1419.18 111.887C1343.49 160.451 1246.61 161.094 1170.29 113.54L1155.27 104.18C1085.22 60.5366 995.889 62.8991 928.247 110.184V110.184C858.27 159.101 765.374 159.795 694.674 111.929L688.388 107.673C620.118 61.4531 531.559 57.8936 459.8 98.4856L402.697 130.787C338.281 167.226 257.996 159.754 201.409 112.054V112.054C144.541 64.1155 63.7735 56.8307 -0.755226 93.8195L-170.994 191.403" stroke="#14112C" stroke-opacity="0.1" stroke-width="1.5"/>
<path d="M1822.88 788.649L1668.57 700.781C1591.58 656.938 1496.61 659.448 1422.04 707.298L1419.18 709.133C1343.49 757.696 1246.61 758.34 1170.29 710.786L1155.27 701.426C1085.22 657.782 995.889 660.145 928.247 707.43V707.43C858.27 756.346 765.374 757.041 694.674 709.175L688.388 704.919C620.118 658.699 531.559 655.139 459.8 695.731L402.697 728.033C338.281 764.472 257.996 757 201.409 709.3V709.3C144.541 661.361 63.7735 654.077 -0.755226 691.065L-170.994 788.649" stroke="#14112C" stroke-opacity="0.1" stroke-width="1.5"/>
<path d="M1822.88 390.484L1668.57 302.616C1591.58 258.773 1496.61 261.284 1422.04 309.133L1419.18 310.968C1343.49 359.532 1246.61 360.175 1170.29 312.621L1155.27 303.261C1085.22 259.618 995.889 261.98 928.247 309.265V309.265C858.27 358.182 765.374 358.876 694.674 311.01L688.388 306.754C620.118 260.534 531.559 256.975 459.8 297.567L402.697 329.868C338.281 366.307 257.996 358.835 201.409 311.135V311.135C144.541 263.197 63.7735 255.912 -0.755226 292.901L-170.994 390.484" stroke="#14112C" stroke-opacity="0.1" stroke-width="1.5"/>
<path d="M1822.88 987.731L1668.57 899.863C1591.58 856.02 1496.61 858.531 1422.04 906.381L1419.18 908.215C1343.49 956.779 1246.61 957.423 1170.29 909.869L1155.27 900.508C1085.22 856.865 995.889 859.227 928.247 906.512V906.512C858.27 955.429 765.374 956.123 694.674 908.257L688.388 904.002C620.118 857.781 531.559 854.222 459.8 894.814L402.697 927.115C338.281 963.554 257.996 956.082 201.409 908.382V908.382C144.541 860.444 63.7735 853.159 -0.755226 890.148L-170.994 987.731" stroke="#14112C" stroke-opacity="0.1" stroke-width="1.5"/>
<path d="M1822.88 42.0922L1668.57 -45.7758C1591.58 -89.6188 1496.61 -87.1083 1422.04 -39.2585L1419.18 -37.4239C1343.49 11.1398 1246.61 11.7834 1170.29 -35.7704L1155.27 -45.1309C1085.22 -88.7742 995.889 -86.4117 928.247 -39.1271V-39.1271C858.27 9.78986 765.374 10.4839 694.674 -37.3819L688.388 -41.6374C620.118 -87.8577 531.559 -91.4172 459.8 -50.8252L402.697 -18.5237C338.281 17.9152 257.996 10.4433 201.409 -37.257V-37.257C144.541 -85.1953 63.7735 -92.4801 -0.755226 -55.4912L-170.994 42.0922" stroke="#14112C" stroke-opacity="0.1" stroke-width="1.5"/>
<path d="M1822.88 639.337L1668.57 551.469C1591.58 507.626 1496.61 510.137 1422.04 557.986L1419.18 559.821C1343.49 608.385 1246.61 609.028 1170.29 561.474L1155.27 552.114C1085.22 508.471 995.889 510.833 928.247 558.118V558.118C858.27 607.035 765.374 607.729 694.674 559.863L688.388 555.607C620.118 509.387 531.559 505.828 459.8 546.42L402.697 578.721C338.281 615.16 257.996 607.688 201.409 559.988V559.988C144.541 512.05 63.7735 504.765 -0.755226 541.754L-170.994 639.337" stroke="#14112C" stroke-opacity="0.1" stroke-width="1.5"/>
<path d="M1822.88 241.173L1668.57 153.305C1591.58 109.462 1496.61 111.973 1422.04 159.823L1419.18 161.657C1343.49 210.221 1246.61 210.864 1170.29 163.311L1155.27 153.95C1085.22 110.307 995.889 112.669 928.247 159.954V159.954C858.27 208.871 765.374 209.565 694.674 161.699L688.388 157.444C620.118 111.223 531.559 107.664 459.8 148.256L402.697 180.557C338.281 216.996 257.996 209.524 201.409 161.824V161.824C144.541 113.886 63.7735 106.601 -0.755226 143.59L-170.994 241.173" stroke="#14112C" stroke-opacity="0.1" stroke-width="1.5"/>
<path d="M1822.88 838.42L1668.57 750.552C1591.58 706.709 1496.61 709.219 1422.04 757.069L1419.18 758.903C1343.49 807.467 1246.61 808.111 1170.29 760.557L1155.27 751.196C1085.22 707.553 995.889 709.916 928.247 757.2V757.2C858.27 806.117 765.374 806.811 694.674 758.945L688.388 754.69C620.118 708.47 531.559 704.91 459.8 745.502L402.697 777.804C338.281 814.243 257.996 806.771 201.409 759.07V759.07C144.541 711.132 63.7735 703.847 -0.755226 740.836L-170.994 838.42" stroke="#14112C" stroke-opacity="0.1" stroke-width="1.5"/>
<path d="M1822.88 440.255L1668.57 352.387C1591.58 308.544 1496.61 311.054 1422.04 358.904L1419.18 360.739C1343.49 409.302 1246.61 409.946 1170.29 362.392L1155.27 353.032C1085.22 309.388 995.889 311.751 928.247 359.035V359.035C858.27 407.952 765.374 408.646 694.674 360.781L688.388 356.525C620.118 310.305 531.559 306.745 459.8 347.337L402.697 379.639C338.281 416.078 257.996 408.606 201.409 360.905V360.905C144.541 312.967 63.7735 305.682 -0.755226 342.671L-170.994 440.255" stroke="#14112C" stroke-opacity="0.1" stroke-width="1.5"/>
<path d="M1822.88 1037.5L1668.57 949.634C1591.58 905.791 1496.61 908.301 1422.04 956.151L1419.18 957.986C1343.49 1006.55 1246.61 1007.19 1170.29 959.639L1155.27 950.279C1085.22 906.635 995.889 908.998 928.247 956.283V956.283C858.27 1005.2 765.374 1005.89 694.674 958.028L688.388 953.772C620.118 907.552 531.559 903.992 459.8 944.584L402.697 976.886C338.281 1013.32 257.996 1005.85 201.409 958.153V958.153C144.541 910.214 63.7735 902.93 -0.755226 939.918L-170.994 1037.5" stroke="#14112C" stroke-opacity="0.1" stroke-width="1.5"/>
<path d="M1822.88 91.8625L1668.57 3.99449C1591.58 -39.8485 1496.61 -37.338 1422.04 10.5118L1419.18 12.3464C1343.49 60.91 1246.61 61.5536 1170.29 13.9998L1155.27 4.63935C1085.22 -39.0039 995.889 -36.6414 928.247 10.6432V10.6432C858.27 59.5601 765.374 60.2542 694.674 12.3884L688.388 8.13285C620.118 -38.0874 531.559 -41.647 459.8 -1.05492L402.697 31.2466C338.281 67.6855 257.996 60.2135 201.409 12.5133V12.5133C144.541 -35.4251 63.7735 -42.7099 -0.755226 -5.72098L-170.994 91.8625" stroke="#14112C" stroke-opacity="0.1" stroke-width="1.5"/>
<path d="M1822.88 689.108L1668.57 601.24C1591.58 557.397 1496.61 559.907 1422.04 607.757L1419.18 609.592C1343.49 658.155 1246.61 658.799 1170.29 611.245L1155.27 601.885C1085.22 558.241 995.889 560.604 928.247 607.888V607.888C858.27 656.805 765.374 657.499 694.674 609.634L688.388 605.378C620.118 559.158 531.559 555.598 459.8 596.19L402.697 628.492C338.281 664.931 257.996 657.459 201.409 609.759V609.759C144.541 561.82 63.7735 554.535 -0.755226 591.524L-170.994 689.108" stroke="#14112C" stroke-opacity="0.1" stroke-width="1.5"/>
<path d="M1822.88 290.944L1668.57 203.076C1591.58 159.233 1496.61 161.743 1422.04 209.593L1419.18 211.427C1343.49 259.991 1246.61 260.635 1170.29 213.081L1155.27 203.72C1085.22 160.077 995.889 162.44 928.247 209.724V209.724C858.27 258.641 765.374 259.335 694.674 211.469L688.388 207.214C620.118 160.994 531.559 157.434 459.8 198.026L402.697 230.328C338.281 266.767 257.996 259.295 201.409 211.594V211.594C144.541 163.656 63.7735 156.371 -0.755226 193.36L-170.994 290.944" stroke="#14112C" stroke-opacity="0.1" stroke-width="1.5"/>
<path d="M1822.88 888.19L1668.57 800.322C1591.58 756.479 1496.61 758.99 1422.04 806.839L1419.18 808.674C1343.49 857.238 1246.61 857.881 1170.29 810.328L1155.27 800.967C1085.22 757.324 995.889 759.686 928.247 806.971V806.971C858.27 855.888 765.374 856.582 694.674 808.716L688.388 804.461C620.118 758.24 531.559 754.681 459.8 795.273L402.697 827.574C338.281 864.013 257.996 856.541 201.409 808.841V808.841C144.541 760.903 63.7735 753.618 -0.755226 790.607L-170.994 888.19" stroke="#14112C" stroke-opacity="0.1" stroke-width="1.5"/>
<path d="M1822.88 490.025L1668.57 402.157C1591.58 358.314 1496.61 360.825 1422.04 408.675L1419.18 410.509C1343.49 459.073 1246.61 459.716 1170.29 412.163L1155.27 402.802C1085.22 359.159 995.889 361.521 928.247 408.806V408.806C858.27 457.723 765.374 458.417 694.674 410.551L688.388 406.296C620.118 360.075 531.559 356.516 459.8 397.108L402.697 429.409C338.281 465.848 257.996 458.376 201.409 410.676V410.676C144.541 362.738 63.7735 355.453 -0.755226 392.442L-170.994 490.025" stroke="#14112C" stroke-opacity="0.1" stroke-width="1.5"/>
<path d="M1822.88 1087.27L1668.57 999.404C1591.58 955.561 1496.61 958.072 1422.04 1005.92L1419.18 1007.76C1343.49 1056.32 1246.61 1056.96 1170.29 1009.41L1155.27 1000.05C1085.22 956.406 995.889 958.768 928.247 1006.05V1006.05C858.27 1054.97 765.374 1055.66 694.674 1007.8L688.388 1003.54C620.118 957.322 531.559 953.763 459.8 994.355L402.697 1026.66C338.281 1063.1 257.996 1055.62 201.409 1007.92V1007.92C144.541 959.985 63.7735 952.7 -0.755226 989.689L-170.994 1087.27" stroke="#14112C" stroke-opacity="0.1" stroke-width="1.5"/>
<path d="M1822.88 141.633L1668.57 53.7647C1591.58 9.92173 1496.61 12.4322 1422.04 60.2821L1419.18 62.1166C1343.49 110.68 1246.61 111.324 1170.29 63.7701L1155.27 54.4096C1085.22 10.7663 995.889 13.1288 928.247 60.4135V60.4135C858.27 109.33 765.374 110.024 694.674 62.1586L688.388 57.9031C620.118 11.6828 531.559 8.1233 459.8 48.7153L402.697 81.0168C338.281 117.456 257.996 109.984 201.409 62.2835V62.2835C144.541 14.3452 63.7735 7.0604 -0.755226 44.0493L-170.994 141.633" stroke="#14112C" stroke-opacity="0.1" stroke-width="1.5"/>
<path d="M1822.88 738.878L1668.57 651.01C1591.58 607.167 1496.61 609.678 1422.04 657.528L1419.18 659.362C1343.49 707.926 1246.61 708.569 1170.29 661.016L1155.27 651.655C1085.22 608.012 995.889 610.374 928.247 657.659V657.659C858.27 706.576 765.374 707.27 694.674 659.404L688.388 655.149C620.118 608.928 531.559 605.369 459.8 645.961L402.697 678.262C338.281 714.701 257.996 707.229 201.409 659.529V659.529C144.541 611.591 63.7735 604.306 -0.755226 641.295L-170.994 738.878" stroke="#14112C" stroke-opacity="0.1" stroke-width="1.5"/>
<path d="M1822.88 340.714L1668.57 252.846C1591.58 209.003 1496.61 211.513 1422.04 259.363L1419.18 261.198C1343.49 309.761 1246.61 310.405 1170.29 262.851L1155.27 253.491C1085.22 209.847 995.889 212.21 928.247 259.495V259.495C858.27 308.411 765.374 309.106 694.674 261.24L688.388 256.984C620.118 210.764 531.559 207.204 459.8 247.796L402.697 280.098C338.281 316.537 257.996 309.065 201.409 261.365V261.365C144.541 213.426 63.7735 206.141 -0.755226 243.13L-170.994 340.714" stroke="#14112C" stroke-opacity="0.1" stroke-width="1.5"/>
<path d="M1822.88 937.961L1668.57 850.093C1591.58 806.25 1496.61 808.76 1422.04 856.61L1419.18 858.445C1343.49 907.008 1246.61 907.652 1170.29 860.098L1155.27 850.738C1085.22 807.094 995.889 809.457 928.247 856.741V856.741C858.27 905.658 765.374 906.352 694.674 858.487L688.388 854.231C620.118 808.011 531.559 804.451 459.8 845.043L402.697 877.345C338.281 913.784 257.996 906.312 201.409 858.612V858.612C144.541 810.673 63.7735 803.388 -0.755226 840.377L-170.994 937.961" stroke="#14112C" stroke-opacity="0.1" stroke-width="1.5"/>
<path d="M1822.88 539.796L1668.57 451.928C1591.58 408.085 1496.61 410.595 1422.04 458.445L1419.18 460.28C1343.49 508.843 1246.61 509.487 1170.29 461.933L1155.27 452.573C1085.22 408.929 995.889 411.292 928.247 458.577V458.577C858.27 507.493 765.374 508.188 694.674 460.322L688.388 456.066C620.118 409.846 531.559 406.286 459.8 446.878L402.697 479.18C338.281 515.619 257.996 508.147 201.409 460.447V460.447C144.541 412.508 63.7735 405.223 -0.755226 442.212L-170.994 539.796" stroke="#14112C" stroke-opacity="0.1" stroke-width="1.5"/>
<path d="M1822.88 1137.04L1668.57 1049.18C1591.58 1005.33 1496.61 1007.84 1422.04 1055.69L1419.18 1057.53C1343.49 1106.09 1246.61 1106.73 1170.29 1059.18L1155.27 1049.82C1085.22 1006.18 995.889 1008.54 928.247 1055.82V1055.82C858.27 1104.74 765.374 1105.43 694.674 1057.57L688.388 1053.31C620.118 1007.09 531.559 1003.53 459.8 1044.13L402.697 1076.43C338.281 1112.87 257.996 1105.39 201.409 1057.69V1057.69C144.541 1009.76 63.7735 1002.47 -0.755226 1039.46L-170.994 1137.04" stroke="#14112C" stroke-opacity="0.1" stroke-width="1.5"/>
<path d="M1822.88 2.27599L1668.57 -85.592C1591.58 -129.435 1496.61 -126.924 1422.04 -79.0747L1419.18 -77.2401C1343.49 -28.6765 1246.61 -28.0328 1170.29 -75.5867L1155.27 -84.9471C1085.22 -128.59 995.889 -126.228 928.247 -78.9433V-78.9433C858.27 -30.0264 765.374 -29.3323 694.674 -77.1981L688.388 -81.4536C620.118 -127.674 531.559 -131.233 459.8 -90.6414L402.697 -58.3399C338.281 -21.901 257.996 -29.3729 201.409 -77.0732V-77.0732C144.541 -125.012 63.7735 -132.296 -0.755226 -95.3075L-170.994 2.27599" stroke="#14112C" stroke-opacity="0.1" stroke-width="1.5"/>
<path d="M1822.88 599.521L1668.57 511.653C1591.58 467.81 1496.61 470.32 1422.04 518.17L1419.18 520.005C1343.49 568.568 1246.61 569.212 1170.29 521.658L1155.27 512.297C1085.22 468.654 995.889 471.017 928.247 518.301V518.301C858.27 567.218 765.374 567.912 694.674 520.047L688.388 515.791C620.118 469.571 531.559 466.011 459.8 506.603L402.697 538.905C338.281 575.344 257.996 567.872 201.409 520.171V520.171C144.541 472.233 63.7735 464.948 -0.755226 501.937L-170.994 599.521" stroke="#14112C" stroke-opacity="0.1" stroke-width="1.5"/>
<path d="M1822.88 201.357L1668.57 113.489C1591.58 69.6461 1496.61 72.1566 1422.04 120.006L1419.18 121.841C1343.49 170.405 1246.61 171.048 1170.29 123.494L1155.27 114.134C1085.22 70.4907 995.889 72.8532 928.247 120.138V120.138C858.27 169.055 765.374 169.749 694.674 121.883L688.388 117.627C620.118 71.4071 531.559 67.8476 459.8 108.44L402.697 140.741C338.281 177.18 257.996 169.708 201.409 122.008V122.008C144.541 74.0695 63.7735 66.7847 -0.755226 103.774L-170.994 201.357" stroke="#14112C" stroke-opacity="0.1" stroke-width="1.5"/>
<path d="M1822.88 798.603L1668.57 710.735C1591.58 666.892 1496.61 669.402 1422.04 717.252L1419.18 719.087C1343.49 767.65 1246.61 768.294 1170.29 720.74L1155.27 711.38C1085.22 667.737 995.889 670.099 928.247 717.384V717.384C858.27 766.301 765.374 766.995 694.674 719.129L688.388 714.873C620.118 668.653 531.559 665.094 459.8 705.686L402.697 737.987C338.281 774.426 257.996 766.954 201.409 719.254V719.254C144.541 671.315 63.7735 664.031 -0.755226 701.019L-170.994 798.603" stroke="#14112C" stroke-opacity="0.1" stroke-width="1.5"/>
<path d="M1822.88 400.438L1668.57 312.57C1591.58 268.727 1496.61 271.238 1422.04 319.087L1419.18 320.922C1343.49 369.486 1246.61 370.129 1170.29 322.575L1155.27 313.215C1085.22 269.572 995.889 271.934 928.247 319.219V319.219C858.27 368.136 765.374 368.83 694.674 320.964L688.388 316.709C620.118 270.488 531.559 266.929 459.8 307.521L402.697 339.822C338.281 376.261 257.996 368.789 201.409 321.089V321.089C144.541 273.151 63.7735 265.866 -0.755226 302.855L-170.994 400.438" stroke="#14112C" stroke-opacity="0.1" stroke-width="1.5"/>
<path d="M1822.88 997.685L1668.57 909.817C1591.58 865.974 1496.61 868.485 1422.04 916.335L1419.18 918.169C1343.49 966.733 1246.61 967.377 1170.29 919.823L1155.27 910.462C1085.22 866.819 995.889 869.182 928.247 916.466V916.466C858.27 965.383 765.374 966.077 694.674 918.211L688.388 913.956C620.118 867.736 531.559 864.176 459.8 904.768L402.697 937.07C338.281 973.508 257.996 966.037 201.409 918.336V918.336C144.541 870.398 63.7735 863.113 -0.755226 900.102L-170.994 997.685" stroke="#14112C" stroke-opacity="0.1" stroke-width="1.5"/>
<path d="M1822.88 52.0463L1668.57 -35.8217C1591.58 -79.6647 1496.61 -77.1542 1422.04 -29.3044L1419.18 -27.4698C1343.49 21.0938 1246.61 21.7374 1170.29 -25.8164L1155.27 -35.1769C1085.22 -78.8201 995.889 -76.4576 928.247 -29.173V-29.173C858.27 19.7439 765.374 20.438 694.674 -27.4278L688.388 -31.6834C620.118 -77.9036 531.559 -81.4632 459.8 -40.8711L402.697 -8.56966C338.281 27.8692 257.996 20.3973 201.409 -27.3029V-27.3029C144.541 -75.2413 63.7735 -82.5261 -0.755226 -45.5372L-170.994 52.0463" stroke="#14112C" stroke-opacity="0.1" stroke-width="1.5"/>
<path d="M1822.88 649.291L1668.57 561.423C1591.58 517.58 1496.61 520.091 1422.04 567.941L1419.18 569.775C1343.49 618.339 1246.61 618.982 1170.29 571.429L1155.27 562.068C1085.22 518.425 995.889 520.787 928.247 568.072V568.072C858.27 616.989 765.374 617.683 694.674 569.817L688.388 565.562C620.118 519.341 531.559 515.782 459.8 556.374L402.697 588.675C338.281 625.114 257.996 617.642 201.409 569.942V569.942C144.541 522.004 63.7735 514.719 -0.755226 551.708L-170.994 649.291" stroke="#14112C" stroke-opacity="0.1" stroke-width="1.5"/>
<path d="M1822.88 251.127L1668.57 163.259C1591.58 119.416 1496.61 121.927 1422.04 169.777L1419.18 171.611C1343.49 220.175 1246.61 220.818 1170.29 173.265L1155.27 163.904C1085.22 120.261 995.889 122.623 928.247 169.908V169.908C858.27 218.825 765.374 219.519 694.674 171.653L688.388 167.398C620.118 121.177 531.559 117.618 459.8 158.21L402.697 190.511C338.281 226.95 257.996 219.478 201.409 171.778V171.778C144.541 123.84 63.7735 116.555 -0.755226 153.544L-170.994 251.127" stroke="#14112C" stroke-opacity="0.1" stroke-width="1.5"/>
<path d="M1822.88 848.374L1668.57 760.506C1591.58 716.663 1496.61 719.173 1422.04 767.023L1419.18 768.858C1343.49 817.421 1246.61 818.065 1170.29 770.511L1155.27 761.151C1085.22 717.507 995.889 719.87 928.247 767.154V767.154C858.27 816.071 765.374 816.765 694.674 768.9L688.388 764.644C620.118 718.424 531.559 714.864 459.8 755.456L402.697 787.758C338.281 824.197 257.996 816.725 201.409 769.024V769.024C144.541 721.086 63.7735 713.801 -0.755226 750.79L-170.994 848.374" stroke="#14112C" stroke-opacity="0.1" stroke-width="1.5"/>
<path d="M1822.88 450.209L1668.57 362.341C1591.58 318.498 1496.61 321.008 1422.04 368.858L1419.18 370.693C1343.49 419.256 1246.61 419.9 1170.29 372.346L1155.27 362.986C1085.22 319.342 995.889 321.705 928.247 368.989V368.989C858.27 417.906 765.374 418.6 694.674 370.735L688.388 366.479C620.118 320.259 531.559 316.699 459.8 357.291L402.697 389.593C338.281 426.032 257.996 418.56 201.409 370.86V370.86C144.541 322.921 63.7735 315.636 -0.755226 352.625L-170.994 450.209" stroke="#14112C" stroke-opacity="0.1" stroke-width="1.5"/>
<path d="M1822.88 1047.46L1668.57 959.588C1591.58 915.745 1496.61 918.255 1422.04 966.105L1419.18 967.94C1343.49 1016.5 1246.61 1017.15 1170.29 969.593L1155.27 960.233C1085.22 916.59 995.889 918.952 928.247 966.237V966.237C858.27 1015.15 765.374 1015.85 694.674 967.982L688.388 963.726C620.118 917.506 531.559 913.947 459.8 954.539L402.697 986.84C338.281 1023.28 257.996 1015.81 201.409 968.107V968.107C144.541 920.168 63.7735 912.884 -0.755226 949.873L-170.994 1047.46" stroke="#14112C" stroke-opacity="0.1" stroke-width="1.5"/>
<path d="M1822.88 101.817L1668.57 13.9485C1591.58 -29.8945 1496.61 -27.384 1422.04 20.4659L1419.18 22.3004C1343.49 70.8641 1246.61 71.5077 1170.29 23.9539L1155.27 14.5934C1085.22 -29.0499 995.889 -26.6874 928.247 20.5972V20.5972C858.27 69.5142 765.374 70.2083 694.674 22.3424L688.388 18.0869C620.118 -28.1334 531.559 -31.6929 459.8 8.89914L402.697 41.2006C338.281 77.6395 257.996 70.1676 201.409 22.4673V22.4673C144.541 -25.471 63.7735 -32.7558 -0.755226 4.23307L-170.994 101.817" stroke="#14112C" stroke-opacity="0.1" stroke-width="1.5"/>
<path d="M1822.88 699.062L1668.57 611.194C1591.58 567.351 1496.61 569.861 1422.04 617.711L1419.18 619.546C1343.49 668.109 1246.61 668.753 1170.29 621.199L1155.27 611.839C1085.22 568.195 995.889 570.558 928.247 617.843V617.843C858.27 666.759 765.374 667.454 694.674 619.588L688.388 615.332C620.118 569.112 531.559 565.552 459.8 606.144L402.697 638.446C338.281 674.885 257.996 667.413 201.409 619.713V619.713C144.541 571.774 63.7735 564.489 -0.755226 601.478L-170.994 699.062" stroke="#14112C" stroke-opacity="0.1" stroke-width="1.5"/>
<path d="M1822.88 300.898L1668.57 213.03C1591.58 169.187 1496.61 171.697 1422.04 219.547L1419.18 221.381C1343.49 269.945 1246.61 270.589 1170.29 223.035L1155.27 213.674C1085.22 170.031 995.889 172.394 928.247 219.678V219.678C858.27 268.595 765.374 269.289 694.674 221.423L688.388 217.168C620.118 170.948 531.559 167.388 459.8 207.98L402.697 240.282C338.281 276.721 257.996 269.249 201.409 221.548V221.548C144.541 173.61 63.7735 166.325 -0.755226 203.314L-170.994 300.898" stroke="#14112C" stroke-opacity="0.1" stroke-width="1.5"/>
<path d="M1822.88 898.144L1668.57 810.276C1591.58 766.433 1496.61 768.944 1422.04 816.794L1419.18 818.628C1343.49 867.192 1246.61 867.835 1170.29 820.282L1155.27 810.921C1085.22 767.278 995.889 769.64 928.247 816.925V816.925C858.27 865.842 765.374 866.536 694.674 818.67L688.388 814.415C620.118 768.194 531.559 764.635 459.8 805.227L402.697 837.528C338.281 873.967 257.996 866.495 201.409 818.795V818.795C144.541 770.857 63.7735 763.572 -0.755226 800.561L-170.994 898.144" stroke="#14112C" stroke-opacity="0.1" stroke-width="1.5"/>
<path d="M1822.88 499.979L1668.57 412.111C1591.58 368.268 1496.61 370.779 1422.04 418.629L1419.18 420.463C1343.49 469.027 1246.61 469.671 1170.29 422.117L1155.27 412.756C1085.22 369.113 995.889 371.476 928.247 418.76V418.76C858.27 467.677 765.374 468.371 694.674 420.505L688.388 416.25C620.118 370.03 531.559 366.47 459.8 407.062L402.697 439.363C338.281 475.802 257.996 468.33 201.409 420.63V420.63C144.541 372.692 63.7735 365.407 -0.755226 402.396L-170.994 499.979" stroke="#14112C" stroke-opacity="0.1" stroke-width="1.5"/>
<path d="M1822.88 1097.23L1668.57 1009.36C1591.58 965.516 1496.61 968.026 1422.04 1015.88L1419.18 1017.71C1343.49 1066.27 1246.61 1066.92 1170.29 1019.36L1155.27 1010C1085.22 966.36 995.889 968.723 928.247 1016.01V1016.01C858.27 1064.92 765.374 1065.62 694.674 1017.75L688.388 1013.5C620.118 967.277 531.559 963.717 459.8 1004.31L402.697 1036.61C338.281 1073.05 257.996 1065.58 201.409 1017.88V1017.88C144.541 969.939 63.7735 962.654 -0.755226 999.643L-170.994 1097.23" stroke="#14112C" stroke-opacity="0.1" stroke-width="1.5"/>
<path d="M1822.88 151.587L1668.57 63.7188C1591.58 19.8758 1496.61 22.3863 1422.04 70.2361L1419.18 72.0707C1343.49 120.634 1246.61 121.278 1170.29 73.7241L1155.27 64.3637C1085.22 20.7204 995.889 23.0829 928.247 70.3675V70.3675C858.27 119.284 765.374 119.979 694.674 72.1127L688.388 67.8572C620.118 21.6369 531.559 18.0774 459.8 58.6694L402.697 90.9709C338.281 127.41 257.996 119.938 201.409 72.2376V72.2376C144.541 24.2993 63.7735 17.0145 -0.755226 54.0033L-170.994 151.587" stroke="#14112C" stroke-opacity="0.1" stroke-width="1.5"/>
<path d="M1822.88 748.832L1668.57 660.964C1591.58 617.121 1496.61 619.632 1422.04 667.482L1419.18 669.316C1343.49 717.88 1246.61 718.524 1170.29 670.97L1155.27 661.609C1085.22 617.966 995.889 620.328 928.247 667.613V667.613C858.27 716.53 765.374 717.224 694.674 669.358L688.388 665.103C620.118 618.882 531.559 615.323 459.8 655.915L402.697 688.216C338.281 724.655 257.996 717.183 201.409 669.483V669.483C144.541 621.545 63.7735 614.26 -0.755226 651.249L-170.994 748.832" stroke="#14112C" stroke-opacity="0.1" stroke-width="1.5"/>
<path d="M1822.88 350.668L1668.57 262.8C1591.58 218.957 1496.61 221.467 1422.04 269.317L1419.18 271.152C1343.49 319.715 1246.61 320.359 1170.29 272.805L1155.27 263.445C1085.22 219.801 995.889 222.164 928.247 269.449V269.449C858.27 318.366 765.374 319.06 694.674 271.194L688.388 266.938C620.118 220.718 531.559 217.158 459.8 257.75L402.697 290.052C338.281 326.491 257.996 319.019 201.409 271.319V271.319C144.541 223.38 63.7735 216.096 -0.755226 253.084L-170.994 350.668" stroke="#14112C" stroke-opacity="0.1" stroke-width="1.5"/>
<path d="M1822.88 947.915L1668.57 860.047C1591.58 816.204 1496.61 818.714 1422.04 866.564L1419.18 868.399C1343.49 916.962 1246.61 917.606 1170.29 870.052L1155.27 860.692C1085.22 817.048 995.889 819.411 928.247 866.696V866.696C858.27 915.612 765.374 916.307 694.674 868.441L688.388 864.185C620.118 817.965 531.559 814.405 459.8 854.997L402.697 887.299C338.281 923.738 257.996 916.266 201.409 868.566V868.566C144.541 820.627 63.7735 813.343 -0.755226 850.331L-170.994 947.915" stroke="#14112C" stroke-opacity="0.1" stroke-width="1.5"/>
<path d="M1822.88 549.75L1668.57 461.882C1591.58 418.039 1496.61 420.549 1422.04 468.399L1419.18 470.234C1343.49 518.798 1246.61 519.441 1170.29 471.887L1155.27 462.527C1085.22 418.884 995.889 421.246 928.247 468.531V468.531C858.27 517.448 765.374 518.142 694.674 470.276L688.388 466.02C620.118 419.8 531.559 416.241 459.8 456.833L402.697 489.134C338.281 525.573 257.996 518.101 201.409 470.401V470.401C144.541 422.462 63.7735 415.178 -0.755226 452.167L-170.994 549.75" stroke="#14112C" stroke-opacity="0.1" stroke-width="1.5"/>
<path d="M1822.88 1147L1668.57 1059.13C1591.58 1015.29 1496.61 1017.8 1422.04 1065.65L1419.18 1067.48C1343.49 1116.04 1246.61 1116.69 1170.29 1069.13L1155.27 1059.77C1085.22 1016.13 995.889 1018.49 928.247 1065.78V1065.78C858.27 1114.69 765.374 1115.39 694.674 1067.52L688.388 1063.27C620.118 1017.05 531.559 1013.49 459.8 1054.08L402.697 1086.38C338.281 1122.82 257.996 1115.35 201.409 1067.65V1067.65C144.541 1019.71 63.7735 1012.42 -0.755226 1049.41L-170.994 1147" stroke="#14112C" stroke-opacity="0.1" stroke-width="1.5"/>
<path d="M1822.88 12.23L1668.57 -75.6379C1591.58 -119.481 1496.61 -116.97 1422.04 -69.1206L1419.18 -67.286C1343.49 -18.7224 1246.61 -18.0788 1170.29 -65.6326L1155.27 -74.9931C1085.22 -118.636 995.889 -116.274 928.247 -68.9892V-68.9892C858.27 -20.0723 765.374 -19.3782 694.674 -67.2441L688.388 -71.4996C620.118 -117.72 531.559 -121.279 459.8 -80.6873L402.697 -48.3859C338.281 -11.947 257.996 -19.4189 201.409 -67.1191V-67.1191C144.541 -115.057 63.7735 -122.342 -0.755226 -85.3534L-170.994 12.23" stroke="#14112C" stroke-opacity="0.1" stroke-width="1.5"/>
<path d="M1822.88 609.475L1668.57 521.607C1591.58 477.764 1496.61 480.274 1422.04 528.124L1419.18 529.959C1343.49 578.522 1246.61 579.166 1170.29 531.612L1155.27 522.252C1085.22 478.608 995.889 480.971 928.247 528.255V528.255C858.27 577.172 765.374 577.866 694.674 530.001L688.388 525.745C620.118 479.525 531.559 475.965 459.8 516.557L402.697 548.859C338.281 585.298 257.996 577.826 201.409 530.126V530.126C144.541 482.187 63.7735 474.902 -0.755226 511.891L-170.994 609.475" stroke="#14112C" stroke-opacity="0.1" stroke-width="1.5"/>
<path d="M1822.88 211.311L1668.57 123.443C1591.58 79.6001 1496.61 82.1106 1422.04 129.96L1419.18 131.795C1343.49 180.359 1246.61 181.002 1170.29 133.448L1155.27 124.088C1085.22 80.4447 995.889 82.8072 928.247 130.092V130.092C858.27 179.009 765.374 179.703 694.674 131.837L688.388 127.581C620.118 81.3612 531.559 77.8017 459.8 118.394L402.697 150.695C338.281 187.134 257.996 179.662 201.409 131.962V131.962C144.541 84.0236 63.7735 76.7388 -0.755226 113.728L-170.994 211.311" stroke="#14112C" stroke-opacity="0.1" stroke-width="1.5"/>
<path d="M1822.88 808.557L1668.57 720.689C1591.58 676.846 1496.61 679.357 1422.04 727.206L1419.18 729.041C1343.49 777.605 1246.61 778.248 1170.29 730.694L1155.27 721.334C1085.22 677.691 995.889 680.053 928.247 727.338V727.338C858.27 776.255 765.374 776.949 694.674 729.083L688.388 724.827C620.118 678.607 531.559 675.048 459.8 715.64L402.697 747.941C338.281 784.38 257.996 776.908 201.409 729.208V729.208C144.541 681.27 63.7735 673.985 -0.755226 710.974L-170.994 808.557" stroke="#14112C" stroke-opacity="0.1" stroke-width="1.5"/>
<path d="M1822.88 410.392L1668.57 322.524C1591.58 278.681 1496.61 281.192 1422.04 329.042L1419.18 330.876C1343.49 379.44 1246.61 380.083 1170.29 332.53L1155.27 323.169C1085.22 279.526 995.889 281.888 928.247 329.173V329.173C858.27 378.09 765.374 378.784 694.674 330.918L688.388 326.663C620.118 280.442 531.559 276.883 459.8 317.475L402.697 349.776C338.281 386.215 257.996 378.743 201.409 331.043V331.043C144.541 283.105 63.7735 275.82 -0.755226 312.809L-170.994 410.392" stroke="#14112C" stroke-opacity="0.1" stroke-width="1.5"/>
<path d="M1822.88 1007.64L1668.57 919.772C1591.58 875.929 1496.61 878.439 1422.04 926.289L1419.18 928.123C1343.49 976.687 1246.61 977.331 1170.29 929.777L1155.27 920.416C1085.22 876.773 995.889 879.136 928.247 926.42V926.42C858.27 975.337 765.374 976.031 694.674 928.165L688.388 923.91C620.118 877.69 531.559 874.13 459.8 914.722L402.697 947.024C338.281 983.463 257.996 975.991 201.409 928.29V928.29C144.541 880.352 63.7735 873.067 -0.755226 910.056L-170.994 1007.64" stroke="#14112C" stroke-opacity="0.1" stroke-width="1.5"/>
<path d="M1822.88 62.0003L1668.57 -25.8677C1591.58 -69.7107 1496.61 -67.2002 1422.04 -19.3504L1419.18 -17.5158C1343.49 31.0479 1246.61 31.6915 1170.29 -15.8623L1155.27 -25.2228C1085.22 -68.8661 995.889 -66.5036 928.247 -19.219V-19.219C858.27 29.698 765.374 30.3921 694.674 -17.4738L688.388 -21.7293C620.118 -67.9496 531.559 -71.5091 459.8 -30.9171L402.697 1.3844C338.281 37.8233 257.996 30.3514 201.409 -17.3489V-17.3489C144.541 -65.2872 63.7735 -72.572 -0.755226 -35.5831L-170.994 62.0003" stroke="#14112C" stroke-opacity="0.1" stroke-width="1.5"/>
<path d="M1822.88 659.245L1668.57 571.377C1591.58 527.534 1496.61 530.045 1422.04 577.895L1419.18 579.729C1343.49 628.293 1246.61 628.936 1170.29 581.383L1155.27 572.022C1085.22 528.379 995.889 530.741 928.247 578.026V578.026C858.27 626.943 765.374 627.637 694.674 579.771L688.388 575.516C620.118 529.295 531.559 525.736 459.8 566.328L402.697 598.629C338.281 635.068 257.996 627.596 201.409 579.896V579.896C144.541 531.958 63.7735 524.673 -0.755226 561.662L-170.994 659.245" stroke="#14112C" stroke-opacity="0.1" stroke-width="1.5"/>
<path d="M1822.88 261.081L1668.57 173.213C1591.58 129.37 1496.61 131.881 1422.04 179.731L1419.18 181.565C1343.49 230.129 1246.61 230.773 1170.29 183.219L1155.27 173.858C1085.22 130.215 995.889 132.577 928.247 179.862V179.862C858.27 228.779 765.374 229.473 694.674 181.607L688.388 177.352C620.118 131.131 531.559 127.572 459.8 168.164L402.697 200.465C338.281 236.904 257.996 229.432 201.409 181.732V181.732C144.541 133.794 63.7735 126.509 -0.755226 163.498L-170.994 261.081" stroke="#14112C" stroke-opacity="0.1" stroke-width="1.5"/>
<path d="M1822.88 858.328L1668.57 770.46C1591.58 726.617 1496.61 729.127 1422.04 776.977L1419.18 778.812C1343.49 827.375 1246.61 828.019 1170.29 780.465L1155.27 771.105C1085.22 727.461 995.889 729.824 928.247 777.108V777.108C858.27 826.025 765.374 826.719 694.674 778.854L688.388 774.598C620.118 728.378 531.559 724.818 459.8 765.41L402.697 797.712C338.281 834.151 257.996 826.679 201.409 778.979V778.979C144.541 731.04 63.7735 723.755 -0.755226 760.744L-170.994 858.328" stroke="#14112C" stroke-opacity="0.1" stroke-width="1.5"/>
<path d="M1822.88 460.163L1668.57 372.295C1591.58 328.452 1496.61 330.962 1422.04 378.812L1419.18 380.647C1343.49 429.21 1246.61 429.854 1170.29 382.3L1155.27 372.94C1085.22 329.297 995.889 331.659 928.247 378.944V378.944C858.27 427.861 765.374 428.555 694.674 380.689L688.388 376.433C620.118 330.213 531.559 326.653 459.8 367.246L402.697 399.547C338.281 435.986 257.996 428.514 201.409 380.814V380.814C144.541 332.875 63.7735 325.591 -0.755226 362.579L-170.994 460.163" stroke="#14112C" stroke-opacity="0.1" stroke-width="1.5"/>
<path d="M1822.88 1057.41L1668.57 969.542C1591.58 925.699 1496.61 928.21 1422.04 976.059L1419.18 977.894C1343.49 1026.46 1246.61 1027.1 1170.29 979.547L1155.27 970.187C1085.22 926.544 995.889 928.906 928.247 976.191V976.191C858.27 1025.11 765.374 1025.8 694.674 977.936L688.388 973.68C620.118 927.46 531.559 923.901 459.8 964.493L402.697 996.794C338.281 1033.23 257.996 1025.76 201.409 978.061V978.061C144.541 930.123 63.7735 922.838 -0.755226 959.827L-170.994 1057.41" stroke="#14112C" stroke-opacity="0.1" stroke-width="1.5"/>
<path d="M1822.88 111.771L1668.57 23.9026C1591.58 -19.9404 1496.61 -17.4299 1422.04 30.4199L1419.18 32.2545C1343.49 80.8181 1246.61 81.4618 1170.29 33.9079L1155.27 24.5475C1085.22 -19.0958 995.889 -16.7333 928.247 30.5513V30.5513C858.27 79.4682 765.374 80.1623 694.674 32.2965L688.388 28.041C620.118 -18.1793 531.559 -21.7388 459.8 18.8532L402.697 51.1547C338.281 87.5936 257.996 80.1217 201.409 32.4214V32.4214C144.541 -15.5169 63.7735 -22.8018 -0.755226 14.1871L-170.994 111.771" stroke="#14112C" stroke-opacity="0.1" stroke-width="1.5"/>
<path d="M1822.88 709.016L1668.57 621.148C1591.58 577.305 1496.61 579.815 1422.04 627.665L1419.18 629.5C1343.49 678.063 1246.61 678.707 1170.29 631.153L1155.27 621.793C1085.22 578.15 995.889 580.512 928.247 627.797V627.797C858.27 676.714 765.374 677.408 694.674 629.542L688.388 625.286C620.118 579.066 531.559 575.506 459.8 616.099L402.697 648.4C338.281 684.839 257.996 677.367 201.409 629.667V629.667C144.541 581.728 63.7735 574.444 -0.755226 611.432L-170.994 709.016" stroke="#14112C" stroke-opacity="0.1" stroke-width="1.5"/>
<path d="M1822.88 310.852L1668.57 222.984C1591.58 179.141 1496.61 181.651 1422.04 229.501L1419.18 231.336C1343.49 279.899 1246.61 280.543 1170.29 232.989L1155.27 223.629C1085.22 179.985 995.889 182.348 928.247 229.632V229.632C858.27 278.549 765.374 279.243 694.674 231.378L688.388 227.122C620.118 180.902 531.559 177.342 459.8 217.934L402.697 250.236C338.281 286.675 257.996 279.203 201.409 231.502V231.502C144.541 183.564 63.7735 176.279 -0.755226 213.268L-170.994 310.852" stroke="#14112C" stroke-opacity="0.1" stroke-width="1.5"/>
<path d="M1822.88 908.098L1668.57 820.23C1591.58 776.387 1496.61 778.898 1422.04 826.748L1419.18 828.582C1343.49 877.146 1246.61 877.79 1170.29 830.236L1155.27 820.875C1085.22 777.232 995.889 779.594 928.247 826.879V826.879C858.27 875.796 765.374 876.49 694.674 828.624L688.388 824.369C620.118 778.148 531.559 774.589 459.8 815.181L402.697 847.482C338.281 883.921 257.996 876.449 201.409 828.749V828.749C144.541 780.811 63.7735 773.526 -0.755226 810.515L-170.994 908.098" stroke="#14112C" stroke-opacity="0.1" stroke-width="1.5"/>
<path d="M1822.88 509.934L1668.57 422.066C1591.58 378.223 1496.61 380.733 1422.04 428.583L1419.18 430.417C1343.49 478.981 1246.61 479.625 1170.29 432.071L1155.27 422.71C1085.22 379.067 995.889 381.43 928.247 428.714V428.714C858.27 477.631 765.374 478.325 694.674 430.459L688.388 426.204C620.118 379.984 531.559 376.424 459.8 417.016L402.697 449.318C338.281 485.757 257.996 478.285 201.409 430.584V430.584C144.541 382.646 63.7735 375.361 -0.755226 412.35L-170.994 509.934" stroke="#14112C" stroke-opacity="0.1" stroke-width="1.5"/>
<path d="M1822.88 1107.18L1668.57 1019.31C1591.58 975.47 1496.61 977.98 1422.04 1025.83L1419.18 1027.66C1343.49 1076.23 1246.61 1076.87 1170.29 1029.32L1155.27 1019.96C1085.22 976.314 995.889 978.677 928.247 1025.96V1025.96C858.27 1074.88 765.374 1075.57 694.674 1027.71L688.388 1023.45C620.118 977.231 531.559 973.671 459.8 1014.26L402.697 1046.56C338.281 1083 257.996 1075.53 201.409 1027.83V1027.83C144.541 979.893 63.7735 972.608 -0.755226 1009.6L-170.994 1107.18" stroke="#14112C" stroke-opacity="0.1" stroke-width="1.5"/>
<path d="M1822.88 161.541L1668.57 73.6729C1591.58 29.8298 1496.61 32.3403 1422.04 80.1902L1419.18 82.0248C1343.49 130.588 1246.61 131.232 1170.29 83.6782L1155.27 74.3177C1085.22 30.6744 995.889 33.0369 928.247 80.3216V80.3216C858.27 129.238 765.374 129.933 694.674 82.0667L688.388 77.8112C620.118 31.5909 531.559 28.0314 459.8 68.6235L402.697 100.925C338.281 137.364 257.996 129.892 201.409 82.1916V82.1916C144.541 34.2533 63.7735 26.9685 -0.755226 63.9574L-170.994 161.541" stroke="#14112C" stroke-opacity="0.1" stroke-width="1.5"/>
<path d="M1822.88 758.787L1668.57 670.919C1591.58 627.076 1496.61 629.586 1422.04 677.436L1419.18 679.27C1343.49 727.834 1246.61 728.478 1170.29 680.924L1155.27 671.563C1085.22 627.92 995.889 630.283 928.247 677.567V677.567C858.27 726.484 765.374 727.178 694.674 679.312L688.388 675.057C620.118 628.837 531.559 625.277 459.8 665.869L402.697 698.171C338.281 734.61 257.996 727.138 201.409 679.437V679.437C144.541 631.499 63.7735 624.214 -0.755226 661.203L-170.994 758.787" stroke="#14112C" stroke-opacity="0.1" stroke-width="1.5"/>
<path d="M1822.88 360.622L1668.57 272.754C1591.58 228.911 1496.61 231.421 1422.04 279.271L1419.18 281.106C1343.49 329.669 1246.61 330.313 1170.29 282.759L1155.27 273.399C1085.22 229.756 995.889 232.118 928.247 279.403V279.403C858.27 328.32 765.374 329.014 694.674 281.148L688.388 276.892C620.118 230.672 531.559 227.112 459.8 267.705L402.697 300.006C338.281 336.445 257.996 328.973 201.409 281.273V281.273C144.541 233.334 63.7735 226.05 -0.755226 263.038L-170.994 360.622" stroke="#14112C" stroke-opacity="0.1" stroke-width="1.5"/>
<path d="M1822.88 957.869L1668.57 870.001C1591.58 826.158 1496.61 828.668 1422.04 876.518L1419.18 878.353C1343.49 926.916 1246.61 927.56 1170.29 880.006L1155.27 870.646C1085.22 827.003 995.889 829.365 928.247 876.65V876.65C858.27 925.567 765.374 926.261 694.674 878.395L688.388 874.139C620.118 827.919 531.559 824.36 459.8 864.952L402.697 897.253C338.281 933.692 257.996 926.22 201.409 878.52V878.52C144.541 830.581 63.7735 823.297 -0.755226 860.285L-170.994 957.869" stroke="#14112C" stroke-opacity="0.1" stroke-width="1.5"/>
<path d="M1822.88 559.704L1668.57 471.836C1591.58 427.993 1496.61 430.504 1422.04 478.353L1419.18 480.188C1343.49 528.752 1246.61 529.395 1170.29 481.841L1155.27 472.481C1085.22 428.838 995.889 431.2 928.247 478.485V478.485C858.27 527.402 765.374 528.096 694.674 480.23L688.388 475.974C620.118 429.754 531.559 426.195 459.8 466.787L402.697 499.088C338.281 535.527 257.996 528.055 201.409 480.355V480.355C144.541 432.417 63.7735 425.132 -0.755226 462.121L-170.994 559.704" stroke="#14112C" stroke-opacity="0.1" stroke-width="1.5"/>
<path d="M1822.88 1156.95L1668.57 1069.08C1591.58 1025.24 1496.61 1027.75 1422.04 1075.6L1419.18 1077.44C1343.49 1126 1246.61 1126.64 1170.29 1079.09L1155.27 1069.73C1085.22 1026.08 995.889 1028.45 928.247 1075.73V1075.73C858.27 1124.65 765.374 1125.34 694.674 1077.48L688.388 1073.22C620.118 1027 531.559 1023.44 459.8 1064.03L402.697 1096.34C338.281 1132.77 257.996 1125.3 201.409 1077.6V1077.6C144.541 1029.66 63.7735 1022.38 -0.755226 1059.37L-170.994 1156.95" stroke="#14112C" stroke-opacity="0.1" stroke-width="1.5"/>
<path d="M1822.88 22.1841L1668.57 -65.6839C1591.58 -109.527 1496.61 -107.016 1422.04 -59.1666L1419.18 -57.332C1343.49 -8.76835 1246.61 -8.12472 1170.29 -55.6785L1155.27 -65.039C1085.22 -108.682 995.889 -106.32 928.247 -59.0352V-59.0352C858.27 -10.1182 765.374 -9.42416 694.674 -57.29L688.388 -61.5455C620.118 -107.766 531.559 -111.325 459.8 -70.7333L402.697 -38.4318C338.281 -1.9929 257.996 -9.46481 201.409 -57.1651V-57.1651C144.541 -105.103 63.7735 -112.388 -0.755226 -75.3993L-170.994 22.1841" stroke="#14112C" stroke-opacity="0.1" stroke-width="1.5"/>
<path d="M1822.88 619.429L1668.57 531.561C1591.58 487.718 1496.61 490.228 1422.04 538.078L1419.18 539.913C1343.49 588.476 1246.61 589.12 1170.29 541.566L1155.27 532.206C1085.22 488.562 995.889 490.925 928.247 538.21V538.21C858.27 587.126 765.374 587.821 694.674 539.955L688.388 535.699C620.118 489.479 531.559 485.919 459.8 526.511L402.697 558.813C338.281 595.252 257.996 587.78 201.409 540.08V540.08C144.541 492.141 63.7735 484.856 -0.755226 521.845L-170.994 619.429" stroke="#14112C" stroke-opacity="0.1" stroke-width="1.5"/>
<path d="M1822.88 221.265L1668.57 133.397C1591.58 89.5542 1496.61 92.0647 1422.04 139.914L1419.18 141.749C1343.49 190.313 1246.61 190.956 1170.29 143.403L1155.27 134.042C1085.22 90.3988 995.889 92.7613 928.247 140.046V140.046C858.27 188.963 765.374 189.657 694.674 141.791L688.388 137.536C620.118 91.3153 531.559 87.7557 459.8 128.348L402.697 160.649C338.281 197.088 257.996 189.616 201.409 141.916V141.916C144.541 93.9776 63.7735 86.6928 -0.755226 123.682L-170.994 221.265" stroke="#14112C" stroke-opacity="0.1" stroke-width="1.5"/>
<path d="M1822.88 818.511L1668.57 730.643C1591.58 686.8 1496.61 689.311 1422.04 737.161L1419.18 738.995C1343.49 787.559 1246.61 788.202 1170.29 740.649L1155.27 731.288C1085.22 687.645 995.889 690.007 928.247 737.292V737.292C858.27 786.209 765.374 786.903 694.674 739.037L688.388 734.782C620.118 688.561 531.559 685.002 459.8 725.594L402.697 757.895C338.281 794.334 257.996 786.862 201.409 739.162V739.162C144.541 691.224 63.7735 683.939 -0.755226 720.928L-170.994 818.511" stroke="#14112C" stroke-opacity="0.1" stroke-width="1.5"/>
<path d="M1822.88 420.346L1668.57 332.478C1591.58 288.635 1496.61 291.146 1422.04 338.996L1419.18 340.83C1343.49 389.394 1246.61 390.038 1170.29 342.484L1155.27 333.123C1085.22 289.48 995.889 291.843 928.247 339.127V339.127C858.27 388.044 765.374 388.738 694.674 340.872L688.388 336.617C620.118 290.397 531.559 286.837 459.8 327.429L402.697 359.73C338.281 396.169 257.996 388.697 201.409 340.997V340.997C144.541 293.059 63.7735 285.774 -0.755226 322.763L-170.994 420.346" stroke="#14112C" stroke-opacity="0.1" stroke-width="1.5"/>
<path d="M1822.88 1017.59L1668.57 929.726C1591.58 885.883 1496.61 888.393 1422.04 936.243L1419.18 938.078C1343.49 986.641 1246.61 987.285 1170.29 939.731L1155.27 930.371C1085.22 886.727 995.889 889.09 928.247 936.374V936.374C858.27 985.291 765.374 985.985 694.674 938.12L688.388 933.864C620.118 887.644 531.559 884.084 459.8 924.676L402.697 956.978C338.281 993.417 257.996 985.945 201.409 938.244V938.244C144.541 890.306 63.7735 883.021 -0.755226 920.01L-170.994 1017.59" stroke="#14112C" stroke-opacity="0.1" stroke-width="1.5"/>
<path d="M1822.88 71.9544L1668.57 -15.9136C1591.58 -59.7566 1496.61 -57.2461 1422.04 -9.39631L1419.18 -7.56172C1343.49 41.0019 1246.61 41.6455 1170.29 -5.90829L1155.27 -15.2688C1085.22 -58.912 995.889 -56.5495 928.247 -9.26492V-9.26492C858.27 39.652 765.374 40.3461 694.674 -7.51974L688.388 -11.7753C620.118 -57.9955 531.559 -61.5551 459.8 -20.963L402.697 11.3384C338.281 47.7774 257.996 40.3054 201.409 -7.39483V-7.39483C144.541 -55.3332 63.7735 -62.618 -0.755226 -25.6291L-170.994 71.9544" stroke="#14112C" stroke-opacity="0.1" stroke-width="1.5"/>
<path d="M1822.88 669.199L1668.57 581.331C1591.58 537.488 1496.61 539.999 1422.04 587.849L1419.18 589.683C1343.49 638.247 1246.61 638.891 1170.29 591.337L1155.27 581.976C1085.22 538.333 995.889 540.696 928.247 587.98V587.98C858.27 636.897 765.374 637.591 694.674 589.725L688.388 585.47C620.118 539.25 531.559 535.69 459.8 576.282L402.697 608.584C338.281 645.022 257.996 637.551 201.409 589.85V589.85C144.541 541.912 63.7735 534.627 -0.755226 571.616L-170.994 669.199" stroke="#14112C" stroke-opacity="0.1" stroke-width="1.5"/>
<path d="M1822.88 271.035L1668.57 183.167C1591.58 139.324 1496.61 141.835 1422.04 189.685L1419.18 191.519C1343.49 240.083 1246.61 240.727 1170.29 193.173L1155.27 183.812C1085.22 140.169 995.889 142.532 928.247 189.816V189.816C858.27 238.733 765.374 239.427 694.674 191.561L688.388 187.306C620.118 141.086 531.559 137.526 459.8 178.118L402.697 210.419C338.281 246.858 257.996 239.386 201.409 191.686V191.686C144.541 143.748 63.7735 136.463 -0.755226 173.452L-170.994 271.035" stroke="#14112C" stroke-opacity="0.1" stroke-width="1.5"/>
<path d="M1822.88 868.282L1668.57 780.414C1591.58 736.571 1496.61 739.081 1422.04 786.931L1419.18 788.766C1343.49 837.329 1246.61 837.973 1170.29 790.419L1155.27 781.059C1085.22 737.415 995.889 739.778 928.247 787.063V787.063C858.27 835.979 765.374 836.674 694.674 788.808L688.388 784.552C620.118 738.332 531.559 734.772 459.8 775.364L402.697 807.666C338.281 844.105 257.996 836.633 201.409 788.933V788.933C144.541 740.994 63.7735 733.71 -0.755226 770.698L-170.994 868.282" stroke="#14112C" stroke-opacity="0.1" stroke-width="1.5"/>
<path d="M1822.88 470.117L1668.57 382.249C1591.58 338.406 1496.61 340.917 1422.04 388.766L1419.18 390.601C1343.49 439.165 1246.61 439.808 1170.29 392.254L1155.27 382.894C1085.22 339.251 995.889 341.613 928.247 388.898V388.898C858.27 437.815 765.374 438.509 694.674 390.643L688.388 386.387C620.118 340.167 531.559 336.608 459.8 377.2L402.697 409.501C338.281 445.94 257.996 438.468 201.409 390.768V390.768C144.541 342.829 63.7735 335.545 -0.755226 372.534L-170.994 470.117" stroke="#14112C" stroke-opacity="0.1" stroke-width="1.5"/>
<path d="M1822.88 1067.36L1668.57 979.496C1591.58 935.653 1496.61 938.164 1422.04 986.014L1419.18 987.848C1343.49 1036.41 1246.61 1037.06 1170.29 989.502L1155.27 980.141C1085.22 936.498 995.889 938.86 928.247 986.145V986.145C858.27 1035.06 765.374 1035.76 694.674 987.89L688.388 983.635C620.118 937.414 531.559 933.855 459.8 974.447L402.697 1006.75C338.281 1043.19 257.996 1035.72 201.409 988.015V988.015C144.541 940.077 63.7735 932.792 -0.755226 969.781L-170.994 1067.36" stroke="#14112C" stroke-opacity="0.1" stroke-width="1.5"/>
<path d="M1822.88 121.725L1668.57 33.8566C1591.58 -9.98638 1496.61 -7.47587 1422.04 40.374L1419.18 42.2085C1343.49 90.7722 1246.61 91.4158 1170.29 43.862L1155.27 34.5015C1085.22 -9.14177 995.889 -6.77928 928.247 40.5053V40.5053C858.27 89.4223 765.374 90.1164 694.674 42.2505L688.388 37.995C620.118 -8.22529 531.559 -11.7848 459.8 28.8072L402.697 61.1087C338.281 97.5476 257.996 90.0757 201.409 42.3754V42.3754C144.541 -5.5629 63.7735 -12.8477 -0.755226 24.1412L-170.994 121.725" stroke="#14112C" stroke-opacity="0.1" stroke-width="1.5"/>
<path d="M1822.88 718.97L1668.57 631.102C1591.58 587.259 1496.61 589.77 1422.04 637.619L1419.18 639.454C1343.49 688.018 1246.61 688.661 1170.29 641.107L1155.27 631.747C1085.22 588.104 995.889 590.466 928.247 637.751V637.751C858.27 686.668 765.374 687.362 694.674 639.496L688.388 635.24C620.118 589.02 531.559 585.461 459.8 626.053L402.697 658.354C338.281 694.793 257.996 687.321 201.409 639.621V639.621C144.541 591.682 63.7735 584.398 -0.755226 621.387L-170.994 718.97" stroke="#14112C" stroke-opacity="0.1" stroke-width="1.5"/>
<path d="M1822.88 320.806L1668.57 232.938C1591.58 189.095 1496.61 191.605 1422.04 239.455L1419.18 241.29C1343.49 289.853 1246.61 290.497 1170.29 242.943L1155.27 233.583C1085.22 189.939 995.889 192.302 928.247 239.586V239.586C858.27 288.503 765.374 289.197 694.674 241.332L688.388 237.076C620.118 190.856 531.559 187.296 459.8 227.888L402.697 260.19C338.281 296.629 257.996 289.157 201.409 241.456V241.456C144.541 193.518 63.7735 186.233 -0.755226 223.222L-170.994 320.806" stroke="#14112C" stroke-opacity="0.1" stroke-width="1.5"/>
<path d="M1822.88 918.052L1668.57 830.184C1591.58 786.341 1496.61 788.852 1422.04 836.702L1419.18 838.536C1343.49 887.1 1246.61 887.744 1170.29 840.19L1155.27 830.829C1085.22 787.186 995.889 789.549 928.247 836.833V836.833C858.27 885.75 765.374 886.444 694.674 838.578L688.388 834.323C620.118 788.103 531.559 784.543 459.8 825.135L402.697 857.437C338.281 893.875 257.996 886.404 201.409 838.703V838.703C144.541 790.765 63.7735 783.48 -0.755226 820.469L-170.994 918.052" stroke="#14112C" stroke-opacity="0.1" stroke-width="1.5"/>
<path d="M1822.88 519.888L1668.57 432.02C1591.58 388.177 1496.61 390.687 1422.04 438.537L1419.18 440.372C1343.49 488.935 1246.61 489.579 1170.29 442.025L1155.27 432.664C1085.22 389.021 995.889 391.384 928.247 438.668V438.668C858.27 487.585 765.374 488.279 694.674 440.414L688.388 436.158C620.118 389.938 531.559 386.378 459.8 426.97L402.697 459.272C338.281 495.711 257.996 488.239 201.409 440.538V440.538C144.541 392.6 63.7735 385.315 -0.755226 422.304L-170.994 519.888" stroke="#14112C" stroke-opacity="0.1" stroke-width="1.5"/>
<path d="M1822.88 1117.13L1668.57 1029.27C1591.58 985.424 1496.61 987.934 1422.04 1035.78L1419.18 1037.62C1343.49 1086.18 1246.61 1086.83 1170.29 1039.27L1155.27 1029.91C1085.22 986.269 995.889 988.631 928.247 1035.92V1035.92C858.27 1084.83 765.374 1085.53 694.674 1037.66L688.388 1033.41C620.118 987.185 531.559 983.626 459.8 1024.22L402.697 1056.52C338.281 1092.96 257.996 1085.49 201.409 1037.79V1037.79C144.541 989.847 63.7735 982.563 -0.755226 1019.55L-170.994 1117.13" stroke="#14112C" stroke-opacity="0.1" stroke-width="1.5"/>
<path d="M1822.88 171.495L1668.57 83.6269C1591.58 39.7839 1496.61 42.2944 1422.04 90.1442L1419.18 91.9788C1343.49 140.542 1246.61 141.186 1170.29 93.6322L1155.27 84.2718C1085.22 40.6285 995.889 42.991 928.247 90.2756V90.2756C858.27 139.193 765.374 139.887 694.674 92.0208L688.388 87.7653C620.118 41.545 531.559 37.9855 459.8 78.5775L402.697 110.879C338.281 147.318 257.996 139.846 201.409 92.1457V92.1457C144.541 44.2074 63.7735 36.9226 -0.755226 73.9114L-170.994 171.495" stroke="#14112C" stroke-opacity="0.1" stroke-width="1.5"/>
<path d="M1822.88 768.741L1668.57 680.873C1591.58 637.03 1496.61 639.54 1422.04 687.39L1419.18 689.225C1343.49 737.788 1246.61 738.432 1170.29 690.878L1155.27 681.518C1085.22 637.874 995.889 640.237 928.247 687.521V687.521C858.27 736.438 765.374 737.132 694.674 689.267L688.388 685.011C620.118 638.791 531.559 635.231 459.8 675.823L402.697 708.125C338.281 744.564 257.996 737.092 201.409 689.391V689.391C144.541 641.453 63.7735 634.168 -0.755226 671.157L-170.994 768.741" stroke="#14112C" stroke-opacity="0.1" stroke-width="1.5"/>
<path d="M1822.88 370.576L1668.57 282.708C1591.58 238.865 1496.61 241.375 1422.04 289.225L1419.18 291.06C1343.49 339.623 1246.61 340.267 1170.29 292.713L1155.27 283.353C1085.22 239.71 995.889 242.072 928.247 289.357V289.357C858.27 338.274 765.374 338.968 694.674 291.102L688.388 286.846C620.118 240.626 531.559 237.067 459.8 277.659L402.697 309.96C338.281 346.399 257.996 338.927 201.409 291.227V291.227C144.541 243.288 63.7735 236.004 -0.755226 272.992L-170.994 370.576" stroke="#14112C" stroke-opacity="0.1" stroke-width="1.5"/>
<path d="M1822.88 967.823L1668.57 879.955C1591.58 836.112 1496.61 838.623 1422.04 886.472L1419.18 888.307C1343.49 936.871 1246.61 937.514 1170.29 889.96L1155.27 880.6C1085.22 836.957 995.889 839.319 928.247 886.604V886.604C858.27 935.521 765.374 936.215 694.674 888.349L688.388 884.093C620.118 837.873 531.559 834.314 459.8 874.906L402.697 907.207C338.281 943.646 257.996 936.174 201.409 888.474V888.474C144.541 840.536 63.7735 833.251 -0.755226 870.24L-170.994 967.823" stroke="#14112C" stroke-opacity="0.1" stroke-width="1.5"/>
<path d="M1822.88 569.658L1668.57 481.79C1591.58 437.947 1496.61 440.458 1422.04 488.308L1419.18 490.142C1343.49 538.706 1246.61 539.349 1170.29 491.796L1155.27 482.435C1085.22 438.792 995.889 441.154 928.247 488.439V488.439C858.27 537.356 765.374 538.05 694.674 490.184L688.388 485.929C620.118 439.708 531.559 436.149 459.8 476.741L402.697 509.042C338.281 545.481 257.996 538.009 201.409 490.309V490.309C144.541 442.371 63.7735 435.086 -0.755226 472.075L-170.994 569.658" stroke="#14112C" stroke-opacity="0.1" stroke-width="1.5"/>
<path d="M1822.88 1166.91L1668.57 1079.04C1591.58 1035.19 1496.61 1037.7 1422.04 1085.55L1419.18 1087.39C1343.49 1135.95 1246.61 1136.6 1170.29 1089.04L1155.27 1079.68C1085.22 1036.04 995.889 1038.4 928.247 1085.69V1085.69C858.27 1134.6 765.374 1135.3 694.674 1087.43L688.388 1083.18C620.118 1036.96 531.559 1033.4 459.8 1073.99L402.697 1106.29C338.281 1142.73 257.996 1135.26 201.409 1087.56V1087.56C144.541 1039.62 63.7735 1032.33 -0.755226 1069.32L-170.994 1166.91" stroke="#14112C" stroke-opacity="0.1" stroke-width="1.5"/>
<path d="M1822.88 32.1382L1668.57 -55.7298C1591.58 -99.5728 1496.61 -97.0623 1422.04 -49.2125L1419.18 -47.3779C1343.49 1.1857 1246.61 1.82933 1170.29 -45.7245L1155.27 -55.085C1085.22 -98.7282 995.889 -96.3657 928.247 -49.0811V-49.0811C858.27 -0.164198 765.374 0.529891 694.674 -47.3359L688.388 -51.5915C620.118 -97.8118 531.559 -101.371 459.8 -60.7792L402.697 -28.4778C338.281 7.96114 257.996 0.489234 201.409 -47.211V-47.211C144.541 -95.1494 63.7735 -102.434 -0.755226 -65.4453L-170.994 32.1382" stroke="#14112C" stroke-opacity="0.1" stroke-width="1.5"/>
<path d="M1822.88 629.383L1668.57 541.515C1591.58 497.672 1496.61 500.182 1422.04 548.032L1419.18 549.867C1343.49 598.43 1246.61 599.074 1170.29 551.52L1155.27 542.16C1085.22 498.517 995.889 500.879 928.247 548.164V548.164C858.27 597.081 765.374 597.775 694.674 549.909L688.388 545.653C620.118 499.433 531.559 495.873 459.8 536.466L402.697 568.767C338.281 605.206 257.996 597.734 201.409 550.034V550.034C144.541 502.095 63.7735 494.811 -0.755226 531.799L-170.994 629.383" stroke="#14112C" stroke-opacity="0.1" stroke-width="1.5"/>
<path d="M1822.88 231.219L1668.57 143.351C1591.58 99.5082 1496.61 102.019 1422.04 149.869L1419.18 151.703C1343.49 200.267 1246.61 200.91 1170.29 153.357L1155.27 143.996C1085.22 100.353 995.889 102.715 928.247 150V150C858.27 198.917 765.374 199.611 694.674 151.745L688.388 147.49C620.118 101.269 531.559 97.7098 459.8 138.302L402.697 170.603C338.281 207.042 257.996 199.57 201.409 151.87V151.87C144.541 103.932 63.7735 96.6469 -0.755226 133.636L-170.994 231.219" stroke="#14112C" stroke-opacity="0.1" stroke-width="1.5"/>
<path d="M1822.88 828.465L1668.57 740.597C1591.58 696.754 1496.61 699.265 1422.04 747.115L1419.18 748.949C1343.49 797.513 1246.61 798.157 1170.29 750.603L1155.27 741.242C1085.22 697.599 995.889 699.961 928.247 747.246V747.246C858.27 796.163 765.374 796.857 694.674 748.991L688.388 744.736C620.118 698.515 531.559 694.956 459.8 735.548L402.697 767.849C338.281 804.288 257.996 796.816 201.409 749.116V749.116C144.541 701.178 63.7735 693.893 -0.755226 730.882L-170.994 828.465" stroke="#14112C" stroke-opacity="0.1" stroke-width="1.5"/>
<path d="M1822.88 430.301L1668.57 342.433C1591.58 298.59 1496.61 301.1 1422.04 348.95L1419.18 350.784C1343.49 399.348 1246.61 399.992 1170.29 352.438L1155.27 343.077C1085.22 299.434 995.889 301.797 928.247 349.081V349.081C858.27 397.998 765.374 398.692 694.674 350.826L688.388 346.571C620.118 300.351 531.559 296.791 459.8 337.383L402.697 369.685C338.281 406.124 257.996 398.652 201.409 350.951V350.951C144.541 303.013 63.7735 295.728 -0.755226 332.717L-170.994 430.301" stroke="#14112C" stroke-opacity="0.1" stroke-width="1.5"/>
<path d="M1822.88 1027.55L1668.57 939.68C1591.58 895.837 1496.61 898.347 1422.04 946.197L1419.18 948.032C1343.49 996.595 1246.61 997.239 1170.29 949.685L1155.27 940.325C1085.22 896.681 995.889 899.044 928.247 946.328V946.328C858.27 995.245 765.374 995.94 694.674 948.074L688.388 943.818C620.118 897.598 531.559 894.038 459.8 934.63L402.697 966.932C338.281 1003.37 257.996 995.899 201.409 948.199V948.199C144.541 900.26 63.7735 892.975 -0.755226 929.964L-170.994 1027.55" stroke="#14112C" stroke-opacity="0.1" stroke-width="1.5"/>
<path d="M1822.88 81.9084L1668.57 -5.95956C1591.58 -49.8026 1496.61 -47.2921 1422.04 0.55775L1419.18 2.39233C1343.49 50.956 1246.61 51.5996 1170.29 4.04576L1155.27 -5.3147C1085.22 -48.958 995.889 -46.5955 928.247 0.689139V0.689139C858.27 49.6061 765.374 50.3002 694.674 2.43432L688.388 -1.8212C620.118 -48.0415 531.559 -51.601 459.8 -11.009L402.697 21.2925C338.281 57.7314 257.996 50.2595 201.409 2.55922V2.55922C144.541 -45.3791 63.7735 -52.6639 -0.755226 -15.675L-170.994 81.9084" stroke="#14112C" stroke-opacity="0.1" stroke-width="1.5"/>
<path d="M1822.88 679.154L1668.57 591.286C1591.58 547.443 1496.61 549.953 1422.04 597.803L1419.18 599.637C1343.49 648.201 1246.61 648.845 1170.29 601.291L1155.27 591.93C1085.22 548.287 995.889 550.65 928.247 597.934V597.934C858.27 646.851 765.374 647.545 694.674 599.679L688.388 595.424C620.118 549.204 531.559 545.644 459.8 586.236L402.697 618.538C338.281 654.977 257.996 647.505 201.409 599.804V599.804C144.541 551.866 63.7735 544.581 -0.755226 581.57L-170.994 679.154" stroke="#14112C" stroke-opacity="0.1" stroke-width="1.5"/>
<path d="M1822.88 280.989L1668.57 193.121C1591.58 149.278 1496.61 151.789 1422.04 199.639L1419.18 201.473C1343.49 250.037 1246.61 250.681 1170.29 203.127L1155.27 193.766C1085.22 150.123 995.889 152.486 928.247 199.77V199.77C858.27 248.687 765.374 249.381 694.674 201.515L688.388 197.26C620.118 151.04 531.559 147.48 459.8 188.072L402.697 220.374C338.281 256.812 257.996 249.341 201.409 201.64V201.64C144.541 153.702 63.7735 146.417 -0.755226 183.406L-170.994 280.989" stroke="#14112C" stroke-opacity="0.1" stroke-width="1.5"/>
<path d="M1822.88 878.236L1668.57 790.368C1591.58 746.525 1496.61 749.035 1422.04 796.885L1419.18 798.72C1343.49 847.283 1246.61 847.927 1170.29 800.373L1155.27 791.013C1085.22 747.37 995.889 749.732 928.247 797.017V797.017C858.27 845.934 765.374 846.628 694.674 798.762L688.388 794.506C620.118 748.286 531.559 744.727 459.8 785.319L402.697 817.62C338.281 854.059 257.996 846.587 201.409 798.887V798.887C144.541 750.948 63.7735 743.664 -0.755226 780.652L-170.994 878.236" stroke="#14112C" stroke-opacity="0.1" stroke-width="1.5"/>
<path d="M1822.88 480.071L1668.57 392.203C1591.58 348.36 1496.61 350.871 1422.04 398.72L1419.18 400.555C1343.49 449.119 1246.61 449.762 1170.29 402.208L1155.27 392.848C1085.22 349.205 995.889 351.567 928.247 398.852V398.852C858.27 447.769 765.374 448.463 694.674 400.597L688.388 396.342C620.118 350.121 531.559 346.562 459.8 387.154L402.697 419.455C338.281 455.894 257.996 448.422 201.409 400.722V400.722C144.541 352.784 63.7735 345.499 -0.755226 382.488L-170.994 480.071" stroke="#14112C" stroke-opacity="0.1" stroke-width="1.5"/>
<path d="M1822.88 1077.32L1668.57 989.451C1591.58 945.608 1496.61 948.118 1422.04 995.968L1419.18 997.802C1343.49 1046.37 1246.61 1047.01 1170.29 999.456L1155.27 990.095C1085.22 946.452 995.889 948.815 928.247 996.099V996.099C858.27 1045.02 765.374 1045.71 694.674 997.844L688.388 993.589C620.118 947.369 531.559 943.809 459.8 984.401L402.697 1016.7C338.281 1053.14 257.996 1045.67 201.409 997.969V997.969C144.541 950.031 63.7735 942.746 -0.755226 979.735L-170.994 1077.32" stroke="#14112C" stroke-opacity="0.1" stroke-width="1.5"/>
<path d="M1822.88 131.679L1668.57 43.8107C1591.58 -0.0323233 1496.61 2.47818 1422.04 50.328L1419.18 52.1626C1343.49 100.726 1246.61 101.37 1170.29 53.816L1155.27 44.4556C1085.22 0.812282 995.889 3.17477 928.247 50.4594V50.4594C858.27 99.3763 765.374 100.07 694.674 52.2046L688.388 47.9491C620.118 1.72877 531.559 -1.83075 459.8 38.7613L402.697 71.0628C338.281 107.502 257.996 100.03 201.409 52.3295V52.3295C144.541 4.39116 63.7735 -2.89365 -0.755226 34.0952L-170.994 131.679" stroke="#14112C" stroke-opacity="0.1" stroke-width="1.5"/>
<path d="M1822.88 728.924L1668.57 641.056C1591.58 597.213 1496.61 599.724 1422.04 647.574L1419.18 649.408C1343.49 697.972 1246.61 698.615 1170.29 651.062L1155.27 641.701C1085.22 598.058 995.889 600.42 928.247 647.705V647.705C858.27 696.622 765.374 697.316 694.674 649.45L688.388 645.195C620.118 598.974 531.559 595.415 459.8 636.007L402.697 668.308C338.281 704.747 257.996 697.275 201.409 649.575V649.575C144.541 601.637 63.7735 594.352 -0.755226 631.341L-170.994 728.924" stroke="#14112C" stroke-opacity="0.1" stroke-width="1.5"/>
<path d="M1822.88 330.76L1668.57 242.892C1591.58 199.049 1496.61 201.559 1422.04 249.409L1419.18 251.244C1343.49 299.807 1246.61 300.451 1170.29 252.897L1155.27 243.537C1085.22 199.893 995.889 202.256 928.247 249.54V249.54C858.27 298.457 765.374 299.151 694.674 251.286L688.388 247.03C620.118 200.81 531.559 197.25 459.8 237.842L402.697 270.144C338.281 306.583 257.996 299.111 201.409 251.411V251.411C144.541 203.472 63.7735 196.187 -0.755226 233.176L-170.994 330.76" stroke="#14112C" stroke-opacity="0.1" stroke-width="1.5"/>
<path d="M1822.88 928.007L1668.57 840.139C1591.58 796.296 1496.61 798.806 1422.04 846.656L1419.18 848.49C1343.49 897.054 1246.61 897.698 1170.29 850.144L1155.27 840.783C1085.22 797.14 995.889 799.503 928.247 846.787V846.787C858.27 895.704 765.374 896.398 694.674 848.532L688.388 844.277C620.118 798.057 531.559 794.497 459.8 835.089L402.697 867.391C338.281 903.83 257.996 896.358 201.409 848.657V848.657C144.541 800.719 63.7735 793.434 -0.755226 830.423L-170.994 928.007" stroke="#14112C" stroke-opacity="0.1" stroke-width="1.5"/>
<path d="M1822.88 529.842L1668.57 441.974C1591.58 398.131 1496.61 400.641 1422.04 448.491L1419.18 450.326C1343.49 498.889 1246.61 499.533 1170.29 451.979L1155.27 442.619C1085.22 398.975 995.889 401.338 928.247 448.622V448.622C858.27 497.539 765.374 498.234 694.674 450.368L688.388 446.112C620.118 399.892 531.559 396.332 459.8 436.924L402.697 469.226C338.281 505.665 257.996 498.193 201.409 450.493V450.493C144.541 402.554 63.7735 395.269 -0.755226 432.258L-170.994 529.842" stroke="#14112C" stroke-opacity="0.1" stroke-width="1.5"/>
<path d="M1822.88 1127.09L1668.57 1039.22C1591.58 995.378 1496.61 997.889 1422.04 1045.74L1419.18 1047.57C1343.49 1096.14 1246.61 1096.78 1170.29 1049.23L1155.27 1039.87C1085.22 996.223 995.889 998.585 928.247 1045.87V1045.87C858.27 1094.79 765.374 1095.48 694.674 1047.61L688.388 1043.36C620.118 997.139 531.559 993.58 459.8 1034.17L402.697 1066.47C338.281 1102.91 257.996 1095.44 201.409 1047.74V1047.74C144.541 999.802 63.7735 992.517 -0.755226 1029.51L-170.994 1127.09" stroke="#14112C" stroke-opacity="0.1" stroke-width="1.5"/>
<path d="M1822.88 181.449L1668.57 93.581C1591.58 49.7379 1496.61 52.2484 1422.04 100.098L1419.18 101.933C1343.49 150.496 1246.61 151.14 1170.29 103.586L1155.27 94.2258C1085.22 50.5825 995.889 52.945 928.247 100.23V100.23C858.27 149.147 765.374 149.841 694.674 101.975L688.388 97.7193C620.118 51.499 531.559 47.9395 459.8 88.5316L402.697 120.833C338.281 157.272 257.996 149.8 201.409 102.1V102.1C144.541 54.1614 63.7735 46.8766 -0.755226 83.8655L-170.994 181.449" stroke="#14112C" stroke-opacity="0.1" stroke-width="1.5"/>
<path d="M1822.88 778.695L1668.57 690.827C1591.58 646.984 1496.61 649.494 1422.04 697.344L1419.18 699.179C1343.49 747.742 1246.61 748.386 1170.29 700.832L1155.27 691.472C1085.22 647.828 995.889 650.191 928.247 697.475V697.475C858.27 746.392 765.374 747.086 694.674 699.221L688.388 694.965C620.118 648.745 531.559 645.185 459.8 685.777L402.697 718.079C338.281 754.518 257.996 747.046 201.409 699.346V699.346C144.541 651.407 63.7735 644.122 -0.755226 681.111L-170.994 778.695" stroke="#14112C" stroke-opacity="0.1" stroke-width="1.5"/>
<path d="M1822.88 380.53L1668.57 292.662C1591.58 248.819 1496.61 251.33 1422.04 299.179L1419.18 301.014C1343.49 349.578 1246.61 350.221 1170.29 302.667L1155.27 293.307C1085.22 249.664 995.889 252.026 928.247 299.311V299.311C858.27 348.228 765.374 348.922 694.674 301.056L688.388 296.8C620.118 250.58 531.559 247.021 459.8 287.613L402.697 319.914C338.281 356.353 257.996 348.881 201.409 301.181V301.181C144.541 253.242 63.7735 245.958 -0.755226 282.947L-170.994 380.53" stroke="#14112C" stroke-opacity="0.1" stroke-width="1.5"/>
<path d="M1822.88 977.777L1668.57 889.909C1591.58 846.066 1496.61 848.577 1422.04 896.427L1419.18 898.261C1343.49 946.825 1246.61 947.468 1170.29 899.915L1155.27 890.554C1085.22 846.911 995.889 849.273 928.247 896.558V896.558C858.27 945.475 765.374 946.169 694.674 898.303L688.388 894.048C620.118 847.827 531.559 844.268 459.8 884.86L402.697 917.161C338.281 953.6 257.996 946.128 201.409 898.428V898.428C144.541 850.49 63.7735 843.205 -0.755226 880.194L-170.994 977.777" stroke="#14112C" stroke-opacity="0.1" stroke-width="1.5"/>
<path d="M1822.88 579.612L1668.57 491.744C1591.58 447.901 1496.61 450.412 1422.04 498.262L1419.18 500.096C1343.49 548.66 1246.61 549.304 1170.29 501.75L1155.27 492.389C1085.22 448.746 995.889 451.108 928.247 498.393V498.393C858.27 547.31 765.374 548.004 694.674 500.138L688.388 495.883C620.118 449.662 531.559 446.103 459.8 486.695L402.697 518.996C338.281 555.435 257.996 547.963 201.409 500.263V500.263C144.541 452.325 63.7735 445.04 -0.755226 482.029L-170.994 579.612" stroke="#14112C" stroke-opacity="0.1" stroke-width="1.5"/>
<path d="M1822.88 1176.86L1668.57 1088.99C1591.58 1045.15 1496.61 1047.66 1422.04 1095.51L1419.18 1097.34C1343.49 1145.91 1246.61 1146.55 1170.29 1099L1155.27 1089.64C1085.22 1045.99 995.889 1048.36 928.247 1095.64V1095.64C858.27 1144.56 765.374 1145.25 694.674 1097.39L688.388 1093.13C620.118 1046.91 531.559 1043.35 459.8 1083.94L402.697 1116.24C338.281 1152.68 257.996 1145.21 201.409 1097.51V1097.51C144.541 1049.57 63.7735 1042.29 -0.755226 1079.28L-170.994 1176.86" stroke="#14112C" stroke-opacity="0.1" stroke-width="1.5"/>
<rect width="1905.87" height="993" transform="matrix(-1 0 0 1 1734.88 189.86)" fill="url(#paint0_radial_3009_4355)"/>
<rect width="1730.99" height="1309.9" transform="matrix(-1 0 0 1 1728.24 -127.043)" fill="url(#paint1_radial_3009_4355)"/>
<defs>
<radialGradient id="paint0_radial_3009_4355" cx="0" cy="0" r="1" gradientUnits="userSpaceOnUse" gradientTransform="translate(405.531 537.287) rotate(93.2691) scale(669.312 1284.18)">
<stop stop-color="white"/>
<stop offset="1" stop-color="white" stop-opacity="0.5"/>
</radialGradient>
<radialGradient id="paint1_radial_3009_4355" cx="0" cy="0" r="1" gradientUnits="userSpaceOnUse" gradientTransform="translate(368.32 708.756) rotate(92.2521) scale(882.159 1167.34)">
<stop stop-color="#F8F8F8"/>
<stop offset="1" stop-color="#F8F8F8" stop-opacity="0.5"/>
</radialGradient>
</defs>
</svg>
