<svg width="67" height="67" viewBox="0 0 67 67" fill="none" xmlns="http://www.w3.org/2000/svg">
<path d="M60.4004 53.2722C58.0183 55.6363 55.6904 57.9642 53.3083 60.3644C51.3773 58.9207 49.3923 57.4589 47.4072 55.9792C45.0432 57.5131 42.5347 58.65 39.7917 59.2455C39.6474 59.2816 39.503 59.5523 39.4669 59.7328C39.1421 61.7539 38.8353 63.7751 38.5285 65.7963C38.4924 66.067 38.4383 66.3196 38.3841 66.6083C35.0275 66.6083 31.7071 66.6083 28.2783 66.6083C28.0978 65.2729 27.9174 63.9195 27.7369 62.566C27.6106 61.6096 27.4843 60.6531 27.3218 59.6967C27.2858 59.5162 27.0872 59.2636 26.9248 59.2094C25.6436 58.7402 24.3081 58.3613 23.0449 57.8379C21.7997 57.3146 20.6267 56.6649 19.3455 56.0333C17.4326 57.459 15.4655 58.9207 13.5527 60.3283C11.1345 57.9101 8.75238 55.528 6.2981 53.0737C7.68766 51.215 9.14939 49.248 10.5029 47.4072C9.69078 45.6026 8.89675 43.9063 8.17491 42.1739C7.85008 41.4159 7.65157 40.5858 7.45306 39.7918C7.36283 39.4489 7.23651 39.3226 6.87558 39.2865C4.71005 39.0158 2.54451 38.709 0.378975 38.4203C0.270699 38.4022 0.162415 38.3842 0 38.3481C0 34.9915 0 31.653 0 28.2423C1.71438 27.9716 3.41072 27.5926 5.12511 27.4663C6.49661 27.358 7.23651 26.9068 7.54329 25.4451C8.03054 23.2074 9.07721 21.1862 10.3404 19.2372C8.87871 17.2522 7.39892 15.2851 5.99132 13.3722C8.39145 10.9902 10.7194 8.64416 13.1195 6.24402C15.0144 7.65162 16.9814 9.11336 18.8582 10.5029C20.4102 9.78106 21.908 9.04117 23.4239 8.40956C24.3984 8.01254 25.427 7.72381 26.4376 7.45311C26.8346 7.34484 27.0331 7.20047 27.0873 6.76736C27.3579 4.78229 27.6828 2.79721 27.9896 0.830183C28.0257 0.559491 28.0798 0.306845 28.1339 6.10352e-05C31.4905 6.10352e-05 34.8471 6.10352e-05 38.2578 6.10352e-05C38.4744 1.64226 38.709 3.28446 38.9255 4.92666C39.0157 5.6485 38.9075 6.51472 39.2864 7.02001C39.6293 7.47116 40.5316 7.47116 41.1632 7.74185C43.1664 8.59002 45.1695 9.45623 47.2628 10.3585C49.0855 9.00508 51.0525 7.54334 52.9835 6.1177C55.4197 8.53588 57.8018 10.918 60.238 13.3362C58.7943 15.2851 57.3326 17.2522 55.8528 19.2372C57.4408 21.5111 58.3612 24.0736 59.083 26.7083C59.1372 26.8888 59.4079 27.1234 59.5883 27.1595C61.5915 27.4482 63.5946 27.7009 65.6157 27.9716C65.9045 28.0077 66.1932 28.0618 66.5 28.1159C66.5 31.4906 66.5 34.8111 66.5 38.2218C65.0563 38.4564 63.6307 38.6729 62.187 38.9075C61.3569 39.0338 60.5448 39.1421 59.7147 39.3226C59.5162 39.3587 59.2635 39.5933 59.2094 39.7918C58.4695 42.4446 57.5311 45.0252 55.9791 47.3712C57.4769 49.3201 58.9206 51.2872 60.4004 53.2722ZM33.2771 54.5535C45.0612 54.5355 54.6256 44.953 54.5896 33.2049C54.5535 21.4028 45.0071 11.8744 33.241 11.8925C21.4569 11.9105 11.8924 21.493 11.9285 33.223C11.9465 45.0071 21.529 54.5716 33.2771 54.5535Z" fill="#D1363F"/>
<path d="M33.1689 48.5983C31.5809 42.4806 29.9928 36.363 28.3867 30.1732C31.6531 30.1732 34.8292 30.1732 38.0955 30.1732C36.4894 36.3449 34.9014 42.4626 33.3133 48.5983C33.2953 48.5983 33.2231 48.5983 33.1689 48.5983Z" fill="#D1363F"/>
<path d="M17.9736 30.0107C20.6264 30.0107 23.0807 29.9927 25.535 30.0288C25.7154 30.0288 25.9861 30.3356 26.0403 30.5521C27.105 34.5764 28.1336 38.6007 29.1803 42.625C29.5773 44.195 29.9924 45.747 30.2811 47.3892C26.2207 41.6324 22.1603 35.8938 17.9736 30.0107Z" fill="#D1363F"/>
<path d="M48.5441 30.0107C44.3574 35.9118 40.297 41.6504 36.2186 47.4072C36.1825 47.3891 36.1464 47.3711 36.1104 47.353C36.5254 45.7108 36.9405 44.0686 37.3736 42.4264C38.3842 38.5104 39.4308 34.5944 40.4234 30.6784C40.5497 30.1731 40.7482 29.9926 41.2715 30.0107C43.4371 30.0468 45.6026 30.0287 47.7681 30.0287C47.9667 30.0107 48.1471 30.0107 48.5441 30.0107Z" fill="#D1363F"/>
<path d="M37.2658 27.6287C34.5227 27.6287 31.888 27.6287 29.127 27.6287C30.4624 25.7339 31.7617 23.8932 33.1151 21.9622C34.5227 23.8751 35.8582 25.7158 37.2658 27.6287Z" fill="#D1363F"/>
<path d="M39.5028 26.582C38.1313 24.7052 36.8501 22.9186 35.5146 21.0599C37.987 21.0599 40.333 21.0599 42.8233 21.0599C41.7045 22.9186 40.6397 24.6871 39.5028 26.582Z" fill="#D1363F"/>
<path d="M23.5684 21.0599C26.0587 21.0599 28.4047 21.0599 30.8951 21.0599C29.5416 22.9367 28.2423 24.7052 26.8888 26.582C25.7519 24.7052 24.6872 22.9367 23.5684 21.0599Z" fill="#D1363F"/>
<path d="M24.6509 27.6287C22.3049 27.6287 20.0853 27.6287 17.7393 27.6287C19.0025 25.7699 20.1935 23.9834 21.4568 22.1066C22.5576 23.9834 23.5862 25.7699 24.6509 27.6287Z" fill="#D1363F"/>
<path d="M41.8672 27.6287C42.9319 25.788 43.9425 24.0195 45.0433 22.1066C46.2524 23.9653 47.4254 25.7519 48.6345 27.6287C46.3426 27.6287 44.159 27.6287 41.8672 27.6287Z" fill="#D1363F"/>
</svg>
