<svg width="137" height="23" viewBox="0 0 137 23" fill="none" xmlns="http://www.w3.org/2000/svg">
<g clip-path="url(#clip0_3037_8572)">
<path d="M11.7425 0.841492L15.1994 7.91352L22.931 9.04679L17.3361 14.5518L18.6576 22.3246L11.7425 18.6551L4.82614 22.3246L6.14764 14.5518L0.552734 9.04679L8.28434 7.91352L11.7425 0.841492Z" fill="#FDBF03"/>
</g>
<g clip-path="url(#clip1_3037_8572)">
<path d="M68.4994 0.841492L71.9562 7.91352L79.6878 9.04679L74.0929 14.5518L75.4144 22.3246L68.4994 18.6551L61.583 22.3246L62.9045 14.5518L57.3096 9.04679L65.0412 7.91352L68.4994 0.841492Z" fill="#FDBF03"/>
</g>
<g clip-path="url(#clip2_3037_8572)">
<path d="M40.1205 0.841492L43.5773 7.91352L51.3089 9.04679L45.714 14.5518L47.0355 22.3246L40.1205 18.6551L33.2041 22.3246L34.5256 14.5518L28.9307 9.04679L36.6623 7.91352L40.1205 0.841492Z" fill="#FDBF03"/>
</g>
<g clip-path="url(#clip3_3037_8572)">
<path d="M96.8773 0.841492L100.334 7.91352L108.066 9.04679L102.471 14.5518L103.792 22.3246L96.8773 18.6551L89.9609 22.3246L91.2824 14.5518L85.6875 9.04679L93.4191 7.91352L96.8773 0.841492Z" fill="#FDBF03"/>
</g>
<g clip-path="url(#clip4_3037_8572)">
<path d="M125.255 0.841492L128.712 7.91352L136.444 9.04679L130.849 14.5518L132.17 22.3246L125.255 18.6551L118.339 22.3246L119.66 14.5518L114.065 9.04679L121.797 7.91352L125.255 0.841492Z" fill="#FDBF03"/>
</g>
<defs>
<clipPath id="clip0_3037_8572">
<rect width="22.3783" height="21.4831" fill="white" transform="translate(0.552734 0.841492)"/>
</clipPath>
<clipPath id="clip1_3037_8572">
<rect width="22.3783" height="21.4831" fill="white" transform="translate(57.3096 0.841492)"/>
</clipPath>
<clipPath id="clip2_3037_8572">
<rect width="22.3783" height="21.4831" fill="white" transform="translate(28.9307 0.841492)"/>
</clipPath>
<clipPath id="clip3_3037_8572">
<rect width="22.3783" height="21.4831" fill="white" transform="translate(85.6875 0.841492)"/>
</clipPath>
<clipPath id="clip4_3037_8572">
<rect width="22.3783" height="21.4831" fill="white" transform="translate(114.065 0.841492)"/>
</clipPath>
</defs>
</svg>
