<svg width="23" height="28" viewBox="0 0 23 28" fill="none" xmlns="http://www.w3.org/2000/svg">
<path d="M17.9042 18.8544C17.0492 18.8544 16.2527 19.0916 15.5811 19.4994L8.803 14.9844C8.91182 14.622 8.97131 14.2397 8.97131 13.844C8.97131 13.4482 8.91182 13.0659 8.803 12.7035L15.3981 8.31039C16.1057 8.78995 16.9701 9.07289 17.9042 9.07289C20.2976 9.07289 22.238 7.22161 22.238 4.93799C22.238 2.65438 20.2977 0.80304 17.9042 0.80304C15.5108 0.80304 13.5704 2.65432 13.5704 4.93794C13.5704 5.23953 13.6052 5.53326 13.6695 5.81649L6.90688 10.3212C6.24677 9.93331 5.46972 9.70908 4.63751 9.70908C2.24405 9.70908 0.303711 11.5604 0.303711 13.844C0.303711 16.1276 2.24399 17.9789 4.63751 17.9789C5.46966 17.9789 6.24677 17.7546 6.90688 17.3667L13.7217 21.9062C13.6237 22.2516 13.5704 22.6145 13.5704 22.9893C13.5704 25.2729 15.5108 27.1242 17.9042 27.1242C20.2977 27.1242 22.238 25.2729 22.238 22.9893C22.238 20.7057 20.2977 18.8544 17.9042 18.8544Z" fill="#14112C"/>
</svg>
