<svg width="54" height="54" viewBox="0 0 54 54" fill="none" xmlns="http://www.w3.org/2000/svg">
<ellipse cx="26.6769" cy="26.6809" rx="26.6769" ry="26.6809" fill="#11D100"/>
<path fill-rule="evenodd" clip-rule="evenodd" d="M35.4686 17.7331C33.1288 15.3903 30.0171 14.0995 26.7021 14.0981C19.8712 14.0981 14.3118 19.6582 14.309 26.4919C14.3081 28.6765 14.8787 30.809 15.9633 32.6887L14.2051 39.1115L20.7748 37.3878C22.5851 38.3754 24.623 38.8959 26.697 38.8965H26.7022C33.5324 38.8965 39.0924 33.336 39.095 26.5019C39.0963 23.1899 37.8085 20.0759 35.4686 17.7331ZM26.7021 36.8032H26.6978C24.8496 36.8025 23.0369 36.3057 21.4552 35.3672L21.0792 35.1439L17.1806 36.1668L18.2212 32.3651L17.9762 31.9754C16.9451 30.3351 16.4006 28.4392 16.4015 26.4927C16.4036 20.8126 21.0246 16.1915 26.7062 16.1915C29.4575 16.1924 32.0438 17.2654 33.9885 19.2127C35.9332 21.16 37.0036 23.7483 37.0027 26.5011C37.0002 32.1816 32.3796 36.8032 26.7021 36.8032ZM32.3521 29.0875C32.0426 28.9324 30.5201 28.1834 30.2361 28.0799C29.9525 27.9765 29.7458 27.9251 29.5396 28.235C29.3331 28.5449 28.7398 29.2426 28.559 29.4492C28.3783 29.6559 28.1979 29.6818 27.8881 29.5267C27.5784 29.3718 26.5807 29.0446 25.3979 27.9895C24.4774 27.1683 23.856 26.1541 23.6753 25.8442C23.4948 25.5339 23.6737 25.3825 23.8111 25.2121C24.1463 24.7958 24.482 24.3593 24.5852 24.1527C24.6885 23.946 24.6368 23.7651 24.5592 23.6102C24.482 23.4552 23.8627 21.9308 23.6047 21.3105C23.3532 20.7068 23.0981 20.7884 22.9079 20.7789C22.7275 20.7699 22.5209 20.7681 22.3144 20.7681C22.108 20.7681 21.7725 20.8455 21.4886 21.1557C21.2048 21.4658 20.405 22.2149 20.405 23.7393C20.405 25.2637 21.5145 26.7364 21.6693 26.9431C21.8241 27.1498 23.8529 30.278 26.9591 31.6194C27.6979 31.9387 28.2746 32.1291 28.7245 32.2719C29.4664 32.5076 30.1412 32.4743 30.6749 32.3946C31.2699 32.3056 32.5068 31.6453 32.765 30.922C33.023 30.1985 33.023 29.5785 32.9455 29.4492C32.8682 29.32 32.6617 29.2426 32.3521 29.0875Z" fill="white"/>
</svg>
